G04 EAGLE Gerber RS-274X export*
G75*
%MOMM*%
%FSLAX34Y34*%
%LPD*%
%INBottom Copper*%
%IPPOS*%
%AMOC8*
5,1,8,0,0,1.08239X$1,22.5*%
G01*
%ADD10C,1.879600*%
%ADD11C,0.706400*%
%ADD12C,0.200000*%
%ADD13C,0.609600*%

G36*
X105340Y1917D02*
X105340Y1917D01*
X105412Y1919D01*
X105461Y1937D01*
X105512Y1945D01*
X105575Y1979D01*
X105643Y2004D01*
X105683Y2036D01*
X105730Y2061D01*
X105779Y2113D01*
X105835Y2157D01*
X105863Y2201D01*
X105899Y2239D01*
X105929Y2304D01*
X105968Y2364D01*
X105981Y2415D01*
X106003Y2462D01*
X106010Y2533D01*
X106028Y2603D01*
X106024Y2655D01*
X106030Y2706D01*
X106014Y2777D01*
X106009Y2848D01*
X105988Y2896D01*
X105977Y2947D01*
X105941Y3008D01*
X105912Y3074D01*
X105868Y3130D01*
X105851Y3158D01*
X105833Y3173D01*
X105808Y3205D01*
X103770Y5243D01*
X102107Y9257D01*
X102107Y13603D01*
X103770Y17617D01*
X106843Y20690D01*
X110857Y22353D01*
X115203Y22353D01*
X118395Y21030D01*
X118509Y21004D01*
X118622Y20975D01*
X118629Y20976D01*
X118635Y20974D01*
X118751Y20985D01*
X118868Y20994D01*
X118873Y20997D01*
X118880Y20997D01*
X118987Y21045D01*
X119094Y21091D01*
X119100Y21095D01*
X119104Y21097D01*
X119118Y21110D01*
X119225Y21195D01*
X122982Y24953D01*
X124684Y26655D01*
X162263Y26655D01*
X162353Y26669D01*
X162444Y26677D01*
X162474Y26689D01*
X162506Y26694D01*
X162586Y26737D01*
X162670Y26773D01*
X162702Y26799D01*
X162723Y26810D01*
X162745Y26833D01*
X162801Y26878D01*
X171036Y35113D01*
X171089Y35187D01*
X171149Y35256D01*
X171161Y35286D01*
X171180Y35313D01*
X171207Y35400D01*
X171241Y35484D01*
X171245Y35525D01*
X171252Y35548D01*
X171251Y35580D01*
X171259Y35651D01*
X171259Y99811D01*
X171248Y99882D01*
X171246Y99953D01*
X171228Y100002D01*
X171220Y100054D01*
X171186Y100117D01*
X171161Y100184D01*
X171129Y100225D01*
X171104Y100271D01*
X171052Y100320D01*
X171008Y100376D01*
X170964Y100405D01*
X170926Y100440D01*
X170861Y100471D01*
X170801Y100509D01*
X170750Y100522D01*
X170703Y100544D01*
X170632Y100552D01*
X170562Y100569D01*
X170510Y100565D01*
X170459Y100571D01*
X170388Y100556D01*
X170317Y100550D01*
X170269Y100530D01*
X170218Y100519D01*
X170157Y100482D01*
X170091Y100454D01*
X170035Y100409D01*
X170007Y100393D01*
X169992Y100375D01*
X169960Y100349D01*
X164876Y95265D01*
X158612Y95265D01*
X158522Y95251D01*
X158431Y95243D01*
X158401Y95231D01*
X158369Y95226D01*
X158288Y95183D01*
X158205Y95147D01*
X158172Y95121D01*
X158152Y95110D01*
X158130Y95087D01*
X158074Y95042D01*
X155765Y92733D01*
X151575Y92733D01*
X148613Y95695D01*
X148613Y99885D01*
X151575Y102847D01*
X155765Y102847D01*
X158074Y100538D01*
X158148Y100485D01*
X158217Y100425D01*
X158247Y100413D01*
X158273Y100394D01*
X158360Y100367D01*
X158445Y100333D01*
X158486Y100329D01*
X158508Y100322D01*
X158541Y100323D01*
X158612Y100315D01*
X162469Y100315D01*
X162559Y100329D01*
X162650Y100337D01*
X162680Y100349D01*
X162712Y100354D01*
X162792Y100397D01*
X162876Y100433D01*
X162908Y100459D01*
X162929Y100470D01*
X162951Y100493D01*
X163007Y100538D01*
X167512Y105043D01*
X167565Y105117D01*
X167625Y105186D01*
X167637Y105216D01*
X167656Y105243D01*
X167683Y105330D01*
X167717Y105414D01*
X167721Y105455D01*
X167728Y105478D01*
X167727Y105510D01*
X167735Y105581D01*
X167735Y121934D01*
X171036Y125235D01*
X171089Y125309D01*
X171149Y125378D01*
X171161Y125408D01*
X171180Y125434D01*
X171207Y125521D01*
X171241Y125606D01*
X171245Y125647D01*
X171252Y125669D01*
X171251Y125702D01*
X171259Y125773D01*
X171259Y191885D01*
X171245Y191975D01*
X171237Y192066D01*
X171225Y192096D01*
X171220Y192128D01*
X171177Y192208D01*
X171141Y192292D01*
X171115Y192324D01*
X171104Y192345D01*
X171081Y192367D01*
X171036Y192423D01*
X160035Y203424D01*
X160035Y206272D01*
X160032Y206292D01*
X160034Y206311D01*
X160012Y206413D01*
X159996Y206515D01*
X159986Y206532D01*
X159982Y206552D01*
X159929Y206641D01*
X159880Y206732D01*
X159866Y206746D01*
X159856Y206763D01*
X159777Y206830D01*
X159702Y206902D01*
X159684Y206910D01*
X159669Y206923D01*
X159573Y206962D01*
X159479Y207005D01*
X159459Y207007D01*
X159441Y207015D01*
X159274Y207033D01*
X157925Y207033D01*
X154963Y209995D01*
X154963Y214185D01*
X157925Y217147D01*
X162115Y217147D01*
X165077Y214185D01*
X165077Y210919D01*
X165085Y210870D01*
X165085Y205831D01*
X165099Y205741D01*
X165107Y205650D01*
X165119Y205620D01*
X165124Y205588D01*
X165167Y205508D01*
X165203Y205424D01*
X165229Y205392D01*
X165240Y205371D01*
X165263Y205349D01*
X165308Y205293D01*
X176309Y194292D01*
X176309Y192903D01*
X176309Y192899D01*
X176309Y192895D01*
X176329Y192778D01*
X176348Y192661D01*
X176350Y192657D01*
X176351Y192653D01*
X176408Y192549D01*
X176464Y192443D01*
X176466Y192440D01*
X176468Y192437D01*
X176556Y192356D01*
X176642Y192274D01*
X176646Y192272D01*
X176648Y192269D01*
X176757Y192220D01*
X176865Y192170D01*
X176869Y192170D01*
X176873Y192168D01*
X176992Y192156D01*
X177109Y192143D01*
X177113Y192144D01*
X177117Y192143D01*
X177233Y192170D01*
X177350Y192195D01*
X177353Y192197D01*
X177357Y192198D01*
X177458Y192260D01*
X177561Y192321D01*
X177563Y192324D01*
X177567Y192327D01*
X177643Y192418D01*
X177721Y192508D01*
X177722Y192512D01*
X177725Y192515D01*
X177794Y192668D01*
X178166Y193813D01*
X179019Y195487D01*
X180124Y197008D01*
X181452Y198336D01*
X182973Y199441D01*
X184647Y200294D01*
X186434Y200875D01*
X187707Y201076D01*
X187707Y189992D01*
X187710Y189972D01*
X187708Y189953D01*
X187730Y189851D01*
X187747Y189749D01*
X187756Y189732D01*
X187760Y189712D01*
X187813Y189623D01*
X187862Y189532D01*
X187876Y189518D01*
X187886Y189501D01*
X187965Y189434D01*
X188040Y189363D01*
X188058Y189354D01*
X188073Y189341D01*
X188169Y189303D01*
X188263Y189259D01*
X188283Y189257D01*
X188301Y189249D01*
X188468Y189231D01*
X189992Y189231D01*
X190012Y189234D01*
X190031Y189232D01*
X190133Y189254D01*
X190235Y189271D01*
X190252Y189280D01*
X190272Y189284D01*
X190361Y189337D01*
X190452Y189386D01*
X190466Y189400D01*
X190483Y189410D01*
X190550Y189489D01*
X190621Y189564D01*
X190630Y189582D01*
X190643Y189597D01*
X190682Y189693D01*
X190725Y189787D01*
X190727Y189807D01*
X190735Y189825D01*
X190753Y189992D01*
X190753Y201076D01*
X192026Y200875D01*
X193813Y200294D01*
X195487Y199441D01*
X197008Y198336D01*
X197455Y197889D01*
X197513Y197847D01*
X197565Y197798D01*
X197612Y197776D01*
X197654Y197746D01*
X197723Y197725D01*
X197788Y197694D01*
X197840Y197689D01*
X197890Y197673D01*
X197961Y197675D01*
X198032Y197667D01*
X198083Y197678D01*
X198135Y197680D01*
X198203Y197704D01*
X198273Y197719D01*
X198318Y197746D01*
X198366Y197764D01*
X198422Y197809D01*
X198484Y197846D01*
X198518Y197885D01*
X198558Y197918D01*
X198597Y197978D01*
X198644Y198033D01*
X198663Y198081D01*
X198691Y198125D01*
X198709Y198194D01*
X198736Y198261D01*
X198744Y198332D01*
X198752Y198363D01*
X198750Y198387D01*
X198754Y198427D01*
X198754Y206869D01*
X198743Y206940D01*
X198741Y207012D01*
X198723Y207061D01*
X198715Y207112D01*
X198681Y207175D01*
X198656Y207243D01*
X198624Y207283D01*
X198599Y207330D01*
X198547Y207379D01*
X198503Y207435D01*
X198459Y207463D01*
X198421Y207499D01*
X198356Y207529D01*
X198296Y207568D01*
X198245Y207581D01*
X198198Y207603D01*
X198127Y207610D01*
X198057Y207628D01*
X198005Y207624D01*
X197954Y207630D01*
X197883Y207614D01*
X197812Y207609D01*
X197764Y207588D01*
X197713Y207577D01*
X197652Y207541D01*
X197586Y207512D01*
X197530Y207468D01*
X197502Y207451D01*
X197487Y207433D01*
X197455Y207408D01*
X195417Y205370D01*
X191403Y203707D01*
X187057Y203707D01*
X183043Y205370D01*
X179970Y208443D01*
X179496Y209587D01*
X179434Y209687D01*
X179375Y209787D01*
X179370Y209791D01*
X179366Y209796D01*
X179276Y209871D01*
X179188Y209947D01*
X179182Y209949D01*
X179177Y209953D01*
X179069Y209995D01*
X178959Y210039D01*
X178952Y210040D01*
X178947Y210041D01*
X178929Y210042D01*
X178793Y210057D01*
X173397Y210057D01*
X170495Y212959D01*
X162190Y221264D01*
X162116Y221317D01*
X162046Y221377D01*
X162016Y221389D01*
X161990Y221408D01*
X161903Y221435D01*
X161818Y221469D01*
X161777Y221473D01*
X161755Y221480D01*
X161723Y221479D01*
X161651Y221487D01*
X43055Y221487D01*
X42965Y221473D01*
X42874Y221465D01*
X42845Y221453D01*
X42813Y221448D01*
X42732Y221405D01*
X42648Y221369D01*
X42616Y221343D01*
X42595Y221332D01*
X42573Y221309D01*
X42517Y221264D01*
X38022Y216769D01*
X37969Y216695D01*
X37909Y216625D01*
X37897Y216595D01*
X37878Y216569D01*
X37851Y216482D01*
X37817Y216397D01*
X37813Y216356D01*
X37806Y216334D01*
X37807Y216302D01*
X37799Y216231D01*
X37799Y178054D01*
X37802Y178034D01*
X37800Y178015D01*
X37822Y177913D01*
X37838Y177811D01*
X37848Y177794D01*
X37852Y177774D01*
X37905Y177685D01*
X37954Y177594D01*
X37968Y177580D01*
X37978Y177563D01*
X38057Y177496D01*
X38132Y177424D01*
X38150Y177416D01*
X38165Y177403D01*
X38261Y177364D01*
X38355Y177321D01*
X38375Y177319D01*
X38393Y177311D01*
X38560Y177293D01*
X46636Y177293D01*
X46726Y177307D01*
X46817Y177315D01*
X46847Y177327D01*
X46879Y177332D01*
X46960Y177375D01*
X47043Y177411D01*
X47076Y177437D01*
X47096Y177448D01*
X47118Y177471D01*
X47174Y177516D01*
X47435Y177777D01*
X51625Y177777D01*
X54587Y174815D01*
X54587Y170625D01*
X51625Y167663D01*
X47435Y167663D01*
X47174Y167924D01*
X47100Y167977D01*
X47031Y168037D01*
X47001Y168049D01*
X46975Y168068D01*
X46888Y168095D01*
X46803Y168129D01*
X46762Y168133D01*
X46740Y168140D01*
X46707Y168139D01*
X46636Y168147D01*
X38354Y168147D01*
X38334Y168144D01*
X38315Y168146D01*
X38213Y168124D01*
X38111Y168108D01*
X38094Y168098D01*
X38074Y168094D01*
X37985Y168041D01*
X37894Y167992D01*
X37880Y167978D01*
X37863Y167968D01*
X37796Y167889D01*
X37724Y167814D01*
X37716Y167796D01*
X37703Y167781D01*
X37664Y167685D01*
X37621Y167591D01*
X37619Y167571D01*
X37611Y167553D01*
X37593Y167386D01*
X37593Y44704D01*
X37596Y44684D01*
X37594Y44665D01*
X37616Y44563D01*
X37632Y44461D01*
X37642Y44444D01*
X37646Y44424D01*
X37699Y44335D01*
X37748Y44244D01*
X37762Y44230D01*
X37772Y44213D01*
X37851Y44146D01*
X37926Y44074D01*
X37944Y44066D01*
X37959Y44053D01*
X38055Y44014D01*
X38149Y43971D01*
X38169Y43969D01*
X38187Y43961D01*
X38354Y43943D01*
X76824Y43943D01*
X92203Y28564D01*
X92203Y21867D01*
X92222Y21752D01*
X92239Y21636D01*
X92241Y21631D01*
X92242Y21624D01*
X92297Y21522D01*
X92350Y21417D01*
X92355Y21413D01*
X92358Y21407D01*
X92442Y21327D01*
X92526Y21245D01*
X92532Y21241D01*
X92536Y21238D01*
X92553Y21230D01*
X92673Y21164D01*
X93817Y20690D01*
X96890Y17617D01*
X98553Y13603D01*
X98553Y9257D01*
X96890Y5243D01*
X94852Y3205D01*
X94810Y3147D01*
X94761Y3095D01*
X94739Y3048D01*
X94709Y3006D01*
X94688Y2937D01*
X94657Y2872D01*
X94652Y2820D01*
X94636Y2770D01*
X94638Y2699D01*
X94630Y2628D01*
X94641Y2577D01*
X94643Y2525D01*
X94667Y2457D01*
X94683Y2387D01*
X94709Y2342D01*
X94727Y2294D01*
X94772Y2238D01*
X94809Y2176D01*
X94848Y2142D01*
X94881Y2102D01*
X94941Y2063D01*
X94996Y2016D01*
X95044Y1997D01*
X95088Y1969D01*
X95157Y1951D01*
X95224Y1924D01*
X95295Y1916D01*
X95326Y1908D01*
X95350Y1910D01*
X95391Y1906D01*
X105269Y1906D01*
X105340Y1917D01*
G37*
G36*
X178908Y219222D02*
X178908Y219222D01*
X179024Y219239D01*
X179029Y219241D01*
X179036Y219242D01*
X179138Y219297D01*
X179243Y219350D01*
X179247Y219355D01*
X179253Y219358D01*
X179333Y219442D01*
X179415Y219526D01*
X179419Y219532D01*
X179422Y219536D01*
X179430Y219553D01*
X179496Y219673D01*
X179970Y220817D01*
X183043Y223890D01*
X187057Y225553D01*
X191403Y225553D01*
X195417Y223890D01*
X197455Y221852D01*
X197513Y221810D01*
X197565Y221761D01*
X197612Y221739D01*
X197654Y221709D01*
X197723Y221688D01*
X197788Y221657D01*
X197840Y221652D01*
X197890Y221636D01*
X197961Y221638D01*
X198032Y221630D01*
X198083Y221641D01*
X198135Y221643D01*
X198203Y221667D01*
X198273Y221683D01*
X198318Y221709D01*
X198366Y221727D01*
X198422Y221772D01*
X198484Y221809D01*
X198518Y221848D01*
X198558Y221881D01*
X198597Y221941D01*
X198644Y221996D01*
X198663Y222044D01*
X198691Y222088D01*
X198709Y222157D01*
X198736Y222224D01*
X198744Y222295D01*
X198752Y222326D01*
X198750Y222350D01*
X198754Y222391D01*
X198754Y232269D01*
X198743Y232340D01*
X198741Y232412D01*
X198723Y232461D01*
X198715Y232512D01*
X198681Y232575D01*
X198656Y232643D01*
X198624Y232683D01*
X198599Y232730D01*
X198547Y232779D01*
X198503Y232835D01*
X198459Y232863D01*
X198421Y232899D01*
X198356Y232929D01*
X198296Y232968D01*
X198245Y232981D01*
X198198Y233003D01*
X198127Y233010D01*
X198057Y233028D01*
X198005Y233024D01*
X197954Y233030D01*
X197883Y233014D01*
X197812Y233009D01*
X197764Y232988D01*
X197713Y232977D01*
X197652Y232941D01*
X197586Y232912D01*
X197530Y232868D01*
X197502Y232851D01*
X197487Y232833D01*
X197455Y232808D01*
X195417Y230770D01*
X191403Y229107D01*
X187057Y229107D01*
X183043Y230770D01*
X179970Y233843D01*
X178307Y237857D01*
X178307Y242203D01*
X179970Y246217D01*
X183043Y249290D01*
X183331Y249409D01*
X183370Y249434D01*
X183413Y249449D01*
X183474Y249498D01*
X183540Y249539D01*
X183570Y249574D01*
X183605Y249603D01*
X183648Y249668D01*
X183697Y249728D01*
X183714Y249771D01*
X183738Y249810D01*
X183757Y249885D01*
X183785Y249958D01*
X183787Y250004D01*
X183799Y250048D01*
X183792Y250126D01*
X183796Y250204D01*
X183783Y250248D01*
X183779Y250294D01*
X183749Y250365D01*
X183727Y250440D01*
X183701Y250478D01*
X183683Y250520D01*
X183598Y250627D01*
X183587Y250642D01*
X183583Y250645D01*
X183578Y250651D01*
X174783Y259446D01*
X174783Y270911D01*
X174769Y271001D01*
X174761Y271092D01*
X174749Y271122D01*
X174744Y271154D01*
X174701Y271234D01*
X174665Y271318D01*
X174639Y271350D01*
X174628Y271371D01*
X174605Y271393D01*
X174560Y271449D01*
X168087Y277922D01*
X168013Y277975D01*
X167944Y278035D01*
X167914Y278047D01*
X167887Y278066D01*
X167800Y278093D01*
X167716Y278127D01*
X167675Y278131D01*
X167652Y278138D01*
X167620Y278137D01*
X167549Y278145D01*
X158612Y278145D01*
X158522Y278131D01*
X158431Y278123D01*
X158401Y278111D01*
X158369Y278106D01*
X158288Y278063D01*
X158205Y278027D01*
X158172Y278001D01*
X158152Y277990D01*
X158130Y277967D01*
X158074Y277922D01*
X155765Y275613D01*
X151575Y275613D01*
X148613Y278575D01*
X148613Y282765D01*
X151575Y285727D01*
X155765Y285727D01*
X158074Y283418D01*
X158148Y283365D01*
X158217Y283305D01*
X158247Y283293D01*
X158273Y283274D01*
X158360Y283247D01*
X158445Y283213D01*
X158486Y283209D01*
X158508Y283202D01*
X158541Y283203D01*
X158612Y283195D01*
X166977Y283195D01*
X167047Y283206D01*
X167119Y283208D01*
X167168Y283226D01*
X167219Y283234D01*
X167283Y283268D01*
X167350Y283293D01*
X167391Y283325D01*
X167437Y283350D01*
X167486Y283402D01*
X167542Y283446D01*
X167570Y283490D01*
X167606Y283528D01*
X167636Y283593D01*
X167675Y283653D01*
X167688Y283704D01*
X167710Y283751D01*
X167718Y283822D01*
X167735Y283892D01*
X167731Y283944D01*
X167737Y283995D01*
X167722Y284066D01*
X167716Y284137D01*
X167696Y284185D01*
X167685Y284236D01*
X167648Y284297D01*
X167620Y284363D01*
X167575Y284419D01*
X167558Y284447D01*
X167541Y284462D01*
X167515Y284494D01*
X161387Y290622D01*
X161313Y290675D01*
X161243Y290735D01*
X161213Y290747D01*
X161187Y290766D01*
X161100Y290793D01*
X161015Y290827D01*
X160974Y290831D01*
X160952Y290838D01*
X160920Y290837D01*
X160849Y290845D01*
X158612Y290845D01*
X158522Y290831D01*
X158431Y290823D01*
X158401Y290811D01*
X158369Y290806D01*
X158288Y290763D01*
X158205Y290727D01*
X158172Y290701D01*
X158152Y290690D01*
X158130Y290667D01*
X158074Y290622D01*
X155765Y288313D01*
X151575Y288313D01*
X148613Y291275D01*
X148613Y295465D01*
X151575Y298427D01*
X155765Y298427D01*
X158074Y296118D01*
X158148Y296065D01*
X158217Y296005D01*
X158247Y295993D01*
X158273Y295974D01*
X158360Y295947D01*
X158445Y295913D01*
X158486Y295909D01*
X158508Y295902D01*
X158541Y295903D01*
X158612Y295895D01*
X163255Y295895D01*
X183685Y275465D01*
X183780Y275397D01*
X183874Y275327D01*
X183880Y275325D01*
X183885Y275321D01*
X183996Y275287D01*
X184108Y275251D01*
X184114Y275251D01*
X184120Y275249D01*
X184237Y275252D01*
X184354Y275253D01*
X184361Y275255D01*
X184366Y275255D01*
X184384Y275262D01*
X184515Y275300D01*
X187057Y276353D01*
X191403Y276353D01*
X195417Y274690D01*
X197455Y272652D01*
X197513Y272610D01*
X197565Y272561D01*
X197612Y272539D01*
X197654Y272509D01*
X197723Y272488D01*
X197788Y272457D01*
X197840Y272452D01*
X197890Y272436D01*
X197961Y272438D01*
X198032Y272430D01*
X198083Y272441D01*
X198135Y272443D01*
X198203Y272467D01*
X198273Y272483D01*
X198318Y272509D01*
X198366Y272527D01*
X198422Y272572D01*
X198484Y272609D01*
X198518Y272648D01*
X198558Y272681D01*
X198597Y272741D01*
X198644Y272796D01*
X198663Y272844D01*
X198691Y272888D01*
X198709Y272957D01*
X198736Y273024D01*
X198744Y273095D01*
X198752Y273126D01*
X198750Y273150D01*
X198754Y273191D01*
X198754Y283069D01*
X198743Y283140D01*
X198741Y283212D01*
X198723Y283261D01*
X198715Y283312D01*
X198681Y283375D01*
X198656Y283443D01*
X198624Y283483D01*
X198599Y283530D01*
X198547Y283579D01*
X198503Y283635D01*
X198459Y283663D01*
X198421Y283699D01*
X198356Y283729D01*
X198296Y283768D01*
X198245Y283781D01*
X198198Y283803D01*
X198127Y283810D01*
X198057Y283828D01*
X198005Y283824D01*
X197954Y283830D01*
X197883Y283814D01*
X197812Y283809D01*
X197764Y283788D01*
X197713Y283777D01*
X197652Y283741D01*
X197586Y283712D01*
X197530Y283668D01*
X197502Y283651D01*
X197487Y283633D01*
X197455Y283608D01*
X195417Y281570D01*
X191403Y279907D01*
X187057Y279907D01*
X183043Y281570D01*
X179970Y284643D01*
X178307Y288657D01*
X178307Y293003D01*
X179970Y297017D01*
X183043Y300090D01*
X187057Y301753D01*
X191403Y301753D01*
X195417Y300090D01*
X197455Y298052D01*
X197513Y298010D01*
X197565Y297961D01*
X197612Y297939D01*
X197654Y297909D01*
X197723Y297888D01*
X197788Y297857D01*
X197840Y297852D01*
X197890Y297836D01*
X197961Y297838D01*
X198032Y297830D01*
X198083Y297841D01*
X198135Y297843D01*
X198203Y297867D01*
X198273Y297883D01*
X198318Y297909D01*
X198366Y297927D01*
X198422Y297972D01*
X198484Y298009D01*
X198518Y298048D01*
X198558Y298081D01*
X198597Y298141D01*
X198644Y298196D01*
X198663Y298244D01*
X198691Y298288D01*
X198709Y298357D01*
X198736Y298424D01*
X198744Y298495D01*
X198752Y298526D01*
X198750Y298550D01*
X198754Y298591D01*
X198754Y308469D01*
X198743Y308540D01*
X198741Y308612D01*
X198723Y308661D01*
X198715Y308712D01*
X198681Y308775D01*
X198656Y308843D01*
X198624Y308883D01*
X198599Y308930D01*
X198547Y308979D01*
X198503Y309035D01*
X198459Y309063D01*
X198421Y309099D01*
X198356Y309129D01*
X198296Y309168D01*
X198245Y309181D01*
X198198Y309203D01*
X198127Y309210D01*
X198057Y309228D01*
X198005Y309224D01*
X197954Y309230D01*
X197883Y309214D01*
X197812Y309209D01*
X197764Y309188D01*
X197713Y309177D01*
X197652Y309141D01*
X197586Y309112D01*
X197530Y309068D01*
X197502Y309051D01*
X197487Y309033D01*
X197455Y309008D01*
X195417Y306970D01*
X191403Y305307D01*
X187057Y305307D01*
X183043Y306970D01*
X179970Y310043D01*
X178307Y314057D01*
X178307Y318403D01*
X179970Y322417D01*
X183043Y325490D01*
X187057Y327153D01*
X191403Y327153D01*
X195417Y325490D01*
X197455Y323452D01*
X197513Y323410D01*
X197565Y323361D01*
X197612Y323339D01*
X197654Y323309D01*
X197723Y323288D01*
X197788Y323257D01*
X197840Y323252D01*
X197890Y323236D01*
X197961Y323238D01*
X198032Y323230D01*
X198083Y323241D01*
X198135Y323243D01*
X198203Y323267D01*
X198273Y323283D01*
X198318Y323309D01*
X198366Y323327D01*
X198422Y323372D01*
X198484Y323409D01*
X198518Y323448D01*
X198558Y323481D01*
X198597Y323541D01*
X198644Y323596D01*
X198663Y323644D01*
X198691Y323688D01*
X198709Y323757D01*
X198736Y323824D01*
X198744Y323895D01*
X198752Y323926D01*
X198750Y323950D01*
X198754Y323991D01*
X198754Y333869D01*
X198743Y333940D01*
X198741Y334012D01*
X198723Y334061D01*
X198715Y334112D01*
X198681Y334175D01*
X198656Y334243D01*
X198624Y334283D01*
X198599Y334330D01*
X198547Y334379D01*
X198503Y334435D01*
X198459Y334463D01*
X198421Y334499D01*
X198356Y334529D01*
X198296Y334568D01*
X198245Y334581D01*
X198198Y334603D01*
X198127Y334610D01*
X198057Y334628D01*
X198005Y334624D01*
X197954Y334630D01*
X197883Y334614D01*
X197812Y334609D01*
X197764Y334588D01*
X197713Y334577D01*
X197652Y334541D01*
X197586Y334512D01*
X197530Y334468D01*
X197502Y334451D01*
X197487Y334433D01*
X197455Y334408D01*
X195417Y332370D01*
X191403Y330707D01*
X187057Y330707D01*
X183043Y332370D01*
X179970Y335443D01*
X178307Y339457D01*
X178307Y343803D01*
X179970Y347817D01*
X182008Y349855D01*
X182050Y349913D01*
X182099Y349965D01*
X182121Y350012D01*
X182151Y350054D01*
X182172Y350123D01*
X182203Y350188D01*
X182208Y350240D01*
X182224Y350290D01*
X182222Y350361D01*
X182230Y350432D01*
X182219Y350483D01*
X182217Y350535D01*
X182193Y350603D01*
X182177Y350673D01*
X182151Y350718D01*
X182133Y350766D01*
X182088Y350822D01*
X182051Y350884D01*
X182012Y350918D01*
X181979Y350958D01*
X181919Y350997D01*
X181864Y351044D01*
X181816Y351063D01*
X181772Y351091D01*
X181703Y351109D01*
X181636Y351136D01*
X181565Y351144D01*
X181534Y351152D01*
X181510Y351150D01*
X181469Y351154D01*
X20627Y351154D01*
X20557Y351143D01*
X20485Y351141D01*
X20436Y351123D01*
X20385Y351115D01*
X20321Y351081D01*
X20254Y351056D01*
X20213Y351024D01*
X20167Y350999D01*
X20118Y350947D01*
X20062Y350903D01*
X20034Y350859D01*
X19998Y350821D01*
X19968Y350756D01*
X19929Y350696D01*
X19916Y350645D01*
X19894Y350598D01*
X19886Y350527D01*
X19869Y350457D01*
X19873Y350405D01*
X19867Y350354D01*
X19882Y350283D01*
X19888Y350212D01*
X19908Y350164D01*
X19919Y350113D01*
X19956Y350052D01*
X19984Y349986D01*
X20029Y349930D01*
X20046Y349902D01*
X20063Y349887D01*
X20089Y349855D01*
X20536Y349408D01*
X21641Y347887D01*
X22494Y346213D01*
X23075Y344426D01*
X23276Y343153D01*
X12192Y343153D01*
X12172Y343150D01*
X12153Y343152D01*
X12051Y343130D01*
X11949Y343113D01*
X11932Y343104D01*
X11912Y343100D01*
X11823Y343047D01*
X11732Y342998D01*
X11718Y342984D01*
X11701Y342974D01*
X11634Y342895D01*
X11563Y342820D01*
X11554Y342802D01*
X11541Y342787D01*
X11503Y342691D01*
X11459Y342597D01*
X11457Y342577D01*
X11449Y342559D01*
X11431Y342392D01*
X11431Y341629D01*
X10668Y341629D01*
X10648Y341626D01*
X10629Y341628D01*
X10527Y341606D01*
X10425Y341589D01*
X10408Y341580D01*
X10388Y341576D01*
X10299Y341523D01*
X10208Y341474D01*
X10194Y341460D01*
X10177Y341450D01*
X10110Y341371D01*
X10039Y341296D01*
X10030Y341278D01*
X10017Y341263D01*
X9978Y341167D01*
X9935Y341073D01*
X9933Y341053D01*
X9925Y341035D01*
X9907Y340868D01*
X9907Y329784D01*
X8634Y329985D01*
X6847Y330566D01*
X5173Y331419D01*
X3652Y332524D01*
X3205Y332971D01*
X3147Y333013D01*
X3095Y333062D01*
X3048Y333084D01*
X3006Y333114D01*
X2937Y333135D01*
X2872Y333166D01*
X2820Y333171D01*
X2770Y333187D01*
X2699Y333185D01*
X2628Y333193D01*
X2577Y333182D01*
X2525Y333180D01*
X2457Y333156D01*
X2387Y333141D01*
X2342Y333114D01*
X2294Y333096D01*
X2238Y333051D01*
X2176Y333014D01*
X2142Y332975D01*
X2102Y332942D01*
X2063Y332882D01*
X2016Y332827D01*
X1997Y332779D01*
X1969Y332735D01*
X1951Y332666D01*
X1924Y332599D01*
X1916Y332528D01*
X1908Y332497D01*
X1910Y332473D01*
X1906Y332433D01*
X1906Y323991D01*
X1917Y323920D01*
X1919Y323848D01*
X1937Y323799D01*
X1945Y323748D01*
X1979Y323685D01*
X2004Y323617D01*
X2036Y323577D01*
X2061Y323530D01*
X2113Y323481D01*
X2157Y323425D01*
X2201Y323397D01*
X2239Y323361D01*
X2304Y323331D01*
X2364Y323292D01*
X2415Y323279D01*
X2462Y323257D01*
X2533Y323250D01*
X2603Y323232D01*
X2655Y323236D01*
X2706Y323230D01*
X2777Y323246D01*
X2848Y323251D01*
X2896Y323272D01*
X2947Y323283D01*
X3008Y323319D01*
X3074Y323348D01*
X3130Y323392D01*
X3158Y323409D01*
X3173Y323427D01*
X3205Y323452D01*
X5243Y325490D01*
X9257Y327153D01*
X13603Y327153D01*
X17617Y325490D01*
X20690Y322417D01*
X22012Y319225D01*
X22074Y319125D01*
X22134Y319025D01*
X22139Y319021D01*
X22142Y319016D01*
X22232Y318941D01*
X22321Y318865D01*
X22327Y318863D01*
X22331Y318859D01*
X22440Y318817D01*
X22549Y318773D01*
X22556Y318772D01*
X22561Y318771D01*
X22579Y318770D01*
X22716Y318755D01*
X32929Y318755D01*
X33019Y318769D01*
X33110Y318777D01*
X33140Y318789D01*
X33172Y318794D01*
X33252Y318837D01*
X33336Y318873D01*
X33368Y318899D01*
X33389Y318910D01*
X33411Y318933D01*
X33467Y318978D01*
X44250Y329761D01*
X44303Y329835D01*
X44363Y329904D01*
X44375Y329934D01*
X44394Y329961D01*
X44421Y330048D01*
X44455Y330132D01*
X44459Y330173D01*
X44466Y330196D01*
X44465Y330228D01*
X44473Y330299D01*
X44473Y333565D01*
X47435Y336527D01*
X51625Y336527D01*
X54587Y333565D01*
X54587Y329375D01*
X51625Y326413D01*
X48359Y326413D01*
X48269Y326399D01*
X48178Y326391D01*
X48148Y326379D01*
X48116Y326374D01*
X48036Y326331D01*
X47952Y326295D01*
X47920Y326269D01*
X47899Y326258D01*
X47877Y326235D01*
X47821Y326190D01*
X46757Y325126D01*
X46715Y325068D01*
X46666Y325016D01*
X46644Y324969D01*
X46613Y324927D01*
X46592Y324858D01*
X46562Y324793D01*
X46556Y324741D01*
X46541Y324691D01*
X46543Y324620D01*
X46535Y324549D01*
X46546Y324498D01*
X46547Y324446D01*
X46572Y324378D01*
X46587Y324308D01*
X46614Y324263D01*
X46632Y324215D01*
X46677Y324159D01*
X46713Y324097D01*
X46753Y324063D01*
X46785Y324023D01*
X46846Y323984D01*
X46900Y323937D01*
X46949Y323918D01*
X46992Y323890D01*
X47062Y323872D01*
X47128Y323845D01*
X47200Y323837D01*
X47231Y323829D01*
X47254Y323831D01*
X47295Y323827D01*
X51625Y323827D01*
X54587Y320865D01*
X54587Y316675D01*
X51625Y313713D01*
X50201Y313713D01*
X50111Y313699D01*
X50020Y313691D01*
X49990Y313679D01*
X49958Y313674D01*
X49878Y313631D01*
X49794Y313595D01*
X49762Y313569D01*
X49741Y313558D01*
X49719Y313535D01*
X49663Y313490D01*
X48599Y312426D01*
X48557Y312368D01*
X48508Y312316D01*
X48486Y312269D01*
X48455Y312227D01*
X48434Y312158D01*
X48404Y312093D01*
X48398Y312041D01*
X48383Y311991D01*
X48385Y311920D01*
X48377Y311849D01*
X48388Y311798D01*
X48389Y311746D01*
X48414Y311678D01*
X48429Y311608D01*
X48456Y311563D01*
X48474Y311515D01*
X48519Y311459D01*
X48555Y311397D01*
X48595Y311363D01*
X48627Y311323D01*
X48688Y311284D01*
X48742Y311237D01*
X48791Y311218D01*
X48834Y311190D01*
X48904Y311172D01*
X48970Y311145D01*
X49042Y311137D01*
X49073Y311129D01*
X49096Y311131D01*
X49137Y311127D01*
X51625Y311127D01*
X54587Y308165D01*
X54587Y303975D01*
X51625Y301013D01*
X47435Y301013D01*
X46396Y302052D01*
X46322Y302105D01*
X46253Y302165D01*
X46223Y302177D01*
X46197Y302196D01*
X46110Y302223D01*
X46025Y302257D01*
X45984Y302261D01*
X45962Y302268D01*
X45929Y302267D01*
X45858Y302275D01*
X44541Y302275D01*
X44451Y302261D01*
X44360Y302253D01*
X44330Y302241D01*
X44298Y302236D01*
X44218Y302193D01*
X44134Y302157D01*
X44102Y302131D01*
X44081Y302120D01*
X44059Y302097D01*
X44003Y302052D01*
X17667Y275717D01*
X17655Y275700D01*
X17640Y275688D01*
X17610Y275641D01*
X17592Y275623D01*
X17578Y275593D01*
X17524Y275517D01*
X17518Y275498D01*
X17507Y275481D01*
X17482Y275380D01*
X17451Y275282D01*
X17452Y275262D01*
X17447Y275242D01*
X17455Y275140D01*
X17458Y275036D01*
X17464Y275017D01*
X17466Y274997D01*
X17506Y274902D01*
X17542Y274805D01*
X17554Y274789D01*
X17562Y274771D01*
X17667Y274640D01*
X20690Y271617D01*
X22400Y267489D01*
X22424Y267450D01*
X22440Y267407D01*
X22488Y267346D01*
X22529Y267280D01*
X22565Y267251D01*
X22593Y267215D01*
X22659Y267173D01*
X22719Y267123D01*
X22762Y267107D01*
X22800Y267082D01*
X22876Y267063D01*
X22949Y267035D01*
X22994Y267033D01*
X23039Y267022D01*
X23116Y267028D01*
X23194Y267024D01*
X23238Y267037D01*
X23284Y267041D01*
X23356Y267071D01*
X23431Y267093D01*
X23468Y267119D01*
X23510Y267137D01*
X23617Y267223D01*
X23633Y267233D01*
X23636Y267237D01*
X23641Y267242D01*
X39594Y283195D01*
X44588Y283195D01*
X44678Y283209D01*
X44769Y283217D01*
X44799Y283229D01*
X44831Y283234D01*
X44912Y283277D01*
X44995Y283313D01*
X45028Y283339D01*
X45048Y283350D01*
X45070Y283373D01*
X45126Y283418D01*
X47435Y285727D01*
X51625Y285727D01*
X54587Y282765D01*
X54587Y278575D01*
X51625Y275613D01*
X47435Y275613D01*
X45126Y277922D01*
X45052Y277975D01*
X44983Y278035D01*
X44953Y278047D01*
X44927Y278066D01*
X44840Y278093D01*
X44755Y278127D01*
X44714Y278131D01*
X44692Y278138D01*
X44659Y278137D01*
X44588Y278145D01*
X42001Y278145D01*
X41911Y278131D01*
X41820Y278123D01*
X41790Y278111D01*
X41758Y278106D01*
X41678Y278063D01*
X41594Y278027D01*
X41562Y278001D01*
X41541Y277990D01*
X41519Y277967D01*
X41463Y277922D01*
X35335Y271794D01*
X35293Y271736D01*
X35244Y271684D01*
X35222Y271637D01*
X35191Y271595D01*
X35170Y271526D01*
X35140Y271461D01*
X35134Y271409D01*
X35119Y271359D01*
X35121Y271288D01*
X35113Y271217D01*
X35124Y271166D01*
X35125Y271114D01*
X35150Y271046D01*
X35165Y270976D01*
X35192Y270931D01*
X35210Y270883D01*
X35255Y270827D01*
X35291Y270765D01*
X35331Y270731D01*
X35363Y270691D01*
X35424Y270652D01*
X35478Y270605D01*
X35527Y270586D01*
X35570Y270558D01*
X35640Y270540D01*
X35706Y270513D01*
X35778Y270505D01*
X35809Y270497D01*
X35832Y270499D01*
X35873Y270495D01*
X44588Y270495D01*
X44678Y270509D01*
X44769Y270517D01*
X44799Y270529D01*
X44831Y270534D01*
X44912Y270577D01*
X44995Y270613D01*
X45028Y270639D01*
X45048Y270650D01*
X45070Y270673D01*
X45126Y270718D01*
X47435Y273027D01*
X51625Y273027D01*
X54587Y270065D01*
X54587Y265875D01*
X51625Y262913D01*
X47435Y262913D01*
X45126Y265222D01*
X45052Y265275D01*
X44983Y265335D01*
X44953Y265347D01*
X44927Y265366D01*
X44840Y265393D01*
X44755Y265427D01*
X44714Y265431D01*
X44692Y265438D01*
X44659Y265437D01*
X44588Y265445D01*
X35365Y265445D01*
X35275Y265431D01*
X35184Y265423D01*
X35154Y265411D01*
X35122Y265406D01*
X35042Y265363D01*
X34958Y265327D01*
X34926Y265301D01*
X34905Y265290D01*
X34883Y265267D01*
X34827Y265222D01*
X30402Y260797D01*
X30349Y260723D01*
X30289Y260654D01*
X30277Y260624D01*
X30258Y260597D01*
X30231Y260510D01*
X30197Y260426D01*
X30193Y260385D01*
X30186Y260362D01*
X30187Y260330D01*
X30179Y260259D01*
X30179Y238787D01*
X30190Y238716D01*
X30192Y238645D01*
X30210Y238596D01*
X30218Y238544D01*
X30252Y238481D01*
X30277Y238414D01*
X30309Y238373D01*
X30334Y238327D01*
X30385Y238278D01*
X30430Y238222D01*
X30474Y238193D01*
X30512Y238158D01*
X30577Y238127D01*
X30637Y238089D01*
X30688Y238076D01*
X30735Y238054D01*
X30806Y238046D01*
X30876Y238029D01*
X30928Y238033D01*
X30979Y238027D01*
X31050Y238042D01*
X31121Y238048D01*
X31169Y238068D01*
X31220Y238079D01*
X31281Y238116D01*
X31347Y238144D01*
X31403Y238189D01*
X31431Y238205D01*
X31446Y238223D01*
X31478Y238249D01*
X31542Y238313D01*
X33244Y240015D01*
X77608Y240015D01*
X77698Y240029D01*
X77789Y240037D01*
X77819Y240049D01*
X77851Y240054D01*
X77932Y240097D01*
X78015Y240133D01*
X78048Y240159D01*
X78068Y240170D01*
X78090Y240193D01*
X78146Y240238D01*
X80455Y242547D01*
X84645Y242547D01*
X87607Y239585D01*
X87607Y235395D01*
X84645Y232433D01*
X80455Y232433D01*
X78146Y234742D01*
X78072Y234795D01*
X78003Y234855D01*
X77973Y234867D01*
X77947Y234886D01*
X77860Y234913D01*
X77775Y234947D01*
X77734Y234951D01*
X77712Y234958D01*
X77679Y234957D01*
X77608Y234965D01*
X35651Y234965D01*
X35561Y234951D01*
X35470Y234943D01*
X35440Y234931D01*
X35408Y234926D01*
X35328Y234883D01*
X35244Y234847D01*
X35212Y234821D01*
X35191Y234810D01*
X35169Y234787D01*
X35113Y234742D01*
X33926Y233555D01*
X33873Y233481D01*
X33813Y233412D01*
X33801Y233382D01*
X33782Y233355D01*
X33755Y233269D01*
X33721Y233184D01*
X33717Y233143D01*
X33710Y233120D01*
X33711Y233088D01*
X33703Y233017D01*
X33703Y227221D01*
X33705Y227207D01*
X33704Y227196D01*
X33714Y227147D01*
X33716Y227079D01*
X33734Y227030D01*
X33742Y226979D01*
X33776Y226915D01*
X33801Y226848D01*
X33833Y226807D01*
X33858Y226761D01*
X33910Y226712D01*
X33954Y226656D01*
X33998Y226628D01*
X34036Y226592D01*
X34101Y226562D01*
X34161Y226523D01*
X34212Y226510D01*
X34259Y226488D01*
X34330Y226480D01*
X34400Y226463D01*
X34452Y226467D01*
X34503Y226461D01*
X34574Y226476D01*
X34645Y226482D01*
X34693Y226502D01*
X34744Y226513D01*
X34805Y226550D01*
X34871Y226578D01*
X34927Y226623D01*
X34932Y226626D01*
X34938Y226629D01*
X34939Y226630D01*
X34955Y226640D01*
X34970Y226657D01*
X35002Y226683D01*
X36050Y227731D01*
X38952Y230633D01*
X147066Y230633D01*
X147086Y230636D01*
X147105Y230634D01*
X147207Y230656D01*
X147309Y230672D01*
X147326Y230682D01*
X147346Y230686D01*
X147435Y230739D01*
X147526Y230788D01*
X147540Y230802D01*
X147557Y230812D01*
X147624Y230891D01*
X147696Y230966D01*
X147704Y230984D01*
X147717Y230999D01*
X147756Y231095D01*
X147799Y231189D01*
X147801Y231209D01*
X147809Y231227D01*
X147827Y231394D01*
X147827Y252376D01*
X147825Y252388D01*
X147826Y252396D01*
X147817Y252439D01*
X147813Y252466D01*
X147805Y252557D01*
X147793Y252587D01*
X147788Y252619D01*
X147745Y252700D01*
X147709Y252783D01*
X147683Y252816D01*
X147672Y252836D01*
X147649Y252858D01*
X147604Y252914D01*
X147343Y253175D01*
X147343Y257365D01*
X150305Y260327D01*
X154495Y260327D01*
X157457Y257365D01*
X157457Y253175D01*
X157196Y252914D01*
X157143Y252840D01*
X157083Y252771D01*
X157071Y252741D01*
X157052Y252715D01*
X157025Y252628D01*
X156991Y252543D01*
X156987Y252502D01*
X156980Y252480D01*
X156981Y252447D01*
X156973Y252376D01*
X156973Y231394D01*
X156976Y231374D01*
X156974Y231355D01*
X156996Y231253D01*
X157012Y231151D01*
X157022Y231134D01*
X157026Y231114D01*
X157079Y231025D01*
X157128Y230934D01*
X157142Y230920D01*
X157152Y230903D01*
X157231Y230836D01*
X157306Y230764D01*
X157324Y230756D01*
X157339Y230743D01*
X157435Y230704D01*
X157529Y230661D01*
X157549Y230659D01*
X157567Y230651D01*
X157734Y230633D01*
X165755Y230633D01*
X176962Y219426D01*
X177036Y219373D01*
X177105Y219313D01*
X177135Y219301D01*
X177162Y219282D01*
X177249Y219255D01*
X177333Y219221D01*
X177374Y219217D01*
X177397Y219210D01*
X177429Y219211D01*
X177500Y219203D01*
X178793Y219203D01*
X178908Y219222D01*
G37*
G36*
X53103Y1917D02*
X53103Y1917D01*
X53175Y1919D01*
X53224Y1937D01*
X53275Y1945D01*
X53339Y1979D01*
X53406Y2004D01*
X53447Y2036D01*
X53493Y2061D01*
X53542Y2113D01*
X53598Y2157D01*
X53626Y2201D01*
X53662Y2239D01*
X53692Y2304D01*
X53731Y2364D01*
X53744Y2415D01*
X53766Y2462D01*
X53774Y2533D01*
X53791Y2603D01*
X53787Y2655D01*
X53793Y2706D01*
X53778Y2777D01*
X53772Y2848D01*
X53752Y2896D01*
X53741Y2947D01*
X53704Y3008D01*
X53676Y3074D01*
X53631Y3130D01*
X53614Y3158D01*
X53597Y3173D01*
X53571Y3205D01*
X53124Y3652D01*
X52019Y5173D01*
X51166Y6847D01*
X50585Y8634D01*
X50384Y9907D01*
X61468Y9907D01*
X61488Y9910D01*
X61507Y9908D01*
X61609Y9930D01*
X61711Y9947D01*
X61728Y9956D01*
X61748Y9960D01*
X61837Y10013D01*
X61928Y10062D01*
X61942Y10076D01*
X61959Y10086D01*
X62026Y10165D01*
X62097Y10240D01*
X62106Y10258D01*
X62119Y10273D01*
X62157Y10369D01*
X62201Y10463D01*
X62203Y10483D01*
X62211Y10501D01*
X62229Y10668D01*
X62229Y11431D01*
X62231Y11431D01*
X62231Y10668D01*
X62234Y10648D01*
X62232Y10629D01*
X62254Y10527D01*
X62271Y10425D01*
X62280Y10408D01*
X62284Y10388D01*
X62337Y10299D01*
X62386Y10208D01*
X62400Y10194D01*
X62410Y10177D01*
X62489Y10110D01*
X62564Y10039D01*
X62582Y10030D01*
X62597Y10017D01*
X62693Y9978D01*
X62787Y9935D01*
X62807Y9933D01*
X62825Y9925D01*
X62992Y9907D01*
X74076Y9907D01*
X73875Y8634D01*
X73294Y6847D01*
X72441Y5173D01*
X71336Y3652D01*
X70889Y3205D01*
X70847Y3147D01*
X70798Y3095D01*
X70776Y3048D01*
X70746Y3006D01*
X70725Y2937D01*
X70694Y2872D01*
X70689Y2820D01*
X70673Y2770D01*
X70675Y2699D01*
X70667Y2628D01*
X70678Y2577D01*
X70680Y2525D01*
X70704Y2457D01*
X70719Y2387D01*
X70746Y2342D01*
X70764Y2294D01*
X70809Y2238D01*
X70846Y2176D01*
X70885Y2142D01*
X70918Y2102D01*
X70978Y2063D01*
X71033Y2016D01*
X71081Y1997D01*
X71125Y1969D01*
X71194Y1951D01*
X71261Y1924D01*
X71332Y1916D01*
X71363Y1908D01*
X71387Y1910D01*
X71427Y1906D01*
X79869Y1906D01*
X79940Y1917D01*
X80012Y1919D01*
X80061Y1937D01*
X80112Y1945D01*
X80175Y1979D01*
X80243Y2004D01*
X80283Y2036D01*
X80330Y2061D01*
X80379Y2113D01*
X80435Y2157D01*
X80463Y2201D01*
X80499Y2239D01*
X80529Y2304D01*
X80568Y2364D01*
X80581Y2415D01*
X80603Y2462D01*
X80610Y2533D01*
X80628Y2603D01*
X80624Y2655D01*
X80630Y2706D01*
X80614Y2777D01*
X80609Y2848D01*
X80588Y2896D01*
X80577Y2947D01*
X80541Y3008D01*
X80512Y3074D01*
X80468Y3130D01*
X80451Y3158D01*
X80433Y3173D01*
X80408Y3205D01*
X78370Y5243D01*
X76707Y9257D01*
X76707Y13603D01*
X78370Y17617D01*
X81443Y20690D01*
X82587Y21164D01*
X82687Y21226D01*
X82787Y21285D01*
X82791Y21290D01*
X82796Y21294D01*
X82871Y21384D01*
X82947Y21472D01*
X82949Y21478D01*
X82953Y21483D01*
X82994Y21590D01*
X83039Y21701D01*
X83040Y21708D01*
X83041Y21713D01*
X83042Y21731D01*
X83057Y21867D01*
X83057Y24461D01*
X83043Y24551D01*
X83035Y24642D01*
X83023Y24671D01*
X83018Y24703D01*
X82975Y24784D01*
X82939Y24868D01*
X82913Y24900D01*
X82902Y24921D01*
X82879Y24943D01*
X82834Y24999D01*
X73259Y34574D01*
X73185Y34627D01*
X73115Y34687D01*
X73085Y34699D01*
X73059Y34718D01*
X72972Y34745D01*
X72887Y34779D01*
X72846Y34783D01*
X72824Y34790D01*
X72792Y34789D01*
X72721Y34797D01*
X22919Y34797D01*
X22805Y34778D01*
X22688Y34761D01*
X22683Y34759D01*
X22677Y34758D01*
X22574Y34703D01*
X22469Y34650D01*
X22465Y34645D01*
X22459Y34642D01*
X22379Y34558D01*
X22297Y34474D01*
X22293Y34468D01*
X22290Y34464D01*
X22282Y34447D01*
X22216Y34327D01*
X20690Y30643D01*
X17617Y27570D01*
X13603Y25907D01*
X9257Y25907D01*
X5243Y27570D01*
X3205Y29608D01*
X3147Y29650D01*
X3095Y29699D01*
X3048Y29721D01*
X3006Y29751D01*
X2937Y29772D01*
X2872Y29803D01*
X2820Y29808D01*
X2770Y29824D01*
X2699Y29822D01*
X2628Y29830D01*
X2577Y29819D01*
X2525Y29817D01*
X2457Y29793D01*
X2387Y29777D01*
X2342Y29751D01*
X2294Y29733D01*
X2238Y29688D01*
X2176Y29651D01*
X2142Y29612D01*
X2102Y29579D01*
X2063Y29519D01*
X2016Y29464D01*
X1997Y29416D01*
X1969Y29372D01*
X1951Y29303D01*
X1924Y29236D01*
X1916Y29165D01*
X1908Y29134D01*
X1910Y29110D01*
X1906Y29069D01*
X1906Y20627D01*
X1917Y20557D01*
X1919Y20485D01*
X1937Y20436D01*
X1945Y20385D01*
X1979Y20321D01*
X2004Y20254D01*
X2036Y20213D01*
X2061Y20167D01*
X2113Y20118D01*
X2157Y20062D01*
X2201Y20034D01*
X2239Y19998D01*
X2304Y19968D01*
X2364Y19929D01*
X2415Y19916D01*
X2462Y19894D01*
X2533Y19886D01*
X2603Y19869D01*
X2655Y19873D01*
X2706Y19867D01*
X2777Y19882D01*
X2848Y19888D01*
X2896Y19908D01*
X2947Y19919D01*
X3008Y19956D01*
X3074Y19984D01*
X3130Y20029D01*
X3158Y20046D01*
X3173Y20063D01*
X3205Y20089D01*
X3652Y20536D01*
X5173Y21641D01*
X6847Y22494D01*
X8634Y23075D01*
X9907Y23276D01*
X9907Y12192D01*
X9910Y12172D01*
X9908Y12153D01*
X9930Y12051D01*
X9947Y11949D01*
X9956Y11932D01*
X9960Y11912D01*
X10013Y11823D01*
X10062Y11732D01*
X10076Y11718D01*
X10086Y11701D01*
X10165Y11634D01*
X10240Y11563D01*
X10258Y11554D01*
X10273Y11541D01*
X10369Y11503D01*
X10463Y11459D01*
X10483Y11457D01*
X10501Y11449D01*
X10668Y11431D01*
X11431Y11431D01*
X11431Y10668D01*
X11434Y10648D01*
X11432Y10629D01*
X11454Y10527D01*
X11471Y10425D01*
X11480Y10408D01*
X11484Y10388D01*
X11537Y10299D01*
X11586Y10208D01*
X11600Y10194D01*
X11610Y10177D01*
X11689Y10110D01*
X11764Y10039D01*
X11782Y10030D01*
X11797Y10017D01*
X11893Y9978D01*
X11987Y9935D01*
X12007Y9933D01*
X12025Y9925D01*
X12192Y9907D01*
X23276Y9907D01*
X23075Y8634D01*
X22494Y6847D01*
X21641Y5173D01*
X20536Y3652D01*
X20089Y3205D01*
X20047Y3147D01*
X19998Y3095D01*
X19976Y3048D01*
X19946Y3006D01*
X19925Y2937D01*
X19894Y2872D01*
X19889Y2820D01*
X19873Y2770D01*
X19875Y2699D01*
X19867Y2628D01*
X19878Y2577D01*
X19880Y2525D01*
X19904Y2457D01*
X19919Y2387D01*
X19946Y2342D01*
X19964Y2294D01*
X20009Y2238D01*
X20046Y2176D01*
X20085Y2142D01*
X20118Y2102D01*
X20178Y2063D01*
X20233Y2016D01*
X20281Y1997D01*
X20325Y1969D01*
X20394Y1951D01*
X20461Y1924D01*
X20532Y1916D01*
X20563Y1908D01*
X20587Y1910D01*
X20627Y1906D01*
X53033Y1906D01*
X53103Y1917D01*
G37*
G36*
X180103Y1917D02*
X180103Y1917D01*
X180175Y1919D01*
X180224Y1937D01*
X180275Y1945D01*
X180339Y1979D01*
X180406Y2004D01*
X180447Y2036D01*
X180493Y2061D01*
X180542Y2113D01*
X180598Y2157D01*
X180626Y2201D01*
X180662Y2239D01*
X180692Y2304D01*
X180731Y2364D01*
X180744Y2415D01*
X180766Y2462D01*
X180774Y2533D01*
X180791Y2603D01*
X180787Y2655D01*
X180793Y2706D01*
X180778Y2777D01*
X180772Y2848D01*
X180752Y2896D01*
X180741Y2947D01*
X180704Y3008D01*
X180676Y3074D01*
X180631Y3130D01*
X180614Y3158D01*
X180597Y3173D01*
X180571Y3205D01*
X180124Y3652D01*
X179019Y5173D01*
X178166Y6847D01*
X177585Y8634D01*
X177384Y9907D01*
X188468Y9907D01*
X188488Y9910D01*
X188507Y9908D01*
X188609Y9930D01*
X188711Y9947D01*
X188728Y9956D01*
X188748Y9960D01*
X188837Y10013D01*
X188928Y10062D01*
X188942Y10076D01*
X188959Y10086D01*
X189026Y10165D01*
X189097Y10240D01*
X189106Y10258D01*
X189119Y10273D01*
X189157Y10369D01*
X189201Y10463D01*
X189203Y10483D01*
X189211Y10501D01*
X189229Y10668D01*
X189229Y11431D01*
X189992Y11431D01*
X190012Y11434D01*
X190031Y11432D01*
X190133Y11454D01*
X190235Y11471D01*
X190252Y11480D01*
X190272Y11484D01*
X190361Y11537D01*
X190452Y11586D01*
X190466Y11600D01*
X190483Y11610D01*
X190550Y11689D01*
X190621Y11764D01*
X190630Y11782D01*
X190643Y11797D01*
X190682Y11893D01*
X190725Y11987D01*
X190727Y12007D01*
X190735Y12025D01*
X190753Y12192D01*
X190753Y23276D01*
X192026Y23075D01*
X193813Y22494D01*
X195487Y21641D01*
X197008Y20536D01*
X197455Y20089D01*
X197513Y20047D01*
X197565Y19998D01*
X197612Y19976D01*
X197654Y19946D01*
X197723Y19925D01*
X197788Y19894D01*
X197840Y19889D01*
X197890Y19873D01*
X197961Y19875D01*
X198032Y19867D01*
X198083Y19878D01*
X198135Y19880D01*
X198203Y19904D01*
X198273Y19919D01*
X198318Y19946D01*
X198366Y19964D01*
X198422Y20009D01*
X198484Y20046D01*
X198518Y20085D01*
X198558Y20118D01*
X198597Y20178D01*
X198644Y20233D01*
X198663Y20281D01*
X198691Y20325D01*
X198709Y20394D01*
X198736Y20461D01*
X198744Y20532D01*
X198752Y20563D01*
X198750Y20587D01*
X198754Y20627D01*
X198754Y29069D01*
X198743Y29140D01*
X198741Y29212D01*
X198723Y29261D01*
X198715Y29312D01*
X198681Y29375D01*
X198656Y29443D01*
X198624Y29483D01*
X198599Y29530D01*
X198547Y29579D01*
X198503Y29635D01*
X198459Y29663D01*
X198421Y29699D01*
X198356Y29729D01*
X198296Y29768D01*
X198245Y29781D01*
X198198Y29803D01*
X198127Y29810D01*
X198057Y29828D01*
X198005Y29824D01*
X197954Y29830D01*
X197883Y29814D01*
X197812Y29809D01*
X197764Y29788D01*
X197713Y29777D01*
X197652Y29741D01*
X197586Y29712D01*
X197530Y29668D01*
X197502Y29651D01*
X197487Y29633D01*
X197455Y29608D01*
X195417Y27570D01*
X191403Y25907D01*
X187057Y25907D01*
X183043Y27570D01*
X179869Y30744D01*
X179853Y30756D01*
X179840Y30771D01*
X179753Y30827D01*
X179669Y30888D01*
X179650Y30893D01*
X179633Y30904D01*
X179533Y30930D01*
X179434Y30960D01*
X179414Y30959D01*
X179395Y30964D01*
X179292Y30956D01*
X179188Y30954D01*
X179169Y30947D01*
X179150Y30945D01*
X179055Y30905D01*
X178957Y30869D01*
X178942Y30857D01*
X178923Y30849D01*
X178792Y30744D01*
X178131Y30083D01*
X178131Y30082D01*
X166130Y18081D01*
X148967Y18081D01*
X148877Y18067D01*
X148786Y18059D01*
X148756Y18047D01*
X148724Y18042D01*
X148644Y17999D01*
X148560Y17963D01*
X148528Y17937D01*
X148507Y17926D01*
X148485Y17903D01*
X148429Y17858D01*
X148195Y17625D01*
X148127Y17530D01*
X148057Y17436D01*
X148055Y17430D01*
X148052Y17425D01*
X148017Y17313D01*
X147981Y17202D01*
X147981Y17196D01*
X147979Y17190D01*
X147982Y17073D01*
X147984Y16956D01*
X147986Y16949D01*
X147986Y16944D01*
X147992Y16927D01*
X148030Y16795D01*
X149353Y13603D01*
X149353Y9257D01*
X147690Y5243D01*
X145652Y3205D01*
X145610Y3147D01*
X145561Y3095D01*
X145539Y3048D01*
X145509Y3006D01*
X145488Y2937D01*
X145457Y2872D01*
X145452Y2820D01*
X145436Y2770D01*
X145438Y2699D01*
X145430Y2628D01*
X145441Y2577D01*
X145443Y2525D01*
X145467Y2457D01*
X145483Y2387D01*
X145509Y2342D01*
X145527Y2294D01*
X145572Y2238D01*
X145609Y2176D01*
X145648Y2142D01*
X145681Y2102D01*
X145741Y2063D01*
X145796Y2016D01*
X145844Y1997D01*
X145888Y1969D01*
X145957Y1951D01*
X146024Y1924D01*
X146095Y1916D01*
X146126Y1908D01*
X146150Y1910D01*
X146191Y1906D01*
X180033Y1906D01*
X180103Y1917D01*
G37*
G36*
X177180Y147952D02*
X177180Y147952D01*
X177251Y147958D01*
X177299Y147978D01*
X177350Y147989D01*
X177411Y148026D01*
X177477Y148054D01*
X177533Y148099D01*
X177561Y148115D01*
X177576Y148133D01*
X177608Y148159D01*
X182993Y153543D01*
X183005Y153560D01*
X183020Y153572D01*
X183076Y153659D01*
X183136Y153743D01*
X183142Y153762D01*
X183153Y153779D01*
X183178Y153879D01*
X183209Y153978D01*
X183208Y153998D01*
X183213Y154017D01*
X183205Y154120D01*
X183202Y154224D01*
X183196Y154243D01*
X183194Y154263D01*
X183154Y154357D01*
X183118Y154455D01*
X183105Y154471D01*
X183098Y154489D01*
X182993Y154620D01*
X179970Y157643D01*
X178307Y161657D01*
X178307Y166003D01*
X179970Y170017D01*
X183043Y173090D01*
X187057Y174753D01*
X191403Y174753D01*
X195417Y173090D01*
X197455Y171052D01*
X197513Y171010D01*
X197565Y170961D01*
X197612Y170939D01*
X197654Y170909D01*
X197723Y170888D01*
X197788Y170857D01*
X197840Y170852D01*
X197890Y170836D01*
X197961Y170838D01*
X198032Y170830D01*
X198083Y170841D01*
X198135Y170843D01*
X198203Y170867D01*
X198273Y170883D01*
X198318Y170909D01*
X198366Y170927D01*
X198422Y170972D01*
X198484Y171009D01*
X198518Y171048D01*
X198558Y171081D01*
X198597Y171141D01*
X198644Y171196D01*
X198663Y171244D01*
X198691Y171288D01*
X198709Y171357D01*
X198736Y171424D01*
X198744Y171495D01*
X198752Y171526D01*
X198750Y171550D01*
X198754Y171591D01*
X198754Y180033D01*
X198743Y180103D01*
X198741Y180175D01*
X198723Y180224D01*
X198715Y180275D01*
X198681Y180339D01*
X198656Y180406D01*
X198624Y180447D01*
X198599Y180493D01*
X198547Y180542D01*
X198503Y180598D01*
X198459Y180626D01*
X198421Y180662D01*
X198356Y180692D01*
X198296Y180731D01*
X198245Y180744D01*
X198198Y180766D01*
X198127Y180774D01*
X198057Y180791D01*
X198005Y180787D01*
X197954Y180793D01*
X197883Y180778D01*
X197812Y180772D01*
X197764Y180752D01*
X197713Y180741D01*
X197652Y180704D01*
X197586Y180676D01*
X197530Y180631D01*
X197502Y180614D01*
X197487Y180597D01*
X197455Y180571D01*
X197008Y180124D01*
X195487Y179019D01*
X193813Y178166D01*
X192026Y177585D01*
X190753Y177384D01*
X190753Y188468D01*
X190750Y188488D01*
X190752Y188507D01*
X190730Y188609D01*
X190713Y188711D01*
X190704Y188728D01*
X190700Y188748D01*
X190647Y188837D01*
X190598Y188928D01*
X190584Y188942D01*
X190574Y188959D01*
X190495Y189026D01*
X190420Y189097D01*
X190402Y189106D01*
X190387Y189119D01*
X190291Y189157D01*
X190197Y189201D01*
X190177Y189203D01*
X190159Y189211D01*
X189992Y189229D01*
X188468Y189229D01*
X188448Y189226D01*
X188429Y189228D01*
X188327Y189206D01*
X188225Y189189D01*
X188208Y189180D01*
X188188Y189176D01*
X188099Y189123D01*
X188008Y189074D01*
X187994Y189060D01*
X187977Y189050D01*
X187910Y188971D01*
X187839Y188896D01*
X187830Y188878D01*
X187817Y188863D01*
X187778Y188767D01*
X187735Y188673D01*
X187733Y188653D01*
X187725Y188635D01*
X187707Y188468D01*
X187707Y177384D01*
X186434Y177585D01*
X184647Y178166D01*
X182973Y179019D01*
X181452Y180124D01*
X180124Y181452D01*
X179019Y182973D01*
X178166Y184647D01*
X177794Y185792D01*
X177792Y185796D01*
X177791Y185800D01*
X177736Y185904D01*
X177681Y186011D01*
X177678Y186013D01*
X177676Y186017D01*
X177590Y186099D01*
X177505Y186182D01*
X177501Y186183D01*
X177498Y186186D01*
X177390Y186236D01*
X177283Y186288D01*
X177279Y186288D01*
X177275Y186290D01*
X177158Y186303D01*
X177038Y186317D01*
X177034Y186317D01*
X177031Y186317D01*
X176915Y186292D01*
X176798Y186268D01*
X176794Y186266D01*
X176790Y186265D01*
X176688Y186204D01*
X176585Y186144D01*
X176582Y186141D01*
X176579Y186139D01*
X176501Y186048D01*
X176423Y185958D01*
X176422Y185955D01*
X176419Y185952D01*
X176374Y185840D01*
X176329Y185731D01*
X176329Y185727D01*
X176327Y185723D01*
X176309Y185557D01*
X176309Y148697D01*
X176320Y148626D01*
X176322Y148555D01*
X176340Y148506D01*
X176348Y148454D01*
X176382Y148391D01*
X176407Y148324D01*
X176439Y148283D01*
X176464Y148237D01*
X176515Y148188D01*
X176560Y148132D01*
X176604Y148103D01*
X176642Y148068D01*
X176707Y148037D01*
X176767Y147999D01*
X176818Y147986D01*
X176865Y147964D01*
X176936Y147956D01*
X177006Y147939D01*
X177058Y147943D01*
X177109Y147937D01*
X177180Y147952D01*
G37*
%LPC*%
G36*
X47435Y250213D02*
X47435Y250213D01*
X44473Y253175D01*
X44473Y257365D01*
X47435Y260327D01*
X51625Y260327D01*
X53934Y258018D01*
X54008Y257965D01*
X54077Y257905D01*
X54107Y257893D01*
X54133Y257874D01*
X54220Y257847D01*
X54305Y257813D01*
X54346Y257809D01*
X54368Y257802D01*
X54401Y257803D01*
X54472Y257795D01*
X58558Y257795D01*
X58648Y257809D01*
X58739Y257817D01*
X58769Y257829D01*
X58801Y257834D01*
X58882Y257877D01*
X58965Y257913D01*
X58998Y257939D01*
X59018Y257950D01*
X59040Y257973D01*
X59096Y258018D01*
X61405Y260327D01*
X65595Y260327D01*
X68557Y257365D01*
X68557Y253175D01*
X65595Y250213D01*
X61405Y250213D01*
X59096Y252522D01*
X59022Y252575D01*
X58953Y252635D01*
X58923Y252647D01*
X58897Y252666D01*
X58810Y252693D01*
X58725Y252727D01*
X58684Y252731D01*
X58662Y252738D01*
X58629Y252737D01*
X58558Y252745D01*
X54472Y252745D01*
X54382Y252731D01*
X54291Y252723D01*
X54261Y252711D01*
X54229Y252706D01*
X54148Y252663D01*
X54065Y252627D01*
X54032Y252601D01*
X54012Y252590D01*
X53990Y252567D01*
X53934Y252522D01*
X51625Y250213D01*
X47435Y250213D01*
G37*
%LPD*%
%LPC*%
G36*
X47435Y288313D02*
X47435Y288313D01*
X44473Y291275D01*
X44473Y295465D01*
X47435Y298427D01*
X51625Y298427D01*
X54587Y295465D01*
X54587Y291275D01*
X51625Y288313D01*
X47435Y288313D01*
G37*
%LPD*%
%LPC*%
G36*
X12953Y12953D02*
X12953Y12953D01*
X12953Y23276D01*
X14226Y23075D01*
X16013Y22494D01*
X17687Y21641D01*
X19208Y20536D01*
X20536Y19208D01*
X21641Y17687D01*
X22494Y16013D01*
X23075Y14226D01*
X23276Y12953D01*
X12953Y12953D01*
G37*
%LPD*%
%LPC*%
G36*
X63753Y12953D02*
X63753Y12953D01*
X63753Y23276D01*
X65026Y23075D01*
X66813Y22494D01*
X68487Y21641D01*
X70008Y20536D01*
X71336Y19208D01*
X72441Y17687D01*
X73294Y16013D01*
X73875Y14226D01*
X74076Y12953D01*
X63753Y12953D01*
G37*
%LPD*%
%LPC*%
G36*
X12953Y340107D02*
X12953Y340107D01*
X23276Y340107D01*
X23075Y338834D01*
X22494Y337047D01*
X21641Y335373D01*
X20536Y333852D01*
X19208Y332524D01*
X17687Y331419D01*
X16013Y330566D01*
X14226Y329985D01*
X12953Y329784D01*
X12953Y340107D01*
G37*
%LPD*%
%LPC*%
G36*
X50384Y12953D02*
X50384Y12953D01*
X50585Y14226D01*
X51166Y16013D01*
X52019Y17687D01*
X53124Y19208D01*
X54452Y20536D01*
X55973Y21641D01*
X57647Y22494D01*
X59434Y23075D01*
X60707Y23276D01*
X60707Y12953D01*
X50384Y12953D01*
G37*
%LPD*%
%LPC*%
G36*
X177384Y12953D02*
X177384Y12953D01*
X177585Y14226D01*
X178166Y16013D01*
X179019Y17687D01*
X180124Y19208D01*
X181452Y20536D01*
X182973Y21641D01*
X184647Y22494D01*
X186434Y23075D01*
X187707Y23276D01*
X187707Y12953D01*
X177384Y12953D01*
G37*
%LPD*%
D10*
X11430Y11430D03*
X11430Y36830D03*
X11430Y62230D03*
X11430Y87630D03*
X11430Y113030D03*
X11430Y138430D03*
X11430Y163830D03*
X11430Y189230D03*
X11430Y214630D03*
X11430Y240030D03*
X11430Y265430D03*
X11430Y290830D03*
X11430Y316230D03*
X11430Y341630D03*
X189230Y11430D03*
X189230Y36830D03*
X189230Y62230D03*
X189230Y87630D03*
X189230Y113030D03*
X189230Y138430D03*
X189230Y163830D03*
X189230Y189230D03*
X189230Y214630D03*
X189230Y240030D03*
X189230Y265430D03*
X189230Y290830D03*
X189230Y316230D03*
X189230Y341630D03*
X62230Y11430D03*
X87630Y11430D03*
X113030Y11430D03*
X138430Y11430D03*
D11*
X168910Y209550D03*
X168910Y232410D03*
X49530Y210820D03*
X43180Y77470D03*
X49530Y97790D03*
X91440Y87630D03*
X49530Y331470D03*
D12*
X34290Y316230D01*
X11430Y316230D01*
D11*
X49530Y318770D03*
D12*
X23432Y290830D02*
X11430Y290830D01*
X23432Y290830D02*
X49530Y316928D01*
X49530Y318770D01*
D11*
X49530Y306070D03*
D12*
X48260Y304800D01*
X43180Y304800D01*
X10160Y271780D01*
X10160Y265430D01*
X11430Y265430D01*
D11*
X49530Y293370D03*
X49530Y280670D03*
D12*
X24130Y227330D02*
X11430Y214630D01*
X24130Y264160D02*
X40640Y280670D01*
X49530Y280670D01*
X24130Y264160D02*
X24130Y227330D01*
D11*
X49530Y267970D03*
D12*
X24130Y209550D02*
X11430Y196850D01*
X11430Y189230D01*
X24130Y209550D02*
X24130Y222346D01*
X27654Y225870D02*
X27654Y261620D01*
X34004Y267970D01*
X27654Y225870D02*
X24130Y222346D01*
X34004Y267970D02*
X49530Y267970D01*
D11*
X49530Y255270D03*
X63500Y255270D03*
D12*
X49530Y255270D01*
D11*
X160020Y212090D03*
X153670Y97790D03*
D12*
X162560Y209550D02*
X160020Y212090D01*
X173784Y193246D02*
X173784Y124412D01*
X170260Y120888D01*
X170260Y104220D01*
X163830Y97790D02*
X153670Y97790D01*
X162560Y204470D02*
X162560Y209550D01*
X162560Y204470D02*
X173784Y193246D01*
X170260Y104220D02*
X163830Y97790D01*
D11*
X153670Y293370D03*
D12*
X162210Y293370D01*
X189230Y266350D01*
X189230Y265430D01*
D11*
X152400Y255270D03*
X49530Y172720D03*
D13*
X87630Y26670D02*
X87630Y11430D01*
X87630Y26670D02*
X74930Y39370D01*
X33020Y39370D01*
X13970Y39370D01*
X11430Y36830D01*
X33226Y218440D02*
X40846Y226060D01*
X152400Y226060D01*
X163861Y226060D01*
X175291Y214630D01*
X189230Y214630D01*
X152400Y226060D02*
X152400Y255270D01*
X33226Y218440D02*
X33226Y173784D01*
X34290Y172720D01*
X49530Y172720D01*
X34290Y172720D02*
X33020Y171450D01*
X33020Y39370D01*
D12*
X189230Y129890D02*
X189230Y138430D01*
X189230Y129890D02*
X177308Y117968D01*
X147606Y20606D02*
X138430Y11430D01*
X147606Y20606D02*
X165084Y20606D01*
X177308Y32830D01*
X177308Y117968D01*
D11*
X153670Y280670D03*
D12*
X168910Y280670D01*
X189230Y248570D02*
X189230Y240030D01*
X177308Y260492D02*
X177308Y272272D01*
X177308Y260492D02*
X189230Y248570D01*
X177308Y272272D02*
X168910Y280670D01*
X125730Y24130D02*
X113030Y11430D01*
X163624Y24130D02*
X173784Y34290D01*
X173784Y119428D01*
X177308Y122952D01*
X177308Y144288D02*
X190500Y157480D01*
X190500Y162560D01*
X189230Y163830D01*
X163624Y24130D02*
X125730Y24130D01*
X177308Y122952D02*
X177308Y144288D01*
D11*
X82550Y237490D03*
D12*
X11430Y172370D02*
X11430Y163830D01*
X11430Y172370D02*
X23352Y184292D01*
X23352Y203788D01*
X27654Y208090D02*
X27654Y220887D01*
X31178Y224411D01*
X31178Y234378D02*
X34290Y237490D01*
X31178Y234378D02*
X31178Y224411D01*
X34290Y237490D02*
X82550Y237490D01*
X27654Y208090D02*
X23352Y203788D01*
M02*
