G04 EAGLE Gerber RS-274X export*
G75*
%MOMM*%
%FSLAX34Y34*%
%LPD*%
%INTop Copper*%
%IPPOS*%
%AMOC8*
5,1,8,0,0,1.08239X$1,22.5*%
G01*
%ADD10R,1.422400X0.711200*%
%ADD11R,0.711200X1.422400*%
%ADD12C,1.879600*%
%ADD13C,0.200000*%
%ADD14C,0.706400*%
%ADD15C,0.406400*%
%ADD16C,0.152400*%

G36*
X180103Y1917D02*
X180103Y1917D01*
X180175Y1919D01*
X180224Y1937D01*
X180275Y1945D01*
X180339Y1979D01*
X180406Y2004D01*
X180447Y2036D01*
X180493Y2061D01*
X180542Y2113D01*
X180598Y2157D01*
X180626Y2201D01*
X180662Y2239D01*
X180692Y2304D01*
X180731Y2364D01*
X180744Y2415D01*
X180766Y2462D01*
X180774Y2533D01*
X180791Y2603D01*
X180787Y2655D01*
X180793Y2706D01*
X180778Y2777D01*
X180772Y2848D01*
X180752Y2896D01*
X180741Y2947D01*
X180704Y3008D01*
X180676Y3074D01*
X180631Y3130D01*
X180614Y3158D01*
X180597Y3173D01*
X180571Y3205D01*
X180124Y3652D01*
X179019Y5173D01*
X178166Y6847D01*
X177585Y8634D01*
X177384Y9907D01*
X188468Y9907D01*
X188488Y9910D01*
X188507Y9908D01*
X188609Y9930D01*
X188711Y9947D01*
X188728Y9956D01*
X188748Y9960D01*
X188837Y10013D01*
X188928Y10062D01*
X188942Y10076D01*
X188959Y10086D01*
X189026Y10165D01*
X189097Y10240D01*
X189106Y10258D01*
X189119Y10273D01*
X189157Y10369D01*
X189201Y10463D01*
X189203Y10483D01*
X189211Y10501D01*
X189229Y10668D01*
X189229Y11431D01*
X189992Y11431D01*
X190012Y11434D01*
X190031Y11432D01*
X190133Y11454D01*
X190235Y11471D01*
X190252Y11480D01*
X190272Y11484D01*
X190361Y11537D01*
X190452Y11586D01*
X190466Y11600D01*
X190483Y11610D01*
X190550Y11689D01*
X190621Y11764D01*
X190630Y11782D01*
X190643Y11797D01*
X190682Y11893D01*
X190725Y11987D01*
X190727Y12007D01*
X190735Y12025D01*
X190753Y12192D01*
X190753Y23276D01*
X192026Y23075D01*
X193813Y22494D01*
X195487Y21641D01*
X197008Y20536D01*
X197455Y20089D01*
X197513Y20047D01*
X197565Y19998D01*
X197612Y19976D01*
X197654Y19946D01*
X197723Y19925D01*
X197788Y19894D01*
X197840Y19889D01*
X197890Y19873D01*
X197961Y19875D01*
X198032Y19867D01*
X198083Y19878D01*
X198135Y19880D01*
X198203Y19904D01*
X198273Y19919D01*
X198318Y19946D01*
X198366Y19964D01*
X198422Y20009D01*
X198484Y20046D01*
X198518Y20085D01*
X198558Y20118D01*
X198597Y20178D01*
X198644Y20233D01*
X198663Y20281D01*
X198691Y20325D01*
X198709Y20394D01*
X198736Y20461D01*
X198744Y20532D01*
X198752Y20563D01*
X198750Y20587D01*
X198754Y20627D01*
X198754Y29069D01*
X198743Y29140D01*
X198741Y29212D01*
X198723Y29261D01*
X198715Y29312D01*
X198681Y29375D01*
X198656Y29443D01*
X198624Y29483D01*
X198599Y29530D01*
X198547Y29579D01*
X198503Y29635D01*
X198459Y29663D01*
X198421Y29699D01*
X198356Y29729D01*
X198296Y29768D01*
X198245Y29781D01*
X198198Y29803D01*
X198127Y29810D01*
X198057Y29828D01*
X198005Y29824D01*
X197954Y29830D01*
X197883Y29814D01*
X197812Y29809D01*
X197764Y29788D01*
X197713Y29777D01*
X197652Y29741D01*
X197586Y29712D01*
X197530Y29668D01*
X197502Y29651D01*
X197487Y29633D01*
X197455Y29608D01*
X195417Y27570D01*
X191403Y25907D01*
X187057Y25907D01*
X183043Y27570D01*
X179970Y30643D01*
X178307Y34657D01*
X178307Y39003D01*
X179970Y43017D01*
X183043Y46090D01*
X183331Y46209D01*
X183370Y46233D01*
X183413Y46249D01*
X183474Y46298D01*
X183540Y46339D01*
X183570Y46374D01*
X183605Y46403D01*
X183648Y46468D01*
X183697Y46528D01*
X183714Y46571D01*
X183738Y46610D01*
X183757Y46685D01*
X183785Y46758D01*
X183787Y46804D01*
X183798Y46848D01*
X183792Y46926D01*
X183796Y47004D01*
X183783Y47048D01*
X183779Y47094D01*
X183749Y47165D01*
X183727Y47240D01*
X183701Y47278D01*
X183683Y47320D01*
X183598Y47427D01*
X183587Y47442D01*
X183583Y47445D01*
X183578Y47451D01*
X174783Y56246D01*
X174783Y74061D01*
X174769Y74151D01*
X174761Y74242D01*
X174749Y74272D01*
X174744Y74304D01*
X174701Y74384D01*
X174665Y74468D01*
X174639Y74500D01*
X174628Y74521D01*
X174605Y74543D01*
X174560Y74599D01*
X172961Y76198D01*
X171259Y77900D01*
X171259Y95461D01*
X171245Y95551D01*
X171237Y95642D01*
X171225Y95672D01*
X171220Y95704D01*
X171177Y95785D01*
X171141Y95868D01*
X171115Y95901D01*
X171104Y95921D01*
X171081Y95943D01*
X171036Y95999D01*
X169437Y97599D01*
X167735Y99300D01*
X167735Y124227D01*
X167721Y124317D01*
X167713Y124408D01*
X167701Y124438D01*
X167696Y124470D01*
X167653Y124551D01*
X167617Y124635D01*
X167591Y124667D01*
X167580Y124687D01*
X167557Y124710D01*
X167512Y124766D01*
X164211Y128067D01*
X164211Y144612D01*
X164197Y144702D01*
X164189Y144793D01*
X164177Y144822D01*
X164172Y144854D01*
X164129Y144935D01*
X164093Y145019D01*
X164067Y145051D01*
X164056Y145072D01*
X164033Y145094D01*
X163988Y145150D01*
X160687Y148451D01*
X160687Y172108D01*
X160673Y172198D01*
X160665Y172289D01*
X160653Y172319D01*
X160648Y172351D01*
X160605Y172431D01*
X160569Y172515D01*
X160543Y172547D01*
X160532Y172568D01*
X160509Y172590D01*
X160464Y172646D01*
X158865Y174245D01*
X157163Y175947D01*
X157163Y185535D01*
X157149Y185625D01*
X157141Y185716D01*
X157129Y185746D01*
X157124Y185778D01*
X157081Y185858D01*
X157045Y185942D01*
X157019Y185974D01*
X157008Y185995D01*
X156985Y186017D01*
X156940Y186073D01*
X155387Y187626D01*
X155313Y187679D01*
X155244Y187739D01*
X155214Y187751D01*
X155187Y187770D01*
X155100Y187797D01*
X155016Y187831D01*
X154975Y187835D01*
X154952Y187842D01*
X154920Y187841D01*
X154849Y187849D01*
X148055Y187849D01*
X139674Y196230D01*
X139600Y196283D01*
X139531Y196343D01*
X139501Y196355D01*
X139474Y196374D01*
X139387Y196401D01*
X139303Y196435D01*
X139262Y196439D01*
X139239Y196446D01*
X139207Y196445D01*
X139136Y196453D01*
X131735Y196453D01*
X128434Y199754D01*
X128360Y199807D01*
X128291Y199867D01*
X128260Y199879D01*
X128234Y199898D01*
X128147Y199925D01*
X128062Y199959D01*
X128021Y199963D01*
X127999Y199970D01*
X127967Y199969D01*
X127896Y199977D01*
X114048Y199977D01*
X105953Y208072D01*
X105879Y208125D01*
X105810Y208185D01*
X105780Y208197D01*
X105754Y208216D01*
X105667Y208243D01*
X105582Y208277D01*
X105541Y208281D01*
X105519Y208288D01*
X105486Y208287D01*
X105415Y208295D01*
X98014Y208295D01*
X93195Y213114D01*
X93195Y214122D01*
X93192Y214142D01*
X93194Y214161D01*
X93172Y214263D01*
X93156Y214365D01*
X93146Y214382D01*
X93142Y214402D01*
X93089Y214491D01*
X93040Y214582D01*
X93026Y214596D01*
X93016Y214613D01*
X92937Y214680D01*
X92862Y214752D01*
X92844Y214760D01*
X92829Y214773D01*
X92733Y214812D01*
X92639Y214855D01*
X92619Y214857D01*
X92601Y214865D01*
X92434Y214883D01*
X91532Y214883D01*
X90639Y215776D01*
X90639Y231264D01*
X91532Y232157D01*
X99908Y232157D01*
X100801Y231264D01*
X100801Y215776D01*
X99776Y214751D01*
X99764Y214735D01*
X99748Y214723D01*
X99693Y214636D01*
X99632Y214552D01*
X99626Y214533D01*
X99615Y214516D01*
X99590Y214415D01*
X99560Y214317D01*
X99560Y214297D01*
X99555Y214277D01*
X99563Y214174D01*
X99566Y214071D01*
X99573Y214052D01*
X99575Y214032D01*
X99615Y213937D01*
X99651Y213840D01*
X99663Y213824D01*
X99671Y213806D01*
X99776Y213675D01*
X99883Y213568D01*
X99957Y213514D01*
X100026Y213455D01*
X100056Y213443D01*
X100083Y213424D01*
X100170Y213397D01*
X100254Y213363D01*
X100295Y213359D01*
X100318Y213352D01*
X100350Y213353D01*
X100421Y213345D01*
X105134Y213345D01*
X105154Y213348D01*
X105173Y213346D01*
X105275Y213368D01*
X105377Y213384D01*
X105394Y213394D01*
X105414Y213398D01*
X105503Y213451D01*
X105594Y213500D01*
X105608Y213514D01*
X105625Y213524D01*
X105692Y213603D01*
X105764Y213678D01*
X105772Y213696D01*
X105785Y213711D01*
X105824Y213807D01*
X105867Y213901D01*
X105869Y213921D01*
X105877Y213939D01*
X105895Y214106D01*
X105895Y214122D01*
X105893Y214135D01*
X105894Y214145D01*
X105893Y214151D01*
X105894Y214161D01*
X105872Y214263D01*
X105856Y214365D01*
X105846Y214382D01*
X105842Y214402D01*
X105789Y214491D01*
X105740Y214582D01*
X105726Y214596D01*
X105716Y214613D01*
X105637Y214680D01*
X105562Y214752D01*
X105544Y214760D01*
X105529Y214773D01*
X105433Y214812D01*
X105339Y214855D01*
X105319Y214857D01*
X105301Y214865D01*
X105134Y214883D01*
X104232Y214883D01*
X103339Y215776D01*
X103339Y231264D01*
X104232Y232157D01*
X112608Y232157D01*
X113501Y231264D01*
X113501Y215776D01*
X112476Y214751D01*
X112464Y214735D01*
X112448Y214723D01*
X112392Y214636D01*
X112332Y214552D01*
X112326Y214533D01*
X112315Y214516D01*
X112290Y214415D01*
X112260Y214317D01*
X112260Y214297D01*
X112255Y214277D01*
X112263Y214174D01*
X112266Y214071D01*
X112273Y214052D01*
X112275Y214032D01*
X112315Y213937D01*
X112351Y213840D01*
X112363Y213824D01*
X112371Y213806D01*
X112476Y213675D01*
X117377Y208774D01*
X117451Y208721D01*
X117520Y208661D01*
X117550Y208649D01*
X117577Y208630D01*
X117664Y208603D01*
X117748Y208569D01*
X117789Y208565D01*
X117812Y208558D01*
X117844Y208559D01*
X117915Y208551D01*
X120051Y208551D01*
X120122Y208562D01*
X120193Y208564D01*
X120242Y208582D01*
X120294Y208590D01*
X120357Y208624D01*
X120424Y208649D01*
X120465Y208681D01*
X120511Y208706D01*
X120560Y208758D01*
X120616Y208802D01*
X120645Y208846D01*
X120680Y208884D01*
X120711Y208949D01*
X120749Y209009D01*
X120762Y209060D01*
X120784Y209107D01*
X120792Y209178D01*
X120809Y209248D01*
X120805Y209300D01*
X120811Y209351D01*
X120796Y209422D01*
X120790Y209493D01*
X120770Y209541D01*
X120759Y209592D01*
X120722Y209653D01*
X120694Y209719D01*
X120649Y209775D01*
X120633Y209803D01*
X120615Y209818D01*
X120589Y209850D01*
X118595Y211844D01*
X118595Y214122D01*
X118592Y214142D01*
X118594Y214161D01*
X118572Y214263D01*
X118556Y214365D01*
X118546Y214382D01*
X118542Y214402D01*
X118489Y214491D01*
X118440Y214582D01*
X118426Y214596D01*
X118416Y214613D01*
X118337Y214680D01*
X118262Y214752D01*
X118244Y214760D01*
X118229Y214773D01*
X118133Y214812D01*
X118039Y214855D01*
X118019Y214857D01*
X118001Y214865D01*
X117834Y214883D01*
X116932Y214883D01*
X116039Y215776D01*
X116039Y231264D01*
X116932Y232157D01*
X125308Y232157D01*
X126201Y231264D01*
X126201Y215776D01*
X125308Y214883D01*
X124535Y214883D01*
X124464Y214872D01*
X124393Y214870D01*
X124344Y214852D01*
X124292Y214844D01*
X124229Y214810D01*
X124162Y214785D01*
X124121Y214753D01*
X124075Y214728D01*
X124026Y214676D01*
X123970Y214632D01*
X123941Y214588D01*
X123906Y214550D01*
X123875Y214485D01*
X123837Y214425D01*
X123824Y214374D01*
X123802Y214327D01*
X123794Y214256D01*
X123777Y214186D01*
X123781Y214134D01*
X123775Y214083D01*
X123790Y214012D01*
X123796Y213941D01*
X123816Y213893D01*
X123827Y213842D01*
X123864Y213781D01*
X123892Y213715D01*
X123937Y213659D01*
X123953Y213631D01*
X123971Y213616D01*
X123997Y213584D01*
X125283Y212298D01*
X125357Y212245D01*
X125426Y212185D01*
X125456Y212173D01*
X125483Y212154D01*
X125570Y212127D01*
X125654Y212093D01*
X125695Y212089D01*
X125718Y212082D01*
X125750Y212083D01*
X125821Y212075D01*
X130534Y212075D01*
X130554Y212078D01*
X130573Y212076D01*
X130675Y212098D01*
X130777Y212114D01*
X130794Y212124D01*
X130814Y212128D01*
X130903Y212181D01*
X130994Y212230D01*
X131008Y212244D01*
X131025Y212254D01*
X131092Y212333D01*
X131164Y212408D01*
X131172Y212426D01*
X131185Y212441D01*
X131224Y212537D01*
X131267Y212631D01*
X131269Y212651D01*
X131277Y212669D01*
X131295Y212836D01*
X131295Y214122D01*
X131292Y214142D01*
X131294Y214161D01*
X131272Y214263D01*
X131256Y214365D01*
X131246Y214382D01*
X131242Y214402D01*
X131189Y214491D01*
X131140Y214582D01*
X131126Y214596D01*
X131116Y214613D01*
X131037Y214680D01*
X130962Y214752D01*
X130944Y214760D01*
X130929Y214773D01*
X130833Y214812D01*
X130739Y214855D01*
X130719Y214857D01*
X130701Y214865D01*
X130534Y214883D01*
X129632Y214883D01*
X128739Y215776D01*
X128739Y231264D01*
X129632Y232157D01*
X138008Y232157D01*
X138901Y231264D01*
X138901Y215776D01*
X138008Y214883D01*
X137235Y214883D01*
X137164Y214872D01*
X137093Y214870D01*
X137044Y214852D01*
X136992Y214844D01*
X136929Y214810D01*
X136862Y214785D01*
X136821Y214753D01*
X136775Y214728D01*
X136726Y214676D01*
X136670Y214632D01*
X136641Y214588D01*
X136606Y214550D01*
X136575Y214485D01*
X136537Y214425D01*
X136524Y214374D01*
X136502Y214327D01*
X136494Y214256D01*
X136477Y214186D01*
X136481Y214134D01*
X136475Y214083D01*
X136490Y214012D01*
X136496Y213941D01*
X136516Y213893D01*
X136527Y213842D01*
X136564Y213781D01*
X136592Y213715D01*
X136637Y213659D01*
X136653Y213631D01*
X136671Y213616D01*
X136697Y213584D01*
X137983Y212298D01*
X138057Y212245D01*
X138126Y212185D01*
X138156Y212173D01*
X138183Y212154D01*
X138270Y212127D01*
X138354Y212093D01*
X138395Y212089D01*
X138418Y212082D01*
X138450Y212083D01*
X138521Y212075D01*
X143234Y212075D01*
X143254Y212078D01*
X143273Y212076D01*
X143375Y212098D01*
X143477Y212114D01*
X143494Y212124D01*
X143514Y212128D01*
X143603Y212181D01*
X143694Y212230D01*
X143708Y212244D01*
X143725Y212254D01*
X143792Y212333D01*
X143864Y212408D01*
X143872Y212426D01*
X143885Y212441D01*
X143924Y212537D01*
X143967Y212631D01*
X143969Y212651D01*
X143977Y212669D01*
X143995Y212836D01*
X143995Y214122D01*
X143992Y214142D01*
X143994Y214161D01*
X143972Y214263D01*
X143956Y214365D01*
X143946Y214382D01*
X143942Y214402D01*
X143889Y214491D01*
X143840Y214582D01*
X143826Y214596D01*
X143816Y214613D01*
X143737Y214680D01*
X143662Y214752D01*
X143644Y214760D01*
X143629Y214773D01*
X143533Y214812D01*
X143439Y214855D01*
X143419Y214857D01*
X143401Y214865D01*
X143234Y214883D01*
X142332Y214883D01*
X141439Y215776D01*
X141439Y231264D01*
X142332Y232157D01*
X150708Y232157D01*
X151601Y231264D01*
X151601Y215776D01*
X150708Y214883D01*
X149935Y214883D01*
X149864Y214872D01*
X149793Y214870D01*
X149744Y214852D01*
X149692Y214844D01*
X149629Y214810D01*
X149562Y214785D01*
X149521Y214753D01*
X149475Y214728D01*
X149426Y214677D01*
X149370Y214632D01*
X149341Y214588D01*
X149306Y214550D01*
X149275Y214485D01*
X149237Y214425D01*
X149224Y214374D01*
X149202Y214327D01*
X149194Y214256D01*
X149177Y214186D01*
X149181Y214134D01*
X149175Y214083D01*
X149190Y214012D01*
X149196Y213941D01*
X149216Y213893D01*
X149227Y213842D01*
X149264Y213781D01*
X149292Y213715D01*
X149337Y213659D01*
X149353Y213631D01*
X149371Y213616D01*
X149397Y213584D01*
X155763Y207218D01*
X155837Y207165D01*
X155906Y207105D01*
X155936Y207093D01*
X155963Y207074D01*
X156049Y207047D01*
X156134Y207013D01*
X156175Y207009D01*
X156198Y207002D01*
X156230Y207003D01*
X156301Y206995D01*
X166146Y206995D01*
X167848Y205293D01*
X173484Y199657D01*
X173542Y199615D01*
X173594Y199566D01*
X173641Y199544D01*
X173683Y199513D01*
X173752Y199492D01*
X173817Y199462D01*
X173869Y199456D01*
X173919Y199441D01*
X173990Y199443D01*
X174061Y199435D01*
X174112Y199446D01*
X174164Y199447D01*
X174232Y199472D01*
X174302Y199487D01*
X174346Y199514D01*
X174395Y199532D01*
X174451Y199577D01*
X174513Y199613D01*
X174547Y199653D01*
X174587Y199685D01*
X174626Y199746D01*
X174673Y199800D01*
X174692Y199849D01*
X174720Y199892D01*
X174738Y199962D01*
X174765Y200028D01*
X174773Y200100D01*
X174781Y200131D01*
X174779Y200154D01*
X174783Y200195D01*
X174783Y236468D01*
X174780Y236488D01*
X174782Y236507D01*
X174760Y236609D01*
X174744Y236711D01*
X174734Y236728D01*
X174730Y236748D01*
X174677Y236837D01*
X174628Y236928D01*
X174614Y236942D01*
X174604Y236959D01*
X174525Y237026D01*
X174450Y237098D01*
X174432Y237106D01*
X174417Y237119D01*
X174321Y237158D01*
X174227Y237201D01*
X174207Y237203D01*
X174189Y237211D01*
X174022Y237229D01*
X158626Y237229D01*
X157733Y238122D01*
X157733Y246498D01*
X158626Y247391D01*
X174114Y247391D01*
X175007Y246498D01*
X175007Y244947D01*
X175021Y244857D01*
X175029Y244766D01*
X175041Y244736D01*
X175046Y244704D01*
X175089Y244624D01*
X175125Y244540D01*
X175151Y244508D01*
X175162Y244487D01*
X175185Y244465D01*
X175230Y244409D01*
X177246Y242392D01*
X177284Y242365D01*
X177315Y242331D01*
X177383Y242294D01*
X177446Y242249D01*
X177490Y242235D01*
X177530Y242213D01*
X177607Y242199D01*
X177681Y242176D01*
X177727Y242177D01*
X177772Y242169D01*
X177849Y242181D01*
X177927Y242183D01*
X177970Y242198D01*
X178016Y242205D01*
X178085Y242240D01*
X178158Y242267D01*
X178194Y242296D01*
X178235Y242316D01*
X178289Y242372D01*
X178350Y242421D01*
X178375Y242459D01*
X178407Y242492D01*
X178473Y242612D01*
X178483Y242628D01*
X178484Y242632D01*
X178488Y242639D01*
X179970Y246217D01*
X183043Y249290D01*
X187057Y250953D01*
X191403Y250953D01*
X195417Y249290D01*
X197455Y247252D01*
X197513Y247210D01*
X197565Y247161D01*
X197612Y247139D01*
X197654Y247109D01*
X197723Y247088D01*
X197788Y247057D01*
X197840Y247052D01*
X197890Y247036D01*
X197961Y247038D01*
X198032Y247030D01*
X198083Y247041D01*
X198135Y247043D01*
X198203Y247067D01*
X198273Y247083D01*
X198318Y247109D01*
X198366Y247127D01*
X198422Y247172D01*
X198484Y247209D01*
X198518Y247248D01*
X198558Y247281D01*
X198597Y247341D01*
X198644Y247396D01*
X198663Y247444D01*
X198691Y247488D01*
X198709Y247557D01*
X198736Y247624D01*
X198744Y247695D01*
X198752Y247726D01*
X198750Y247750D01*
X198754Y247791D01*
X198754Y257669D01*
X198743Y257740D01*
X198741Y257812D01*
X198723Y257861D01*
X198715Y257912D01*
X198681Y257975D01*
X198656Y258043D01*
X198624Y258083D01*
X198599Y258130D01*
X198547Y258179D01*
X198503Y258235D01*
X198459Y258263D01*
X198421Y258299D01*
X198356Y258329D01*
X198296Y258368D01*
X198245Y258381D01*
X198198Y258403D01*
X198127Y258410D01*
X198057Y258428D01*
X198005Y258424D01*
X197954Y258430D01*
X197883Y258414D01*
X197812Y258409D01*
X197764Y258388D01*
X197713Y258377D01*
X197652Y258341D01*
X197586Y258312D01*
X197530Y258268D01*
X197502Y258251D01*
X197487Y258233D01*
X197455Y258208D01*
X195417Y256170D01*
X191403Y254507D01*
X187057Y254507D01*
X183043Y256170D01*
X179970Y259243D01*
X178307Y263257D01*
X178307Y267603D01*
X179970Y271617D01*
X183043Y274690D01*
X187057Y276353D01*
X191403Y276353D01*
X195417Y274690D01*
X197455Y272652D01*
X197513Y272610D01*
X197565Y272561D01*
X197612Y272539D01*
X197654Y272509D01*
X197723Y272488D01*
X197788Y272457D01*
X197840Y272452D01*
X197890Y272436D01*
X197961Y272438D01*
X198032Y272430D01*
X198083Y272441D01*
X198135Y272443D01*
X198203Y272467D01*
X198273Y272483D01*
X198318Y272509D01*
X198366Y272527D01*
X198422Y272572D01*
X198484Y272609D01*
X198518Y272648D01*
X198558Y272681D01*
X198597Y272741D01*
X198644Y272796D01*
X198663Y272844D01*
X198691Y272888D01*
X198709Y272957D01*
X198736Y273024D01*
X198744Y273095D01*
X198752Y273126D01*
X198750Y273150D01*
X198754Y273191D01*
X198754Y283069D01*
X198743Y283140D01*
X198741Y283212D01*
X198723Y283261D01*
X198715Y283312D01*
X198681Y283375D01*
X198656Y283443D01*
X198624Y283483D01*
X198599Y283530D01*
X198547Y283579D01*
X198503Y283635D01*
X198459Y283663D01*
X198421Y283699D01*
X198356Y283729D01*
X198296Y283768D01*
X198245Y283781D01*
X198198Y283803D01*
X198127Y283810D01*
X198057Y283828D01*
X198005Y283824D01*
X197954Y283830D01*
X197883Y283814D01*
X197812Y283809D01*
X197764Y283788D01*
X197713Y283777D01*
X197652Y283741D01*
X197586Y283712D01*
X197530Y283668D01*
X197502Y283651D01*
X197487Y283633D01*
X197455Y283608D01*
X195417Y281570D01*
X191403Y279907D01*
X187057Y279907D01*
X183043Y281570D01*
X179970Y284643D01*
X178307Y288657D01*
X178307Y293003D01*
X179970Y297017D01*
X181088Y298135D01*
X181100Y298151D01*
X181115Y298164D01*
X181171Y298251D01*
X181231Y298335D01*
X181237Y298354D01*
X181248Y298371D01*
X181273Y298471D01*
X181304Y298570D01*
X181303Y298590D01*
X181308Y298609D01*
X181300Y298712D01*
X181297Y298816D01*
X181291Y298834D01*
X181289Y298854D01*
X181249Y298949D01*
X181213Y299047D01*
X181200Y299062D01*
X181193Y299081D01*
X181088Y299212D01*
X177237Y303062D01*
X177163Y303115D01*
X177094Y303175D01*
X177064Y303187D01*
X177037Y303206D01*
X176950Y303233D01*
X176866Y303267D01*
X176825Y303271D01*
X176802Y303278D01*
X176770Y303277D01*
X176699Y303285D01*
X175768Y303285D01*
X175748Y303282D01*
X175729Y303284D01*
X175627Y303262D01*
X175525Y303246D01*
X175508Y303236D01*
X175488Y303232D01*
X175399Y303179D01*
X175308Y303130D01*
X175294Y303116D01*
X175277Y303106D01*
X175210Y303027D01*
X175138Y302952D01*
X175130Y302934D01*
X175117Y302919D01*
X175078Y302823D01*
X175035Y302729D01*
X175033Y302709D01*
X175025Y302691D01*
X175007Y302524D01*
X175007Y301622D01*
X174114Y300729D01*
X158626Y300729D01*
X157733Y301622D01*
X157733Y309998D01*
X158626Y310891D01*
X174114Y310891D01*
X175007Y309998D01*
X175007Y309096D01*
X175010Y309076D01*
X175008Y309057D01*
X175030Y308955D01*
X175046Y308853D01*
X175056Y308836D01*
X175060Y308816D01*
X175113Y308727D01*
X175162Y308636D01*
X175176Y308622D01*
X175186Y308605D01*
X175265Y308538D01*
X175340Y308466D01*
X175358Y308458D01*
X175373Y308445D01*
X175469Y308406D01*
X175563Y308363D01*
X175583Y308361D01*
X175601Y308353D01*
X175768Y308335D01*
X179106Y308335D01*
X185729Y301711D01*
X185825Y301643D01*
X185918Y301573D01*
X185924Y301571D01*
X185929Y301568D01*
X186041Y301533D01*
X186152Y301497D01*
X186158Y301497D01*
X186164Y301495D01*
X186281Y301498D01*
X186398Y301500D01*
X186405Y301502D01*
X186410Y301502D01*
X186427Y301508D01*
X186559Y301546D01*
X187057Y301753D01*
X191403Y301753D01*
X195417Y300090D01*
X197455Y298052D01*
X197513Y298010D01*
X197565Y297961D01*
X197612Y297939D01*
X197654Y297909D01*
X197723Y297888D01*
X197788Y297857D01*
X197840Y297852D01*
X197890Y297836D01*
X197961Y297838D01*
X198032Y297830D01*
X198083Y297841D01*
X198135Y297843D01*
X198203Y297867D01*
X198273Y297883D01*
X198318Y297909D01*
X198366Y297927D01*
X198422Y297972D01*
X198484Y298009D01*
X198518Y298048D01*
X198558Y298081D01*
X198597Y298141D01*
X198644Y298196D01*
X198663Y298244D01*
X198691Y298288D01*
X198709Y298357D01*
X198736Y298424D01*
X198744Y298495D01*
X198752Y298526D01*
X198750Y298550D01*
X198754Y298591D01*
X198754Y308469D01*
X198743Y308540D01*
X198741Y308612D01*
X198723Y308661D01*
X198715Y308712D01*
X198681Y308775D01*
X198656Y308843D01*
X198624Y308883D01*
X198599Y308930D01*
X198547Y308979D01*
X198503Y309035D01*
X198459Y309063D01*
X198421Y309099D01*
X198356Y309129D01*
X198296Y309168D01*
X198245Y309181D01*
X198198Y309203D01*
X198127Y309210D01*
X198057Y309228D01*
X198005Y309224D01*
X197954Y309230D01*
X197883Y309214D01*
X197812Y309209D01*
X197764Y309188D01*
X197713Y309177D01*
X197652Y309141D01*
X197586Y309112D01*
X197530Y309068D01*
X197502Y309051D01*
X197487Y309033D01*
X197455Y309008D01*
X195417Y306970D01*
X191403Y305307D01*
X187057Y305307D01*
X183043Y306970D01*
X179970Y310043D01*
X178307Y314057D01*
X178307Y315224D01*
X178304Y315244D01*
X178306Y315263D01*
X178284Y315365D01*
X178268Y315467D01*
X178258Y315484D01*
X178254Y315504D01*
X178201Y315593D01*
X178152Y315684D01*
X178138Y315698D01*
X178128Y315715D01*
X178049Y315782D01*
X177974Y315854D01*
X177956Y315862D01*
X177941Y315875D01*
X177845Y315914D01*
X177751Y315957D01*
X177731Y315959D01*
X177713Y315967D01*
X177546Y315985D01*
X175768Y315985D01*
X175748Y315982D01*
X175729Y315984D01*
X175627Y315962D01*
X175525Y315946D01*
X175508Y315936D01*
X175488Y315932D01*
X175399Y315879D01*
X175308Y315830D01*
X175294Y315816D01*
X175277Y315806D01*
X175210Y315727D01*
X175138Y315652D01*
X175130Y315634D01*
X175117Y315619D01*
X175078Y315523D01*
X175035Y315429D01*
X175033Y315409D01*
X175025Y315391D01*
X175007Y315224D01*
X175007Y314322D01*
X174114Y313429D01*
X158626Y313429D01*
X157733Y314322D01*
X157733Y322698D01*
X158626Y323591D01*
X174114Y323591D01*
X175007Y322698D01*
X175007Y321796D01*
X175010Y321776D01*
X175008Y321757D01*
X175030Y321655D01*
X175046Y321553D01*
X175056Y321536D01*
X175060Y321516D01*
X175113Y321427D01*
X175162Y321336D01*
X175176Y321322D01*
X175186Y321305D01*
X175265Y321238D01*
X175340Y321166D01*
X175358Y321158D01*
X175373Y321145D01*
X175469Y321106D01*
X175563Y321063D01*
X175583Y321061D01*
X175601Y321053D01*
X175768Y321035D01*
X178889Y321035D01*
X179004Y321054D01*
X179120Y321071D01*
X179125Y321073D01*
X179132Y321074D01*
X179234Y321129D01*
X179339Y321182D01*
X179343Y321187D01*
X179349Y321190D01*
X179429Y321274D01*
X179511Y321358D01*
X179515Y321364D01*
X179518Y321368D01*
X179526Y321385D01*
X179592Y321505D01*
X179970Y322417D01*
X183043Y325490D01*
X187057Y327153D01*
X191403Y327153D01*
X195417Y325490D01*
X197455Y323452D01*
X197513Y323410D01*
X197565Y323361D01*
X197612Y323339D01*
X197654Y323309D01*
X197723Y323288D01*
X197788Y323257D01*
X197840Y323252D01*
X197890Y323236D01*
X197961Y323238D01*
X198032Y323230D01*
X198083Y323241D01*
X198135Y323243D01*
X198203Y323267D01*
X198273Y323283D01*
X198318Y323309D01*
X198366Y323327D01*
X198422Y323372D01*
X198484Y323409D01*
X198518Y323448D01*
X198558Y323481D01*
X198597Y323541D01*
X198644Y323596D01*
X198663Y323644D01*
X198691Y323688D01*
X198709Y323757D01*
X198736Y323824D01*
X198744Y323895D01*
X198752Y323926D01*
X198750Y323950D01*
X198754Y323991D01*
X198754Y333869D01*
X198743Y333940D01*
X198741Y334012D01*
X198723Y334061D01*
X198715Y334112D01*
X198681Y334175D01*
X198656Y334243D01*
X198624Y334283D01*
X198599Y334330D01*
X198547Y334379D01*
X198503Y334435D01*
X198459Y334463D01*
X198421Y334499D01*
X198356Y334529D01*
X198296Y334568D01*
X198245Y334581D01*
X198198Y334603D01*
X198127Y334610D01*
X198057Y334628D01*
X198005Y334624D01*
X197954Y334630D01*
X197883Y334614D01*
X197812Y334609D01*
X197764Y334588D01*
X197713Y334577D01*
X197652Y334541D01*
X197586Y334512D01*
X197530Y334468D01*
X197502Y334451D01*
X197487Y334433D01*
X197455Y334408D01*
X195417Y332370D01*
X191403Y330707D01*
X187057Y330707D01*
X184763Y331658D01*
X184649Y331684D01*
X184536Y331713D01*
X184529Y331712D01*
X184523Y331714D01*
X184407Y331703D01*
X184290Y331694D01*
X184285Y331691D01*
X184278Y331691D01*
X184171Y331643D01*
X184064Y331597D01*
X184058Y331593D01*
X184054Y331591D01*
X184040Y331578D01*
X183933Y331493D01*
X181386Y328945D01*
X175768Y328945D01*
X175748Y328942D01*
X175729Y328944D01*
X175627Y328922D01*
X175525Y328906D01*
X175508Y328896D01*
X175488Y328892D01*
X175399Y328839D01*
X175308Y328790D01*
X175294Y328776D01*
X175277Y328766D01*
X175210Y328687D01*
X175138Y328612D01*
X175130Y328594D01*
X175117Y328579D01*
X175078Y328483D01*
X175035Y328389D01*
X175033Y328369D01*
X175025Y328351D01*
X175007Y328184D01*
X175007Y327022D01*
X174114Y326129D01*
X158626Y326129D01*
X157733Y327022D01*
X157733Y335398D01*
X158626Y336291D01*
X174114Y336291D01*
X175007Y335398D01*
X175007Y334756D01*
X175010Y334736D01*
X175008Y334717D01*
X175030Y334615D01*
X175046Y334513D01*
X175056Y334496D01*
X175060Y334476D01*
X175113Y334387D01*
X175162Y334296D01*
X175176Y334282D01*
X175186Y334265D01*
X175265Y334198D01*
X175340Y334126D01*
X175358Y334118D01*
X175373Y334105D01*
X175469Y334066D01*
X175563Y334023D01*
X175583Y334021D01*
X175601Y334013D01*
X175768Y333995D01*
X178979Y333995D01*
X179069Y334009D01*
X179160Y334017D01*
X179190Y334029D01*
X179222Y334034D01*
X179302Y334077D01*
X179386Y334113D01*
X179418Y334139D01*
X179439Y334150D01*
X179461Y334173D01*
X179517Y334218D01*
X179837Y334537D01*
X179905Y334632D01*
X179975Y334726D01*
X179977Y334732D01*
X179980Y334737D01*
X180015Y334849D01*
X180051Y334960D01*
X180051Y334966D01*
X180053Y334972D01*
X180050Y335089D01*
X180048Y335206D01*
X180046Y335213D01*
X180046Y335218D01*
X180040Y335235D01*
X180002Y335367D01*
X178307Y339457D01*
X178307Y343803D01*
X179970Y347817D01*
X182008Y349855D01*
X182050Y349913D01*
X182099Y349965D01*
X182121Y350012D01*
X182151Y350054D01*
X182172Y350123D01*
X182203Y350188D01*
X182208Y350240D01*
X182224Y350290D01*
X182222Y350361D01*
X182230Y350432D01*
X182219Y350483D01*
X182217Y350535D01*
X182193Y350603D01*
X182177Y350673D01*
X182151Y350718D01*
X182133Y350766D01*
X182088Y350822D01*
X182051Y350884D01*
X182012Y350918D01*
X181979Y350958D01*
X181919Y350997D01*
X181864Y351044D01*
X181816Y351063D01*
X181772Y351091D01*
X181703Y351109D01*
X181636Y351136D01*
X181565Y351144D01*
X181534Y351152D01*
X181510Y351150D01*
X181469Y351154D01*
X175016Y351154D01*
X174969Y351147D01*
X174921Y351148D01*
X174848Y351127D01*
X174773Y351115D01*
X174731Y351092D01*
X174685Y351078D01*
X174623Y351035D01*
X174556Y350999D01*
X174523Y350965D01*
X174484Y350937D01*
X174439Y350876D01*
X174387Y350821D01*
X174366Y350777D01*
X174338Y350739D01*
X174315Y350667D01*
X174283Y350598D01*
X174278Y350550D01*
X174263Y350505D01*
X174264Y350429D01*
X174256Y350354D01*
X174266Y350307D01*
X174267Y350259D01*
X174292Y350187D01*
X174308Y350113D01*
X174333Y350072D01*
X174349Y350027D01*
X174395Y349967D01*
X174434Y349902D01*
X174471Y349871D01*
X174500Y349833D01*
X174604Y349757D01*
X174621Y349742D01*
X174628Y349740D01*
X174636Y349734D01*
X175042Y349499D01*
X175515Y349026D01*
X175850Y348447D01*
X176023Y347800D01*
X176023Y345433D01*
X167132Y345433D01*
X167112Y345430D01*
X167093Y345432D01*
X166991Y345410D01*
X166889Y345393D01*
X166872Y345384D01*
X166852Y345380D01*
X166763Y345327D01*
X166672Y345278D01*
X166658Y345264D01*
X166641Y345254D01*
X166574Y345175D01*
X166503Y345100D01*
X166494Y345082D01*
X166481Y345067D01*
X166442Y344971D01*
X166399Y344877D01*
X166397Y344857D01*
X166389Y344839D01*
X166371Y344672D01*
X166371Y343909D01*
X166369Y343909D01*
X166369Y344672D01*
X166366Y344692D01*
X166368Y344711D01*
X166346Y344813D01*
X166329Y344915D01*
X166320Y344932D01*
X166316Y344952D01*
X166263Y345041D01*
X166214Y345132D01*
X166200Y345146D01*
X166190Y345163D01*
X166111Y345230D01*
X166036Y345301D01*
X166018Y345310D01*
X166003Y345323D01*
X165907Y345362D01*
X165813Y345405D01*
X165793Y345407D01*
X165775Y345415D01*
X165608Y345433D01*
X156717Y345433D01*
X156717Y347800D01*
X156890Y348447D01*
X157225Y349026D01*
X157698Y349499D01*
X158104Y349734D01*
X158142Y349764D01*
X158184Y349787D01*
X158236Y349841D01*
X158295Y349889D01*
X158320Y349930D01*
X158353Y349965D01*
X158385Y350034D01*
X158426Y350098D01*
X158437Y350144D01*
X158457Y350188D01*
X158465Y350263D01*
X158483Y350337D01*
X158479Y350385D01*
X158484Y350432D01*
X158468Y350506D01*
X158461Y350582D01*
X158442Y350626D01*
X158432Y350673D01*
X158393Y350738D01*
X158363Y350807D01*
X158330Y350843D01*
X158306Y350884D01*
X158248Y350933D01*
X158197Y350989D01*
X158155Y351013D01*
X158119Y351044D01*
X158048Y351072D01*
X157982Y351109D01*
X157935Y351118D01*
X157891Y351136D01*
X157762Y351150D01*
X157740Y351154D01*
X157734Y351153D01*
X157724Y351154D01*
X45046Y351154D01*
X44999Y351147D01*
X44951Y351148D01*
X44878Y351127D01*
X44803Y351115D01*
X44761Y351092D01*
X44715Y351078D01*
X44653Y351035D01*
X44586Y350999D01*
X44553Y350965D01*
X44514Y350937D01*
X44469Y350876D01*
X44417Y350821D01*
X44396Y350778D01*
X44368Y350739D01*
X44345Y350667D01*
X44313Y350598D01*
X44308Y350550D01*
X44293Y350505D01*
X44294Y350429D01*
X44286Y350354D01*
X44296Y350307D01*
X44297Y350259D01*
X44322Y350187D01*
X44338Y350113D01*
X44363Y350072D01*
X44379Y350027D01*
X44426Y349967D01*
X44464Y349902D01*
X44501Y349871D01*
X44530Y349833D01*
X44634Y349757D01*
X44651Y349742D01*
X44658Y349740D01*
X44666Y349734D01*
X45072Y349499D01*
X45545Y349026D01*
X45880Y348447D01*
X46053Y347800D01*
X46053Y345433D01*
X37162Y345433D01*
X37142Y345430D01*
X37123Y345432D01*
X37021Y345410D01*
X36919Y345393D01*
X36902Y345384D01*
X36882Y345380D01*
X36793Y345327D01*
X36702Y345278D01*
X36688Y345264D01*
X36671Y345254D01*
X36604Y345175D01*
X36533Y345100D01*
X36524Y345082D01*
X36511Y345067D01*
X36472Y344971D01*
X36429Y344877D01*
X36427Y344857D01*
X36419Y344839D01*
X36401Y344672D01*
X36401Y343909D01*
X36399Y343909D01*
X36399Y344672D01*
X36396Y344692D01*
X36398Y344711D01*
X36376Y344813D01*
X36359Y344915D01*
X36350Y344932D01*
X36346Y344952D01*
X36293Y345041D01*
X36244Y345132D01*
X36230Y345146D01*
X36220Y345163D01*
X36141Y345230D01*
X36066Y345301D01*
X36048Y345310D01*
X36033Y345323D01*
X35937Y345362D01*
X35843Y345405D01*
X35823Y345407D01*
X35805Y345415D01*
X35638Y345433D01*
X26747Y345433D01*
X26747Y347800D01*
X26920Y348447D01*
X27255Y349026D01*
X27728Y349499D01*
X28134Y349734D01*
X28172Y349764D01*
X28214Y349787D01*
X28266Y349842D01*
X28325Y349890D01*
X28350Y349930D01*
X28383Y349965D01*
X28415Y350034D01*
X28456Y350098D01*
X28467Y350144D01*
X28487Y350188D01*
X28495Y350263D01*
X28513Y350337D01*
X28509Y350385D01*
X28514Y350432D01*
X28498Y350507D01*
X28491Y350582D01*
X28472Y350626D01*
X28462Y350673D01*
X28423Y350738D01*
X28392Y350807D01*
X28360Y350843D01*
X28336Y350884D01*
X28278Y350933D01*
X28227Y350989D01*
X28185Y351013D01*
X28149Y351044D01*
X28078Y351072D01*
X28012Y351109D01*
X27965Y351118D01*
X27921Y351136D01*
X27792Y351150D01*
X27770Y351154D01*
X27764Y351153D01*
X27754Y351154D01*
X20627Y351154D01*
X20557Y351143D01*
X20485Y351141D01*
X20436Y351123D01*
X20385Y351115D01*
X20321Y351081D01*
X20254Y351056D01*
X20213Y351024D01*
X20167Y350999D01*
X20118Y350947D01*
X20062Y350903D01*
X20034Y350859D01*
X19998Y350821D01*
X19968Y350756D01*
X19929Y350696D01*
X19916Y350645D01*
X19894Y350598D01*
X19886Y350527D01*
X19869Y350457D01*
X19873Y350405D01*
X19867Y350354D01*
X19882Y350283D01*
X19888Y350212D01*
X19908Y350164D01*
X19919Y350113D01*
X19956Y350052D01*
X19984Y349986D01*
X20029Y349930D01*
X20046Y349902D01*
X20063Y349887D01*
X20089Y349855D01*
X20536Y349408D01*
X21641Y347887D01*
X22494Y346213D01*
X23075Y344426D01*
X23276Y343153D01*
X12192Y343153D01*
X12172Y343150D01*
X12153Y343152D01*
X12051Y343130D01*
X11949Y343113D01*
X11932Y343104D01*
X11912Y343100D01*
X11823Y343047D01*
X11732Y342998D01*
X11718Y342984D01*
X11701Y342974D01*
X11634Y342895D01*
X11563Y342820D01*
X11554Y342802D01*
X11541Y342787D01*
X11503Y342691D01*
X11459Y342597D01*
X11457Y342577D01*
X11449Y342559D01*
X11431Y342392D01*
X11431Y341629D01*
X10668Y341629D01*
X10648Y341626D01*
X10629Y341628D01*
X10527Y341606D01*
X10425Y341589D01*
X10408Y341580D01*
X10388Y341576D01*
X10299Y341523D01*
X10208Y341474D01*
X10194Y341460D01*
X10177Y341450D01*
X10110Y341371D01*
X10039Y341296D01*
X10030Y341278D01*
X10017Y341263D01*
X9978Y341167D01*
X9935Y341073D01*
X9933Y341053D01*
X9925Y341035D01*
X9907Y340868D01*
X9907Y329784D01*
X8634Y329985D01*
X6847Y330566D01*
X5173Y331419D01*
X3652Y332524D01*
X3205Y332971D01*
X3147Y333013D01*
X3095Y333062D01*
X3048Y333084D01*
X3006Y333114D01*
X2937Y333135D01*
X2872Y333166D01*
X2820Y333171D01*
X2770Y333187D01*
X2699Y333185D01*
X2628Y333193D01*
X2577Y333182D01*
X2525Y333180D01*
X2457Y333156D01*
X2387Y333141D01*
X2342Y333114D01*
X2294Y333096D01*
X2238Y333051D01*
X2176Y333014D01*
X2142Y332975D01*
X2102Y332942D01*
X2063Y332882D01*
X2016Y332827D01*
X1997Y332779D01*
X1969Y332735D01*
X1951Y332666D01*
X1924Y332599D01*
X1916Y332528D01*
X1908Y332497D01*
X1910Y332473D01*
X1906Y332433D01*
X1906Y323991D01*
X1917Y323920D01*
X1919Y323848D01*
X1937Y323799D01*
X1945Y323748D01*
X1979Y323685D01*
X2004Y323617D01*
X2036Y323577D01*
X2061Y323530D01*
X2113Y323481D01*
X2157Y323425D01*
X2201Y323397D01*
X2239Y323361D01*
X2304Y323331D01*
X2364Y323292D01*
X2415Y323279D01*
X2462Y323257D01*
X2533Y323250D01*
X2603Y323232D01*
X2655Y323236D01*
X2706Y323230D01*
X2777Y323246D01*
X2848Y323251D01*
X2896Y323272D01*
X2947Y323283D01*
X3008Y323319D01*
X3074Y323348D01*
X3130Y323392D01*
X3158Y323409D01*
X3173Y323427D01*
X3205Y323452D01*
X5243Y325490D01*
X9257Y327153D01*
X13603Y327153D01*
X17617Y325490D01*
X20690Y322417D01*
X22353Y318403D01*
X22353Y314057D01*
X20690Y310043D01*
X17617Y306970D01*
X13603Y305307D01*
X9257Y305307D01*
X5243Y306970D01*
X3205Y309008D01*
X3147Y309050D01*
X3095Y309099D01*
X3048Y309121D01*
X3006Y309151D01*
X2937Y309172D01*
X2872Y309203D01*
X2820Y309208D01*
X2770Y309224D01*
X2699Y309222D01*
X2628Y309230D01*
X2577Y309219D01*
X2525Y309217D01*
X2457Y309193D01*
X2387Y309177D01*
X2342Y309151D01*
X2294Y309133D01*
X2238Y309088D01*
X2176Y309051D01*
X2142Y309012D01*
X2102Y308979D01*
X2063Y308919D01*
X2016Y308864D01*
X1997Y308816D01*
X1969Y308772D01*
X1951Y308703D01*
X1924Y308636D01*
X1916Y308565D01*
X1908Y308534D01*
X1910Y308510D01*
X1906Y308469D01*
X1906Y298591D01*
X1917Y298520D01*
X1919Y298448D01*
X1937Y298399D01*
X1945Y298348D01*
X1979Y298285D01*
X2004Y298217D01*
X2036Y298177D01*
X2061Y298130D01*
X2113Y298081D01*
X2157Y298025D01*
X2201Y297997D01*
X2239Y297961D01*
X2304Y297931D01*
X2364Y297892D01*
X2415Y297879D01*
X2462Y297857D01*
X2533Y297850D01*
X2603Y297832D01*
X2655Y297836D01*
X2706Y297830D01*
X2777Y297846D01*
X2848Y297851D01*
X2896Y297872D01*
X2947Y297883D01*
X3008Y297919D01*
X3074Y297948D01*
X3130Y297992D01*
X3158Y298009D01*
X3173Y298027D01*
X3205Y298052D01*
X5243Y300090D01*
X9257Y301753D01*
X13603Y301753D01*
X17617Y300090D01*
X20690Y297017D01*
X22353Y293003D01*
X22353Y288657D01*
X20690Y284643D01*
X17617Y281570D01*
X13603Y279907D01*
X9257Y279907D01*
X5243Y281570D01*
X3205Y283608D01*
X3147Y283650D01*
X3095Y283699D01*
X3048Y283721D01*
X3006Y283751D01*
X2937Y283772D01*
X2872Y283803D01*
X2820Y283808D01*
X2770Y283824D01*
X2699Y283822D01*
X2628Y283830D01*
X2577Y283819D01*
X2525Y283817D01*
X2457Y283793D01*
X2387Y283777D01*
X2342Y283751D01*
X2294Y283733D01*
X2238Y283688D01*
X2176Y283651D01*
X2142Y283612D01*
X2102Y283579D01*
X2063Y283519D01*
X2016Y283464D01*
X1997Y283416D01*
X1969Y283372D01*
X1951Y283303D01*
X1924Y283236D01*
X1916Y283165D01*
X1908Y283134D01*
X1910Y283110D01*
X1906Y283069D01*
X1906Y273191D01*
X1917Y273120D01*
X1919Y273048D01*
X1937Y272999D01*
X1945Y272948D01*
X1979Y272885D01*
X2004Y272817D01*
X2036Y272777D01*
X2061Y272730D01*
X2113Y272681D01*
X2157Y272625D01*
X2201Y272597D01*
X2239Y272561D01*
X2304Y272531D01*
X2364Y272492D01*
X2415Y272479D01*
X2462Y272457D01*
X2533Y272450D01*
X2603Y272432D01*
X2655Y272436D01*
X2706Y272430D01*
X2777Y272446D01*
X2848Y272451D01*
X2896Y272472D01*
X2947Y272483D01*
X3008Y272519D01*
X3074Y272548D01*
X3130Y272592D01*
X3158Y272609D01*
X3173Y272627D01*
X3205Y272652D01*
X5243Y274690D01*
X9257Y276353D01*
X13603Y276353D01*
X17617Y274690D01*
X20690Y271617D01*
X22353Y267603D01*
X22353Y263257D01*
X20690Y259243D01*
X17617Y256170D01*
X13603Y254507D01*
X9257Y254507D01*
X5243Y256170D01*
X3205Y258208D01*
X3147Y258250D01*
X3095Y258299D01*
X3048Y258321D01*
X3006Y258351D01*
X2937Y258372D01*
X2872Y258403D01*
X2820Y258408D01*
X2770Y258424D01*
X2699Y258422D01*
X2628Y258430D01*
X2577Y258419D01*
X2525Y258417D01*
X2457Y258393D01*
X2387Y258377D01*
X2342Y258351D01*
X2294Y258333D01*
X2238Y258288D01*
X2176Y258251D01*
X2142Y258212D01*
X2102Y258179D01*
X2063Y258119D01*
X2016Y258064D01*
X1997Y258016D01*
X1969Y257972D01*
X1951Y257903D01*
X1924Y257836D01*
X1916Y257765D01*
X1908Y257734D01*
X1910Y257710D01*
X1906Y257669D01*
X1906Y247791D01*
X1917Y247720D01*
X1919Y247648D01*
X1937Y247599D01*
X1945Y247548D01*
X1979Y247485D01*
X2004Y247417D01*
X2036Y247377D01*
X2061Y247330D01*
X2113Y247281D01*
X2157Y247225D01*
X2201Y247197D01*
X2239Y247161D01*
X2304Y247131D01*
X2364Y247092D01*
X2415Y247079D01*
X2462Y247057D01*
X2533Y247050D01*
X2603Y247032D01*
X2655Y247036D01*
X2706Y247030D01*
X2777Y247046D01*
X2848Y247051D01*
X2896Y247072D01*
X2947Y247083D01*
X3008Y247119D01*
X3074Y247148D01*
X3130Y247192D01*
X3158Y247209D01*
X3173Y247227D01*
X3205Y247252D01*
X5243Y249290D01*
X9257Y250953D01*
X13603Y250953D01*
X17617Y249290D01*
X20690Y246217D01*
X22353Y242203D01*
X22353Y237857D01*
X20690Y233843D01*
X17617Y230770D01*
X13603Y229107D01*
X9257Y229107D01*
X5243Y230770D01*
X3205Y232808D01*
X3147Y232850D01*
X3095Y232899D01*
X3048Y232921D01*
X3006Y232951D01*
X2937Y232972D01*
X2872Y233003D01*
X2820Y233008D01*
X2770Y233024D01*
X2699Y233022D01*
X2628Y233030D01*
X2577Y233019D01*
X2525Y233017D01*
X2457Y232993D01*
X2387Y232977D01*
X2342Y232951D01*
X2294Y232933D01*
X2238Y232888D01*
X2176Y232851D01*
X2142Y232812D01*
X2102Y232779D01*
X2063Y232719D01*
X2016Y232664D01*
X1997Y232616D01*
X1969Y232572D01*
X1951Y232503D01*
X1924Y232436D01*
X1916Y232365D01*
X1908Y232334D01*
X1910Y232310D01*
X1906Y232269D01*
X1906Y222391D01*
X1917Y222320D01*
X1919Y222248D01*
X1937Y222199D01*
X1945Y222148D01*
X1979Y222085D01*
X2004Y222017D01*
X2036Y221977D01*
X2061Y221930D01*
X2113Y221881D01*
X2157Y221825D01*
X2201Y221797D01*
X2239Y221761D01*
X2304Y221731D01*
X2364Y221692D01*
X2415Y221679D01*
X2462Y221657D01*
X2533Y221650D01*
X2603Y221632D01*
X2655Y221636D01*
X2706Y221630D01*
X2777Y221646D01*
X2848Y221651D01*
X2896Y221672D01*
X2947Y221683D01*
X3008Y221719D01*
X3074Y221748D01*
X3130Y221792D01*
X3158Y221809D01*
X3173Y221827D01*
X3205Y221852D01*
X5243Y223890D01*
X9257Y225553D01*
X13603Y225553D01*
X17617Y223890D01*
X20690Y220817D01*
X22353Y216803D01*
X22353Y212457D01*
X20690Y208443D01*
X17617Y205370D01*
X13603Y203707D01*
X9257Y203707D01*
X5243Y205370D01*
X3205Y207408D01*
X3147Y207450D01*
X3095Y207499D01*
X3048Y207521D01*
X3006Y207551D01*
X2937Y207572D01*
X2872Y207603D01*
X2820Y207608D01*
X2770Y207624D01*
X2699Y207622D01*
X2628Y207630D01*
X2577Y207619D01*
X2525Y207617D01*
X2457Y207593D01*
X2387Y207577D01*
X2342Y207551D01*
X2294Y207533D01*
X2238Y207488D01*
X2176Y207451D01*
X2142Y207412D01*
X2102Y207379D01*
X2063Y207319D01*
X2016Y207264D01*
X1997Y207216D01*
X1969Y207172D01*
X1951Y207103D01*
X1924Y207036D01*
X1916Y206965D01*
X1908Y206934D01*
X1910Y206910D01*
X1906Y206869D01*
X1906Y196991D01*
X1917Y196920D01*
X1919Y196848D01*
X1937Y196799D01*
X1945Y196748D01*
X1979Y196685D01*
X2004Y196617D01*
X2036Y196577D01*
X2061Y196530D01*
X2113Y196481D01*
X2157Y196425D01*
X2201Y196397D01*
X2239Y196361D01*
X2304Y196331D01*
X2364Y196292D01*
X2415Y196279D01*
X2462Y196257D01*
X2533Y196250D01*
X2603Y196232D01*
X2655Y196236D01*
X2706Y196230D01*
X2777Y196246D01*
X2848Y196251D01*
X2896Y196272D01*
X2947Y196283D01*
X3008Y196319D01*
X3074Y196348D01*
X3130Y196392D01*
X3158Y196409D01*
X3173Y196427D01*
X3205Y196452D01*
X5243Y198490D01*
X9257Y200153D01*
X13603Y200153D01*
X17617Y198490D01*
X19528Y196579D01*
X19586Y196537D01*
X19638Y196488D01*
X19685Y196466D01*
X19727Y196436D01*
X19796Y196415D01*
X19861Y196384D01*
X19913Y196379D01*
X19963Y196363D01*
X20034Y196365D01*
X20105Y196357D01*
X20156Y196368D01*
X20208Y196370D01*
X20276Y196394D01*
X20346Y196410D01*
X20391Y196436D01*
X20439Y196454D01*
X20495Y196499D01*
X20557Y196536D01*
X20591Y196575D01*
X20631Y196608D01*
X20670Y196668D01*
X20717Y196723D01*
X20736Y196771D01*
X20764Y196815D01*
X20782Y196884D01*
X20809Y196951D01*
X20817Y197022D01*
X20825Y197053D01*
X20823Y197077D01*
X20827Y197118D01*
X22529Y198820D01*
X31974Y208265D01*
X49439Y208265D01*
X49529Y208279D01*
X49620Y208287D01*
X49650Y208299D01*
X49682Y208304D01*
X49762Y208347D01*
X49846Y208383D01*
X49878Y208409D01*
X49899Y208420D01*
X49921Y208443D01*
X49977Y208488D01*
X54872Y213383D01*
X54925Y213457D01*
X54985Y213526D01*
X54997Y213556D01*
X55016Y213583D01*
X55043Y213670D01*
X55077Y213754D01*
X55081Y213795D01*
X55088Y213818D01*
X55087Y213850D01*
X55095Y213921D01*
X55095Y214122D01*
X55092Y214142D01*
X55094Y214161D01*
X55072Y214263D01*
X55056Y214365D01*
X55046Y214382D01*
X55042Y214402D01*
X54989Y214491D01*
X54940Y214582D01*
X54926Y214596D01*
X54916Y214613D01*
X54837Y214680D01*
X54762Y214752D01*
X54744Y214760D01*
X54729Y214773D01*
X54633Y214812D01*
X54539Y214855D01*
X54519Y214857D01*
X54501Y214865D01*
X54334Y214883D01*
X53432Y214883D01*
X52539Y215776D01*
X52539Y231264D01*
X53432Y232157D01*
X61808Y232157D01*
X62701Y231264D01*
X62701Y215776D01*
X61808Y214883D01*
X60906Y214883D01*
X60886Y214880D01*
X60867Y214882D01*
X60765Y214860D01*
X60663Y214844D01*
X60646Y214834D01*
X60626Y214830D01*
X60537Y214777D01*
X60446Y214728D01*
X60432Y214714D01*
X60415Y214704D01*
X60348Y214625D01*
X60276Y214550D01*
X60268Y214532D01*
X60255Y214517D01*
X60216Y214421D01*
X60173Y214327D01*
X60171Y214307D01*
X60163Y214289D01*
X60145Y214122D01*
X60145Y212836D01*
X60148Y212816D01*
X60146Y212797D01*
X60168Y212695D01*
X60184Y212593D01*
X60194Y212576D01*
X60198Y212556D01*
X60251Y212467D01*
X60300Y212376D01*
X60314Y212362D01*
X60324Y212345D01*
X60403Y212278D01*
X60478Y212206D01*
X60496Y212198D01*
X60511Y212185D01*
X60607Y212146D01*
X60701Y212103D01*
X60721Y212101D01*
X60739Y212093D01*
X60906Y212075D01*
X63409Y212075D01*
X63499Y212089D01*
X63590Y212097D01*
X63620Y212109D01*
X63652Y212114D01*
X63732Y212157D01*
X63816Y212193D01*
X63848Y212219D01*
X63869Y212230D01*
X63891Y212253D01*
X63947Y212298D01*
X65794Y214145D01*
X65806Y214161D01*
X65822Y214173D01*
X65877Y214261D01*
X65938Y214345D01*
X65944Y214364D01*
X65955Y214380D01*
X65980Y214481D01*
X66010Y214580D01*
X66010Y214600D01*
X66015Y214619D01*
X66007Y214722D01*
X66004Y214826D01*
X65997Y214844D01*
X65995Y214864D01*
X65955Y214959D01*
X65919Y215057D01*
X65907Y215072D01*
X65899Y215090D01*
X65794Y215221D01*
X65239Y215776D01*
X65239Y231264D01*
X66132Y232157D01*
X74508Y232157D01*
X75401Y231264D01*
X75401Y215776D01*
X74508Y214883D01*
X73606Y214883D01*
X73586Y214880D01*
X73567Y214882D01*
X73465Y214860D01*
X73363Y214844D01*
X73346Y214834D01*
X73326Y214830D01*
X73237Y214777D01*
X73146Y214728D01*
X73132Y214714D01*
X73115Y214704D01*
X73048Y214625D01*
X72976Y214550D01*
X72968Y214532D01*
X72955Y214517D01*
X72916Y214421D01*
X72873Y214327D01*
X72871Y214307D01*
X72863Y214289D01*
X72845Y214122D01*
X72845Y214054D01*
X65816Y207025D01*
X60955Y207025D01*
X60865Y207011D01*
X60774Y207003D01*
X60744Y206991D01*
X60712Y206986D01*
X60631Y206943D01*
X60548Y206907D01*
X60515Y206881D01*
X60495Y206870D01*
X60473Y206847D01*
X60417Y206802D01*
X53306Y199691D01*
X35841Y199691D01*
X35751Y199677D01*
X35660Y199669D01*
X35630Y199657D01*
X35598Y199652D01*
X35517Y199609D01*
X35434Y199573D01*
X35401Y199547D01*
X35381Y199536D01*
X35359Y199513D01*
X35303Y199468D01*
X29624Y193789D01*
X29571Y193715D01*
X29511Y193646D01*
X29499Y193616D01*
X29480Y193590D01*
X29453Y193503D01*
X29419Y193418D01*
X29415Y193377D01*
X29408Y193355D01*
X29409Y193322D01*
X29401Y193251D01*
X29401Y104666D01*
X26100Y101365D01*
X26051Y101298D01*
X26050Y101296D01*
X26049Y101295D01*
X26047Y101291D01*
X25987Y101222D01*
X25975Y101192D01*
X25956Y101166D01*
X25929Y101079D01*
X25895Y100994D01*
X25891Y100953D01*
X25884Y100931D01*
X25885Y100898D01*
X25877Y100827D01*
X25877Y81646D01*
X24175Y79944D01*
X17082Y72851D01*
X17055Y72814D01*
X17021Y72783D01*
X16984Y72714D01*
X16938Y72651D01*
X16925Y72607D01*
X16903Y72567D01*
X16889Y72490D01*
X16866Y72416D01*
X16867Y72370D01*
X16859Y72325D01*
X16870Y72248D01*
X16872Y72170D01*
X16888Y72127D01*
X16895Y72082D01*
X16930Y72012D01*
X16957Y71939D01*
X16985Y71903D01*
X17006Y71862D01*
X17062Y71808D01*
X17110Y71747D01*
X17149Y71722D01*
X17182Y71690D01*
X17301Y71624D01*
X17317Y71614D01*
X17322Y71613D01*
X17329Y71609D01*
X17617Y71490D01*
X20690Y68417D01*
X22353Y64403D01*
X22353Y60057D01*
X20690Y56043D01*
X17617Y52970D01*
X13603Y51307D01*
X9257Y51307D01*
X5243Y52970D01*
X3205Y55008D01*
X3147Y55050D01*
X3095Y55099D01*
X3048Y55121D01*
X3006Y55151D01*
X2937Y55172D01*
X2872Y55203D01*
X2820Y55208D01*
X2770Y55224D01*
X2699Y55222D01*
X2628Y55230D01*
X2577Y55219D01*
X2525Y55217D01*
X2457Y55193D01*
X2387Y55177D01*
X2342Y55151D01*
X2294Y55133D01*
X2238Y55088D01*
X2176Y55051D01*
X2142Y55012D01*
X2102Y54979D01*
X2063Y54919D01*
X2016Y54864D01*
X1997Y54816D01*
X1969Y54772D01*
X1951Y54703D01*
X1924Y54636D01*
X1916Y54565D01*
X1908Y54534D01*
X1910Y54510D01*
X1906Y54469D01*
X1906Y44591D01*
X1917Y44520D01*
X1919Y44448D01*
X1937Y44399D01*
X1945Y44348D01*
X1979Y44285D01*
X2004Y44217D01*
X2036Y44177D01*
X2061Y44130D01*
X2113Y44081D01*
X2157Y44025D01*
X2201Y43997D01*
X2239Y43961D01*
X2304Y43931D01*
X2364Y43892D01*
X2415Y43879D01*
X2462Y43857D01*
X2533Y43850D01*
X2603Y43832D01*
X2655Y43836D01*
X2706Y43830D01*
X2777Y43846D01*
X2848Y43851D01*
X2896Y43872D01*
X2947Y43883D01*
X3008Y43919D01*
X3074Y43948D01*
X3130Y43992D01*
X3158Y44009D01*
X3173Y44027D01*
X3205Y44052D01*
X5243Y46090D01*
X9257Y47753D01*
X13603Y47753D01*
X17617Y46090D01*
X20690Y43017D01*
X22353Y39003D01*
X22353Y34657D01*
X20690Y30643D01*
X17617Y27570D01*
X13603Y25907D01*
X9257Y25907D01*
X5243Y27570D01*
X3205Y29608D01*
X3147Y29650D01*
X3095Y29699D01*
X3048Y29721D01*
X3006Y29751D01*
X2937Y29772D01*
X2872Y29803D01*
X2820Y29808D01*
X2770Y29824D01*
X2699Y29822D01*
X2628Y29830D01*
X2577Y29819D01*
X2525Y29817D01*
X2457Y29793D01*
X2387Y29777D01*
X2342Y29751D01*
X2294Y29733D01*
X2238Y29688D01*
X2176Y29651D01*
X2142Y29612D01*
X2102Y29579D01*
X2063Y29519D01*
X2016Y29464D01*
X1997Y29416D01*
X1969Y29372D01*
X1951Y29303D01*
X1924Y29236D01*
X1916Y29165D01*
X1908Y29134D01*
X1910Y29110D01*
X1906Y29069D01*
X1906Y20627D01*
X1917Y20557D01*
X1919Y20485D01*
X1937Y20436D01*
X1945Y20385D01*
X1979Y20321D01*
X2004Y20254D01*
X2036Y20213D01*
X2061Y20167D01*
X2113Y20118D01*
X2157Y20062D01*
X2201Y20034D01*
X2239Y19998D01*
X2304Y19968D01*
X2364Y19929D01*
X2415Y19916D01*
X2462Y19894D01*
X2533Y19886D01*
X2603Y19869D01*
X2655Y19873D01*
X2706Y19867D01*
X2777Y19882D01*
X2848Y19888D01*
X2896Y19908D01*
X2947Y19919D01*
X3008Y19956D01*
X3074Y19984D01*
X3130Y20029D01*
X3158Y20046D01*
X3173Y20063D01*
X3205Y20089D01*
X3652Y20536D01*
X5173Y21641D01*
X6847Y22494D01*
X8634Y23075D01*
X9907Y23276D01*
X9907Y12192D01*
X9910Y12172D01*
X9908Y12153D01*
X9930Y12051D01*
X9947Y11949D01*
X9956Y11932D01*
X9960Y11912D01*
X10013Y11823D01*
X10062Y11732D01*
X10076Y11718D01*
X10086Y11701D01*
X10165Y11634D01*
X10240Y11563D01*
X10258Y11554D01*
X10273Y11541D01*
X10369Y11503D01*
X10463Y11459D01*
X10483Y11457D01*
X10501Y11449D01*
X10668Y11431D01*
X11431Y11431D01*
X11431Y10668D01*
X11434Y10648D01*
X11432Y10629D01*
X11454Y10527D01*
X11471Y10425D01*
X11480Y10408D01*
X11484Y10388D01*
X11537Y10299D01*
X11586Y10208D01*
X11600Y10194D01*
X11610Y10177D01*
X11689Y10110D01*
X11764Y10039D01*
X11782Y10030D01*
X11797Y10017D01*
X11893Y9978D01*
X11987Y9935D01*
X12007Y9933D01*
X12025Y9925D01*
X12192Y9907D01*
X23276Y9907D01*
X23075Y8634D01*
X22494Y6847D01*
X21641Y5173D01*
X20536Y3652D01*
X20089Y3205D01*
X20047Y3147D01*
X19998Y3095D01*
X19976Y3048D01*
X19946Y3006D01*
X19925Y2937D01*
X19894Y2872D01*
X19889Y2820D01*
X19873Y2770D01*
X19875Y2699D01*
X19867Y2628D01*
X19878Y2577D01*
X19880Y2525D01*
X19904Y2457D01*
X19919Y2387D01*
X19946Y2342D01*
X19964Y2294D01*
X20009Y2238D01*
X20046Y2176D01*
X20085Y2142D01*
X20118Y2102D01*
X20178Y2063D01*
X20233Y2016D01*
X20281Y1997D01*
X20325Y1969D01*
X20394Y1951D01*
X20461Y1924D01*
X20532Y1916D01*
X20563Y1908D01*
X20587Y1910D01*
X20627Y1906D01*
X180033Y1906D01*
X180103Y1917D01*
G37*
%LPC*%
G36*
X158626Y249929D02*
X158626Y249929D01*
X157708Y250848D01*
X157694Y250935D01*
X157684Y250952D01*
X157680Y250972D01*
X157627Y251061D01*
X157578Y251152D01*
X157564Y251166D01*
X157554Y251183D01*
X157475Y251250D01*
X157400Y251322D01*
X157382Y251330D01*
X157367Y251343D01*
X157271Y251382D01*
X157177Y251425D01*
X157157Y251427D01*
X157139Y251435D01*
X156972Y251453D01*
X156050Y251453D01*
X155960Y251439D01*
X155869Y251431D01*
X155839Y251419D01*
X155807Y251414D01*
X155726Y251371D01*
X155643Y251335D01*
X155610Y251309D01*
X155590Y251298D01*
X155568Y251275D01*
X155512Y251230D01*
X154495Y250213D01*
X150305Y250213D01*
X147343Y253175D01*
X147343Y257365D01*
X150305Y260327D01*
X154495Y260327D01*
X156032Y258790D01*
X156106Y258737D01*
X156175Y258677D01*
X156205Y258665D01*
X156231Y258646D01*
X156318Y258619D01*
X156403Y258585D01*
X156444Y258581D01*
X156466Y258574D01*
X156499Y258575D01*
X156570Y258567D01*
X156972Y258567D01*
X156992Y258570D01*
X157011Y258568D01*
X157113Y258590D01*
X157215Y258606D01*
X157232Y258616D01*
X157252Y258620D01*
X157341Y258673D01*
X157432Y258722D01*
X157446Y258736D01*
X157463Y258746D01*
X157530Y258825D01*
X157602Y258900D01*
X157610Y258918D01*
X157623Y258933D01*
X157662Y259029D01*
X157705Y259123D01*
X157707Y259143D01*
X157715Y259161D01*
X157717Y259181D01*
X158626Y260091D01*
X174114Y260091D01*
X175007Y259198D01*
X175007Y250822D01*
X174114Y249929D01*
X158626Y249929D01*
G37*
%LPD*%
%LPC*%
G36*
X78832Y214883D02*
X78832Y214883D01*
X77939Y215776D01*
X77939Y231264D01*
X78832Y232157D01*
X78894Y232157D01*
X78965Y232168D01*
X79037Y232170D01*
X79086Y232188D01*
X79137Y232196D01*
X79200Y232230D01*
X79268Y232255D01*
X79308Y232287D01*
X79354Y232312D01*
X79404Y232364D01*
X79460Y232408D01*
X79488Y232452D01*
X79524Y232490D01*
X79554Y232555D01*
X79593Y232615D01*
X79605Y232666D01*
X79627Y232713D01*
X79635Y232784D01*
X79653Y232854D01*
X79649Y232906D01*
X79654Y232957D01*
X79639Y233028D01*
X79634Y233099D01*
X79613Y233147D01*
X79602Y233198D01*
X79565Y233259D01*
X79537Y233325D01*
X79492Y233381D01*
X79476Y233409D01*
X79458Y233424D01*
X79432Y233456D01*
X77493Y235395D01*
X77493Y239585D01*
X80455Y242547D01*
X84645Y242547D01*
X87607Y239585D01*
X87607Y235395D01*
X85668Y233456D01*
X85626Y233398D01*
X85576Y233346D01*
X85554Y233299D01*
X85524Y233257D01*
X85503Y233188D01*
X85473Y233123D01*
X85467Y233071D01*
X85452Y233021D01*
X85454Y232950D01*
X85446Y232879D01*
X85457Y232828D01*
X85458Y232776D01*
X85483Y232708D01*
X85498Y232638D01*
X85525Y232593D01*
X85542Y232545D01*
X85587Y232489D01*
X85624Y232427D01*
X85664Y232393D01*
X85696Y232353D01*
X85756Y232314D01*
X85811Y232267D01*
X85859Y232248D01*
X85903Y232220D01*
X85973Y232202D01*
X86039Y232175D01*
X86110Y232167D01*
X86142Y232159D01*
X86165Y232161D01*
X86206Y232157D01*
X87208Y232157D01*
X88101Y231264D01*
X88101Y215776D01*
X87208Y214883D01*
X78832Y214883D01*
G37*
%LPD*%
%LPC*%
G36*
X28656Y275329D02*
X28656Y275329D01*
X27763Y276222D01*
X27763Y284598D01*
X28656Y285491D01*
X44144Y285491D01*
X45133Y284501D01*
X45149Y284489D01*
X45162Y284474D01*
X45249Y284418D01*
X45333Y284358D01*
X45352Y284352D01*
X45369Y284341D01*
X45469Y284316D01*
X45568Y284285D01*
X45588Y284286D01*
X45607Y284281D01*
X45710Y284289D01*
X45814Y284292D01*
X45833Y284298D01*
X45852Y284300D01*
X45947Y284340D01*
X46045Y284376D01*
X46061Y284389D01*
X46079Y284396D01*
X46210Y284501D01*
X47435Y285727D01*
X51625Y285727D01*
X54587Y282765D01*
X54587Y278575D01*
X51625Y275613D01*
X47435Y275613D01*
X46336Y276712D01*
X46278Y276754D01*
X46226Y276804D01*
X46179Y276826D01*
X46137Y276856D01*
X46068Y276877D01*
X46003Y276907D01*
X45951Y276913D01*
X45901Y276928D01*
X45830Y276926D01*
X45759Y276934D01*
X45708Y276923D01*
X45656Y276922D01*
X45588Y276897D01*
X45518Y276882D01*
X45473Y276855D01*
X45425Y276838D01*
X45369Y276793D01*
X45307Y276756D01*
X45273Y276716D01*
X45233Y276684D01*
X45194Y276624D01*
X45147Y276569D01*
X45128Y276521D01*
X45100Y276477D01*
X45082Y276407D01*
X45055Y276341D01*
X45047Y276270D01*
X45039Y276238D01*
X45040Y276226D01*
X44144Y275329D01*
X28656Y275329D01*
G37*
%LPD*%
%LPC*%
G36*
X28656Y262629D02*
X28656Y262629D01*
X27763Y263522D01*
X27763Y271898D01*
X28656Y272791D01*
X44144Y272791D01*
X45133Y271801D01*
X45149Y271789D01*
X45162Y271774D01*
X45249Y271718D01*
X45333Y271658D01*
X45352Y271652D01*
X45369Y271641D01*
X45469Y271616D01*
X45568Y271585D01*
X45588Y271586D01*
X45607Y271581D01*
X45710Y271589D01*
X45814Y271592D01*
X45833Y271598D01*
X45852Y271600D01*
X45947Y271640D01*
X46045Y271676D01*
X46061Y271689D01*
X46079Y271696D01*
X46210Y271801D01*
X47435Y273027D01*
X51625Y273027D01*
X54587Y270065D01*
X54587Y265875D01*
X51625Y262913D01*
X47435Y262913D01*
X46336Y264012D01*
X46278Y264054D01*
X46226Y264104D01*
X46179Y264126D01*
X46137Y264156D01*
X46068Y264177D01*
X46003Y264207D01*
X45951Y264213D01*
X45901Y264228D01*
X45830Y264226D01*
X45759Y264234D01*
X45708Y264223D01*
X45656Y264222D01*
X45588Y264197D01*
X45518Y264182D01*
X45473Y264155D01*
X45425Y264138D01*
X45369Y264093D01*
X45307Y264056D01*
X45273Y264016D01*
X45233Y263984D01*
X45194Y263924D01*
X45147Y263869D01*
X45128Y263821D01*
X45100Y263777D01*
X45082Y263707D01*
X45055Y263641D01*
X45047Y263570D01*
X45039Y263538D01*
X45040Y263526D01*
X44144Y262629D01*
X28656Y262629D01*
G37*
%LPD*%
%LPC*%
G36*
X28656Y249929D02*
X28656Y249929D01*
X27763Y250822D01*
X27763Y259198D01*
X28656Y260091D01*
X44144Y260091D01*
X45133Y259101D01*
X45149Y259089D01*
X45162Y259074D01*
X45249Y259018D01*
X45333Y258958D01*
X45352Y258952D01*
X45369Y258941D01*
X45469Y258916D01*
X45568Y258885D01*
X45588Y258886D01*
X45607Y258881D01*
X45710Y258889D01*
X45814Y258892D01*
X45833Y258898D01*
X45852Y258900D01*
X45947Y258940D01*
X46045Y258976D01*
X46061Y258989D01*
X46079Y258996D01*
X46210Y259101D01*
X47435Y260327D01*
X51625Y260327D01*
X54587Y257365D01*
X54587Y253175D01*
X51625Y250213D01*
X47435Y250213D01*
X46336Y251312D01*
X46278Y251354D01*
X46226Y251404D01*
X46179Y251426D01*
X46137Y251456D01*
X46068Y251477D01*
X46003Y251507D01*
X45951Y251513D01*
X45901Y251528D01*
X45830Y251526D01*
X45759Y251534D01*
X45708Y251523D01*
X45656Y251522D01*
X45588Y251497D01*
X45518Y251482D01*
X45473Y251455D01*
X45425Y251438D01*
X45369Y251393D01*
X45307Y251356D01*
X45273Y251316D01*
X45233Y251284D01*
X45194Y251224D01*
X45147Y251169D01*
X45128Y251121D01*
X45100Y251077D01*
X45082Y251007D01*
X45055Y250941D01*
X45047Y250870D01*
X45039Y250838D01*
X45040Y250826D01*
X44144Y249929D01*
X28656Y249929D01*
G37*
%LPD*%
%LPC*%
G36*
X28656Y326129D02*
X28656Y326129D01*
X27763Y327022D01*
X27763Y335398D01*
X28656Y336291D01*
X44144Y336291D01*
X45133Y335301D01*
X45149Y335289D01*
X45162Y335274D01*
X45249Y335218D01*
X45333Y335158D01*
X45352Y335152D01*
X45369Y335141D01*
X45469Y335116D01*
X45568Y335085D01*
X45588Y335086D01*
X45607Y335081D01*
X45710Y335089D01*
X45814Y335092D01*
X45833Y335098D01*
X45853Y335100D01*
X45947Y335140D01*
X46045Y335176D01*
X46061Y335188D01*
X46079Y335196D01*
X46210Y335301D01*
X47435Y336527D01*
X51625Y336527D01*
X54587Y333565D01*
X54587Y329375D01*
X51625Y326413D01*
X47435Y326413D01*
X46336Y327512D01*
X46278Y327554D01*
X46226Y327604D01*
X46179Y327626D01*
X46137Y327656D01*
X46068Y327677D01*
X46003Y327707D01*
X45951Y327713D01*
X45901Y327728D01*
X45830Y327726D01*
X45759Y327734D01*
X45708Y327723D01*
X45656Y327722D01*
X45588Y327697D01*
X45518Y327682D01*
X45473Y327655D01*
X45425Y327638D01*
X45369Y327593D01*
X45307Y327556D01*
X45273Y327516D01*
X45233Y327484D01*
X45194Y327424D01*
X45147Y327369D01*
X45128Y327321D01*
X45100Y327277D01*
X45082Y327207D01*
X45055Y327141D01*
X45047Y327070D01*
X45039Y327038D01*
X45040Y327026D01*
X44144Y326129D01*
X28656Y326129D01*
G37*
%LPD*%
%LPC*%
G36*
X28656Y300729D02*
X28656Y300729D01*
X27763Y301622D01*
X27763Y309998D01*
X28656Y310891D01*
X44144Y310891D01*
X45133Y309901D01*
X45149Y309889D01*
X45162Y309874D01*
X45249Y309818D01*
X45333Y309758D01*
X45352Y309752D01*
X45369Y309741D01*
X45469Y309716D01*
X45568Y309685D01*
X45588Y309686D01*
X45607Y309681D01*
X45710Y309689D01*
X45814Y309692D01*
X45833Y309698D01*
X45853Y309700D01*
X45947Y309740D01*
X46045Y309776D01*
X46061Y309788D01*
X46079Y309796D01*
X46210Y309901D01*
X47435Y311127D01*
X51625Y311127D01*
X54587Y308165D01*
X54587Y303975D01*
X51625Y301013D01*
X47435Y301013D01*
X46336Y302112D01*
X46278Y302154D01*
X46226Y302204D01*
X46179Y302226D01*
X46137Y302256D01*
X46068Y302277D01*
X46003Y302307D01*
X45951Y302313D01*
X45901Y302328D01*
X45830Y302326D01*
X45759Y302334D01*
X45708Y302323D01*
X45656Y302322D01*
X45588Y302297D01*
X45518Y302282D01*
X45473Y302255D01*
X45425Y302238D01*
X45369Y302193D01*
X45307Y302156D01*
X45273Y302116D01*
X45233Y302084D01*
X45194Y302024D01*
X45147Y301969D01*
X45128Y301921D01*
X45100Y301877D01*
X45082Y301807D01*
X45055Y301741D01*
X45047Y301670D01*
X45039Y301638D01*
X45040Y301626D01*
X44144Y300729D01*
X28656Y300729D01*
G37*
%LPD*%
%LPC*%
G36*
X28656Y288029D02*
X28656Y288029D01*
X27763Y288922D01*
X27763Y297298D01*
X28656Y298191D01*
X44144Y298191D01*
X45133Y297201D01*
X45149Y297189D01*
X45162Y297174D01*
X45249Y297118D01*
X45333Y297058D01*
X45352Y297052D01*
X45369Y297041D01*
X45469Y297016D01*
X45568Y296985D01*
X45588Y296986D01*
X45607Y296981D01*
X45710Y296989D01*
X45814Y296992D01*
X45833Y296998D01*
X45853Y297000D01*
X45947Y297040D01*
X46045Y297076D01*
X46061Y297088D01*
X46079Y297096D01*
X46210Y297201D01*
X47435Y298427D01*
X51625Y298427D01*
X54587Y295465D01*
X54587Y291275D01*
X51625Y288313D01*
X47435Y288313D01*
X46336Y289412D01*
X46278Y289454D01*
X46226Y289504D01*
X46179Y289526D01*
X46137Y289556D01*
X46068Y289577D01*
X46003Y289607D01*
X45951Y289613D01*
X45901Y289628D01*
X45830Y289626D01*
X45759Y289634D01*
X45708Y289623D01*
X45656Y289622D01*
X45588Y289597D01*
X45518Y289582D01*
X45473Y289555D01*
X45425Y289538D01*
X45369Y289493D01*
X45307Y289456D01*
X45273Y289416D01*
X45233Y289384D01*
X45194Y289324D01*
X45147Y289269D01*
X45128Y289221D01*
X45100Y289177D01*
X45082Y289107D01*
X45055Y289041D01*
X45047Y288970D01*
X45039Y288938D01*
X45040Y288926D01*
X44144Y288029D01*
X28656Y288029D01*
G37*
%LPD*%
%LPC*%
G36*
X28656Y237229D02*
X28656Y237229D01*
X27763Y238122D01*
X27763Y246498D01*
X28656Y247391D01*
X44144Y247391D01*
X45133Y246401D01*
X45149Y246389D01*
X45162Y246374D01*
X45249Y246318D01*
X45333Y246258D01*
X45352Y246252D01*
X45369Y246241D01*
X45469Y246216D01*
X45568Y246185D01*
X45588Y246186D01*
X45607Y246181D01*
X45710Y246189D01*
X45814Y246192D01*
X45833Y246198D01*
X45853Y246200D01*
X45947Y246240D01*
X46045Y246276D01*
X46061Y246288D01*
X46079Y246296D01*
X46210Y246401D01*
X47435Y247627D01*
X51625Y247627D01*
X54587Y244665D01*
X54587Y240475D01*
X51625Y237513D01*
X47435Y237513D01*
X46336Y238612D01*
X46278Y238654D01*
X46226Y238704D01*
X46179Y238726D01*
X46137Y238756D01*
X46068Y238777D01*
X46003Y238807D01*
X45951Y238813D01*
X45901Y238828D01*
X45830Y238826D01*
X45759Y238834D01*
X45708Y238823D01*
X45656Y238822D01*
X45588Y238797D01*
X45518Y238782D01*
X45473Y238755D01*
X45425Y238738D01*
X45369Y238693D01*
X45307Y238656D01*
X45273Y238616D01*
X45233Y238584D01*
X45194Y238524D01*
X45147Y238469D01*
X45128Y238421D01*
X45100Y238377D01*
X45082Y238307D01*
X45055Y238241D01*
X45047Y238170D01*
X45039Y238138D01*
X45040Y238126D01*
X44144Y237229D01*
X28656Y237229D01*
G37*
%LPD*%
%LPC*%
G36*
X28656Y313429D02*
X28656Y313429D01*
X27763Y314322D01*
X27763Y322698D01*
X28656Y323591D01*
X44144Y323591D01*
X45133Y322601D01*
X45149Y322589D01*
X45162Y322574D01*
X45232Y322529D01*
X45263Y322502D01*
X45281Y322495D01*
X45333Y322458D01*
X45352Y322452D01*
X45369Y322441D01*
X45469Y322416D01*
X45568Y322385D01*
X45588Y322386D01*
X45607Y322381D01*
X45710Y322389D01*
X45814Y322392D01*
X45833Y322398D01*
X45853Y322400D01*
X45927Y322431D01*
X45928Y322432D01*
X45932Y322434D01*
X45947Y322440D01*
X46045Y322476D01*
X46061Y322488D01*
X46079Y322496D01*
X46135Y322541D01*
X46146Y322547D01*
X46157Y322559D01*
X46210Y322601D01*
X47435Y323827D01*
X51625Y323827D01*
X54587Y320865D01*
X54587Y316675D01*
X51625Y313713D01*
X47435Y313713D01*
X46336Y314812D01*
X46278Y314854D01*
X46226Y314904D01*
X46179Y314926D01*
X46137Y314956D01*
X46068Y314977D01*
X46003Y315007D01*
X45951Y315013D01*
X45901Y315028D01*
X45830Y315026D01*
X45759Y315034D01*
X45708Y315023D01*
X45656Y315022D01*
X45588Y314997D01*
X45518Y314982D01*
X45473Y314955D01*
X45425Y314938D01*
X45369Y314893D01*
X45307Y314856D01*
X45273Y314816D01*
X45233Y314784D01*
X45194Y314724D01*
X45147Y314669D01*
X45128Y314621D01*
X45100Y314577D01*
X45082Y314507D01*
X45055Y314441D01*
X45047Y314370D01*
X45039Y314338D01*
X45040Y314326D01*
X44144Y313429D01*
X28656Y313429D01*
G37*
%LPD*%
%LPC*%
G36*
X158626Y275329D02*
X158626Y275329D01*
X157592Y276364D01*
X157576Y276376D01*
X157563Y276391D01*
X157476Y276447D01*
X157392Y276507D01*
X157373Y276513D01*
X157356Y276524D01*
X157256Y276549D01*
X157157Y276580D01*
X157137Y276579D01*
X157118Y276584D01*
X157015Y276576D01*
X156911Y276573D01*
X156892Y276567D01*
X156872Y276565D01*
X156778Y276525D01*
X156680Y276489D01*
X156664Y276477D01*
X156646Y276469D01*
X156515Y276364D01*
X155765Y275613D01*
X151575Y275613D01*
X148613Y278575D01*
X148613Y282765D01*
X151575Y285727D01*
X155765Y285727D01*
X156775Y284716D01*
X156791Y284704D01*
X156804Y284689D01*
X156891Y284633D01*
X156975Y284573D01*
X156994Y284567D01*
X157011Y284556D01*
X157111Y284531D01*
X157210Y284500D01*
X157230Y284501D01*
X157249Y284496D01*
X157352Y284504D01*
X157456Y284507D01*
X157475Y284513D01*
X157494Y284515D01*
X157589Y284555D01*
X157687Y284591D01*
X157703Y284604D01*
X157721Y284611D01*
X157852Y284716D01*
X158626Y285491D01*
X174114Y285491D01*
X175007Y284598D01*
X175007Y276222D01*
X174114Y275329D01*
X158626Y275329D01*
G37*
%LPD*%
%LPC*%
G36*
X158626Y288029D02*
X158626Y288029D01*
X157592Y289064D01*
X157576Y289076D01*
X157563Y289091D01*
X157476Y289147D01*
X157392Y289207D01*
X157373Y289213D01*
X157356Y289224D01*
X157256Y289249D01*
X157157Y289280D01*
X157137Y289279D01*
X157118Y289284D01*
X157015Y289276D01*
X156911Y289273D01*
X156892Y289267D01*
X156873Y289265D01*
X156778Y289225D01*
X156680Y289189D01*
X156664Y289176D01*
X156646Y289169D01*
X156515Y289064D01*
X155765Y288313D01*
X151575Y288313D01*
X148613Y291275D01*
X148613Y295465D01*
X151575Y298427D01*
X155765Y298427D01*
X156775Y297416D01*
X156791Y297404D01*
X156804Y297389D01*
X156891Y297333D01*
X156975Y297273D01*
X156994Y297267D01*
X157011Y297256D01*
X157111Y297231D01*
X157210Y297200D01*
X157230Y297201D01*
X157249Y297196D01*
X157352Y297204D01*
X157456Y297207D01*
X157475Y297213D01*
X157495Y297215D01*
X157589Y297255D01*
X157687Y297291D01*
X157703Y297303D01*
X157721Y297311D01*
X157852Y297416D01*
X158626Y298191D01*
X174114Y298191D01*
X175007Y297298D01*
X175007Y288922D01*
X174114Y288029D01*
X158626Y288029D01*
G37*
%LPD*%
G36*
X190012Y189234D02*
X190012Y189234D01*
X190031Y189232D01*
X190133Y189254D01*
X190235Y189271D01*
X190252Y189280D01*
X190272Y189284D01*
X190361Y189337D01*
X190452Y189386D01*
X190466Y189400D01*
X190483Y189410D01*
X190550Y189489D01*
X190621Y189564D01*
X190630Y189582D01*
X190643Y189597D01*
X190682Y189693D01*
X190725Y189787D01*
X190727Y189807D01*
X190735Y189825D01*
X190753Y189992D01*
X190753Y201076D01*
X192026Y200875D01*
X193813Y200294D01*
X195487Y199441D01*
X197008Y198336D01*
X197455Y197889D01*
X197513Y197847D01*
X197565Y197798D01*
X197612Y197776D01*
X197654Y197746D01*
X197723Y197725D01*
X197788Y197694D01*
X197840Y197689D01*
X197890Y197673D01*
X197961Y197675D01*
X198032Y197667D01*
X198083Y197678D01*
X198135Y197680D01*
X198203Y197704D01*
X198273Y197719D01*
X198318Y197746D01*
X198366Y197764D01*
X198422Y197809D01*
X198484Y197846D01*
X198518Y197885D01*
X198558Y197918D01*
X198597Y197978D01*
X198644Y198033D01*
X198663Y198081D01*
X198691Y198125D01*
X198709Y198194D01*
X198736Y198261D01*
X198744Y198332D01*
X198752Y198363D01*
X198750Y198387D01*
X198754Y198427D01*
X198754Y206869D01*
X198743Y206940D01*
X198741Y207012D01*
X198723Y207061D01*
X198715Y207112D01*
X198681Y207175D01*
X198656Y207243D01*
X198624Y207283D01*
X198599Y207330D01*
X198547Y207379D01*
X198503Y207435D01*
X198459Y207463D01*
X198421Y207499D01*
X198356Y207529D01*
X198296Y207568D01*
X198245Y207581D01*
X198198Y207603D01*
X198127Y207610D01*
X198057Y207628D01*
X198005Y207624D01*
X197954Y207630D01*
X197883Y207614D01*
X197812Y207609D01*
X197764Y207588D01*
X197713Y207577D01*
X197652Y207541D01*
X197586Y207512D01*
X197530Y207468D01*
X197502Y207451D01*
X197487Y207433D01*
X197455Y207408D01*
X195417Y205370D01*
X191403Y203707D01*
X187057Y203707D01*
X183043Y205370D01*
X181132Y207281D01*
X181074Y207323D01*
X181022Y207372D01*
X180975Y207394D01*
X180933Y207424D01*
X180864Y207445D01*
X180799Y207476D01*
X180747Y207481D01*
X180697Y207497D01*
X180626Y207495D01*
X180555Y207503D01*
X180504Y207492D01*
X180452Y207490D01*
X180384Y207466D01*
X180314Y207450D01*
X180269Y207424D01*
X180221Y207406D01*
X180165Y207361D01*
X180103Y207324D01*
X180069Y207285D01*
X180029Y207252D01*
X179990Y207192D01*
X179943Y207137D01*
X179924Y207089D01*
X179896Y207045D01*
X179878Y206976D01*
X179851Y206909D01*
X179843Y206838D01*
X179835Y206807D01*
X179837Y206783D01*
X179833Y206742D01*
X179833Y198554D01*
X179844Y198484D01*
X179846Y198412D01*
X179864Y198363D01*
X179872Y198312D01*
X179906Y198248D01*
X179931Y198181D01*
X179963Y198140D01*
X179988Y198094D01*
X180039Y198045D01*
X180084Y197989D01*
X180128Y197961D01*
X180166Y197925D01*
X180231Y197895D01*
X180291Y197856D01*
X180342Y197843D01*
X180389Y197821D01*
X180460Y197813D01*
X180530Y197796D01*
X180582Y197800D01*
X180633Y197794D01*
X180704Y197809D01*
X180775Y197815D01*
X180823Y197835D01*
X180874Y197846D01*
X180935Y197883D01*
X181001Y197911D01*
X181057Y197956D01*
X181085Y197973D01*
X181100Y197990D01*
X181132Y198016D01*
X181452Y198336D01*
X182973Y199441D01*
X184647Y200294D01*
X186434Y200875D01*
X187707Y201076D01*
X187707Y189992D01*
X187710Y189972D01*
X187708Y189953D01*
X187730Y189851D01*
X187747Y189749D01*
X187756Y189732D01*
X187760Y189712D01*
X187813Y189623D01*
X187862Y189532D01*
X187876Y189518D01*
X187886Y189501D01*
X187965Y189434D01*
X188040Y189363D01*
X188058Y189354D01*
X188073Y189341D01*
X188169Y189303D01*
X188263Y189259D01*
X188283Y189257D01*
X188301Y189249D01*
X188468Y189231D01*
X189992Y189231D01*
X190012Y189234D01*
G37*
G36*
X198083Y170841D02*
X198083Y170841D01*
X198135Y170843D01*
X198203Y170867D01*
X198273Y170883D01*
X198318Y170909D01*
X198366Y170927D01*
X198422Y170972D01*
X198484Y171009D01*
X198518Y171048D01*
X198558Y171081D01*
X198597Y171141D01*
X198644Y171196D01*
X198663Y171244D01*
X198691Y171288D01*
X198709Y171357D01*
X198736Y171424D01*
X198744Y171495D01*
X198752Y171526D01*
X198750Y171550D01*
X198754Y171591D01*
X198754Y180033D01*
X198743Y180103D01*
X198741Y180175D01*
X198723Y180224D01*
X198715Y180275D01*
X198681Y180339D01*
X198656Y180406D01*
X198624Y180447D01*
X198599Y180493D01*
X198547Y180542D01*
X198503Y180598D01*
X198459Y180626D01*
X198421Y180662D01*
X198356Y180692D01*
X198296Y180731D01*
X198245Y180744D01*
X198198Y180766D01*
X198127Y180774D01*
X198057Y180791D01*
X198005Y180787D01*
X197954Y180793D01*
X197883Y180778D01*
X197812Y180772D01*
X197764Y180752D01*
X197713Y180741D01*
X197652Y180704D01*
X197586Y180676D01*
X197530Y180631D01*
X197502Y180614D01*
X197487Y180597D01*
X197455Y180571D01*
X197008Y180124D01*
X195487Y179019D01*
X193813Y178166D01*
X192026Y177585D01*
X190753Y177384D01*
X190753Y188468D01*
X190750Y188488D01*
X190752Y188507D01*
X190730Y188609D01*
X190713Y188711D01*
X190704Y188728D01*
X190700Y188748D01*
X190647Y188837D01*
X190598Y188928D01*
X190584Y188942D01*
X190574Y188959D01*
X190495Y189026D01*
X190420Y189097D01*
X190402Y189106D01*
X190387Y189119D01*
X190291Y189157D01*
X190197Y189201D01*
X190177Y189203D01*
X190159Y189211D01*
X189992Y189229D01*
X188468Y189229D01*
X188448Y189226D01*
X188429Y189228D01*
X188327Y189206D01*
X188225Y189189D01*
X188208Y189180D01*
X188188Y189176D01*
X188099Y189123D01*
X188008Y189074D01*
X187994Y189060D01*
X187977Y189050D01*
X187910Y188971D01*
X187839Y188896D01*
X187830Y188878D01*
X187817Y188863D01*
X187778Y188767D01*
X187735Y188673D01*
X187733Y188653D01*
X187725Y188635D01*
X187707Y188468D01*
X187707Y177779D01*
X187722Y177689D01*
X187729Y177598D01*
X187741Y177568D01*
X187747Y177536D01*
X187789Y177455D01*
X187825Y177371D01*
X187851Y177339D01*
X187862Y177319D01*
X187885Y177296D01*
X187908Y177267D01*
X187911Y177264D01*
X187913Y177261D01*
X187930Y177240D01*
X190195Y174976D01*
X190268Y174923D01*
X190338Y174863D01*
X190368Y174851D01*
X190394Y174832D01*
X190481Y174805D01*
X190566Y174771D01*
X190607Y174767D01*
X190629Y174760D01*
X190662Y174761D01*
X190733Y174753D01*
X191403Y174753D01*
X195417Y173090D01*
X197455Y171052D01*
X197513Y171010D01*
X197565Y170961D01*
X197612Y170939D01*
X197654Y170909D01*
X197723Y170888D01*
X197788Y170857D01*
X197840Y170852D01*
X197890Y170836D01*
X197961Y170838D01*
X198032Y170830D01*
X198083Y170841D01*
G37*
%LPC*%
G36*
X12953Y12953D02*
X12953Y12953D01*
X12953Y23276D01*
X14226Y23075D01*
X16013Y22494D01*
X17687Y21641D01*
X19208Y20536D01*
X20536Y19208D01*
X21641Y17687D01*
X22494Y16013D01*
X23075Y14226D01*
X23276Y12953D01*
X12953Y12953D01*
G37*
%LPD*%
%LPC*%
G36*
X12953Y340107D02*
X12953Y340107D01*
X23276Y340107D01*
X23075Y338834D01*
X22494Y337047D01*
X21641Y335373D01*
X20536Y333852D01*
X19208Y332524D01*
X17687Y331419D01*
X16013Y330566D01*
X14226Y329985D01*
X12953Y329784D01*
X12953Y340107D01*
G37*
%LPD*%
%LPC*%
G36*
X177384Y12953D02*
X177384Y12953D01*
X177585Y14226D01*
X178166Y16013D01*
X179019Y17687D01*
X180124Y19208D01*
X181452Y20536D01*
X182973Y21641D01*
X184647Y22494D01*
X186434Y23075D01*
X187707Y23276D01*
X187707Y12953D01*
X177384Y12953D01*
G37*
%LPD*%
%LPC*%
G36*
X167893Y269233D02*
X167893Y269233D01*
X167893Y273807D01*
X173816Y273807D01*
X174463Y273634D01*
X175042Y273299D01*
X175515Y272826D01*
X175850Y272247D01*
X176023Y271600D01*
X176023Y269233D01*
X167893Y269233D01*
G37*
%LPD*%
%LPC*%
G36*
X156717Y269233D02*
X156717Y269233D01*
X156717Y271600D01*
X156890Y272247D01*
X157225Y272826D01*
X157698Y273299D01*
X158277Y273634D01*
X158924Y273807D01*
X164847Y273807D01*
X164847Y269233D01*
X156717Y269233D01*
G37*
%LPD*%
%LPC*%
G36*
X37923Y337813D02*
X37923Y337813D01*
X37923Y342387D01*
X46053Y342387D01*
X46053Y340020D01*
X45880Y339373D01*
X45545Y338794D01*
X45072Y338321D01*
X44493Y337986D01*
X43846Y337813D01*
X37923Y337813D01*
G37*
%LPD*%
%LPC*%
G36*
X167893Y337813D02*
X167893Y337813D01*
X167893Y342387D01*
X176023Y342387D01*
X176023Y340020D01*
X175850Y339373D01*
X175515Y338794D01*
X175042Y338321D01*
X174463Y337986D01*
X173816Y337813D01*
X167893Y337813D01*
G37*
%LPD*%
%LPC*%
G36*
X167893Y261613D02*
X167893Y261613D01*
X167893Y266187D01*
X176023Y266187D01*
X176023Y263820D01*
X175850Y263173D01*
X175515Y262594D01*
X175042Y262121D01*
X174463Y261786D01*
X173816Y261613D01*
X167893Y261613D01*
G37*
%LPD*%
%LPC*%
G36*
X158924Y337813D02*
X158924Y337813D01*
X158277Y337986D01*
X157698Y338321D01*
X157225Y338794D01*
X156890Y339373D01*
X156717Y340020D01*
X156717Y342387D01*
X164847Y342387D01*
X164847Y337813D01*
X158924Y337813D01*
G37*
%LPD*%
%LPC*%
G36*
X28954Y337813D02*
X28954Y337813D01*
X28307Y337986D01*
X27728Y338321D01*
X27255Y338794D01*
X26920Y339373D01*
X26747Y340020D01*
X26747Y342387D01*
X34877Y342387D01*
X34877Y337813D01*
X28954Y337813D01*
G37*
%LPD*%
%LPC*%
G36*
X158924Y261613D02*
X158924Y261613D01*
X158277Y261786D01*
X157698Y262121D01*
X157225Y262594D01*
X156890Y263173D01*
X156717Y263820D01*
X156717Y266187D01*
X164847Y266187D01*
X164847Y261613D01*
X158924Y261613D01*
G37*
%LPD*%
%LPC*%
G36*
X166369Y267709D02*
X166369Y267709D01*
X166369Y267711D01*
X166371Y267711D01*
X166371Y267709D01*
X166369Y267709D01*
G37*
%LPD*%
D10*
X166370Y242310D03*
X166370Y255010D03*
X166370Y267710D03*
X166370Y280410D03*
X166370Y293110D03*
X166370Y305810D03*
X166370Y318510D03*
X166370Y331210D03*
D11*
X146520Y223520D03*
X133820Y223520D03*
X121120Y223520D03*
X108420Y223520D03*
X95720Y223520D03*
X83020Y223520D03*
X70320Y223520D03*
D10*
X36400Y242310D03*
X36400Y255010D03*
X36400Y267710D03*
X36400Y280410D03*
X36400Y293110D03*
X36400Y305810D03*
X36400Y318510D03*
X36400Y331210D03*
D11*
X57620Y223520D03*
D10*
X36400Y343910D03*
X166370Y343910D03*
D12*
X11430Y11430D03*
X11430Y36830D03*
X11430Y62230D03*
X11430Y87630D03*
X11430Y113030D03*
X11430Y138430D03*
X11430Y163830D03*
X11430Y189230D03*
X11430Y214630D03*
X11430Y240030D03*
X11430Y265430D03*
X11430Y290830D03*
X11430Y316230D03*
X11430Y341630D03*
X189230Y11430D03*
X189230Y36830D03*
X189230Y62230D03*
X189230Y87630D03*
X189230Y113030D03*
X189230Y138430D03*
X189230Y163830D03*
X189230Y189230D03*
X189230Y214630D03*
X189230Y240030D03*
X189230Y265430D03*
X189230Y290830D03*
X189230Y316230D03*
X189230Y341630D03*
D13*
X49270Y331210D02*
X36400Y331210D01*
X49270Y331210D02*
X49530Y331470D01*
D14*
X49530Y331470D03*
D13*
X49270Y318510D02*
X36400Y318510D01*
X49270Y318510D02*
X49530Y318770D01*
D14*
X49530Y318770D03*
D13*
X49270Y305810D02*
X36400Y305810D01*
X49270Y305810D02*
X49530Y306070D01*
D14*
X49530Y306070D03*
D13*
X49270Y293110D02*
X36400Y293110D01*
X49270Y293110D02*
X49530Y293370D01*
D14*
X49530Y293370D03*
D13*
X49270Y280410D02*
X36400Y280410D01*
X49270Y280410D02*
X49530Y280670D01*
D14*
X49530Y280670D03*
D13*
X49270Y267710D02*
X36400Y267710D01*
X49270Y267710D02*
X49530Y267970D01*
D14*
X49530Y267970D03*
D13*
X49270Y255010D02*
X36400Y255010D01*
X49270Y255010D02*
X49530Y255270D01*
D14*
X49530Y255270D03*
D13*
X49270Y242310D02*
X36400Y242310D01*
X49270Y242310D02*
X49530Y242570D01*
D14*
X49530Y242570D03*
D13*
X57620Y223520D02*
X57620Y212560D01*
X50800Y205740D02*
X33020Y205740D01*
X50800Y205740D02*
X57620Y212560D01*
X33020Y205740D02*
X23352Y196072D01*
X23352Y107172D02*
X11430Y95250D01*
X11430Y87630D01*
X23352Y107172D02*
X23352Y196072D01*
X59594Y209550D02*
X64770Y209550D01*
X59594Y209550D02*
X52260Y202216D01*
X64770Y209550D02*
X70320Y215100D01*
X70320Y223520D01*
X34480Y202216D02*
X26876Y194612D01*
X34480Y202216D02*
X52260Y202216D01*
X11430Y70770D02*
X11430Y62230D01*
X11430Y70770D02*
X23352Y82692D01*
X23352Y102188D01*
X26876Y105712D01*
X26876Y194612D01*
X166370Y331210D02*
X166630Y331470D01*
X180340Y331470D01*
X189230Y340360D01*
X189230Y341630D01*
X186950Y318510D02*
X166370Y318510D01*
X186950Y318510D02*
X189230Y316230D01*
X178060Y305810D02*
X166370Y305810D01*
X178060Y305810D02*
X189230Y294640D01*
X189230Y290830D01*
X166370Y293110D02*
X153930Y293110D01*
X153670Y293370D01*
D14*
X153670Y293370D03*
D15*
X152660Y255010D02*
X166370Y255010D01*
X152660Y255010D02*
X152400Y255270D01*
D14*
X152400Y255270D03*
D13*
X95720Y223520D02*
X95720Y214160D01*
X99060Y210820D01*
X106776Y210820D01*
X115094Y202502D02*
X129257Y202502D01*
X132781Y198978D01*
X140497Y198978D01*
X149101Y190374D01*
X156210Y190374D01*
X159688Y186896D01*
X159688Y176993D02*
X163212Y173469D01*
X163212Y149497D01*
X166736Y145973D01*
X166736Y129112D01*
X170260Y125588D01*
X170260Y100346D02*
X173784Y96822D01*
X173784Y78946D02*
X177308Y75422D01*
X177308Y57292D01*
X189230Y45370D02*
X189230Y36830D01*
X189230Y45370D02*
X177308Y57292D01*
X115094Y202502D02*
X106776Y210820D01*
X159688Y186896D02*
X159688Y176993D01*
X170260Y125588D02*
X170260Y100346D01*
X173784Y96822D02*
X173784Y78946D01*
X108420Y214160D02*
X108420Y223520D01*
X130717Y206026D02*
X134241Y202502D01*
X141957Y202502D01*
X150561Y193898D02*
X158354Y193898D01*
X163212Y189040D01*
X163212Y178453D02*
X166736Y174929D01*
X166736Y150957D01*
X170260Y147433D01*
X170260Y130572D02*
X173784Y127048D01*
X189230Y70770D02*
X189230Y62230D01*
X177308Y82692D02*
X177308Y98282D01*
X177308Y82692D02*
X189230Y70770D01*
X116554Y206026D02*
X108420Y214160D01*
X116554Y206026D02*
X130717Y206026D01*
X141957Y202502D02*
X150561Y193898D01*
X163212Y189040D02*
X163212Y178453D01*
X170260Y147433D02*
X170260Y130572D01*
X173784Y127048D02*
X173784Y101806D01*
X177308Y98282D01*
X121120Y212890D02*
X121120Y223520D01*
X132176Y209550D02*
X135700Y206026D01*
X143417Y206026D01*
X152021Y197422D01*
X161084Y197422D02*
X166736Y191770D01*
X166736Y179912D01*
X170260Y176388D01*
X170260Y152416D02*
X173784Y148892D01*
X173784Y132032D01*
X177308Y128508D01*
X189230Y95250D02*
X189230Y87630D01*
X124460Y209550D02*
X121120Y212890D01*
X124460Y209550D02*
X132176Y209550D01*
X152021Y197422D02*
X161084Y197422D01*
X170260Y176388D02*
X170260Y152416D01*
X177308Y128508D02*
X177308Y107172D01*
X189230Y95250D01*
X133820Y212890D02*
X133820Y223520D01*
X137160Y209550D02*
X144876Y209550D01*
X153480Y200946D02*
X163640Y200946D01*
X170260Y194326D02*
X170260Y181372D01*
X173784Y177848D01*
X173784Y153876D02*
X177308Y150352D01*
X177308Y133492D01*
X189230Y121570D02*
X189230Y113030D01*
X189230Y121570D02*
X177308Y133492D01*
X137160Y209550D02*
X133820Y212890D01*
X144876Y209550D02*
X153480Y200946D01*
X163640Y200946D02*
X170260Y194326D01*
X173784Y177848D02*
X173784Y153876D01*
X146520Y212890D02*
X146520Y223520D01*
X154940Y204470D02*
X165100Y204470D01*
X173784Y195786D01*
X173784Y182832D02*
X177308Y179308D01*
X177308Y156352D01*
X189230Y144430D02*
X189230Y138430D01*
X189230Y144430D02*
X177308Y156352D01*
X154940Y204470D02*
X146520Y212890D01*
X173784Y195786D02*
X173784Y182832D01*
X166370Y280410D02*
X153930Y280410D01*
X153670Y280670D01*
D14*
X153670Y280670D03*
D13*
X166370Y242310D02*
X173758Y242310D01*
X177308Y238760D01*
X189230Y172370D02*
X189230Y163830D01*
X189230Y172370D02*
X177308Y184292D01*
X177308Y238760D01*
D16*
X83020Y237020D02*
X83020Y223520D01*
X83020Y237020D02*
X82550Y237490D01*
D14*
X82550Y237490D03*
M02*
