G04 EAGLE Gerber RS-274X export*
G75*
%MOMM*%
%FSLAX34Y34*%
%LPD*%
%INSilkscreen Top*%
%IPPOS*%
%AMOC8*
5,1,8,0,0,1.08239X$1,22.5*%
G01*
%ADD10C,0.101600*%
%ADD11C,0.177800*%
%ADD12C,0.127000*%


D10*
X57078Y243283D02*
X66166Y243283D01*
X66166Y243282D02*
X66265Y243280D01*
X66365Y243274D01*
X66464Y243265D01*
X66562Y243252D01*
X66660Y243235D01*
X66758Y243214D01*
X66854Y243189D01*
X66949Y243161D01*
X67043Y243129D01*
X67136Y243094D01*
X67228Y243055D01*
X67318Y243012D01*
X67406Y242967D01*
X67493Y242917D01*
X67577Y242865D01*
X67660Y242809D01*
X67740Y242751D01*
X67818Y242689D01*
X67893Y242624D01*
X67966Y242556D01*
X68036Y242486D01*
X68104Y242413D01*
X68169Y242338D01*
X68231Y242260D01*
X68289Y242180D01*
X68345Y242097D01*
X68397Y242013D01*
X68447Y241926D01*
X68492Y241838D01*
X68535Y241748D01*
X68574Y241656D01*
X68609Y241563D01*
X68641Y241469D01*
X68669Y241374D01*
X68694Y241278D01*
X68715Y241180D01*
X68732Y241082D01*
X68745Y240984D01*
X68754Y240885D01*
X68760Y240785D01*
X68762Y240686D01*
X68762Y239388D01*
X68762Y248960D02*
X57078Y248960D01*
X68762Y248960D02*
X68762Y254153D01*
X68762Y261025D02*
X68762Y263622D01*
X68762Y261025D02*
X68760Y260926D01*
X68754Y260826D01*
X68745Y260727D01*
X68732Y260629D01*
X68715Y260531D01*
X68694Y260433D01*
X68669Y260337D01*
X68641Y260242D01*
X68609Y260148D01*
X68574Y260055D01*
X68535Y259963D01*
X68492Y259873D01*
X68447Y259785D01*
X68397Y259698D01*
X68345Y259614D01*
X68289Y259531D01*
X68231Y259451D01*
X68169Y259373D01*
X68104Y259298D01*
X68036Y259225D01*
X67966Y259155D01*
X67893Y259087D01*
X67818Y259022D01*
X67740Y258960D01*
X67660Y258902D01*
X67577Y258846D01*
X67493Y258794D01*
X67406Y258744D01*
X67318Y258699D01*
X67228Y258656D01*
X67136Y258617D01*
X67043Y258582D01*
X66949Y258550D01*
X66854Y258522D01*
X66758Y258497D01*
X66660Y258476D01*
X66562Y258459D01*
X66464Y258446D01*
X66365Y258437D01*
X66265Y258431D01*
X66166Y258429D01*
X59674Y258429D01*
X59674Y258428D02*
X59575Y258430D01*
X59475Y258436D01*
X59376Y258445D01*
X59278Y258458D01*
X59180Y258476D01*
X59082Y258496D01*
X58986Y258521D01*
X58890Y258549D01*
X58796Y258581D01*
X58703Y258616D01*
X58612Y258655D01*
X58522Y258698D01*
X58433Y258743D01*
X58347Y258793D01*
X58262Y258845D01*
X58180Y258901D01*
X58100Y258960D01*
X58022Y259021D01*
X57946Y259086D01*
X57873Y259154D01*
X57803Y259224D01*
X57735Y259297D01*
X57670Y259373D01*
X57609Y259451D01*
X57550Y259531D01*
X57494Y259613D01*
X57442Y259698D01*
X57393Y259784D01*
X57347Y259873D01*
X57304Y259963D01*
X57265Y260054D01*
X57230Y260147D01*
X57198Y260241D01*
X57170Y260337D01*
X57145Y260433D01*
X57125Y260531D01*
X57107Y260629D01*
X57094Y260727D01*
X57085Y260826D01*
X57079Y260925D01*
X57077Y261025D01*
X57078Y261025D02*
X57078Y263622D01*
X57078Y270715D02*
X66166Y270715D01*
X66166Y270714D02*
X66265Y270712D01*
X66365Y270706D01*
X66464Y270697D01*
X66562Y270684D01*
X66660Y270667D01*
X66758Y270646D01*
X66854Y270621D01*
X66949Y270593D01*
X67043Y270561D01*
X67136Y270526D01*
X67228Y270487D01*
X67318Y270444D01*
X67406Y270399D01*
X67493Y270349D01*
X67577Y270297D01*
X67660Y270241D01*
X67740Y270183D01*
X67818Y270121D01*
X67893Y270056D01*
X67966Y269988D01*
X68036Y269918D01*
X68104Y269845D01*
X68169Y269770D01*
X68231Y269692D01*
X68289Y269612D01*
X68345Y269529D01*
X68397Y269445D01*
X68447Y269358D01*
X68492Y269270D01*
X68535Y269180D01*
X68574Y269088D01*
X68609Y268995D01*
X68641Y268901D01*
X68669Y268806D01*
X68694Y268710D01*
X68715Y268612D01*
X68732Y268514D01*
X68745Y268416D01*
X68754Y268317D01*
X68760Y268217D01*
X68762Y268118D01*
X68762Y266820D01*
X68762Y276392D02*
X57078Y276392D01*
X68762Y276392D02*
X68762Y281585D01*
X68762Y288457D02*
X68762Y291054D01*
X68762Y288457D02*
X68760Y288358D01*
X68754Y288258D01*
X68745Y288159D01*
X68732Y288061D01*
X68715Y287963D01*
X68694Y287865D01*
X68669Y287769D01*
X68641Y287674D01*
X68609Y287580D01*
X68574Y287487D01*
X68535Y287395D01*
X68492Y287305D01*
X68447Y287217D01*
X68397Y287130D01*
X68345Y287046D01*
X68289Y286963D01*
X68231Y286883D01*
X68169Y286805D01*
X68104Y286730D01*
X68036Y286657D01*
X67966Y286587D01*
X67893Y286519D01*
X67818Y286454D01*
X67740Y286392D01*
X67660Y286334D01*
X67577Y286278D01*
X67493Y286226D01*
X67406Y286176D01*
X67318Y286131D01*
X67228Y286088D01*
X67136Y286049D01*
X67043Y286014D01*
X66949Y285982D01*
X66854Y285954D01*
X66758Y285929D01*
X66660Y285908D01*
X66562Y285891D01*
X66464Y285878D01*
X66365Y285869D01*
X66265Y285863D01*
X66166Y285861D01*
X59674Y285861D01*
X59674Y285860D02*
X59575Y285862D01*
X59475Y285868D01*
X59376Y285877D01*
X59278Y285890D01*
X59180Y285908D01*
X59082Y285928D01*
X58986Y285953D01*
X58890Y285981D01*
X58796Y286013D01*
X58703Y286048D01*
X58612Y286087D01*
X58522Y286130D01*
X58433Y286175D01*
X58347Y286225D01*
X58262Y286277D01*
X58180Y286333D01*
X58100Y286392D01*
X58022Y286453D01*
X57946Y286518D01*
X57873Y286586D01*
X57803Y286656D01*
X57735Y286729D01*
X57670Y286805D01*
X57609Y286883D01*
X57550Y286963D01*
X57494Y287045D01*
X57442Y287130D01*
X57393Y287216D01*
X57347Y287305D01*
X57304Y287395D01*
X57265Y287486D01*
X57230Y287579D01*
X57198Y287673D01*
X57170Y287769D01*
X57145Y287865D01*
X57125Y287963D01*
X57107Y288061D01*
X57094Y288159D01*
X57085Y288258D01*
X57079Y288357D01*
X57077Y288457D01*
X57078Y288457D02*
X57078Y291054D01*
X57078Y298147D02*
X66166Y298147D01*
X66166Y298146D02*
X66265Y298144D01*
X66365Y298138D01*
X66464Y298129D01*
X66562Y298116D01*
X66660Y298099D01*
X66758Y298078D01*
X66854Y298053D01*
X66949Y298025D01*
X67043Y297993D01*
X67136Y297958D01*
X67228Y297919D01*
X67318Y297876D01*
X67406Y297831D01*
X67493Y297781D01*
X67577Y297729D01*
X67660Y297673D01*
X67740Y297615D01*
X67818Y297553D01*
X67893Y297488D01*
X67966Y297420D01*
X68036Y297350D01*
X68104Y297277D01*
X68169Y297202D01*
X68231Y297124D01*
X68289Y297044D01*
X68345Y296961D01*
X68397Y296877D01*
X68447Y296790D01*
X68492Y296702D01*
X68535Y296612D01*
X68574Y296520D01*
X68609Y296427D01*
X68641Y296333D01*
X68669Y296238D01*
X68694Y296142D01*
X68715Y296044D01*
X68732Y295946D01*
X68745Y295848D01*
X68754Y295749D01*
X68760Y295649D01*
X68762Y295550D01*
X68762Y294252D01*
X68762Y303824D02*
X57078Y303824D01*
X68762Y303824D02*
X68762Y309017D01*
X68762Y315889D02*
X68762Y318486D01*
X68762Y315889D02*
X68760Y315790D01*
X68754Y315690D01*
X68745Y315591D01*
X68732Y315493D01*
X68715Y315395D01*
X68694Y315297D01*
X68669Y315201D01*
X68641Y315106D01*
X68609Y315012D01*
X68574Y314919D01*
X68535Y314827D01*
X68492Y314737D01*
X68447Y314649D01*
X68397Y314562D01*
X68345Y314478D01*
X68289Y314395D01*
X68231Y314315D01*
X68169Y314237D01*
X68104Y314162D01*
X68036Y314089D01*
X67966Y314019D01*
X67893Y313951D01*
X67818Y313886D01*
X67740Y313824D01*
X67660Y313766D01*
X67577Y313710D01*
X67493Y313658D01*
X67406Y313608D01*
X67318Y313563D01*
X67228Y313520D01*
X67136Y313481D01*
X67043Y313446D01*
X66949Y313414D01*
X66854Y313386D01*
X66758Y313361D01*
X66660Y313340D01*
X66562Y313323D01*
X66464Y313310D01*
X66365Y313301D01*
X66265Y313295D01*
X66166Y313293D01*
X59674Y313293D01*
X59674Y313292D02*
X59575Y313294D01*
X59475Y313300D01*
X59376Y313309D01*
X59278Y313322D01*
X59180Y313340D01*
X59082Y313360D01*
X58986Y313385D01*
X58890Y313413D01*
X58796Y313445D01*
X58703Y313480D01*
X58612Y313519D01*
X58522Y313562D01*
X58433Y313607D01*
X58347Y313657D01*
X58262Y313709D01*
X58180Y313765D01*
X58100Y313824D01*
X58022Y313885D01*
X57946Y313950D01*
X57873Y314018D01*
X57803Y314088D01*
X57735Y314161D01*
X57670Y314237D01*
X57609Y314315D01*
X57550Y314395D01*
X57494Y314477D01*
X57442Y314562D01*
X57393Y314648D01*
X57347Y314737D01*
X57304Y314827D01*
X57265Y314918D01*
X57230Y315011D01*
X57198Y315105D01*
X57170Y315201D01*
X57145Y315297D01*
X57125Y315395D01*
X57107Y315493D01*
X57094Y315591D01*
X57085Y315690D01*
X57079Y315789D01*
X57077Y315889D01*
X57078Y315889D02*
X57078Y318486D01*
X57078Y325579D02*
X66166Y325579D01*
X66166Y325578D02*
X66265Y325576D01*
X66365Y325570D01*
X66464Y325561D01*
X66562Y325548D01*
X66660Y325531D01*
X66758Y325510D01*
X66854Y325485D01*
X66949Y325457D01*
X67043Y325425D01*
X67136Y325390D01*
X67228Y325351D01*
X67318Y325308D01*
X67406Y325263D01*
X67493Y325213D01*
X67577Y325161D01*
X67660Y325105D01*
X67740Y325047D01*
X67818Y324985D01*
X67893Y324920D01*
X67966Y324852D01*
X68036Y324782D01*
X68104Y324709D01*
X68169Y324634D01*
X68231Y324556D01*
X68289Y324476D01*
X68345Y324393D01*
X68397Y324309D01*
X68447Y324222D01*
X68492Y324134D01*
X68535Y324044D01*
X68574Y323952D01*
X68609Y323859D01*
X68641Y323765D01*
X68669Y323670D01*
X68694Y323574D01*
X68715Y323476D01*
X68732Y323378D01*
X68745Y323280D01*
X68754Y323181D01*
X68760Y323081D01*
X68762Y322982D01*
X68762Y321684D01*
X68762Y331256D02*
X57078Y331256D01*
X68762Y331256D02*
X68762Y336449D01*
X68762Y343321D02*
X68762Y345918D01*
X68762Y343321D02*
X68760Y343222D01*
X68754Y343122D01*
X68745Y343023D01*
X68732Y342925D01*
X68715Y342827D01*
X68694Y342729D01*
X68669Y342633D01*
X68641Y342538D01*
X68609Y342444D01*
X68574Y342351D01*
X68535Y342259D01*
X68492Y342169D01*
X68447Y342081D01*
X68397Y341994D01*
X68345Y341910D01*
X68289Y341827D01*
X68231Y341747D01*
X68169Y341669D01*
X68104Y341594D01*
X68036Y341521D01*
X67966Y341451D01*
X67893Y341383D01*
X67818Y341318D01*
X67740Y341256D01*
X67660Y341198D01*
X67577Y341142D01*
X67493Y341090D01*
X67406Y341040D01*
X67318Y340995D01*
X67228Y340952D01*
X67136Y340913D01*
X67043Y340878D01*
X66949Y340846D01*
X66854Y340818D01*
X66758Y340793D01*
X66660Y340772D01*
X66562Y340755D01*
X66464Y340742D01*
X66365Y340733D01*
X66265Y340727D01*
X66166Y340725D01*
X59674Y340725D01*
X59674Y340724D02*
X59575Y340726D01*
X59475Y340732D01*
X59376Y340741D01*
X59278Y340754D01*
X59180Y340772D01*
X59082Y340792D01*
X58986Y340817D01*
X58890Y340845D01*
X58796Y340877D01*
X58703Y340912D01*
X58612Y340951D01*
X58522Y340994D01*
X58433Y341039D01*
X58347Y341089D01*
X58262Y341141D01*
X58180Y341197D01*
X58100Y341256D01*
X58022Y341317D01*
X57946Y341382D01*
X57873Y341450D01*
X57803Y341520D01*
X57735Y341593D01*
X57670Y341669D01*
X57609Y341747D01*
X57550Y341827D01*
X57494Y341909D01*
X57442Y341994D01*
X57393Y342080D01*
X57347Y342169D01*
X57304Y342259D01*
X57265Y342350D01*
X57230Y342443D01*
X57198Y342537D01*
X57170Y342633D01*
X57145Y342729D01*
X57125Y342827D01*
X57107Y342925D01*
X57094Y343023D01*
X57085Y343122D01*
X57079Y343221D01*
X57077Y343321D01*
X57078Y343321D02*
X57078Y345918D01*
D11*
X147455Y244429D02*
X147455Y240704D01*
X139073Y240704D01*
X139073Y244429D01*
X142798Y243498D02*
X142798Y240704D01*
X140935Y248295D02*
X139073Y250623D01*
X147455Y250623D01*
X147455Y248295D02*
X147455Y252952D01*
X143264Y257439D02*
X143099Y257441D01*
X142934Y257447D01*
X142770Y257457D01*
X142605Y257470D01*
X142441Y257488D01*
X142278Y257510D01*
X142115Y257535D01*
X141953Y257565D01*
X141791Y257598D01*
X141631Y257635D01*
X141471Y257676D01*
X141312Y257721D01*
X141155Y257769D01*
X140998Y257821D01*
X140843Y257877D01*
X140689Y257937D01*
X140537Y258000D01*
X140386Y258067D01*
X140237Y258137D01*
X140160Y258166D01*
X140084Y258198D01*
X140010Y258233D01*
X139938Y258273D01*
X139868Y258315D01*
X139800Y258361D01*
X139734Y258410D01*
X139670Y258463D01*
X139609Y258518D01*
X139551Y258576D01*
X139496Y258636D01*
X139443Y258700D01*
X139394Y258766D01*
X139348Y258834D01*
X139305Y258904D01*
X139265Y258976D01*
X139229Y259050D01*
X139197Y259125D01*
X139168Y259202D01*
X139143Y259280D01*
X139122Y259360D01*
X139104Y259440D01*
X139091Y259521D01*
X139081Y259603D01*
X139075Y259685D01*
X139073Y259767D01*
X139075Y259849D01*
X139081Y259931D01*
X139091Y260013D01*
X139104Y260094D01*
X139122Y260174D01*
X139143Y260254D01*
X139168Y260332D01*
X139197Y260409D01*
X139229Y260484D01*
X139265Y260558D01*
X139305Y260630D01*
X139348Y260700D01*
X139394Y260768D01*
X139443Y260834D01*
X139496Y260898D01*
X139551Y260958D01*
X139609Y261016D01*
X139670Y261071D01*
X139734Y261124D01*
X139800Y261173D01*
X139868Y261219D01*
X139938Y261261D01*
X140010Y261301D01*
X140084Y261336D01*
X140160Y261368D01*
X140237Y261397D01*
X140386Y261467D01*
X140537Y261534D01*
X140689Y261597D01*
X140843Y261657D01*
X140998Y261713D01*
X141155Y261765D01*
X141312Y261813D01*
X141471Y261858D01*
X141631Y261899D01*
X141791Y261936D01*
X141953Y261969D01*
X142115Y261999D01*
X142278Y262024D01*
X142441Y262046D01*
X142605Y262064D01*
X142770Y262077D01*
X142934Y262087D01*
X143099Y262093D01*
X143264Y262095D01*
X143264Y257439D02*
X143429Y257441D01*
X143594Y257447D01*
X143758Y257457D01*
X143923Y257470D01*
X144087Y257488D01*
X144250Y257510D01*
X144413Y257535D01*
X144575Y257565D01*
X144737Y257598D01*
X144897Y257635D01*
X145057Y257676D01*
X145216Y257721D01*
X145373Y257769D01*
X145530Y257821D01*
X145685Y257877D01*
X145839Y257937D01*
X145991Y258000D01*
X146142Y258067D01*
X146291Y258137D01*
X146368Y258166D01*
X146444Y258198D01*
X146518Y258234D01*
X146590Y258273D01*
X146660Y258315D01*
X146728Y258361D01*
X146794Y258410D01*
X146858Y258463D01*
X146919Y258518D01*
X146977Y258576D01*
X147032Y258637D01*
X147085Y258700D01*
X147134Y258766D01*
X147180Y258834D01*
X147223Y258904D01*
X147263Y258976D01*
X147299Y259050D01*
X147331Y259125D01*
X147360Y259202D01*
X147385Y259280D01*
X147406Y259360D01*
X147424Y259440D01*
X147437Y259521D01*
X147447Y259603D01*
X147453Y259685D01*
X147455Y259767D01*
X146291Y261397D02*
X146142Y261467D01*
X145991Y261534D01*
X145839Y261597D01*
X145685Y261657D01*
X145530Y261713D01*
X145373Y261765D01*
X145216Y261813D01*
X145057Y261858D01*
X144897Y261899D01*
X144737Y261936D01*
X144575Y261969D01*
X144413Y261999D01*
X144250Y262024D01*
X144087Y262046D01*
X143923Y262064D01*
X143758Y262077D01*
X143594Y262087D01*
X143429Y262093D01*
X143264Y262095D01*
X146291Y261397D02*
X146368Y261368D01*
X146444Y261336D01*
X146518Y261300D01*
X146590Y261261D01*
X146660Y261219D01*
X146728Y261173D01*
X146794Y261124D01*
X146858Y261071D01*
X146919Y261016D01*
X146977Y260958D01*
X147032Y260897D01*
X147085Y260834D01*
X147134Y260768D01*
X147180Y260700D01*
X147223Y260630D01*
X147263Y260558D01*
X147299Y260484D01*
X147331Y260409D01*
X147360Y260332D01*
X147385Y260254D01*
X147406Y260174D01*
X147424Y260094D01*
X147437Y260013D01*
X147447Y259931D01*
X147453Y259849D01*
X147455Y259767D01*
X145592Y257905D02*
X140935Y261630D01*
X145592Y266583D02*
X139073Y268446D01*
X145592Y266583D02*
X145592Y271240D01*
X143729Y269843D02*
X147455Y269843D01*
X144195Y275871D02*
X144195Y281459D01*
X142798Y286611D02*
X142798Y288939D01*
X142800Y289034D01*
X142806Y289129D01*
X142815Y289223D01*
X142829Y289317D01*
X142846Y289411D01*
X142867Y289503D01*
X142892Y289595D01*
X142921Y289685D01*
X142953Y289775D01*
X142989Y289863D01*
X143029Y289949D01*
X143071Y290034D01*
X143118Y290117D01*
X143168Y290198D01*
X143221Y290276D01*
X143277Y290353D01*
X143336Y290427D01*
X143398Y290499D01*
X143463Y290568D01*
X143531Y290635D01*
X143601Y290698D01*
X143675Y290759D01*
X143750Y290817D01*
X143828Y290871D01*
X143908Y290923D01*
X143990Y290971D01*
X144073Y291015D01*
X144159Y291057D01*
X144246Y291094D01*
X144335Y291128D01*
X144425Y291159D01*
X144516Y291186D01*
X144608Y291209D01*
X144701Y291228D01*
X144795Y291243D01*
X144889Y291255D01*
X144984Y291263D01*
X145079Y291267D01*
X145173Y291267D01*
X145268Y291263D01*
X145363Y291255D01*
X145457Y291243D01*
X145551Y291228D01*
X145644Y291209D01*
X145736Y291186D01*
X145827Y291159D01*
X145917Y291128D01*
X146006Y291094D01*
X146093Y291057D01*
X146179Y291015D01*
X146262Y290971D01*
X146344Y290923D01*
X146424Y290871D01*
X146502Y290817D01*
X146577Y290759D01*
X146651Y290698D01*
X146721Y290635D01*
X146789Y290568D01*
X146854Y290499D01*
X146916Y290427D01*
X146975Y290353D01*
X147031Y290276D01*
X147084Y290198D01*
X147134Y290117D01*
X147181Y290034D01*
X147223Y289949D01*
X147263Y289863D01*
X147299Y289775D01*
X147331Y289685D01*
X147360Y289595D01*
X147385Y289503D01*
X147406Y289411D01*
X147423Y289317D01*
X147437Y289223D01*
X147446Y289129D01*
X147452Y289034D01*
X147454Y288939D01*
X147455Y288939D02*
X147455Y286611D01*
X139073Y286611D01*
X139073Y288939D01*
X139072Y288939D02*
X139074Y289024D01*
X139080Y289108D01*
X139089Y289193D01*
X139103Y289276D01*
X139120Y289359D01*
X139141Y289442D01*
X139166Y289523D01*
X139194Y289603D01*
X139226Y289681D01*
X139262Y289758D01*
X139301Y289834D01*
X139343Y289907D01*
X139389Y289978D01*
X139438Y290048D01*
X139490Y290115D01*
X139545Y290179D01*
X139603Y290241D01*
X139663Y290301D01*
X139727Y290357D01*
X139792Y290411D01*
X139861Y290461D01*
X139931Y290508D01*
X140004Y290552D01*
X140078Y290593D01*
X140154Y290630D01*
X140232Y290664D01*
X140311Y290694D01*
X140392Y290721D01*
X140473Y290744D01*
X140556Y290763D01*
X140639Y290778D01*
X140723Y290790D01*
X140808Y290798D01*
X140893Y290802D01*
X140977Y290802D01*
X141062Y290798D01*
X141147Y290790D01*
X141231Y290778D01*
X141314Y290763D01*
X141397Y290744D01*
X141478Y290721D01*
X141559Y290694D01*
X141638Y290664D01*
X141716Y290630D01*
X141792Y290593D01*
X141867Y290552D01*
X141939Y290508D01*
X142009Y290461D01*
X142078Y290411D01*
X142143Y290357D01*
X142207Y290301D01*
X142267Y290241D01*
X142325Y290179D01*
X142380Y290115D01*
X142432Y290048D01*
X142481Y289978D01*
X142527Y289907D01*
X142569Y289834D01*
X142608Y289758D01*
X142644Y289681D01*
X142676Y289603D01*
X142704Y289523D01*
X142729Y289442D01*
X142750Y289359D01*
X142767Y289276D01*
X142781Y289193D01*
X142790Y289108D01*
X142796Y289024D01*
X142798Y288939D01*
X139073Y296953D02*
X147455Y296953D01*
X139073Y294625D02*
X139073Y299281D01*
X140935Y303159D02*
X139073Y305487D01*
X147455Y305487D01*
X147455Y303159D02*
X147455Y307816D01*
X140935Y312303D02*
X139073Y314631D01*
X147455Y314631D01*
X147455Y312303D02*
X147455Y316960D01*
D12*
X166370Y223520D02*
X166370Y414150D01*
X36400Y414150D01*
X36400Y223520D01*
X151290Y379230D02*
X151290Y409230D01*
X141290Y409230D01*
X141290Y383030D01*
X114590Y383030D01*
X114790Y383130D02*
X114790Y409230D01*
X91060Y409230D01*
X91060Y383130D01*
X63980Y383130D01*
X63980Y409230D01*
X51380Y409230D01*
X51380Y366630D01*
X78900Y366630D01*
X93400Y350030D01*
X36400Y223520D02*
X166370Y223520D01*
M02*
