G04 EAGLE Gerber RS-274X export*
G75*
%MOMM*%
%FSLAX34Y34*%
%LPD*%
%INSilkscreen Bottom*%
%IPPOS*%
%AMOC8*
5,1,8,0,0,1.08239X$1,22.5*%
G01*
%ADD10C,0.177800*%


D10*
X48217Y343151D02*
X46820Y343151D01*
X46820Y338494D01*
X49614Y338494D01*
X49698Y338496D01*
X49781Y338502D01*
X49864Y338511D01*
X49947Y338524D01*
X50029Y338541D01*
X50110Y338561D01*
X50190Y338585D01*
X50269Y338613D01*
X50346Y338644D01*
X50422Y338678D01*
X50497Y338716D01*
X50570Y338758D01*
X50640Y338802D01*
X50709Y338850D01*
X50776Y338900D01*
X50840Y338954D01*
X50901Y339010D01*
X50961Y339070D01*
X51017Y339131D01*
X51071Y339195D01*
X51121Y339262D01*
X51169Y339331D01*
X51213Y339401D01*
X51255Y339474D01*
X51293Y339549D01*
X51327Y339625D01*
X51358Y339702D01*
X51386Y339781D01*
X51410Y339861D01*
X51430Y339942D01*
X51447Y340024D01*
X51460Y340107D01*
X51470Y340190D01*
X51475Y340273D01*
X51477Y340357D01*
X51476Y340357D02*
X51476Y345013D01*
X51477Y345013D02*
X51475Y345099D01*
X51469Y345185D01*
X51459Y345270D01*
X51445Y345355D01*
X51428Y345440D01*
X51406Y345523D01*
X51380Y345605D01*
X51351Y345686D01*
X51318Y345765D01*
X51282Y345843D01*
X51242Y345920D01*
X51198Y345994D01*
X51151Y346066D01*
X51101Y346136D01*
X51047Y346203D01*
X50991Y346268D01*
X50931Y346330D01*
X50869Y346390D01*
X50804Y346446D01*
X50737Y346500D01*
X50667Y346550D01*
X50595Y346597D01*
X50521Y346641D01*
X50444Y346681D01*
X50367Y346717D01*
X50287Y346750D01*
X50206Y346779D01*
X50124Y346805D01*
X50041Y346827D01*
X49956Y346844D01*
X49871Y346858D01*
X49786Y346868D01*
X49700Y346874D01*
X49614Y346876D01*
X46820Y346876D01*
X41723Y346876D02*
X41723Y338494D01*
X37066Y338494D02*
X41723Y346876D01*
X37066Y346876D02*
X37066Y338494D01*
X31969Y338494D02*
X31969Y346876D01*
X29641Y346876D01*
X29545Y346874D01*
X29449Y346868D01*
X29353Y346858D01*
X29258Y346844D01*
X29163Y346826D01*
X29070Y346805D01*
X28977Y346779D01*
X28885Y346750D01*
X28795Y346717D01*
X28706Y346680D01*
X28619Y346639D01*
X28533Y346595D01*
X28449Y346548D01*
X28368Y346497D01*
X28288Y346443D01*
X28211Y346385D01*
X28136Y346324D01*
X28064Y346261D01*
X27995Y346194D01*
X27928Y346125D01*
X27865Y346053D01*
X27804Y345978D01*
X27746Y345901D01*
X27692Y345821D01*
X27641Y345740D01*
X27594Y345656D01*
X27550Y345570D01*
X27509Y345483D01*
X27472Y345394D01*
X27439Y345304D01*
X27410Y345212D01*
X27384Y345120D01*
X27363Y345026D01*
X27345Y344931D01*
X27331Y344836D01*
X27321Y344740D01*
X27315Y344644D01*
X27313Y344548D01*
X27313Y340822D01*
X27315Y340728D01*
X27321Y340635D01*
X27330Y340541D01*
X27343Y340449D01*
X27360Y340356D01*
X27381Y340265D01*
X27405Y340174D01*
X27433Y340085D01*
X27464Y339996D01*
X27499Y339909D01*
X27538Y339824D01*
X27580Y339740D01*
X27625Y339658D01*
X27673Y339578D01*
X27725Y339500D01*
X27780Y339423D01*
X27838Y339350D01*
X27898Y339278D01*
X27962Y339209D01*
X28028Y339143D01*
X28097Y339079D01*
X28169Y339019D01*
X28242Y338961D01*
X28319Y338906D01*
X28397Y338854D01*
X28477Y338806D01*
X28559Y338761D01*
X28643Y338719D01*
X28729Y338680D01*
X28816Y338645D01*
X28904Y338614D01*
X28993Y338586D01*
X29084Y338562D01*
X29175Y338541D01*
X29268Y338524D01*
X29360Y338511D01*
X29454Y338502D01*
X29547Y338496D01*
X29641Y338494D01*
X31969Y338494D01*
X52480Y321476D02*
X52480Y313094D01*
X52480Y321476D02*
X50151Y321476D01*
X50056Y321474D01*
X49961Y321468D01*
X49867Y321459D01*
X49773Y321445D01*
X49679Y321428D01*
X49587Y321407D01*
X49495Y321382D01*
X49405Y321353D01*
X49315Y321321D01*
X49227Y321285D01*
X49141Y321245D01*
X49056Y321203D01*
X48973Y321156D01*
X48892Y321106D01*
X48814Y321053D01*
X48737Y320997D01*
X48663Y320938D01*
X48591Y320876D01*
X48522Y320811D01*
X48455Y320743D01*
X48392Y320673D01*
X48331Y320599D01*
X48273Y320524D01*
X48219Y320446D01*
X48167Y320366D01*
X48119Y320284D01*
X48075Y320201D01*
X48033Y320115D01*
X47996Y320028D01*
X47962Y319939D01*
X47931Y319849D01*
X47904Y319758D01*
X47881Y319666D01*
X47862Y319573D01*
X47847Y319479D01*
X47835Y319385D01*
X47827Y319290D01*
X47823Y319195D01*
X47823Y319101D01*
X47827Y319006D01*
X47835Y318911D01*
X47847Y318817D01*
X47862Y318723D01*
X47881Y318630D01*
X47904Y318538D01*
X47931Y318447D01*
X47962Y318357D01*
X47996Y318268D01*
X48033Y318181D01*
X48075Y318095D01*
X48119Y318012D01*
X48167Y317930D01*
X48219Y317850D01*
X48273Y317772D01*
X48331Y317697D01*
X48392Y317623D01*
X48455Y317553D01*
X48522Y317485D01*
X48591Y317420D01*
X48663Y317358D01*
X48737Y317299D01*
X48814Y317243D01*
X48892Y317190D01*
X48973Y317140D01*
X49056Y317093D01*
X49141Y317051D01*
X49227Y317011D01*
X49315Y316975D01*
X49405Y316943D01*
X49495Y316914D01*
X49587Y316889D01*
X49679Y316868D01*
X49773Y316851D01*
X49867Y316837D01*
X49961Y316828D01*
X50056Y316822D01*
X50151Y316820D01*
X50151Y316819D02*
X52480Y316819D01*
X44034Y321476D02*
X42172Y313094D01*
X40309Y318682D01*
X38446Y313094D01*
X36584Y321476D01*
X31969Y321476D02*
X31969Y313094D01*
X27313Y313094D02*
X31969Y321476D01*
X27313Y321476D02*
X27313Y313094D01*
X52480Y296076D02*
X52480Y287694D01*
X52480Y296076D02*
X50151Y296076D01*
X50056Y296074D01*
X49961Y296068D01*
X49867Y296059D01*
X49773Y296045D01*
X49679Y296028D01*
X49587Y296007D01*
X49495Y295982D01*
X49405Y295953D01*
X49315Y295921D01*
X49227Y295885D01*
X49141Y295845D01*
X49056Y295803D01*
X48973Y295756D01*
X48892Y295706D01*
X48814Y295653D01*
X48737Y295597D01*
X48663Y295538D01*
X48591Y295476D01*
X48522Y295411D01*
X48455Y295343D01*
X48392Y295273D01*
X48331Y295199D01*
X48273Y295124D01*
X48219Y295046D01*
X48167Y294966D01*
X48119Y294884D01*
X48075Y294801D01*
X48033Y294715D01*
X47996Y294628D01*
X47962Y294539D01*
X47931Y294449D01*
X47904Y294358D01*
X47881Y294266D01*
X47862Y294173D01*
X47847Y294079D01*
X47835Y293985D01*
X47827Y293890D01*
X47823Y293795D01*
X47823Y293701D01*
X47827Y293606D01*
X47835Y293511D01*
X47847Y293417D01*
X47862Y293323D01*
X47881Y293230D01*
X47904Y293138D01*
X47931Y293047D01*
X47962Y292957D01*
X47996Y292868D01*
X48033Y292781D01*
X48075Y292695D01*
X48119Y292612D01*
X48167Y292530D01*
X48219Y292450D01*
X48273Y292372D01*
X48331Y292297D01*
X48392Y292223D01*
X48455Y292153D01*
X48522Y292085D01*
X48591Y292020D01*
X48663Y291958D01*
X48737Y291899D01*
X48814Y291843D01*
X48892Y291790D01*
X48973Y291740D01*
X49056Y291693D01*
X49141Y291651D01*
X49227Y291611D01*
X49315Y291575D01*
X49405Y291543D01*
X49495Y291514D01*
X49587Y291489D01*
X49679Y291468D01*
X49773Y291451D01*
X49867Y291437D01*
X49961Y291428D01*
X50056Y291422D01*
X50151Y291420D01*
X50151Y291419D02*
X52480Y291419D01*
X44034Y296076D02*
X42172Y287694D01*
X40309Y293282D01*
X38446Y287694D01*
X36584Y296076D01*
X31969Y296076D02*
X31969Y287694D01*
X27313Y287694D02*
X31969Y296076D01*
X27313Y296076D02*
X27313Y287694D01*
X58880Y270676D02*
X58880Y262294D01*
X58880Y270676D02*
X56552Y270676D01*
X56457Y270674D01*
X56362Y270668D01*
X56268Y270659D01*
X56174Y270645D01*
X56080Y270628D01*
X55988Y270607D01*
X55896Y270582D01*
X55806Y270553D01*
X55716Y270521D01*
X55628Y270485D01*
X55542Y270445D01*
X55457Y270403D01*
X55374Y270356D01*
X55293Y270306D01*
X55215Y270253D01*
X55138Y270197D01*
X55064Y270138D01*
X54992Y270076D01*
X54923Y270011D01*
X54856Y269943D01*
X54793Y269873D01*
X54732Y269799D01*
X54674Y269724D01*
X54620Y269646D01*
X54568Y269566D01*
X54520Y269484D01*
X54476Y269401D01*
X54434Y269315D01*
X54397Y269228D01*
X54363Y269139D01*
X54332Y269049D01*
X54305Y268958D01*
X54282Y268866D01*
X54263Y268773D01*
X54248Y268679D01*
X54236Y268585D01*
X54228Y268490D01*
X54224Y268395D01*
X54224Y268301D01*
X54228Y268206D01*
X54236Y268111D01*
X54248Y268017D01*
X54263Y267923D01*
X54282Y267830D01*
X54305Y267738D01*
X54332Y267647D01*
X54363Y267557D01*
X54397Y267468D01*
X54434Y267381D01*
X54476Y267295D01*
X54520Y267212D01*
X54568Y267130D01*
X54620Y267050D01*
X54674Y266972D01*
X54732Y266897D01*
X54793Y266823D01*
X54856Y266753D01*
X54923Y266685D01*
X54992Y266620D01*
X55064Y266558D01*
X55138Y266499D01*
X55215Y266443D01*
X55293Y266390D01*
X55374Y266340D01*
X55457Y266293D01*
X55542Y266251D01*
X55628Y266211D01*
X55716Y266175D01*
X55806Y266143D01*
X55896Y266114D01*
X55988Y266089D01*
X56080Y266068D01*
X56174Y266051D01*
X56268Y266037D01*
X56362Y266028D01*
X56457Y266022D01*
X56552Y266020D01*
X56552Y266019D02*
X58880Y266019D01*
X50723Y262294D02*
X47929Y270676D01*
X45135Y262294D01*
X45833Y264389D02*
X50024Y264389D01*
X41113Y266485D02*
X41111Y266650D01*
X41105Y266815D01*
X41095Y266979D01*
X41082Y267144D01*
X41064Y267308D01*
X41042Y267471D01*
X41017Y267634D01*
X40987Y267796D01*
X40954Y267958D01*
X40917Y268118D01*
X40876Y268278D01*
X40831Y268437D01*
X40783Y268594D01*
X40731Y268751D01*
X40675Y268906D01*
X40615Y269060D01*
X40552Y269212D01*
X40485Y269363D01*
X40415Y269512D01*
X40386Y269589D01*
X40354Y269665D01*
X40319Y269739D01*
X40279Y269811D01*
X40237Y269881D01*
X40191Y269949D01*
X40142Y270015D01*
X40089Y270079D01*
X40034Y270140D01*
X39976Y270198D01*
X39916Y270253D01*
X39852Y270306D01*
X39786Y270355D01*
X39718Y270401D01*
X39648Y270444D01*
X39576Y270484D01*
X39502Y270520D01*
X39427Y270552D01*
X39350Y270581D01*
X39272Y270606D01*
X39192Y270627D01*
X39112Y270645D01*
X39031Y270658D01*
X38949Y270668D01*
X38867Y270674D01*
X38785Y270676D01*
X38703Y270674D01*
X38621Y270668D01*
X38539Y270658D01*
X38458Y270645D01*
X38378Y270627D01*
X38298Y270606D01*
X38220Y270581D01*
X38143Y270552D01*
X38068Y270520D01*
X37994Y270484D01*
X37922Y270444D01*
X37852Y270401D01*
X37784Y270355D01*
X37718Y270306D01*
X37655Y270253D01*
X37594Y270198D01*
X37536Y270140D01*
X37481Y270079D01*
X37428Y270015D01*
X37379Y269949D01*
X37333Y269881D01*
X37291Y269811D01*
X37252Y269739D01*
X37216Y269665D01*
X37184Y269589D01*
X37155Y269512D01*
X37085Y269363D01*
X37018Y269212D01*
X36955Y269060D01*
X36895Y268906D01*
X36839Y268751D01*
X36787Y268594D01*
X36739Y268437D01*
X36694Y268278D01*
X36653Y268118D01*
X36616Y267958D01*
X36583Y267796D01*
X36553Y267634D01*
X36528Y267471D01*
X36506Y267308D01*
X36488Y267144D01*
X36475Y266979D01*
X36465Y266815D01*
X36459Y266650D01*
X36457Y266485D01*
X41114Y266485D02*
X41112Y266320D01*
X41106Y266155D01*
X41096Y265991D01*
X41083Y265826D01*
X41065Y265662D01*
X41043Y265499D01*
X41018Y265336D01*
X40988Y265174D01*
X40955Y265012D01*
X40918Y264851D01*
X40877Y264692D01*
X40832Y264533D01*
X40784Y264375D01*
X40732Y264219D01*
X40676Y264064D01*
X40616Y263910D01*
X40553Y263758D01*
X40486Y263607D01*
X40415Y263458D01*
X40386Y263381D01*
X40354Y263305D01*
X40318Y263231D01*
X40279Y263159D01*
X40237Y263089D01*
X40191Y263021D01*
X40142Y262955D01*
X40089Y262891D01*
X40034Y262830D01*
X39976Y262772D01*
X39916Y262717D01*
X39852Y262664D01*
X39786Y262615D01*
X39718Y262569D01*
X39648Y262526D01*
X39576Y262486D01*
X39502Y262450D01*
X39427Y262418D01*
X39350Y262389D01*
X39272Y262364D01*
X39192Y262343D01*
X39112Y262325D01*
X39031Y262312D01*
X38949Y262302D01*
X38867Y262296D01*
X38785Y262294D01*
X37155Y263458D02*
X37084Y263607D01*
X37017Y263758D01*
X36954Y263910D01*
X36894Y264064D01*
X36838Y264219D01*
X36786Y264375D01*
X36738Y264533D01*
X36693Y264692D01*
X36652Y264851D01*
X36615Y265012D01*
X36582Y265174D01*
X36552Y265336D01*
X36527Y265499D01*
X36505Y265662D01*
X36487Y265826D01*
X36474Y265991D01*
X36464Y266155D01*
X36458Y266320D01*
X36456Y266485D01*
X37155Y263458D02*
X37184Y263381D01*
X37216Y263305D01*
X37252Y263231D01*
X37291Y263159D01*
X37333Y263089D01*
X37379Y263021D01*
X37428Y262955D01*
X37481Y262891D01*
X37536Y262830D01*
X37594Y262772D01*
X37655Y262717D01*
X37718Y262664D01*
X37784Y262615D01*
X37852Y262569D01*
X37922Y262526D01*
X37994Y262486D01*
X38068Y262450D01*
X38143Y262418D01*
X38220Y262389D01*
X38298Y262364D01*
X38378Y262343D01*
X38458Y262325D01*
X38539Y262312D01*
X38621Y262302D01*
X38703Y262296D01*
X38785Y262294D01*
X40648Y264157D02*
X36922Y268813D01*
X31969Y266485D02*
X31967Y266650D01*
X31961Y266815D01*
X31951Y266979D01*
X31938Y267144D01*
X31920Y267308D01*
X31898Y267471D01*
X31873Y267634D01*
X31843Y267796D01*
X31810Y267958D01*
X31773Y268118D01*
X31732Y268278D01*
X31687Y268437D01*
X31639Y268594D01*
X31587Y268751D01*
X31531Y268906D01*
X31471Y269060D01*
X31408Y269212D01*
X31341Y269363D01*
X31271Y269512D01*
X31242Y269589D01*
X31210Y269665D01*
X31175Y269739D01*
X31135Y269811D01*
X31093Y269881D01*
X31047Y269949D01*
X30998Y270015D01*
X30945Y270079D01*
X30890Y270140D01*
X30832Y270198D01*
X30772Y270253D01*
X30708Y270306D01*
X30642Y270355D01*
X30574Y270401D01*
X30504Y270444D01*
X30432Y270484D01*
X30358Y270520D01*
X30283Y270552D01*
X30206Y270581D01*
X30128Y270606D01*
X30048Y270627D01*
X29968Y270645D01*
X29887Y270658D01*
X29805Y270668D01*
X29723Y270674D01*
X29641Y270676D01*
X29559Y270674D01*
X29477Y270668D01*
X29395Y270658D01*
X29314Y270645D01*
X29234Y270627D01*
X29154Y270606D01*
X29076Y270581D01*
X28999Y270552D01*
X28924Y270520D01*
X28850Y270484D01*
X28778Y270444D01*
X28708Y270401D01*
X28640Y270355D01*
X28574Y270306D01*
X28511Y270253D01*
X28450Y270198D01*
X28392Y270140D01*
X28337Y270079D01*
X28284Y270015D01*
X28235Y269949D01*
X28189Y269881D01*
X28147Y269811D01*
X28108Y269739D01*
X28072Y269665D01*
X28040Y269589D01*
X28011Y269512D01*
X27941Y269363D01*
X27874Y269212D01*
X27811Y269060D01*
X27751Y268906D01*
X27695Y268751D01*
X27643Y268594D01*
X27595Y268437D01*
X27550Y268278D01*
X27509Y268118D01*
X27472Y267958D01*
X27439Y267796D01*
X27409Y267634D01*
X27384Y267471D01*
X27362Y267308D01*
X27344Y267144D01*
X27331Y266979D01*
X27321Y266815D01*
X27315Y266650D01*
X27313Y266485D01*
X31970Y266485D02*
X31968Y266320D01*
X31962Y266155D01*
X31952Y265991D01*
X31939Y265826D01*
X31921Y265662D01*
X31899Y265499D01*
X31874Y265336D01*
X31844Y265174D01*
X31811Y265012D01*
X31774Y264851D01*
X31733Y264692D01*
X31688Y264533D01*
X31640Y264375D01*
X31588Y264219D01*
X31532Y264064D01*
X31472Y263910D01*
X31409Y263758D01*
X31342Y263607D01*
X31271Y263458D01*
X31242Y263381D01*
X31210Y263305D01*
X31174Y263231D01*
X31135Y263159D01*
X31093Y263089D01*
X31047Y263021D01*
X30998Y262955D01*
X30945Y262891D01*
X30890Y262830D01*
X30832Y262772D01*
X30772Y262717D01*
X30708Y262664D01*
X30642Y262615D01*
X30574Y262569D01*
X30504Y262526D01*
X30432Y262486D01*
X30358Y262450D01*
X30283Y262418D01*
X30206Y262389D01*
X30128Y262364D01*
X30048Y262343D01*
X29968Y262325D01*
X29887Y262312D01*
X29805Y262302D01*
X29723Y262296D01*
X29641Y262294D01*
X28011Y263458D02*
X27940Y263607D01*
X27873Y263758D01*
X27810Y263910D01*
X27750Y264064D01*
X27694Y264219D01*
X27642Y264375D01*
X27594Y264533D01*
X27549Y264692D01*
X27508Y264851D01*
X27471Y265012D01*
X27438Y265174D01*
X27408Y265336D01*
X27383Y265499D01*
X27361Y265662D01*
X27343Y265826D01*
X27330Y265991D01*
X27320Y266155D01*
X27314Y266320D01*
X27312Y266485D01*
X28011Y263458D02*
X28040Y263381D01*
X28072Y263305D01*
X28108Y263231D01*
X28147Y263159D01*
X28189Y263089D01*
X28235Y263021D01*
X28284Y262955D01*
X28337Y262891D01*
X28392Y262830D01*
X28450Y262772D01*
X28511Y262717D01*
X28574Y262664D01*
X28640Y262615D01*
X28708Y262569D01*
X28778Y262526D01*
X28850Y262486D01*
X28924Y262450D01*
X28999Y262418D01*
X29076Y262389D01*
X29154Y262364D01*
X29234Y262343D01*
X29314Y262325D01*
X29395Y262312D01*
X29477Y262302D01*
X29559Y262296D01*
X29641Y262294D01*
X31504Y264157D02*
X27778Y268813D01*
X91820Y143676D02*
X91820Y135294D01*
X94148Y143676D02*
X89492Y143676D01*
X85309Y143676D02*
X85309Y135294D01*
X85309Y143676D02*
X82981Y143676D01*
X82885Y143674D01*
X82789Y143668D01*
X82693Y143658D01*
X82598Y143644D01*
X82503Y143626D01*
X82410Y143605D01*
X82317Y143579D01*
X82225Y143550D01*
X82135Y143517D01*
X82046Y143480D01*
X81959Y143439D01*
X81873Y143395D01*
X81789Y143348D01*
X81708Y143297D01*
X81628Y143243D01*
X81551Y143185D01*
X81476Y143124D01*
X81404Y143061D01*
X81335Y142994D01*
X81268Y142925D01*
X81205Y142853D01*
X81144Y142778D01*
X81086Y142701D01*
X81032Y142621D01*
X80981Y142540D01*
X80934Y142456D01*
X80890Y142370D01*
X80849Y142283D01*
X80812Y142194D01*
X80779Y142104D01*
X80750Y142012D01*
X80724Y141920D01*
X80703Y141826D01*
X80685Y141731D01*
X80671Y141636D01*
X80661Y141540D01*
X80655Y141444D01*
X80653Y141348D01*
X80652Y141348D02*
X80652Y137622D01*
X80653Y137622D02*
X80655Y137528D01*
X80661Y137435D01*
X80670Y137341D01*
X80683Y137249D01*
X80700Y137156D01*
X80721Y137065D01*
X80745Y136974D01*
X80773Y136885D01*
X80804Y136796D01*
X80839Y136709D01*
X80878Y136624D01*
X80920Y136540D01*
X80965Y136458D01*
X81013Y136378D01*
X81065Y136300D01*
X81120Y136223D01*
X81178Y136150D01*
X81238Y136078D01*
X81302Y136009D01*
X81368Y135943D01*
X81437Y135879D01*
X81509Y135819D01*
X81582Y135761D01*
X81659Y135706D01*
X81737Y135654D01*
X81817Y135606D01*
X81899Y135561D01*
X81983Y135519D01*
X82069Y135480D01*
X82156Y135445D01*
X82244Y135414D01*
X82333Y135386D01*
X82424Y135362D01*
X82515Y135341D01*
X82608Y135324D01*
X82700Y135311D01*
X82794Y135302D01*
X82887Y135296D01*
X82981Y135294D01*
X85309Y135294D01*
X75860Y137622D02*
X75860Y141348D01*
X75858Y141443D01*
X75852Y141538D01*
X75843Y141632D01*
X75829Y141726D01*
X75812Y141820D01*
X75791Y141912D01*
X75766Y142004D01*
X75737Y142094D01*
X75705Y142184D01*
X75669Y142272D01*
X75629Y142358D01*
X75587Y142443D01*
X75540Y142526D01*
X75490Y142607D01*
X75437Y142685D01*
X75381Y142762D01*
X75322Y142836D01*
X75260Y142908D01*
X75195Y142977D01*
X75127Y143044D01*
X75057Y143107D01*
X74983Y143168D01*
X74908Y143226D01*
X74830Y143280D01*
X74750Y143332D01*
X74668Y143380D01*
X74585Y143424D01*
X74499Y143466D01*
X74412Y143503D01*
X74323Y143537D01*
X74233Y143568D01*
X74142Y143595D01*
X74050Y143618D01*
X73957Y143637D01*
X73863Y143652D01*
X73769Y143664D01*
X73674Y143672D01*
X73579Y143676D01*
X73485Y143676D01*
X73390Y143672D01*
X73295Y143664D01*
X73201Y143652D01*
X73107Y143637D01*
X73014Y143618D01*
X72922Y143595D01*
X72831Y143568D01*
X72741Y143537D01*
X72652Y143503D01*
X72565Y143466D01*
X72479Y143424D01*
X72396Y143380D01*
X72314Y143332D01*
X72234Y143280D01*
X72156Y143226D01*
X72081Y143168D01*
X72007Y143107D01*
X71937Y143044D01*
X71869Y142977D01*
X71804Y142908D01*
X71742Y142836D01*
X71683Y142762D01*
X71627Y142685D01*
X71574Y142607D01*
X71524Y142526D01*
X71477Y142443D01*
X71435Y142358D01*
X71395Y142272D01*
X71359Y142184D01*
X71327Y142094D01*
X71298Y142004D01*
X71273Y141912D01*
X71252Y141820D01*
X71235Y141726D01*
X71221Y141632D01*
X71212Y141538D01*
X71206Y141443D01*
X71204Y141348D01*
X71204Y137622D01*
X71206Y137527D01*
X71212Y137432D01*
X71221Y137338D01*
X71235Y137244D01*
X71252Y137150D01*
X71273Y137058D01*
X71298Y136966D01*
X71327Y136876D01*
X71359Y136786D01*
X71395Y136698D01*
X71435Y136612D01*
X71477Y136527D01*
X71524Y136444D01*
X71574Y136363D01*
X71627Y136285D01*
X71683Y136208D01*
X71742Y136134D01*
X71804Y136062D01*
X71869Y135993D01*
X71937Y135926D01*
X72007Y135863D01*
X72081Y135802D01*
X72156Y135744D01*
X72234Y135690D01*
X72314Y135638D01*
X72396Y135590D01*
X72479Y135546D01*
X72565Y135504D01*
X72652Y135467D01*
X72741Y135433D01*
X72831Y135402D01*
X72922Y135375D01*
X73014Y135352D01*
X73107Y135333D01*
X73201Y135318D01*
X73295Y135306D01*
X73390Y135298D01*
X73485Y135294D01*
X73579Y135294D01*
X73674Y135298D01*
X73769Y135306D01*
X73863Y135318D01*
X73957Y135333D01*
X74050Y135352D01*
X74142Y135375D01*
X74233Y135402D01*
X74323Y135433D01*
X74412Y135467D01*
X74499Y135504D01*
X74585Y135546D01*
X74668Y135590D01*
X74750Y135638D01*
X74830Y135690D01*
X74908Y135744D01*
X74983Y135802D01*
X75057Y135863D01*
X75127Y135926D01*
X75195Y135993D01*
X75260Y136062D01*
X75322Y136134D01*
X75381Y136208D01*
X75437Y136285D01*
X75490Y136363D01*
X75540Y136444D01*
X75587Y136527D01*
X75629Y136612D01*
X75669Y136698D01*
X75705Y136786D01*
X75737Y136876D01*
X75766Y136966D01*
X75791Y137058D01*
X75812Y137150D01*
X75829Y137244D01*
X75843Y137338D01*
X75852Y137432D01*
X75858Y137527D01*
X75860Y137622D01*
X67165Y134363D02*
X63440Y144607D01*
X58880Y143676D02*
X58880Y135294D01*
X58880Y143676D02*
X56552Y143676D01*
X56457Y143674D01*
X56362Y143668D01*
X56268Y143659D01*
X56174Y143645D01*
X56080Y143628D01*
X55988Y143607D01*
X55896Y143582D01*
X55806Y143553D01*
X55716Y143521D01*
X55628Y143485D01*
X55542Y143445D01*
X55457Y143403D01*
X55374Y143356D01*
X55293Y143306D01*
X55215Y143253D01*
X55138Y143197D01*
X55064Y143138D01*
X54992Y143076D01*
X54923Y143011D01*
X54856Y142943D01*
X54793Y142873D01*
X54732Y142799D01*
X54674Y142724D01*
X54620Y142646D01*
X54568Y142566D01*
X54520Y142484D01*
X54476Y142401D01*
X54434Y142315D01*
X54397Y142228D01*
X54363Y142139D01*
X54332Y142049D01*
X54305Y141958D01*
X54282Y141866D01*
X54263Y141773D01*
X54248Y141679D01*
X54236Y141585D01*
X54228Y141490D01*
X54224Y141395D01*
X54224Y141301D01*
X54228Y141206D01*
X54236Y141111D01*
X54248Y141017D01*
X54263Y140923D01*
X54282Y140830D01*
X54305Y140738D01*
X54332Y140647D01*
X54363Y140557D01*
X54397Y140468D01*
X54434Y140381D01*
X54476Y140295D01*
X54520Y140212D01*
X54568Y140130D01*
X54620Y140050D01*
X54674Y139972D01*
X54732Y139897D01*
X54793Y139823D01*
X54856Y139753D01*
X54923Y139685D01*
X54992Y139620D01*
X55064Y139558D01*
X55138Y139499D01*
X55215Y139443D01*
X55293Y139390D01*
X55374Y139340D01*
X55457Y139293D01*
X55542Y139251D01*
X55628Y139211D01*
X55716Y139175D01*
X55806Y139143D01*
X55896Y139114D01*
X55988Y139089D01*
X56080Y139068D01*
X56174Y139051D01*
X56268Y139037D01*
X56362Y139028D01*
X56457Y139022D01*
X56552Y139020D01*
X56552Y139019D02*
X58880Y139019D01*
X50723Y135294D02*
X47929Y143676D01*
X45135Y135294D01*
X45833Y137389D02*
X50024Y137389D01*
X41113Y139485D02*
X41111Y139650D01*
X41105Y139815D01*
X41095Y139979D01*
X41082Y140144D01*
X41064Y140308D01*
X41042Y140471D01*
X41017Y140634D01*
X40987Y140796D01*
X40954Y140958D01*
X40917Y141118D01*
X40876Y141278D01*
X40831Y141437D01*
X40783Y141594D01*
X40731Y141751D01*
X40675Y141906D01*
X40615Y142060D01*
X40552Y142212D01*
X40485Y142363D01*
X40415Y142512D01*
X40386Y142589D01*
X40354Y142665D01*
X40319Y142739D01*
X40279Y142811D01*
X40237Y142881D01*
X40191Y142949D01*
X40142Y143015D01*
X40089Y143079D01*
X40034Y143140D01*
X39976Y143198D01*
X39916Y143253D01*
X39852Y143306D01*
X39786Y143355D01*
X39718Y143401D01*
X39648Y143444D01*
X39576Y143484D01*
X39502Y143520D01*
X39427Y143552D01*
X39350Y143581D01*
X39272Y143606D01*
X39192Y143627D01*
X39112Y143645D01*
X39031Y143658D01*
X38949Y143668D01*
X38867Y143674D01*
X38785Y143676D01*
X38703Y143674D01*
X38621Y143668D01*
X38539Y143658D01*
X38458Y143645D01*
X38378Y143627D01*
X38298Y143606D01*
X38220Y143581D01*
X38143Y143552D01*
X38068Y143520D01*
X37994Y143484D01*
X37922Y143444D01*
X37852Y143401D01*
X37784Y143355D01*
X37718Y143306D01*
X37655Y143253D01*
X37594Y143198D01*
X37536Y143140D01*
X37481Y143079D01*
X37428Y143015D01*
X37379Y142949D01*
X37333Y142881D01*
X37291Y142811D01*
X37252Y142739D01*
X37216Y142665D01*
X37184Y142589D01*
X37155Y142512D01*
X37085Y142363D01*
X37018Y142212D01*
X36955Y142060D01*
X36895Y141906D01*
X36839Y141751D01*
X36787Y141594D01*
X36739Y141437D01*
X36694Y141278D01*
X36653Y141118D01*
X36616Y140958D01*
X36583Y140796D01*
X36553Y140634D01*
X36528Y140471D01*
X36506Y140308D01*
X36488Y140144D01*
X36475Y139979D01*
X36465Y139815D01*
X36459Y139650D01*
X36457Y139485D01*
X41114Y139485D02*
X41112Y139320D01*
X41106Y139155D01*
X41096Y138991D01*
X41083Y138826D01*
X41065Y138662D01*
X41043Y138499D01*
X41018Y138336D01*
X40988Y138174D01*
X40955Y138012D01*
X40918Y137851D01*
X40877Y137692D01*
X40832Y137533D01*
X40784Y137375D01*
X40732Y137219D01*
X40676Y137064D01*
X40616Y136910D01*
X40553Y136758D01*
X40486Y136607D01*
X40415Y136458D01*
X40386Y136381D01*
X40354Y136305D01*
X40318Y136231D01*
X40279Y136159D01*
X40237Y136089D01*
X40191Y136021D01*
X40142Y135955D01*
X40089Y135891D01*
X40034Y135830D01*
X39976Y135772D01*
X39916Y135717D01*
X39852Y135664D01*
X39786Y135615D01*
X39718Y135569D01*
X39648Y135526D01*
X39576Y135486D01*
X39502Y135450D01*
X39427Y135418D01*
X39350Y135389D01*
X39272Y135364D01*
X39192Y135343D01*
X39112Y135325D01*
X39031Y135312D01*
X38949Y135302D01*
X38867Y135296D01*
X38785Y135294D01*
X37155Y136458D02*
X37084Y136607D01*
X37017Y136758D01*
X36954Y136910D01*
X36894Y137064D01*
X36838Y137219D01*
X36786Y137375D01*
X36738Y137533D01*
X36693Y137692D01*
X36652Y137851D01*
X36615Y138012D01*
X36582Y138174D01*
X36552Y138336D01*
X36527Y138499D01*
X36505Y138662D01*
X36487Y138826D01*
X36474Y138991D01*
X36464Y139155D01*
X36458Y139320D01*
X36456Y139485D01*
X37155Y136458D02*
X37184Y136381D01*
X37216Y136305D01*
X37252Y136231D01*
X37291Y136159D01*
X37333Y136089D01*
X37379Y136021D01*
X37428Y135955D01*
X37481Y135891D01*
X37536Y135830D01*
X37594Y135772D01*
X37655Y135717D01*
X37718Y135664D01*
X37784Y135615D01*
X37852Y135569D01*
X37922Y135526D01*
X37994Y135486D01*
X38068Y135450D01*
X38143Y135418D01*
X38220Y135389D01*
X38298Y135364D01*
X38378Y135343D01*
X38458Y135325D01*
X38539Y135312D01*
X38621Y135302D01*
X38703Y135296D01*
X38785Y135294D01*
X40648Y137157D02*
X36922Y141813D01*
X31969Y135294D02*
X29641Y135294D01*
X29546Y135296D01*
X29451Y135302D01*
X29357Y135311D01*
X29263Y135325D01*
X29169Y135342D01*
X29077Y135363D01*
X28985Y135388D01*
X28895Y135417D01*
X28805Y135449D01*
X28717Y135485D01*
X28631Y135525D01*
X28546Y135567D01*
X28463Y135614D01*
X28382Y135664D01*
X28304Y135717D01*
X28227Y135773D01*
X28153Y135832D01*
X28081Y135894D01*
X28012Y135959D01*
X27945Y136027D01*
X27882Y136097D01*
X27821Y136171D01*
X27763Y136246D01*
X27709Y136324D01*
X27657Y136404D01*
X27609Y136486D01*
X27565Y136569D01*
X27523Y136655D01*
X27486Y136742D01*
X27452Y136831D01*
X27421Y136921D01*
X27394Y137012D01*
X27371Y137104D01*
X27352Y137197D01*
X27337Y137291D01*
X27325Y137385D01*
X27317Y137480D01*
X27313Y137575D01*
X27313Y137669D01*
X27317Y137764D01*
X27325Y137859D01*
X27337Y137953D01*
X27352Y138047D01*
X27371Y138140D01*
X27394Y138232D01*
X27421Y138323D01*
X27452Y138413D01*
X27486Y138502D01*
X27523Y138589D01*
X27565Y138675D01*
X27609Y138758D01*
X27657Y138840D01*
X27709Y138920D01*
X27763Y138998D01*
X27821Y139073D01*
X27882Y139147D01*
X27945Y139217D01*
X28012Y139285D01*
X28081Y139350D01*
X28153Y139412D01*
X28227Y139471D01*
X28304Y139527D01*
X28382Y139580D01*
X28463Y139630D01*
X28546Y139677D01*
X28631Y139719D01*
X28717Y139759D01*
X28805Y139795D01*
X28895Y139827D01*
X28985Y139856D01*
X29077Y139881D01*
X29169Y139902D01*
X29263Y139919D01*
X29357Y139933D01*
X29451Y139942D01*
X29546Y139948D01*
X29641Y139950D01*
X29175Y143676D02*
X31969Y143676D01*
X29175Y143676D02*
X29090Y143674D01*
X29006Y143668D01*
X28921Y143659D01*
X28838Y143645D01*
X28755Y143628D01*
X28672Y143607D01*
X28591Y143582D01*
X28511Y143554D01*
X28433Y143522D01*
X28356Y143486D01*
X28280Y143447D01*
X28207Y143405D01*
X28136Y143359D01*
X28066Y143310D01*
X27999Y143258D01*
X27935Y143203D01*
X27873Y143145D01*
X27813Y143085D01*
X27757Y143021D01*
X27703Y142956D01*
X27653Y142887D01*
X27606Y142817D01*
X27562Y142745D01*
X27521Y142670D01*
X27484Y142594D01*
X27450Y142516D01*
X27420Y142437D01*
X27393Y142356D01*
X27370Y142275D01*
X27351Y142192D01*
X27336Y142109D01*
X27324Y142025D01*
X27316Y141940D01*
X27312Y141855D01*
X27312Y141771D01*
X27316Y141686D01*
X27324Y141601D01*
X27336Y141517D01*
X27351Y141434D01*
X27370Y141351D01*
X27393Y141270D01*
X27420Y141189D01*
X27450Y141110D01*
X27484Y141032D01*
X27521Y140956D01*
X27562Y140882D01*
X27606Y140809D01*
X27653Y140739D01*
X27703Y140670D01*
X27757Y140605D01*
X27813Y140541D01*
X27873Y140481D01*
X27935Y140423D01*
X27999Y140368D01*
X28066Y140316D01*
X28136Y140267D01*
X28207Y140221D01*
X28280Y140179D01*
X28356Y140140D01*
X28433Y140104D01*
X28511Y140072D01*
X28591Y140044D01*
X28672Y140019D01*
X28755Y139998D01*
X28838Y139981D01*
X28921Y139967D01*
X29006Y139958D01*
X29090Y139952D01*
X29175Y139950D01*
X29175Y139951D02*
X31038Y139951D01*
X40444Y211494D02*
X40444Y219876D01*
X35788Y211494D01*
X35788Y219876D01*
X29175Y211494D02*
X27313Y211494D01*
X29175Y211494D02*
X29259Y211496D01*
X29342Y211502D01*
X29425Y211511D01*
X29508Y211524D01*
X29590Y211541D01*
X29671Y211561D01*
X29751Y211585D01*
X29830Y211613D01*
X29907Y211644D01*
X29983Y211678D01*
X30058Y211716D01*
X30131Y211758D01*
X30201Y211802D01*
X30270Y211850D01*
X30337Y211900D01*
X30401Y211954D01*
X30462Y212010D01*
X30522Y212070D01*
X30578Y212131D01*
X30632Y212195D01*
X30682Y212262D01*
X30730Y212331D01*
X30774Y212401D01*
X30816Y212474D01*
X30854Y212549D01*
X30888Y212625D01*
X30919Y212702D01*
X30947Y212781D01*
X30971Y212861D01*
X30991Y212942D01*
X31008Y213024D01*
X31021Y213107D01*
X31031Y213190D01*
X31036Y213273D01*
X31038Y213357D01*
X31038Y218013D01*
X31036Y218099D01*
X31030Y218185D01*
X31020Y218270D01*
X31006Y218355D01*
X30989Y218440D01*
X30967Y218523D01*
X30941Y218605D01*
X30912Y218686D01*
X30879Y218765D01*
X30843Y218843D01*
X30803Y218920D01*
X30759Y218994D01*
X30712Y219066D01*
X30662Y219136D01*
X30608Y219203D01*
X30552Y219268D01*
X30492Y219330D01*
X30430Y219390D01*
X30365Y219446D01*
X30298Y219500D01*
X30228Y219550D01*
X30156Y219597D01*
X30082Y219641D01*
X30005Y219681D01*
X29928Y219717D01*
X29848Y219750D01*
X29767Y219779D01*
X29685Y219805D01*
X29602Y219827D01*
X29517Y219844D01*
X29432Y219858D01*
X29347Y219868D01*
X29261Y219874D01*
X29175Y219876D01*
X27313Y219876D01*
X40444Y194476D02*
X40444Y186094D01*
X35788Y186094D02*
X40444Y194476D01*
X35788Y194476D02*
X35788Y186094D01*
X29175Y186094D02*
X27313Y186094D01*
X29175Y186094D02*
X29259Y186096D01*
X29342Y186102D01*
X29425Y186111D01*
X29508Y186124D01*
X29590Y186141D01*
X29671Y186161D01*
X29751Y186185D01*
X29830Y186213D01*
X29907Y186244D01*
X29983Y186278D01*
X30058Y186316D01*
X30131Y186358D01*
X30201Y186402D01*
X30270Y186450D01*
X30337Y186500D01*
X30401Y186554D01*
X30462Y186610D01*
X30522Y186670D01*
X30578Y186731D01*
X30632Y186795D01*
X30682Y186862D01*
X30730Y186931D01*
X30774Y187001D01*
X30816Y187074D01*
X30854Y187149D01*
X30888Y187225D01*
X30919Y187302D01*
X30947Y187381D01*
X30971Y187461D01*
X30991Y187542D01*
X31008Y187624D01*
X31021Y187707D01*
X31031Y187790D01*
X31036Y187873D01*
X31038Y187957D01*
X31038Y192613D01*
X31036Y192699D01*
X31030Y192785D01*
X31020Y192870D01*
X31006Y192955D01*
X30989Y193040D01*
X30967Y193123D01*
X30941Y193205D01*
X30912Y193286D01*
X30879Y193365D01*
X30843Y193443D01*
X30803Y193520D01*
X30759Y193594D01*
X30712Y193666D01*
X30662Y193736D01*
X30608Y193803D01*
X30552Y193868D01*
X30492Y193930D01*
X30430Y193990D01*
X30365Y194046D01*
X30298Y194100D01*
X30228Y194150D01*
X30156Y194197D01*
X30082Y194241D01*
X30005Y194281D01*
X29928Y194317D01*
X29848Y194350D01*
X29767Y194379D01*
X29685Y194405D01*
X29602Y194427D01*
X29517Y194444D01*
X29432Y194458D01*
X29347Y194468D01*
X29261Y194474D01*
X29175Y194476D01*
X27313Y194476D01*
X88162Y118276D02*
X88162Y109894D01*
X90491Y118276D02*
X85834Y118276D01*
X81651Y118276D02*
X81651Y109894D01*
X81651Y118276D02*
X79323Y118276D01*
X79227Y118274D01*
X79131Y118268D01*
X79035Y118258D01*
X78940Y118244D01*
X78845Y118226D01*
X78752Y118205D01*
X78659Y118179D01*
X78567Y118150D01*
X78477Y118117D01*
X78388Y118080D01*
X78301Y118039D01*
X78215Y117995D01*
X78131Y117948D01*
X78050Y117897D01*
X77970Y117843D01*
X77893Y117785D01*
X77818Y117724D01*
X77746Y117661D01*
X77677Y117594D01*
X77610Y117525D01*
X77547Y117453D01*
X77486Y117378D01*
X77428Y117301D01*
X77374Y117221D01*
X77323Y117140D01*
X77276Y117056D01*
X77232Y116970D01*
X77191Y116883D01*
X77154Y116794D01*
X77121Y116704D01*
X77092Y116612D01*
X77066Y116520D01*
X77045Y116426D01*
X77027Y116331D01*
X77013Y116236D01*
X77003Y116140D01*
X76997Y116044D01*
X76995Y115948D01*
X76995Y112222D01*
X76997Y112128D01*
X77003Y112035D01*
X77012Y111941D01*
X77025Y111849D01*
X77042Y111756D01*
X77063Y111665D01*
X77087Y111574D01*
X77115Y111485D01*
X77146Y111396D01*
X77181Y111309D01*
X77220Y111224D01*
X77262Y111140D01*
X77307Y111058D01*
X77355Y110978D01*
X77407Y110900D01*
X77462Y110823D01*
X77520Y110750D01*
X77580Y110678D01*
X77644Y110609D01*
X77710Y110543D01*
X77779Y110479D01*
X77851Y110419D01*
X77924Y110361D01*
X78001Y110306D01*
X78079Y110254D01*
X78159Y110206D01*
X78241Y110161D01*
X78325Y110119D01*
X78411Y110080D01*
X78498Y110045D01*
X78586Y110014D01*
X78675Y109986D01*
X78766Y109962D01*
X78857Y109941D01*
X78950Y109924D01*
X79042Y109911D01*
X79136Y109902D01*
X79229Y109896D01*
X79323Y109894D01*
X81651Y109894D01*
X71703Y109894D02*
X71703Y118276D01*
X72634Y109894D02*
X70772Y109894D01*
X70772Y118276D02*
X72634Y118276D01*
X63440Y119207D02*
X67165Y108963D01*
X58880Y109894D02*
X58880Y118276D01*
X56552Y118276D01*
X56457Y118274D01*
X56362Y118268D01*
X56268Y118259D01*
X56174Y118245D01*
X56080Y118228D01*
X55988Y118207D01*
X55896Y118182D01*
X55806Y118153D01*
X55716Y118121D01*
X55628Y118085D01*
X55542Y118045D01*
X55457Y118003D01*
X55374Y117956D01*
X55293Y117906D01*
X55215Y117853D01*
X55138Y117797D01*
X55064Y117738D01*
X54992Y117676D01*
X54923Y117611D01*
X54856Y117543D01*
X54793Y117473D01*
X54732Y117399D01*
X54674Y117324D01*
X54620Y117246D01*
X54568Y117166D01*
X54520Y117084D01*
X54476Y117001D01*
X54434Y116915D01*
X54397Y116828D01*
X54363Y116739D01*
X54332Y116649D01*
X54305Y116558D01*
X54282Y116466D01*
X54263Y116373D01*
X54248Y116279D01*
X54236Y116185D01*
X54228Y116090D01*
X54224Y115995D01*
X54224Y115901D01*
X54228Y115806D01*
X54236Y115711D01*
X54248Y115617D01*
X54263Y115523D01*
X54282Y115430D01*
X54305Y115338D01*
X54332Y115247D01*
X54363Y115157D01*
X54397Y115068D01*
X54434Y114981D01*
X54476Y114895D01*
X54520Y114812D01*
X54568Y114730D01*
X54620Y114650D01*
X54674Y114572D01*
X54732Y114497D01*
X54793Y114423D01*
X54856Y114353D01*
X54923Y114285D01*
X54992Y114220D01*
X55064Y114158D01*
X55138Y114099D01*
X55215Y114043D01*
X55293Y113990D01*
X55374Y113940D01*
X55457Y113893D01*
X55542Y113851D01*
X55628Y113811D01*
X55716Y113775D01*
X55806Y113743D01*
X55896Y113714D01*
X55988Y113689D01*
X56080Y113668D01*
X56174Y113651D01*
X56268Y113637D01*
X56362Y113628D01*
X56457Y113622D01*
X56552Y113620D01*
X56552Y113619D02*
X58880Y113619D01*
X50723Y109894D02*
X47929Y118276D01*
X45135Y109894D01*
X45833Y111989D02*
X50024Y111989D01*
X41113Y114085D02*
X41111Y114250D01*
X41105Y114415D01*
X41095Y114579D01*
X41082Y114744D01*
X41064Y114908D01*
X41042Y115071D01*
X41017Y115234D01*
X40987Y115396D01*
X40954Y115558D01*
X40917Y115718D01*
X40876Y115878D01*
X40831Y116037D01*
X40783Y116194D01*
X40731Y116351D01*
X40675Y116506D01*
X40615Y116660D01*
X40552Y116812D01*
X40485Y116963D01*
X40415Y117112D01*
X40386Y117189D01*
X40354Y117265D01*
X40319Y117339D01*
X40279Y117411D01*
X40237Y117481D01*
X40191Y117549D01*
X40142Y117615D01*
X40089Y117679D01*
X40034Y117740D01*
X39976Y117798D01*
X39916Y117853D01*
X39852Y117906D01*
X39786Y117955D01*
X39718Y118001D01*
X39648Y118044D01*
X39576Y118084D01*
X39502Y118120D01*
X39427Y118152D01*
X39350Y118181D01*
X39272Y118206D01*
X39192Y118227D01*
X39112Y118245D01*
X39031Y118258D01*
X38949Y118268D01*
X38867Y118274D01*
X38785Y118276D01*
X38703Y118274D01*
X38621Y118268D01*
X38539Y118258D01*
X38458Y118245D01*
X38378Y118227D01*
X38298Y118206D01*
X38220Y118181D01*
X38143Y118152D01*
X38068Y118120D01*
X37994Y118084D01*
X37922Y118044D01*
X37852Y118001D01*
X37784Y117955D01*
X37718Y117906D01*
X37655Y117853D01*
X37594Y117798D01*
X37536Y117740D01*
X37481Y117679D01*
X37428Y117615D01*
X37379Y117549D01*
X37333Y117481D01*
X37291Y117411D01*
X37252Y117339D01*
X37216Y117265D01*
X37184Y117189D01*
X37155Y117112D01*
X37085Y116963D01*
X37018Y116812D01*
X36955Y116660D01*
X36895Y116506D01*
X36839Y116351D01*
X36787Y116194D01*
X36739Y116037D01*
X36694Y115878D01*
X36653Y115718D01*
X36616Y115558D01*
X36583Y115396D01*
X36553Y115234D01*
X36528Y115071D01*
X36506Y114908D01*
X36488Y114744D01*
X36475Y114579D01*
X36465Y114415D01*
X36459Y114250D01*
X36457Y114085D01*
X41114Y114085D02*
X41112Y113920D01*
X41106Y113755D01*
X41096Y113591D01*
X41083Y113426D01*
X41065Y113262D01*
X41043Y113099D01*
X41018Y112936D01*
X40988Y112774D01*
X40955Y112612D01*
X40918Y112451D01*
X40877Y112292D01*
X40832Y112133D01*
X40784Y111975D01*
X40732Y111819D01*
X40676Y111664D01*
X40616Y111510D01*
X40553Y111358D01*
X40486Y111207D01*
X40415Y111058D01*
X40386Y110981D01*
X40354Y110905D01*
X40318Y110831D01*
X40279Y110759D01*
X40237Y110689D01*
X40191Y110621D01*
X40142Y110555D01*
X40089Y110491D01*
X40034Y110430D01*
X39976Y110372D01*
X39916Y110317D01*
X39852Y110264D01*
X39786Y110215D01*
X39718Y110169D01*
X39648Y110126D01*
X39576Y110086D01*
X39502Y110050D01*
X39427Y110018D01*
X39350Y109989D01*
X39272Y109964D01*
X39192Y109943D01*
X39112Y109925D01*
X39031Y109912D01*
X38949Y109902D01*
X38867Y109896D01*
X38785Y109894D01*
X37155Y111058D02*
X37084Y111207D01*
X37017Y111358D01*
X36954Y111510D01*
X36894Y111664D01*
X36838Y111819D01*
X36786Y111975D01*
X36738Y112133D01*
X36693Y112292D01*
X36652Y112451D01*
X36615Y112612D01*
X36582Y112774D01*
X36552Y112936D01*
X36527Y113099D01*
X36505Y113262D01*
X36487Y113426D01*
X36474Y113591D01*
X36464Y113755D01*
X36458Y113920D01*
X36456Y114085D01*
X37155Y111058D02*
X37184Y110981D01*
X37216Y110905D01*
X37252Y110831D01*
X37291Y110759D01*
X37333Y110689D01*
X37379Y110621D01*
X37428Y110555D01*
X37481Y110491D01*
X37536Y110430D01*
X37594Y110372D01*
X37655Y110317D01*
X37718Y110264D01*
X37784Y110215D01*
X37852Y110169D01*
X37922Y110126D01*
X37994Y110086D01*
X38068Y110050D01*
X38143Y110018D01*
X38220Y109989D01*
X38298Y109964D01*
X38378Y109943D01*
X38458Y109925D01*
X38539Y109912D01*
X38621Y109902D01*
X38703Y109896D01*
X38785Y109894D01*
X40648Y111757D02*
X36922Y116413D01*
X31969Y111757D02*
X30107Y118276D01*
X31969Y111757D02*
X27313Y111757D01*
X28710Y113619D02*
X28710Y109894D01*
X58880Y236894D02*
X58880Y245276D01*
X56552Y245276D01*
X56457Y245274D01*
X56362Y245268D01*
X56268Y245259D01*
X56174Y245245D01*
X56080Y245228D01*
X55988Y245207D01*
X55896Y245182D01*
X55806Y245153D01*
X55716Y245121D01*
X55628Y245085D01*
X55542Y245045D01*
X55457Y245003D01*
X55374Y244956D01*
X55293Y244906D01*
X55215Y244853D01*
X55138Y244797D01*
X55064Y244738D01*
X54992Y244676D01*
X54923Y244611D01*
X54856Y244543D01*
X54793Y244473D01*
X54732Y244399D01*
X54674Y244324D01*
X54620Y244246D01*
X54568Y244166D01*
X54520Y244084D01*
X54476Y244001D01*
X54434Y243915D01*
X54397Y243828D01*
X54363Y243739D01*
X54332Y243649D01*
X54305Y243558D01*
X54282Y243466D01*
X54263Y243373D01*
X54248Y243279D01*
X54236Y243185D01*
X54228Y243090D01*
X54224Y242995D01*
X54224Y242901D01*
X54228Y242806D01*
X54236Y242711D01*
X54248Y242617D01*
X54263Y242523D01*
X54282Y242430D01*
X54305Y242338D01*
X54332Y242247D01*
X54363Y242157D01*
X54397Y242068D01*
X54434Y241981D01*
X54476Y241895D01*
X54520Y241812D01*
X54568Y241730D01*
X54620Y241650D01*
X54674Y241572D01*
X54732Y241497D01*
X54793Y241423D01*
X54856Y241353D01*
X54923Y241285D01*
X54992Y241220D01*
X55064Y241158D01*
X55138Y241099D01*
X55215Y241043D01*
X55293Y240990D01*
X55374Y240940D01*
X55457Y240893D01*
X55542Y240851D01*
X55628Y240811D01*
X55716Y240775D01*
X55806Y240743D01*
X55896Y240714D01*
X55988Y240689D01*
X56080Y240668D01*
X56174Y240651D01*
X56268Y240637D01*
X56362Y240628D01*
X56457Y240622D01*
X56552Y240620D01*
X56552Y240619D02*
X58880Y240619D01*
X50723Y236894D02*
X47929Y245276D01*
X45135Y236894D01*
X45833Y238989D02*
X50024Y238989D01*
X41113Y241085D02*
X41111Y241250D01*
X41105Y241415D01*
X41095Y241579D01*
X41082Y241744D01*
X41064Y241908D01*
X41042Y242071D01*
X41017Y242234D01*
X40987Y242396D01*
X40954Y242558D01*
X40917Y242718D01*
X40876Y242878D01*
X40831Y243037D01*
X40783Y243194D01*
X40731Y243351D01*
X40675Y243506D01*
X40615Y243660D01*
X40552Y243812D01*
X40485Y243963D01*
X40415Y244112D01*
X40386Y244189D01*
X40354Y244265D01*
X40319Y244339D01*
X40279Y244411D01*
X40237Y244481D01*
X40191Y244549D01*
X40142Y244615D01*
X40089Y244679D01*
X40034Y244740D01*
X39976Y244798D01*
X39916Y244853D01*
X39852Y244906D01*
X39786Y244955D01*
X39718Y245001D01*
X39648Y245044D01*
X39576Y245084D01*
X39502Y245120D01*
X39427Y245152D01*
X39350Y245181D01*
X39272Y245206D01*
X39192Y245227D01*
X39112Y245245D01*
X39031Y245258D01*
X38949Y245268D01*
X38867Y245274D01*
X38785Y245276D01*
X38703Y245274D01*
X38621Y245268D01*
X38539Y245258D01*
X38458Y245245D01*
X38378Y245227D01*
X38298Y245206D01*
X38220Y245181D01*
X38143Y245152D01*
X38068Y245120D01*
X37994Y245084D01*
X37922Y245044D01*
X37852Y245001D01*
X37784Y244955D01*
X37718Y244906D01*
X37655Y244853D01*
X37594Y244798D01*
X37536Y244740D01*
X37481Y244679D01*
X37428Y244615D01*
X37379Y244549D01*
X37333Y244481D01*
X37291Y244411D01*
X37252Y244339D01*
X37216Y244265D01*
X37184Y244189D01*
X37155Y244112D01*
X37085Y243963D01*
X37018Y243812D01*
X36955Y243660D01*
X36895Y243506D01*
X36839Y243351D01*
X36787Y243194D01*
X36739Y243037D01*
X36694Y242878D01*
X36653Y242718D01*
X36616Y242558D01*
X36583Y242396D01*
X36553Y242234D01*
X36528Y242071D01*
X36506Y241908D01*
X36488Y241744D01*
X36475Y241579D01*
X36465Y241415D01*
X36459Y241250D01*
X36457Y241085D01*
X41114Y241085D02*
X41112Y240920D01*
X41106Y240755D01*
X41096Y240591D01*
X41083Y240426D01*
X41065Y240262D01*
X41043Y240099D01*
X41018Y239936D01*
X40988Y239774D01*
X40955Y239612D01*
X40918Y239451D01*
X40877Y239292D01*
X40832Y239133D01*
X40784Y238975D01*
X40732Y238819D01*
X40676Y238664D01*
X40616Y238510D01*
X40553Y238358D01*
X40486Y238207D01*
X40415Y238058D01*
X40386Y237981D01*
X40354Y237905D01*
X40318Y237831D01*
X40279Y237759D01*
X40237Y237689D01*
X40191Y237621D01*
X40142Y237555D01*
X40089Y237491D01*
X40034Y237430D01*
X39976Y237372D01*
X39916Y237317D01*
X39852Y237264D01*
X39786Y237215D01*
X39718Y237169D01*
X39648Y237126D01*
X39576Y237086D01*
X39502Y237050D01*
X39427Y237018D01*
X39350Y236989D01*
X39272Y236964D01*
X39192Y236943D01*
X39112Y236925D01*
X39031Y236912D01*
X38949Y236902D01*
X38867Y236896D01*
X38785Y236894D01*
X37155Y238058D02*
X37084Y238207D01*
X37017Y238358D01*
X36954Y238510D01*
X36894Y238664D01*
X36838Y238819D01*
X36786Y238975D01*
X36738Y239133D01*
X36693Y239292D01*
X36652Y239451D01*
X36615Y239612D01*
X36582Y239774D01*
X36552Y239936D01*
X36527Y240099D01*
X36505Y240262D01*
X36487Y240426D01*
X36474Y240591D01*
X36464Y240755D01*
X36458Y240920D01*
X36456Y241085D01*
X37155Y238058D02*
X37184Y237981D01*
X37216Y237905D01*
X37252Y237831D01*
X37291Y237759D01*
X37333Y237689D01*
X37379Y237621D01*
X37428Y237555D01*
X37481Y237491D01*
X37536Y237430D01*
X37594Y237372D01*
X37655Y237317D01*
X37718Y237264D01*
X37784Y237215D01*
X37852Y237169D01*
X37922Y237126D01*
X37994Y237086D01*
X38068Y237050D01*
X38143Y237018D01*
X38220Y236989D01*
X38298Y236964D01*
X38378Y236943D01*
X38458Y236925D01*
X38539Y236912D01*
X38621Y236902D01*
X38703Y236896D01*
X38785Y236894D01*
X40648Y238757D02*
X36922Y243413D01*
X31969Y236894D02*
X29175Y236894D01*
X29091Y236896D01*
X29008Y236901D01*
X28925Y236911D01*
X28842Y236924D01*
X28760Y236941D01*
X28679Y236961D01*
X28599Y236985D01*
X28520Y237013D01*
X28443Y237044D01*
X28367Y237078D01*
X28292Y237116D01*
X28219Y237158D01*
X28149Y237202D01*
X28080Y237250D01*
X28013Y237300D01*
X27949Y237354D01*
X27888Y237410D01*
X27828Y237470D01*
X27772Y237531D01*
X27718Y237595D01*
X27668Y237662D01*
X27620Y237731D01*
X27576Y237801D01*
X27534Y237874D01*
X27496Y237949D01*
X27462Y238025D01*
X27431Y238102D01*
X27403Y238181D01*
X27379Y238261D01*
X27359Y238342D01*
X27342Y238424D01*
X27329Y238507D01*
X27319Y238590D01*
X27314Y238673D01*
X27312Y238757D01*
X27313Y238757D02*
X27313Y239688D01*
X27312Y239688D02*
X27314Y239772D01*
X27320Y239855D01*
X27329Y239938D01*
X27342Y240021D01*
X27359Y240103D01*
X27379Y240184D01*
X27403Y240264D01*
X27431Y240343D01*
X27462Y240420D01*
X27496Y240496D01*
X27534Y240571D01*
X27576Y240644D01*
X27620Y240714D01*
X27668Y240783D01*
X27718Y240850D01*
X27772Y240914D01*
X27828Y240975D01*
X27888Y241035D01*
X27949Y241091D01*
X28013Y241145D01*
X28080Y241195D01*
X28149Y241243D01*
X28219Y241287D01*
X28292Y241329D01*
X28367Y241367D01*
X28443Y241401D01*
X28520Y241432D01*
X28599Y241460D01*
X28679Y241484D01*
X28760Y241504D01*
X28842Y241521D01*
X28925Y241534D01*
X29008Y241544D01*
X29091Y241549D01*
X29175Y241551D01*
X31969Y241551D01*
X31969Y245276D01*
X27313Y245276D01*
X40444Y169076D02*
X40444Y160694D01*
X35788Y160694D02*
X40444Y169076D01*
X35788Y169076D02*
X35788Y160694D01*
X29175Y160694D02*
X27313Y160694D01*
X29175Y160694D02*
X29259Y160696D01*
X29342Y160702D01*
X29425Y160711D01*
X29508Y160724D01*
X29590Y160741D01*
X29671Y160761D01*
X29751Y160785D01*
X29830Y160813D01*
X29907Y160844D01*
X29983Y160878D01*
X30058Y160916D01*
X30131Y160958D01*
X30201Y161002D01*
X30270Y161050D01*
X30337Y161100D01*
X30401Y161154D01*
X30462Y161210D01*
X30522Y161270D01*
X30578Y161331D01*
X30632Y161395D01*
X30682Y161462D01*
X30730Y161531D01*
X30774Y161601D01*
X30816Y161674D01*
X30854Y161749D01*
X30888Y161825D01*
X30919Y161902D01*
X30947Y161981D01*
X30971Y162061D01*
X30991Y162142D01*
X31008Y162224D01*
X31021Y162307D01*
X31031Y162390D01*
X31036Y162473D01*
X31038Y162557D01*
X31038Y167213D01*
X31036Y167299D01*
X31030Y167385D01*
X31020Y167470D01*
X31006Y167555D01*
X30989Y167640D01*
X30967Y167723D01*
X30941Y167805D01*
X30912Y167886D01*
X30879Y167965D01*
X30843Y168043D01*
X30803Y168120D01*
X30759Y168194D01*
X30712Y168266D01*
X30662Y168336D01*
X30608Y168403D01*
X30552Y168468D01*
X30492Y168530D01*
X30430Y168590D01*
X30365Y168646D01*
X30298Y168700D01*
X30228Y168750D01*
X30156Y168797D01*
X30082Y168841D01*
X30005Y168881D01*
X29928Y168917D01*
X29848Y168950D01*
X29767Y168979D01*
X29685Y169005D01*
X29602Y169027D01*
X29517Y169044D01*
X29432Y169058D01*
X29347Y169068D01*
X29261Y169074D01*
X29175Y169076D01*
X27313Y169076D01*
X85419Y92876D02*
X85419Y84494D01*
X87747Y92876D02*
X83091Y92876D01*
X78764Y92876D02*
X78764Y84494D01*
X75970Y88219D02*
X78764Y92876D01*
X75970Y88219D02*
X73176Y92876D01*
X73176Y84494D01*
X65751Y84494D02*
X65667Y84496D01*
X65584Y84501D01*
X65501Y84511D01*
X65418Y84524D01*
X65336Y84541D01*
X65255Y84561D01*
X65175Y84585D01*
X65096Y84613D01*
X65019Y84644D01*
X64943Y84678D01*
X64868Y84716D01*
X64795Y84758D01*
X64725Y84802D01*
X64656Y84850D01*
X64589Y84900D01*
X64525Y84954D01*
X64464Y85010D01*
X64404Y85070D01*
X64348Y85131D01*
X64294Y85195D01*
X64244Y85262D01*
X64196Y85331D01*
X64152Y85401D01*
X64110Y85474D01*
X64072Y85549D01*
X64038Y85625D01*
X64007Y85702D01*
X63979Y85781D01*
X63955Y85861D01*
X63935Y85942D01*
X63918Y86024D01*
X63905Y86107D01*
X63895Y86190D01*
X63890Y86273D01*
X63888Y86357D01*
X65751Y84494D02*
X65875Y84496D01*
X65999Y84502D01*
X66123Y84512D01*
X66247Y84525D01*
X66370Y84543D01*
X66492Y84564D01*
X66614Y84590D01*
X66735Y84619D01*
X66855Y84652D01*
X66973Y84689D01*
X67091Y84729D01*
X67207Y84773D01*
X67322Y84821D01*
X67435Y84872D01*
X67546Y84927D01*
X67656Y84986D01*
X67764Y85048D01*
X67869Y85113D01*
X67973Y85181D01*
X68075Y85253D01*
X68174Y85328D01*
X68270Y85406D01*
X68365Y85487D01*
X68456Y85571D01*
X68545Y85658D01*
X68313Y91013D02*
X68311Y91097D01*
X68306Y91180D01*
X68296Y91263D01*
X68283Y91346D01*
X68266Y91428D01*
X68246Y91509D01*
X68222Y91589D01*
X68194Y91668D01*
X68163Y91745D01*
X68129Y91821D01*
X68091Y91896D01*
X68049Y91969D01*
X68005Y92039D01*
X67957Y92108D01*
X67907Y92175D01*
X67853Y92239D01*
X67797Y92300D01*
X67737Y92360D01*
X67676Y92416D01*
X67612Y92470D01*
X67545Y92520D01*
X67476Y92568D01*
X67406Y92612D01*
X67333Y92654D01*
X67258Y92692D01*
X67182Y92726D01*
X67105Y92757D01*
X67026Y92785D01*
X66946Y92809D01*
X66865Y92829D01*
X66783Y92846D01*
X66700Y92859D01*
X66617Y92869D01*
X66534Y92874D01*
X66450Y92876D01*
X66338Y92874D01*
X66225Y92869D01*
X66113Y92860D01*
X66002Y92847D01*
X65890Y92831D01*
X65780Y92811D01*
X65670Y92788D01*
X65561Y92761D01*
X65453Y92731D01*
X65345Y92697D01*
X65239Y92660D01*
X65135Y92619D01*
X65031Y92575D01*
X64929Y92528D01*
X64829Y92477D01*
X64730Y92423D01*
X64633Y92366D01*
X64538Y92306D01*
X64445Y92243D01*
X64354Y92177D01*
X67381Y89383D02*
X67453Y89428D01*
X67524Y89476D01*
X67592Y89528D01*
X67658Y89582D01*
X67721Y89639D01*
X67782Y89699D01*
X67840Y89762D01*
X67895Y89828D01*
X67947Y89895D01*
X67995Y89965D01*
X68041Y90037D01*
X68083Y90112D01*
X68122Y90188D01*
X68158Y90265D01*
X68190Y90344D01*
X68218Y90425D01*
X68243Y90507D01*
X68264Y90590D01*
X68281Y90673D01*
X68295Y90758D01*
X68304Y90842D01*
X68310Y90928D01*
X68312Y91013D01*
X64819Y87987D02*
X64747Y87942D01*
X64676Y87894D01*
X64608Y87842D01*
X64542Y87788D01*
X64479Y87731D01*
X64418Y87671D01*
X64360Y87608D01*
X64305Y87542D01*
X64253Y87475D01*
X64205Y87405D01*
X64159Y87333D01*
X64117Y87258D01*
X64078Y87182D01*
X64042Y87105D01*
X64010Y87026D01*
X63982Y86945D01*
X63957Y86863D01*
X63936Y86780D01*
X63919Y86697D01*
X63905Y86612D01*
X63896Y86528D01*
X63890Y86442D01*
X63888Y86357D01*
X64820Y87986D02*
X67381Y89383D01*
X60155Y83563D02*
X56429Y93807D01*
X48039Y86357D02*
X48041Y86273D01*
X48046Y86190D01*
X48056Y86107D01*
X48069Y86024D01*
X48086Y85942D01*
X48106Y85861D01*
X48130Y85781D01*
X48158Y85702D01*
X48189Y85625D01*
X48223Y85549D01*
X48261Y85474D01*
X48303Y85401D01*
X48347Y85331D01*
X48395Y85262D01*
X48445Y85195D01*
X48499Y85131D01*
X48555Y85070D01*
X48615Y85010D01*
X48676Y84954D01*
X48740Y84900D01*
X48807Y84850D01*
X48876Y84802D01*
X48946Y84758D01*
X49019Y84716D01*
X49094Y84678D01*
X49170Y84644D01*
X49247Y84613D01*
X49326Y84585D01*
X49406Y84561D01*
X49487Y84541D01*
X49569Y84524D01*
X49652Y84511D01*
X49735Y84501D01*
X49818Y84496D01*
X49902Y84494D01*
X50026Y84496D01*
X50150Y84502D01*
X50274Y84512D01*
X50398Y84525D01*
X50521Y84543D01*
X50643Y84564D01*
X50765Y84590D01*
X50886Y84619D01*
X51006Y84652D01*
X51124Y84689D01*
X51242Y84729D01*
X51358Y84773D01*
X51473Y84821D01*
X51586Y84872D01*
X51697Y84927D01*
X51807Y84986D01*
X51915Y85048D01*
X52020Y85113D01*
X52124Y85181D01*
X52226Y85253D01*
X52325Y85328D01*
X52421Y85406D01*
X52516Y85487D01*
X52607Y85571D01*
X52696Y85658D01*
X52463Y91013D02*
X52461Y91097D01*
X52456Y91180D01*
X52446Y91263D01*
X52433Y91346D01*
X52416Y91428D01*
X52396Y91509D01*
X52372Y91589D01*
X52344Y91668D01*
X52313Y91745D01*
X52279Y91821D01*
X52241Y91896D01*
X52199Y91969D01*
X52155Y92039D01*
X52107Y92108D01*
X52057Y92175D01*
X52003Y92239D01*
X51947Y92300D01*
X51887Y92360D01*
X51826Y92416D01*
X51762Y92470D01*
X51695Y92520D01*
X51626Y92568D01*
X51556Y92612D01*
X51483Y92654D01*
X51408Y92692D01*
X51332Y92726D01*
X51255Y92757D01*
X51176Y92785D01*
X51096Y92809D01*
X51015Y92829D01*
X50933Y92846D01*
X50850Y92859D01*
X50767Y92869D01*
X50684Y92874D01*
X50600Y92876D01*
X50488Y92874D01*
X50375Y92869D01*
X50263Y92860D01*
X50152Y92847D01*
X50040Y92831D01*
X49930Y92811D01*
X49820Y92788D01*
X49711Y92761D01*
X49603Y92731D01*
X49495Y92697D01*
X49389Y92660D01*
X49285Y92619D01*
X49181Y92575D01*
X49079Y92528D01*
X48979Y92477D01*
X48880Y92423D01*
X48783Y92366D01*
X48688Y92306D01*
X48595Y92243D01*
X48504Y92177D01*
X51532Y89383D02*
X51604Y89428D01*
X51675Y89476D01*
X51743Y89528D01*
X51809Y89582D01*
X51872Y89639D01*
X51933Y89699D01*
X51991Y89762D01*
X52046Y89828D01*
X52098Y89895D01*
X52146Y89965D01*
X52192Y90037D01*
X52234Y90112D01*
X52273Y90188D01*
X52309Y90265D01*
X52341Y90344D01*
X52369Y90425D01*
X52394Y90507D01*
X52415Y90590D01*
X52432Y90673D01*
X52446Y90758D01*
X52455Y90842D01*
X52461Y90928D01*
X52463Y91013D01*
X48970Y87987D02*
X48898Y87942D01*
X48827Y87894D01*
X48759Y87842D01*
X48693Y87788D01*
X48630Y87731D01*
X48569Y87671D01*
X48511Y87608D01*
X48456Y87542D01*
X48404Y87475D01*
X48356Y87405D01*
X48310Y87333D01*
X48268Y87258D01*
X48229Y87182D01*
X48193Y87105D01*
X48161Y87026D01*
X48133Y86945D01*
X48108Y86863D01*
X48087Y86780D01*
X48070Y86697D01*
X48056Y86612D01*
X48047Y86528D01*
X48041Y86442D01*
X48039Y86357D01*
X48970Y87986D02*
X51531Y89383D01*
X44034Y92876D02*
X42172Y84494D01*
X40309Y90082D01*
X38446Y84494D01*
X36584Y92876D01*
X31969Y92876D02*
X31969Y84494D01*
X31969Y92876D02*
X29641Y92876D01*
X29545Y92874D01*
X29449Y92868D01*
X29353Y92858D01*
X29258Y92844D01*
X29163Y92826D01*
X29070Y92805D01*
X28977Y92779D01*
X28885Y92750D01*
X28795Y92717D01*
X28706Y92680D01*
X28619Y92639D01*
X28533Y92595D01*
X28449Y92548D01*
X28368Y92497D01*
X28288Y92443D01*
X28211Y92385D01*
X28136Y92324D01*
X28064Y92261D01*
X27995Y92194D01*
X27928Y92125D01*
X27865Y92053D01*
X27804Y91978D01*
X27746Y91901D01*
X27692Y91821D01*
X27641Y91740D01*
X27594Y91656D01*
X27550Y91570D01*
X27509Y91483D01*
X27472Y91394D01*
X27439Y91304D01*
X27410Y91212D01*
X27384Y91120D01*
X27363Y91026D01*
X27345Y90931D01*
X27331Y90836D01*
X27321Y90740D01*
X27315Y90644D01*
X27313Y90548D01*
X27313Y86822D01*
X27315Y86728D01*
X27321Y86635D01*
X27330Y86541D01*
X27343Y86449D01*
X27360Y86356D01*
X27381Y86265D01*
X27405Y86174D01*
X27433Y86085D01*
X27464Y85996D01*
X27499Y85909D01*
X27538Y85824D01*
X27580Y85740D01*
X27625Y85658D01*
X27673Y85578D01*
X27725Y85500D01*
X27780Y85423D01*
X27838Y85350D01*
X27898Y85278D01*
X27962Y85209D01*
X28028Y85143D01*
X28097Y85079D01*
X28169Y85019D01*
X28242Y84961D01*
X28319Y84906D01*
X28397Y84854D01*
X28477Y84806D01*
X28559Y84761D01*
X28643Y84719D01*
X28729Y84680D01*
X28816Y84645D01*
X28904Y84614D01*
X28993Y84586D01*
X29084Y84562D01*
X29175Y84541D01*
X29268Y84524D01*
X29360Y84511D01*
X29454Y84502D01*
X29547Y84496D01*
X29641Y84494D01*
X31969Y84494D01*
X81397Y67476D02*
X81397Y59094D01*
X83726Y67476D02*
X79069Y67476D01*
X73371Y59094D02*
X71508Y59094D01*
X73371Y59094D02*
X73455Y59096D01*
X73538Y59102D01*
X73621Y59111D01*
X73704Y59124D01*
X73786Y59141D01*
X73867Y59161D01*
X73947Y59185D01*
X74026Y59213D01*
X74103Y59244D01*
X74179Y59278D01*
X74254Y59316D01*
X74327Y59358D01*
X74397Y59402D01*
X74466Y59450D01*
X74533Y59500D01*
X74597Y59554D01*
X74658Y59610D01*
X74718Y59670D01*
X74774Y59731D01*
X74828Y59795D01*
X74878Y59862D01*
X74926Y59931D01*
X74970Y60001D01*
X75012Y60074D01*
X75050Y60149D01*
X75084Y60225D01*
X75115Y60302D01*
X75143Y60381D01*
X75167Y60461D01*
X75187Y60542D01*
X75204Y60624D01*
X75217Y60707D01*
X75227Y60790D01*
X75232Y60873D01*
X75234Y60957D01*
X75234Y65613D01*
X75232Y65699D01*
X75226Y65785D01*
X75216Y65870D01*
X75202Y65955D01*
X75185Y66040D01*
X75163Y66123D01*
X75137Y66205D01*
X75108Y66286D01*
X75075Y66365D01*
X75039Y66443D01*
X74999Y66520D01*
X74955Y66594D01*
X74908Y66666D01*
X74858Y66736D01*
X74804Y66803D01*
X74748Y66868D01*
X74688Y66930D01*
X74626Y66990D01*
X74561Y67046D01*
X74494Y67100D01*
X74424Y67150D01*
X74352Y67197D01*
X74278Y67241D01*
X74201Y67281D01*
X74124Y67317D01*
X74044Y67350D01*
X73963Y67379D01*
X73881Y67405D01*
X73798Y67427D01*
X73713Y67444D01*
X73628Y67458D01*
X73543Y67468D01*
X73457Y67474D01*
X73371Y67476D01*
X71508Y67476D01*
X67051Y67476D02*
X67051Y59094D01*
X67051Y62354D02*
X62394Y67476D01*
X65188Y64216D02*
X62394Y59094D01*
X58876Y58163D02*
X55151Y68407D01*
X46760Y60957D02*
X46762Y60873D01*
X46767Y60790D01*
X46777Y60707D01*
X46790Y60624D01*
X46807Y60542D01*
X46827Y60461D01*
X46851Y60381D01*
X46879Y60302D01*
X46910Y60225D01*
X46944Y60149D01*
X46982Y60074D01*
X47024Y60001D01*
X47068Y59931D01*
X47116Y59862D01*
X47166Y59795D01*
X47220Y59731D01*
X47276Y59670D01*
X47336Y59610D01*
X47397Y59554D01*
X47461Y59500D01*
X47528Y59450D01*
X47597Y59402D01*
X47667Y59358D01*
X47740Y59316D01*
X47815Y59278D01*
X47891Y59244D01*
X47968Y59213D01*
X48047Y59185D01*
X48127Y59161D01*
X48208Y59141D01*
X48290Y59124D01*
X48373Y59111D01*
X48456Y59101D01*
X48539Y59096D01*
X48623Y59094D01*
X48747Y59096D01*
X48871Y59102D01*
X48995Y59112D01*
X49119Y59125D01*
X49242Y59143D01*
X49364Y59164D01*
X49486Y59190D01*
X49607Y59219D01*
X49727Y59252D01*
X49845Y59289D01*
X49963Y59329D01*
X50079Y59373D01*
X50194Y59421D01*
X50307Y59472D01*
X50418Y59527D01*
X50528Y59586D01*
X50636Y59648D01*
X50741Y59713D01*
X50845Y59781D01*
X50947Y59853D01*
X51046Y59928D01*
X51142Y60006D01*
X51237Y60087D01*
X51328Y60171D01*
X51417Y60258D01*
X51185Y65613D02*
X51183Y65697D01*
X51178Y65780D01*
X51168Y65863D01*
X51155Y65946D01*
X51138Y66028D01*
X51118Y66109D01*
X51094Y66189D01*
X51066Y66268D01*
X51035Y66345D01*
X51001Y66421D01*
X50963Y66496D01*
X50921Y66569D01*
X50877Y66639D01*
X50829Y66708D01*
X50779Y66775D01*
X50725Y66839D01*
X50669Y66900D01*
X50609Y66960D01*
X50548Y67016D01*
X50484Y67070D01*
X50417Y67120D01*
X50348Y67168D01*
X50278Y67212D01*
X50205Y67254D01*
X50130Y67292D01*
X50054Y67326D01*
X49977Y67357D01*
X49898Y67385D01*
X49818Y67409D01*
X49737Y67429D01*
X49655Y67446D01*
X49572Y67459D01*
X49489Y67469D01*
X49406Y67474D01*
X49322Y67476D01*
X49210Y67474D01*
X49097Y67469D01*
X48985Y67460D01*
X48874Y67447D01*
X48762Y67431D01*
X48652Y67411D01*
X48542Y67388D01*
X48433Y67361D01*
X48325Y67331D01*
X48217Y67297D01*
X48111Y67260D01*
X48007Y67219D01*
X47903Y67175D01*
X47801Y67128D01*
X47701Y67077D01*
X47602Y67023D01*
X47505Y66966D01*
X47410Y66906D01*
X47317Y66843D01*
X47226Y66777D01*
X50253Y63983D02*
X50325Y64028D01*
X50396Y64076D01*
X50464Y64128D01*
X50530Y64182D01*
X50593Y64239D01*
X50654Y64299D01*
X50712Y64362D01*
X50767Y64428D01*
X50819Y64495D01*
X50867Y64565D01*
X50913Y64637D01*
X50955Y64712D01*
X50994Y64788D01*
X51030Y64865D01*
X51062Y64944D01*
X51090Y65025D01*
X51115Y65107D01*
X51136Y65190D01*
X51153Y65273D01*
X51167Y65358D01*
X51176Y65442D01*
X51182Y65528D01*
X51184Y65613D01*
X47691Y62587D02*
X47619Y62542D01*
X47548Y62494D01*
X47480Y62442D01*
X47414Y62388D01*
X47351Y62331D01*
X47290Y62271D01*
X47232Y62208D01*
X47177Y62142D01*
X47125Y62075D01*
X47077Y62005D01*
X47031Y61933D01*
X46989Y61858D01*
X46950Y61782D01*
X46914Y61705D01*
X46882Y61626D01*
X46854Y61545D01*
X46829Y61463D01*
X46808Y61380D01*
X46791Y61297D01*
X46777Y61212D01*
X46768Y61128D01*
X46762Y61042D01*
X46760Y60957D01*
X47692Y62586D02*
X50253Y63983D01*
X42756Y67476D02*
X40893Y59094D01*
X39030Y64682D01*
X37168Y59094D01*
X35305Y67476D01*
X29175Y59094D02*
X27313Y59094D01*
X29175Y59094D02*
X29259Y59096D01*
X29342Y59102D01*
X29425Y59111D01*
X29508Y59124D01*
X29590Y59141D01*
X29671Y59161D01*
X29751Y59185D01*
X29830Y59213D01*
X29907Y59244D01*
X29983Y59278D01*
X30058Y59316D01*
X30131Y59358D01*
X30201Y59402D01*
X30270Y59450D01*
X30337Y59500D01*
X30401Y59554D01*
X30462Y59610D01*
X30522Y59670D01*
X30578Y59731D01*
X30632Y59795D01*
X30682Y59862D01*
X30730Y59931D01*
X30774Y60001D01*
X30816Y60074D01*
X30854Y60149D01*
X30888Y60225D01*
X30919Y60302D01*
X30947Y60381D01*
X30971Y60461D01*
X30991Y60542D01*
X31008Y60624D01*
X31021Y60707D01*
X31031Y60790D01*
X31036Y60873D01*
X31038Y60957D01*
X31038Y65613D01*
X31036Y65699D01*
X31030Y65785D01*
X31020Y65870D01*
X31006Y65955D01*
X30989Y66040D01*
X30967Y66123D01*
X30941Y66205D01*
X30912Y66286D01*
X30879Y66365D01*
X30843Y66443D01*
X30803Y66520D01*
X30759Y66594D01*
X30712Y66666D01*
X30662Y66736D01*
X30608Y66803D01*
X30552Y66868D01*
X30492Y66930D01*
X30430Y66990D01*
X30365Y67046D01*
X30298Y67100D01*
X30228Y67150D01*
X30156Y67197D01*
X30082Y67241D01*
X30005Y67281D01*
X29928Y67317D01*
X29848Y67350D01*
X29767Y67379D01*
X29685Y67405D01*
X29602Y67427D01*
X29517Y67444D01*
X29432Y67458D01*
X29347Y67468D01*
X29261Y67474D01*
X29175Y67476D01*
X27313Y67476D01*
X47929Y33694D02*
X50257Y33694D01*
X47929Y33694D02*
X47834Y33696D01*
X47739Y33702D01*
X47645Y33711D01*
X47551Y33725D01*
X47457Y33742D01*
X47365Y33763D01*
X47273Y33788D01*
X47183Y33817D01*
X47093Y33849D01*
X47005Y33885D01*
X46919Y33925D01*
X46834Y33967D01*
X46751Y34014D01*
X46670Y34064D01*
X46592Y34117D01*
X46515Y34173D01*
X46441Y34232D01*
X46369Y34294D01*
X46300Y34359D01*
X46233Y34427D01*
X46170Y34497D01*
X46109Y34571D01*
X46051Y34646D01*
X45997Y34724D01*
X45945Y34804D01*
X45897Y34886D01*
X45853Y34969D01*
X45811Y35055D01*
X45774Y35142D01*
X45740Y35231D01*
X45709Y35321D01*
X45682Y35412D01*
X45659Y35504D01*
X45640Y35597D01*
X45625Y35691D01*
X45613Y35785D01*
X45605Y35880D01*
X45601Y35975D01*
X45601Y36069D01*
X45605Y36164D01*
X45613Y36259D01*
X45625Y36353D01*
X45640Y36447D01*
X45659Y36540D01*
X45682Y36632D01*
X45709Y36723D01*
X45740Y36813D01*
X45774Y36902D01*
X45811Y36989D01*
X45853Y37075D01*
X45897Y37158D01*
X45945Y37240D01*
X45997Y37320D01*
X46051Y37398D01*
X46109Y37473D01*
X46170Y37547D01*
X46233Y37617D01*
X46300Y37685D01*
X46369Y37750D01*
X46441Y37812D01*
X46515Y37871D01*
X46592Y37927D01*
X46670Y37980D01*
X46751Y38030D01*
X46834Y38077D01*
X46919Y38119D01*
X47005Y38159D01*
X47093Y38195D01*
X47183Y38227D01*
X47273Y38256D01*
X47365Y38281D01*
X47457Y38302D01*
X47551Y38319D01*
X47645Y38333D01*
X47739Y38342D01*
X47834Y38348D01*
X47929Y38350D01*
X47463Y42076D02*
X50257Y42076D01*
X47463Y42076D02*
X47378Y42074D01*
X47294Y42068D01*
X47209Y42059D01*
X47126Y42045D01*
X47043Y42028D01*
X46960Y42007D01*
X46879Y41982D01*
X46799Y41954D01*
X46721Y41922D01*
X46644Y41886D01*
X46568Y41847D01*
X46495Y41805D01*
X46424Y41759D01*
X46354Y41710D01*
X46287Y41658D01*
X46223Y41603D01*
X46161Y41545D01*
X46101Y41485D01*
X46045Y41421D01*
X45991Y41356D01*
X45941Y41287D01*
X45894Y41217D01*
X45850Y41145D01*
X45809Y41070D01*
X45772Y40994D01*
X45738Y40916D01*
X45708Y40837D01*
X45681Y40756D01*
X45658Y40675D01*
X45639Y40592D01*
X45624Y40509D01*
X45612Y40425D01*
X45604Y40340D01*
X45600Y40255D01*
X45600Y40171D01*
X45604Y40086D01*
X45612Y40001D01*
X45624Y39917D01*
X45639Y39834D01*
X45658Y39751D01*
X45681Y39670D01*
X45708Y39589D01*
X45738Y39510D01*
X45772Y39432D01*
X45809Y39356D01*
X45850Y39282D01*
X45894Y39209D01*
X45941Y39139D01*
X45991Y39070D01*
X46045Y39005D01*
X46101Y38941D01*
X46161Y38881D01*
X46223Y38823D01*
X46287Y38768D01*
X46354Y38716D01*
X46424Y38667D01*
X46495Y38621D01*
X46568Y38579D01*
X46644Y38540D01*
X46721Y38504D01*
X46799Y38472D01*
X46879Y38444D01*
X46960Y38419D01*
X47043Y38398D01*
X47126Y38381D01*
X47209Y38367D01*
X47294Y38358D01*
X47378Y38352D01*
X47463Y38350D01*
X47463Y38351D02*
X49326Y38351D01*
X41579Y42076D02*
X38785Y33694D01*
X35991Y42076D01*
X31969Y33694D02*
X29641Y33694D01*
X29546Y33696D01*
X29451Y33702D01*
X29357Y33711D01*
X29263Y33725D01*
X29169Y33742D01*
X29077Y33763D01*
X28985Y33788D01*
X28895Y33817D01*
X28805Y33849D01*
X28717Y33885D01*
X28631Y33925D01*
X28546Y33967D01*
X28463Y34014D01*
X28382Y34064D01*
X28304Y34117D01*
X28227Y34173D01*
X28153Y34232D01*
X28081Y34294D01*
X28012Y34359D01*
X27945Y34427D01*
X27882Y34497D01*
X27821Y34571D01*
X27763Y34646D01*
X27709Y34724D01*
X27657Y34804D01*
X27609Y34886D01*
X27565Y34969D01*
X27523Y35055D01*
X27486Y35142D01*
X27452Y35231D01*
X27421Y35321D01*
X27394Y35412D01*
X27371Y35504D01*
X27352Y35597D01*
X27337Y35691D01*
X27325Y35785D01*
X27317Y35880D01*
X27313Y35975D01*
X27313Y36069D01*
X27317Y36164D01*
X27325Y36259D01*
X27337Y36353D01*
X27352Y36447D01*
X27371Y36540D01*
X27394Y36632D01*
X27421Y36723D01*
X27452Y36813D01*
X27486Y36902D01*
X27523Y36989D01*
X27565Y37075D01*
X27609Y37158D01*
X27657Y37240D01*
X27709Y37320D01*
X27763Y37398D01*
X27821Y37473D01*
X27882Y37547D01*
X27945Y37617D01*
X28012Y37685D01*
X28081Y37750D01*
X28153Y37812D01*
X28227Y37871D01*
X28304Y37927D01*
X28382Y37980D01*
X28463Y38030D01*
X28546Y38077D01*
X28631Y38119D01*
X28717Y38159D01*
X28805Y38195D01*
X28895Y38227D01*
X28985Y38256D01*
X29077Y38281D01*
X29169Y38302D01*
X29263Y38319D01*
X29357Y38333D01*
X29451Y38342D01*
X29546Y38348D01*
X29641Y38350D01*
X29175Y42076D02*
X31969Y42076D01*
X29175Y42076D02*
X29090Y42074D01*
X29006Y42068D01*
X28921Y42059D01*
X28838Y42045D01*
X28755Y42028D01*
X28672Y42007D01*
X28591Y41982D01*
X28511Y41954D01*
X28433Y41922D01*
X28356Y41886D01*
X28280Y41847D01*
X28207Y41805D01*
X28136Y41759D01*
X28066Y41710D01*
X27999Y41658D01*
X27935Y41603D01*
X27873Y41545D01*
X27813Y41485D01*
X27757Y41421D01*
X27703Y41356D01*
X27653Y41287D01*
X27606Y41217D01*
X27562Y41145D01*
X27521Y41070D01*
X27484Y40994D01*
X27450Y40916D01*
X27420Y40837D01*
X27393Y40756D01*
X27370Y40675D01*
X27351Y40592D01*
X27336Y40509D01*
X27324Y40425D01*
X27316Y40340D01*
X27312Y40255D01*
X27312Y40171D01*
X27316Y40086D01*
X27324Y40001D01*
X27336Y39917D01*
X27351Y39834D01*
X27370Y39751D01*
X27393Y39670D01*
X27420Y39589D01*
X27450Y39510D01*
X27484Y39432D01*
X27521Y39356D01*
X27562Y39282D01*
X27606Y39209D01*
X27653Y39139D01*
X27703Y39070D01*
X27757Y39005D01*
X27813Y38941D01*
X27873Y38881D01*
X27935Y38823D01*
X27999Y38768D01*
X28066Y38716D01*
X28136Y38667D01*
X28207Y38621D01*
X28280Y38579D01*
X28356Y38540D01*
X28433Y38504D01*
X28511Y38472D01*
X28591Y38444D01*
X28672Y38419D01*
X28755Y38398D01*
X28838Y38381D01*
X28921Y38367D01*
X29006Y38358D01*
X29090Y38352D01*
X29175Y38350D01*
X29175Y38351D02*
X31038Y38351D01*
X44280Y12951D02*
X45677Y12951D01*
X44280Y12951D02*
X44280Y8294D01*
X47074Y8294D01*
X47158Y8296D01*
X47241Y8302D01*
X47324Y8311D01*
X47407Y8324D01*
X47489Y8341D01*
X47570Y8361D01*
X47650Y8385D01*
X47729Y8413D01*
X47806Y8444D01*
X47882Y8478D01*
X47957Y8516D01*
X48030Y8558D01*
X48100Y8602D01*
X48169Y8650D01*
X48236Y8700D01*
X48300Y8754D01*
X48361Y8810D01*
X48421Y8870D01*
X48477Y8931D01*
X48531Y8995D01*
X48581Y9062D01*
X48629Y9131D01*
X48673Y9201D01*
X48715Y9274D01*
X48753Y9349D01*
X48787Y9425D01*
X48818Y9502D01*
X48846Y9581D01*
X48870Y9661D01*
X48890Y9742D01*
X48907Y9824D01*
X48920Y9907D01*
X48930Y9990D01*
X48935Y10073D01*
X48937Y10157D01*
X48936Y10157D02*
X48936Y14813D01*
X48937Y14813D02*
X48935Y14899D01*
X48929Y14985D01*
X48919Y15070D01*
X48905Y15155D01*
X48888Y15240D01*
X48866Y15323D01*
X48840Y15405D01*
X48811Y15486D01*
X48778Y15565D01*
X48742Y15643D01*
X48702Y15720D01*
X48658Y15794D01*
X48611Y15866D01*
X48561Y15936D01*
X48507Y16003D01*
X48451Y16068D01*
X48391Y16130D01*
X48329Y16190D01*
X48264Y16246D01*
X48197Y16300D01*
X48127Y16350D01*
X48055Y16397D01*
X47981Y16441D01*
X47904Y16481D01*
X47827Y16517D01*
X47747Y16550D01*
X47666Y16579D01*
X47584Y16605D01*
X47501Y16627D01*
X47416Y16644D01*
X47331Y16658D01*
X47246Y16668D01*
X47160Y16674D01*
X47074Y16676D01*
X44280Y16676D01*
X39183Y16676D02*
X39183Y8294D01*
X34526Y8294D02*
X39183Y16676D01*
X34526Y16676D02*
X34526Y8294D01*
X29429Y8294D02*
X29429Y16676D01*
X27101Y16676D01*
X27005Y16674D01*
X26909Y16668D01*
X26813Y16658D01*
X26718Y16644D01*
X26623Y16626D01*
X26530Y16605D01*
X26437Y16579D01*
X26345Y16550D01*
X26255Y16517D01*
X26166Y16480D01*
X26079Y16439D01*
X25993Y16395D01*
X25909Y16348D01*
X25828Y16297D01*
X25748Y16243D01*
X25671Y16185D01*
X25596Y16124D01*
X25524Y16061D01*
X25455Y15994D01*
X25388Y15925D01*
X25325Y15853D01*
X25264Y15778D01*
X25206Y15701D01*
X25152Y15621D01*
X25101Y15540D01*
X25054Y15456D01*
X25010Y15370D01*
X24969Y15283D01*
X24932Y15194D01*
X24899Y15104D01*
X24870Y15012D01*
X24844Y14920D01*
X24823Y14826D01*
X24805Y14731D01*
X24791Y14636D01*
X24781Y14540D01*
X24775Y14444D01*
X24773Y14348D01*
X24773Y10622D01*
X24775Y10528D01*
X24781Y10435D01*
X24790Y10341D01*
X24803Y10249D01*
X24820Y10156D01*
X24841Y10065D01*
X24865Y9974D01*
X24893Y9885D01*
X24924Y9796D01*
X24959Y9709D01*
X24998Y9624D01*
X25040Y9540D01*
X25085Y9458D01*
X25133Y9378D01*
X25185Y9300D01*
X25240Y9223D01*
X25298Y9150D01*
X25358Y9078D01*
X25422Y9009D01*
X25488Y8943D01*
X25557Y8879D01*
X25629Y8819D01*
X25702Y8761D01*
X25779Y8706D01*
X25857Y8654D01*
X25937Y8606D01*
X26019Y8561D01*
X26103Y8519D01*
X26189Y8480D01*
X26276Y8445D01*
X26364Y8414D01*
X26453Y8386D01*
X26544Y8362D01*
X26635Y8341D01*
X26728Y8324D01*
X26820Y8311D01*
X26914Y8302D01*
X27007Y8296D01*
X27101Y8294D01*
X29429Y8294D01*
X172855Y338494D02*
X172855Y346876D01*
X170526Y346876D01*
X170431Y346874D01*
X170336Y346868D01*
X170242Y346859D01*
X170148Y346845D01*
X170054Y346828D01*
X169962Y346807D01*
X169870Y346782D01*
X169780Y346753D01*
X169690Y346721D01*
X169602Y346685D01*
X169516Y346645D01*
X169431Y346603D01*
X169348Y346556D01*
X169267Y346506D01*
X169189Y346453D01*
X169112Y346397D01*
X169038Y346338D01*
X168966Y346276D01*
X168897Y346211D01*
X168830Y346143D01*
X168767Y346073D01*
X168706Y345999D01*
X168648Y345924D01*
X168594Y345846D01*
X168542Y345766D01*
X168494Y345684D01*
X168450Y345601D01*
X168408Y345515D01*
X168371Y345428D01*
X168337Y345339D01*
X168306Y345249D01*
X168279Y345158D01*
X168256Y345066D01*
X168237Y344973D01*
X168222Y344879D01*
X168210Y344785D01*
X168202Y344690D01*
X168198Y344595D01*
X168198Y344501D01*
X168202Y344406D01*
X168210Y344311D01*
X168222Y344217D01*
X168237Y344123D01*
X168256Y344030D01*
X168279Y343938D01*
X168306Y343847D01*
X168337Y343757D01*
X168371Y343668D01*
X168408Y343581D01*
X168450Y343495D01*
X168494Y343412D01*
X168542Y343330D01*
X168594Y343250D01*
X168648Y343172D01*
X168706Y343097D01*
X168767Y343023D01*
X168830Y342953D01*
X168897Y342885D01*
X168966Y342820D01*
X169038Y342758D01*
X169112Y342699D01*
X169189Y342643D01*
X169267Y342590D01*
X169348Y342540D01*
X169431Y342493D01*
X169516Y342451D01*
X169602Y342411D01*
X169690Y342375D01*
X169780Y342343D01*
X169870Y342314D01*
X169962Y342289D01*
X170054Y342268D01*
X170148Y342251D01*
X170242Y342237D01*
X170336Y342228D01*
X170431Y342222D01*
X170526Y342220D01*
X170526Y342219D02*
X172855Y342219D01*
X170061Y342219D02*
X168198Y338494D01*
X163471Y338494D02*
X159746Y338494D01*
X163471Y338494D02*
X163471Y346876D01*
X159746Y346876D01*
X160677Y343151D02*
X163471Y343151D01*
X153391Y338494D02*
X153307Y338496D01*
X153224Y338501D01*
X153141Y338511D01*
X153058Y338524D01*
X152976Y338541D01*
X152895Y338561D01*
X152815Y338585D01*
X152736Y338613D01*
X152659Y338644D01*
X152583Y338678D01*
X152508Y338716D01*
X152435Y338758D01*
X152365Y338802D01*
X152296Y338850D01*
X152229Y338900D01*
X152165Y338954D01*
X152104Y339010D01*
X152044Y339070D01*
X151988Y339131D01*
X151934Y339195D01*
X151884Y339262D01*
X151836Y339331D01*
X151792Y339401D01*
X151750Y339474D01*
X151712Y339549D01*
X151678Y339625D01*
X151647Y339702D01*
X151619Y339781D01*
X151595Y339861D01*
X151575Y339942D01*
X151558Y340024D01*
X151545Y340107D01*
X151535Y340190D01*
X151530Y340273D01*
X151528Y340357D01*
X153391Y338494D02*
X153515Y338496D01*
X153639Y338502D01*
X153763Y338512D01*
X153887Y338525D01*
X154010Y338543D01*
X154132Y338564D01*
X154254Y338590D01*
X154375Y338619D01*
X154495Y338652D01*
X154613Y338689D01*
X154731Y338729D01*
X154847Y338773D01*
X154962Y338821D01*
X155075Y338872D01*
X155186Y338927D01*
X155296Y338986D01*
X155404Y339048D01*
X155509Y339113D01*
X155613Y339181D01*
X155715Y339253D01*
X155814Y339328D01*
X155910Y339406D01*
X156005Y339487D01*
X156096Y339571D01*
X156185Y339658D01*
X155952Y345013D02*
X155950Y345097D01*
X155945Y345180D01*
X155935Y345263D01*
X155922Y345346D01*
X155905Y345428D01*
X155885Y345509D01*
X155861Y345589D01*
X155833Y345668D01*
X155802Y345745D01*
X155768Y345821D01*
X155730Y345896D01*
X155688Y345969D01*
X155644Y346039D01*
X155596Y346108D01*
X155546Y346175D01*
X155492Y346239D01*
X155436Y346300D01*
X155376Y346360D01*
X155315Y346416D01*
X155251Y346470D01*
X155184Y346520D01*
X155115Y346568D01*
X155045Y346612D01*
X154972Y346654D01*
X154897Y346692D01*
X154821Y346726D01*
X154744Y346757D01*
X154665Y346785D01*
X154585Y346809D01*
X154504Y346829D01*
X154422Y346846D01*
X154339Y346859D01*
X154256Y346869D01*
X154173Y346874D01*
X154089Y346876D01*
X153977Y346874D01*
X153864Y346869D01*
X153752Y346860D01*
X153641Y346847D01*
X153529Y346831D01*
X153419Y346811D01*
X153309Y346788D01*
X153200Y346761D01*
X153092Y346731D01*
X152984Y346697D01*
X152878Y346660D01*
X152774Y346619D01*
X152670Y346575D01*
X152568Y346528D01*
X152468Y346477D01*
X152369Y346423D01*
X152272Y346366D01*
X152177Y346306D01*
X152084Y346243D01*
X151993Y346177D01*
X155021Y343383D02*
X155093Y343428D01*
X155164Y343476D01*
X155232Y343528D01*
X155298Y343582D01*
X155361Y343639D01*
X155422Y343699D01*
X155480Y343762D01*
X155535Y343828D01*
X155587Y343895D01*
X155635Y343965D01*
X155681Y344037D01*
X155723Y344112D01*
X155762Y344188D01*
X155798Y344265D01*
X155830Y344344D01*
X155858Y344425D01*
X155883Y344507D01*
X155904Y344590D01*
X155921Y344673D01*
X155935Y344758D01*
X155944Y344842D01*
X155950Y344928D01*
X155952Y345013D01*
X152459Y341987D02*
X152387Y341942D01*
X152316Y341894D01*
X152248Y341842D01*
X152182Y341788D01*
X152119Y341731D01*
X152058Y341671D01*
X152000Y341608D01*
X151945Y341542D01*
X151893Y341475D01*
X151845Y341405D01*
X151799Y341333D01*
X151757Y341258D01*
X151718Y341182D01*
X151682Y341105D01*
X151650Y341026D01*
X151622Y340945D01*
X151597Y340863D01*
X151576Y340780D01*
X151559Y340697D01*
X151545Y340612D01*
X151536Y340528D01*
X151530Y340442D01*
X151528Y340357D01*
X152459Y341986D02*
X155020Y343383D01*
X147012Y338494D02*
X143286Y338494D01*
X147012Y338494D02*
X147012Y346876D01*
X143286Y346876D01*
X144218Y343151D02*
X147012Y343151D01*
X137702Y346876D02*
X137702Y338494D01*
X140030Y346876D02*
X135374Y346876D01*
X172855Y321476D02*
X170992Y313094D01*
X169129Y318682D01*
X167267Y313094D01*
X165404Y321476D01*
X158766Y321476D02*
X161560Y313094D01*
X155972Y313094D02*
X158766Y321476D01*
X156671Y315189D02*
X160862Y315189D01*
X151430Y313094D02*
X151430Y321476D01*
X146773Y321476D02*
X151430Y316354D01*
X149567Y318216D02*
X146773Y313094D01*
X142473Y313094D02*
X138748Y313094D01*
X142473Y313094D02*
X142473Y321476D01*
X138748Y321476D01*
X139679Y317751D02*
X142473Y317751D01*
X134577Y315422D02*
X134577Y321476D01*
X134577Y315422D02*
X134575Y315327D01*
X134569Y315232D01*
X134560Y315138D01*
X134546Y315044D01*
X134529Y314950D01*
X134508Y314858D01*
X134483Y314766D01*
X134454Y314676D01*
X134422Y314586D01*
X134386Y314498D01*
X134346Y314412D01*
X134304Y314327D01*
X134257Y314244D01*
X134207Y314163D01*
X134154Y314085D01*
X134098Y314008D01*
X134039Y313934D01*
X133977Y313862D01*
X133912Y313793D01*
X133844Y313726D01*
X133774Y313663D01*
X133700Y313602D01*
X133625Y313544D01*
X133547Y313490D01*
X133467Y313438D01*
X133385Y313390D01*
X133302Y313346D01*
X133216Y313304D01*
X133129Y313267D01*
X133040Y313233D01*
X132950Y313202D01*
X132859Y313175D01*
X132767Y313152D01*
X132674Y313133D01*
X132580Y313118D01*
X132486Y313106D01*
X132391Y313098D01*
X132296Y313094D01*
X132202Y313094D01*
X132107Y313098D01*
X132012Y313106D01*
X131918Y313118D01*
X131824Y313133D01*
X131731Y313152D01*
X131639Y313175D01*
X131548Y313202D01*
X131458Y313233D01*
X131369Y313267D01*
X131282Y313304D01*
X131196Y313346D01*
X131113Y313390D01*
X131031Y313438D01*
X130951Y313490D01*
X130873Y313544D01*
X130798Y313602D01*
X130724Y313663D01*
X130654Y313726D01*
X130586Y313793D01*
X130521Y313862D01*
X130459Y313934D01*
X130400Y314008D01*
X130344Y314085D01*
X130291Y314163D01*
X130241Y314244D01*
X130194Y314327D01*
X130152Y314412D01*
X130112Y314498D01*
X130076Y314586D01*
X130044Y314676D01*
X130015Y314766D01*
X129990Y314858D01*
X129969Y314950D01*
X129952Y315044D01*
X129938Y315138D01*
X129929Y315232D01*
X129923Y315327D01*
X129921Y315422D01*
X129920Y315422D02*
X129920Y321476D01*
X124607Y321476D02*
X124607Y313094D01*
X124607Y321476D02*
X122279Y321476D01*
X122184Y321474D01*
X122089Y321468D01*
X121995Y321459D01*
X121901Y321445D01*
X121807Y321428D01*
X121715Y321407D01*
X121623Y321382D01*
X121533Y321353D01*
X121443Y321321D01*
X121355Y321285D01*
X121269Y321245D01*
X121184Y321203D01*
X121101Y321156D01*
X121020Y321106D01*
X120942Y321053D01*
X120865Y320997D01*
X120791Y320938D01*
X120719Y320876D01*
X120650Y320811D01*
X120583Y320743D01*
X120520Y320673D01*
X120459Y320599D01*
X120401Y320524D01*
X120347Y320446D01*
X120295Y320366D01*
X120247Y320284D01*
X120203Y320201D01*
X120161Y320115D01*
X120124Y320028D01*
X120090Y319939D01*
X120059Y319849D01*
X120032Y319758D01*
X120009Y319666D01*
X119990Y319573D01*
X119975Y319479D01*
X119963Y319385D01*
X119955Y319290D01*
X119951Y319195D01*
X119951Y319101D01*
X119955Y319006D01*
X119963Y318911D01*
X119975Y318817D01*
X119990Y318723D01*
X120009Y318630D01*
X120032Y318538D01*
X120059Y318447D01*
X120090Y318357D01*
X120124Y318268D01*
X120161Y318181D01*
X120203Y318095D01*
X120247Y318012D01*
X120295Y317930D01*
X120347Y317850D01*
X120401Y317772D01*
X120459Y317697D01*
X120520Y317623D01*
X120583Y317553D01*
X120650Y317485D01*
X120719Y317420D01*
X120791Y317358D01*
X120865Y317299D01*
X120942Y317243D01*
X121020Y317190D01*
X121101Y317140D01*
X121184Y317093D01*
X121269Y317051D01*
X121355Y317011D01*
X121443Y316975D01*
X121533Y316943D01*
X121623Y316914D01*
X121715Y316889D01*
X121807Y316868D01*
X121901Y316851D01*
X121995Y316837D01*
X122089Y316828D01*
X122184Y316822D01*
X122279Y316820D01*
X122279Y316819D02*
X124607Y316819D01*
X172855Y296076D02*
X172855Y287694D01*
X172855Y296076D02*
X170526Y296076D01*
X170431Y296074D01*
X170336Y296068D01*
X170242Y296059D01*
X170148Y296045D01*
X170054Y296028D01*
X169962Y296007D01*
X169870Y295982D01*
X169780Y295953D01*
X169690Y295921D01*
X169602Y295885D01*
X169516Y295845D01*
X169431Y295803D01*
X169348Y295756D01*
X169267Y295706D01*
X169189Y295653D01*
X169112Y295597D01*
X169038Y295538D01*
X168966Y295476D01*
X168897Y295411D01*
X168830Y295343D01*
X168767Y295273D01*
X168706Y295199D01*
X168648Y295124D01*
X168594Y295046D01*
X168542Y294966D01*
X168494Y294884D01*
X168450Y294801D01*
X168408Y294715D01*
X168371Y294628D01*
X168337Y294539D01*
X168306Y294449D01*
X168279Y294358D01*
X168256Y294266D01*
X168237Y294173D01*
X168222Y294079D01*
X168210Y293985D01*
X168202Y293890D01*
X168198Y293795D01*
X168198Y293701D01*
X168202Y293606D01*
X168210Y293511D01*
X168222Y293417D01*
X168237Y293323D01*
X168256Y293230D01*
X168279Y293138D01*
X168306Y293047D01*
X168337Y292957D01*
X168371Y292868D01*
X168408Y292781D01*
X168450Y292695D01*
X168494Y292612D01*
X168542Y292530D01*
X168594Y292450D01*
X168648Y292372D01*
X168706Y292297D01*
X168767Y292223D01*
X168830Y292153D01*
X168897Y292085D01*
X168966Y292020D01*
X169038Y291958D01*
X169112Y291899D01*
X169189Y291843D01*
X169267Y291790D01*
X169348Y291740D01*
X169431Y291693D01*
X169516Y291651D01*
X169602Y291611D01*
X169690Y291575D01*
X169780Y291543D01*
X169870Y291514D01*
X169962Y291489D01*
X170054Y291468D01*
X170148Y291451D01*
X170242Y291437D01*
X170336Y291428D01*
X170431Y291422D01*
X170526Y291420D01*
X170526Y291419D02*
X172855Y291419D01*
X162411Y287694D02*
X160548Y287694D01*
X162411Y287694D02*
X162495Y287696D01*
X162578Y287702D01*
X162661Y287711D01*
X162744Y287724D01*
X162826Y287741D01*
X162907Y287761D01*
X162987Y287785D01*
X163066Y287813D01*
X163143Y287844D01*
X163219Y287878D01*
X163294Y287916D01*
X163367Y287958D01*
X163437Y288002D01*
X163506Y288050D01*
X163573Y288100D01*
X163637Y288154D01*
X163698Y288210D01*
X163758Y288270D01*
X163814Y288331D01*
X163868Y288395D01*
X163918Y288462D01*
X163966Y288531D01*
X164010Y288601D01*
X164052Y288674D01*
X164090Y288749D01*
X164124Y288825D01*
X164155Y288902D01*
X164183Y288981D01*
X164207Y289061D01*
X164227Y289142D01*
X164244Y289224D01*
X164257Y289307D01*
X164267Y289390D01*
X164272Y289473D01*
X164274Y289557D01*
X164274Y294213D01*
X164272Y294299D01*
X164266Y294385D01*
X164256Y294470D01*
X164242Y294555D01*
X164225Y294640D01*
X164203Y294723D01*
X164177Y294805D01*
X164148Y294886D01*
X164115Y294965D01*
X164079Y295043D01*
X164039Y295120D01*
X163995Y295194D01*
X163948Y295266D01*
X163898Y295336D01*
X163844Y295403D01*
X163788Y295468D01*
X163728Y295530D01*
X163666Y295590D01*
X163601Y295646D01*
X163534Y295700D01*
X163464Y295750D01*
X163392Y295797D01*
X163318Y295841D01*
X163241Y295881D01*
X163164Y295917D01*
X163084Y295950D01*
X163003Y295979D01*
X162921Y296005D01*
X162838Y296027D01*
X162753Y296044D01*
X162668Y296058D01*
X162583Y296068D01*
X162497Y296074D01*
X162411Y296076D01*
X160548Y296076D01*
X155913Y294912D02*
X155983Y294763D01*
X156050Y294612D01*
X156113Y294460D01*
X156173Y294306D01*
X156229Y294151D01*
X156281Y293994D01*
X156329Y293837D01*
X156374Y293678D01*
X156415Y293518D01*
X156452Y293358D01*
X156485Y293196D01*
X156515Y293034D01*
X156540Y292871D01*
X156562Y292708D01*
X156580Y292544D01*
X156593Y292379D01*
X156603Y292215D01*
X156609Y292050D01*
X156611Y291885D01*
X155913Y294912D02*
X155884Y294989D01*
X155852Y295065D01*
X155817Y295139D01*
X155777Y295211D01*
X155735Y295281D01*
X155689Y295349D01*
X155640Y295415D01*
X155587Y295479D01*
X155532Y295540D01*
X155474Y295598D01*
X155414Y295653D01*
X155350Y295706D01*
X155284Y295755D01*
X155216Y295801D01*
X155146Y295844D01*
X155074Y295884D01*
X155000Y295920D01*
X154925Y295952D01*
X154848Y295981D01*
X154770Y296006D01*
X154690Y296027D01*
X154610Y296045D01*
X154529Y296058D01*
X154447Y296068D01*
X154365Y296074D01*
X154283Y296076D01*
X154201Y296074D01*
X154119Y296068D01*
X154037Y296058D01*
X153956Y296045D01*
X153876Y296027D01*
X153796Y296006D01*
X153718Y295981D01*
X153641Y295952D01*
X153566Y295920D01*
X153492Y295884D01*
X153420Y295844D01*
X153350Y295801D01*
X153282Y295755D01*
X153216Y295706D01*
X153153Y295653D01*
X153092Y295598D01*
X153034Y295540D01*
X152979Y295479D01*
X152926Y295415D01*
X152877Y295349D01*
X152831Y295281D01*
X152789Y295211D01*
X152750Y295139D01*
X152714Y295065D01*
X152682Y294989D01*
X152653Y294912D01*
X152583Y294763D01*
X152516Y294612D01*
X152453Y294460D01*
X152393Y294306D01*
X152337Y294151D01*
X152285Y293994D01*
X152237Y293837D01*
X152192Y293678D01*
X152151Y293518D01*
X152114Y293358D01*
X152081Y293196D01*
X152051Y293034D01*
X152026Y292871D01*
X152004Y292708D01*
X151986Y292544D01*
X151973Y292379D01*
X151963Y292215D01*
X151957Y292050D01*
X151955Y291885D01*
X156612Y291885D02*
X156610Y291720D01*
X156604Y291555D01*
X156594Y291391D01*
X156581Y291226D01*
X156563Y291062D01*
X156541Y290899D01*
X156516Y290736D01*
X156486Y290574D01*
X156453Y290412D01*
X156416Y290251D01*
X156375Y290092D01*
X156330Y289933D01*
X156282Y289775D01*
X156230Y289619D01*
X156174Y289464D01*
X156114Y289310D01*
X156051Y289158D01*
X155984Y289007D01*
X155913Y288858D01*
X155884Y288781D01*
X155852Y288705D01*
X155816Y288631D01*
X155777Y288559D01*
X155735Y288489D01*
X155689Y288421D01*
X155640Y288355D01*
X155587Y288291D01*
X155532Y288230D01*
X155474Y288172D01*
X155414Y288117D01*
X155350Y288064D01*
X155284Y288015D01*
X155216Y287969D01*
X155146Y287926D01*
X155074Y287886D01*
X155000Y287850D01*
X154925Y287818D01*
X154848Y287789D01*
X154770Y287764D01*
X154690Y287743D01*
X154610Y287725D01*
X154529Y287712D01*
X154447Y287702D01*
X154365Y287696D01*
X154283Y287694D01*
X152653Y288858D02*
X152582Y289007D01*
X152515Y289158D01*
X152452Y289310D01*
X152392Y289464D01*
X152336Y289619D01*
X152284Y289775D01*
X152236Y289933D01*
X152191Y290092D01*
X152150Y290251D01*
X152113Y290412D01*
X152080Y290574D01*
X152050Y290736D01*
X152025Y290899D01*
X152003Y291062D01*
X151985Y291226D01*
X151972Y291391D01*
X151962Y291555D01*
X151956Y291720D01*
X151954Y291885D01*
X152653Y288858D02*
X152682Y288781D01*
X152714Y288705D01*
X152750Y288631D01*
X152789Y288559D01*
X152831Y288489D01*
X152877Y288421D01*
X152926Y288355D01*
X152979Y288291D01*
X153034Y288230D01*
X153092Y288172D01*
X153153Y288117D01*
X153216Y288064D01*
X153282Y288015D01*
X153350Y287969D01*
X153420Y287926D01*
X153492Y287886D01*
X153566Y287850D01*
X153641Y287818D01*
X153718Y287789D01*
X153796Y287764D01*
X153876Y287743D01*
X153956Y287725D01*
X154037Y287712D01*
X154119Y287702D01*
X154201Y287696D01*
X154283Y287694D01*
X156146Y289557D02*
X152420Y294213D01*
X147467Y289557D02*
X145605Y296076D01*
X147467Y289557D02*
X142811Y289557D01*
X144208Y291419D02*
X144208Y287694D01*
X172855Y270676D02*
X172855Y262294D01*
X172855Y270676D02*
X170526Y270676D01*
X170431Y270674D01*
X170336Y270668D01*
X170242Y270659D01*
X170148Y270645D01*
X170054Y270628D01*
X169962Y270607D01*
X169870Y270582D01*
X169780Y270553D01*
X169690Y270521D01*
X169602Y270485D01*
X169516Y270445D01*
X169431Y270403D01*
X169348Y270356D01*
X169267Y270306D01*
X169189Y270253D01*
X169112Y270197D01*
X169038Y270138D01*
X168966Y270076D01*
X168897Y270011D01*
X168830Y269943D01*
X168767Y269873D01*
X168706Y269799D01*
X168648Y269724D01*
X168594Y269646D01*
X168542Y269566D01*
X168494Y269484D01*
X168450Y269401D01*
X168408Y269315D01*
X168371Y269228D01*
X168337Y269139D01*
X168306Y269049D01*
X168279Y268958D01*
X168256Y268866D01*
X168237Y268773D01*
X168222Y268679D01*
X168210Y268585D01*
X168202Y268490D01*
X168198Y268395D01*
X168198Y268301D01*
X168202Y268206D01*
X168210Y268111D01*
X168222Y268017D01*
X168237Y267923D01*
X168256Y267830D01*
X168279Y267738D01*
X168306Y267647D01*
X168337Y267557D01*
X168371Y267468D01*
X168408Y267381D01*
X168450Y267295D01*
X168494Y267212D01*
X168542Y267130D01*
X168594Y267050D01*
X168648Y266972D01*
X168706Y266897D01*
X168767Y266823D01*
X168830Y266753D01*
X168897Y266685D01*
X168966Y266620D01*
X169038Y266558D01*
X169112Y266499D01*
X169189Y266443D01*
X169267Y266390D01*
X169348Y266340D01*
X169431Y266293D01*
X169516Y266251D01*
X169602Y266211D01*
X169690Y266175D01*
X169780Y266143D01*
X169870Y266114D01*
X169962Y266089D01*
X170054Y266068D01*
X170148Y266051D01*
X170242Y266037D01*
X170336Y266028D01*
X170431Y266022D01*
X170526Y266020D01*
X170526Y266019D02*
X172855Y266019D01*
X162411Y262294D02*
X160548Y262294D01*
X162411Y262294D02*
X162495Y262296D01*
X162578Y262302D01*
X162661Y262311D01*
X162744Y262324D01*
X162826Y262341D01*
X162907Y262361D01*
X162987Y262385D01*
X163066Y262413D01*
X163143Y262444D01*
X163219Y262478D01*
X163294Y262516D01*
X163367Y262558D01*
X163437Y262602D01*
X163506Y262650D01*
X163573Y262700D01*
X163637Y262754D01*
X163698Y262810D01*
X163758Y262870D01*
X163814Y262931D01*
X163868Y262995D01*
X163918Y263062D01*
X163966Y263131D01*
X164010Y263201D01*
X164052Y263274D01*
X164090Y263349D01*
X164124Y263425D01*
X164155Y263502D01*
X164183Y263581D01*
X164207Y263661D01*
X164227Y263742D01*
X164244Y263824D01*
X164257Y263907D01*
X164267Y263990D01*
X164272Y264073D01*
X164274Y264157D01*
X164274Y268813D01*
X164272Y268899D01*
X164266Y268985D01*
X164256Y269070D01*
X164242Y269155D01*
X164225Y269240D01*
X164203Y269323D01*
X164177Y269405D01*
X164148Y269486D01*
X164115Y269565D01*
X164079Y269643D01*
X164039Y269720D01*
X163995Y269794D01*
X163948Y269866D01*
X163898Y269936D01*
X163844Y270003D01*
X163788Y270068D01*
X163728Y270130D01*
X163666Y270190D01*
X163601Y270246D01*
X163534Y270300D01*
X163464Y270350D01*
X163392Y270397D01*
X163318Y270441D01*
X163241Y270481D01*
X163164Y270517D01*
X163084Y270550D01*
X163003Y270579D01*
X162921Y270605D01*
X162838Y270627D01*
X162753Y270644D01*
X162668Y270658D01*
X162583Y270668D01*
X162497Y270674D01*
X162411Y270676D01*
X160548Y270676D01*
X155913Y269512D02*
X155983Y269363D01*
X156050Y269212D01*
X156113Y269060D01*
X156173Y268906D01*
X156229Y268751D01*
X156281Y268594D01*
X156329Y268437D01*
X156374Y268278D01*
X156415Y268118D01*
X156452Y267958D01*
X156485Y267796D01*
X156515Y267634D01*
X156540Y267471D01*
X156562Y267308D01*
X156580Y267144D01*
X156593Y266979D01*
X156603Y266815D01*
X156609Y266650D01*
X156611Y266485D01*
X155913Y269512D02*
X155884Y269589D01*
X155852Y269665D01*
X155817Y269739D01*
X155777Y269811D01*
X155735Y269881D01*
X155689Y269949D01*
X155640Y270015D01*
X155587Y270079D01*
X155532Y270140D01*
X155474Y270198D01*
X155414Y270253D01*
X155350Y270306D01*
X155284Y270355D01*
X155216Y270401D01*
X155146Y270444D01*
X155074Y270484D01*
X155000Y270520D01*
X154925Y270552D01*
X154848Y270581D01*
X154770Y270606D01*
X154690Y270627D01*
X154610Y270645D01*
X154529Y270658D01*
X154447Y270668D01*
X154365Y270674D01*
X154283Y270676D01*
X154201Y270674D01*
X154119Y270668D01*
X154037Y270658D01*
X153956Y270645D01*
X153876Y270627D01*
X153796Y270606D01*
X153718Y270581D01*
X153641Y270552D01*
X153566Y270520D01*
X153492Y270484D01*
X153420Y270444D01*
X153350Y270401D01*
X153282Y270355D01*
X153216Y270306D01*
X153153Y270253D01*
X153092Y270198D01*
X153034Y270140D01*
X152979Y270079D01*
X152926Y270015D01*
X152877Y269949D01*
X152831Y269881D01*
X152789Y269811D01*
X152750Y269739D01*
X152714Y269665D01*
X152682Y269589D01*
X152653Y269512D01*
X152583Y269363D01*
X152516Y269212D01*
X152453Y269060D01*
X152393Y268906D01*
X152337Y268751D01*
X152285Y268594D01*
X152237Y268437D01*
X152192Y268278D01*
X152151Y268118D01*
X152114Y267958D01*
X152081Y267796D01*
X152051Y267634D01*
X152026Y267471D01*
X152004Y267308D01*
X151986Y267144D01*
X151973Y266979D01*
X151963Y266815D01*
X151957Y266650D01*
X151955Y266485D01*
X156612Y266485D02*
X156610Y266320D01*
X156604Y266155D01*
X156594Y265991D01*
X156581Y265826D01*
X156563Y265662D01*
X156541Y265499D01*
X156516Y265336D01*
X156486Y265174D01*
X156453Y265012D01*
X156416Y264851D01*
X156375Y264692D01*
X156330Y264533D01*
X156282Y264375D01*
X156230Y264219D01*
X156174Y264064D01*
X156114Y263910D01*
X156051Y263758D01*
X155984Y263607D01*
X155913Y263458D01*
X155884Y263381D01*
X155852Y263305D01*
X155816Y263231D01*
X155777Y263159D01*
X155735Y263089D01*
X155689Y263021D01*
X155640Y262955D01*
X155587Y262891D01*
X155532Y262830D01*
X155474Y262772D01*
X155414Y262717D01*
X155350Y262664D01*
X155284Y262615D01*
X155216Y262569D01*
X155146Y262526D01*
X155074Y262486D01*
X155000Y262450D01*
X154925Y262418D01*
X154848Y262389D01*
X154770Y262364D01*
X154690Y262343D01*
X154610Y262325D01*
X154529Y262312D01*
X154447Y262302D01*
X154365Y262296D01*
X154283Y262294D01*
X152653Y263458D02*
X152582Y263607D01*
X152515Y263758D01*
X152452Y263910D01*
X152392Y264064D01*
X152336Y264219D01*
X152284Y264375D01*
X152236Y264533D01*
X152191Y264692D01*
X152150Y264851D01*
X152113Y265012D01*
X152080Y265174D01*
X152050Y265336D01*
X152025Y265499D01*
X152003Y265662D01*
X151985Y265826D01*
X151972Y265991D01*
X151962Y266155D01*
X151956Y266320D01*
X151954Y266485D01*
X152653Y263458D02*
X152682Y263381D01*
X152714Y263305D01*
X152750Y263231D01*
X152789Y263159D01*
X152831Y263089D01*
X152877Y263021D01*
X152926Y262955D01*
X152979Y262891D01*
X153034Y262830D01*
X153092Y262772D01*
X153153Y262717D01*
X153216Y262664D01*
X153282Y262615D01*
X153350Y262569D01*
X153420Y262526D01*
X153492Y262486D01*
X153566Y262450D01*
X153641Y262418D01*
X153718Y262389D01*
X153796Y262364D01*
X153876Y262343D01*
X153956Y262325D01*
X154037Y262312D01*
X154119Y262302D01*
X154201Y262296D01*
X154283Y262294D01*
X156146Y264157D02*
X152420Y268813D01*
X147467Y262294D02*
X145139Y262294D01*
X145044Y262296D01*
X144949Y262302D01*
X144855Y262311D01*
X144761Y262325D01*
X144667Y262342D01*
X144575Y262363D01*
X144483Y262388D01*
X144393Y262417D01*
X144303Y262449D01*
X144215Y262485D01*
X144129Y262525D01*
X144044Y262567D01*
X143961Y262614D01*
X143880Y262664D01*
X143802Y262717D01*
X143725Y262773D01*
X143651Y262832D01*
X143579Y262894D01*
X143510Y262959D01*
X143443Y263027D01*
X143380Y263097D01*
X143319Y263171D01*
X143261Y263246D01*
X143207Y263324D01*
X143155Y263404D01*
X143107Y263486D01*
X143063Y263569D01*
X143021Y263655D01*
X142984Y263742D01*
X142950Y263831D01*
X142919Y263921D01*
X142892Y264012D01*
X142869Y264104D01*
X142850Y264197D01*
X142835Y264291D01*
X142823Y264385D01*
X142815Y264480D01*
X142811Y264575D01*
X142811Y264669D01*
X142815Y264764D01*
X142823Y264859D01*
X142835Y264953D01*
X142850Y265047D01*
X142869Y265140D01*
X142892Y265232D01*
X142919Y265323D01*
X142950Y265413D01*
X142984Y265502D01*
X143021Y265589D01*
X143063Y265675D01*
X143107Y265758D01*
X143155Y265840D01*
X143207Y265920D01*
X143261Y265998D01*
X143319Y266073D01*
X143380Y266147D01*
X143443Y266217D01*
X143510Y266285D01*
X143579Y266350D01*
X143651Y266412D01*
X143725Y266471D01*
X143802Y266527D01*
X143880Y266580D01*
X143961Y266630D01*
X144044Y266677D01*
X144129Y266719D01*
X144215Y266759D01*
X144303Y266795D01*
X144393Y266827D01*
X144483Y266856D01*
X144575Y266881D01*
X144667Y266902D01*
X144761Y266919D01*
X144855Y266933D01*
X144949Y266942D01*
X145044Y266948D01*
X145139Y266950D01*
X144673Y270676D02*
X147467Y270676D01*
X144673Y270676D02*
X144588Y270674D01*
X144504Y270668D01*
X144419Y270659D01*
X144336Y270645D01*
X144253Y270628D01*
X144170Y270607D01*
X144089Y270582D01*
X144009Y270554D01*
X143931Y270522D01*
X143854Y270486D01*
X143778Y270447D01*
X143705Y270405D01*
X143634Y270359D01*
X143564Y270310D01*
X143497Y270258D01*
X143433Y270203D01*
X143371Y270145D01*
X143311Y270085D01*
X143255Y270021D01*
X143201Y269956D01*
X143151Y269887D01*
X143104Y269817D01*
X143060Y269745D01*
X143019Y269670D01*
X142982Y269594D01*
X142948Y269516D01*
X142918Y269437D01*
X142891Y269356D01*
X142868Y269275D01*
X142849Y269192D01*
X142834Y269109D01*
X142822Y269025D01*
X142814Y268940D01*
X142810Y268855D01*
X142810Y268771D01*
X142814Y268686D01*
X142822Y268601D01*
X142834Y268517D01*
X142849Y268434D01*
X142868Y268351D01*
X142891Y268270D01*
X142918Y268189D01*
X142948Y268110D01*
X142982Y268032D01*
X143019Y267956D01*
X143060Y267882D01*
X143104Y267809D01*
X143151Y267739D01*
X143201Y267670D01*
X143255Y267605D01*
X143311Y267541D01*
X143371Y267481D01*
X143433Y267423D01*
X143497Y267368D01*
X143564Y267316D01*
X143634Y267267D01*
X143705Y267221D01*
X143778Y267179D01*
X143854Y267140D01*
X143931Y267104D01*
X144009Y267072D01*
X144089Y267044D01*
X144170Y267019D01*
X144253Y266998D01*
X144336Y266981D01*
X144419Y266967D01*
X144504Y266958D01*
X144588Y266952D01*
X144673Y266950D01*
X144673Y266951D02*
X146536Y266951D01*
X172855Y245276D02*
X172855Y236894D01*
X172855Y245276D02*
X170526Y245276D01*
X170431Y245274D01*
X170336Y245268D01*
X170242Y245259D01*
X170148Y245245D01*
X170054Y245228D01*
X169962Y245207D01*
X169870Y245182D01*
X169780Y245153D01*
X169690Y245121D01*
X169602Y245085D01*
X169516Y245045D01*
X169431Y245003D01*
X169348Y244956D01*
X169267Y244906D01*
X169189Y244853D01*
X169112Y244797D01*
X169038Y244738D01*
X168966Y244676D01*
X168897Y244611D01*
X168830Y244543D01*
X168767Y244473D01*
X168706Y244399D01*
X168648Y244324D01*
X168594Y244246D01*
X168542Y244166D01*
X168494Y244084D01*
X168450Y244001D01*
X168408Y243915D01*
X168371Y243828D01*
X168337Y243739D01*
X168306Y243649D01*
X168279Y243558D01*
X168256Y243466D01*
X168237Y243373D01*
X168222Y243279D01*
X168210Y243185D01*
X168202Y243090D01*
X168198Y242995D01*
X168198Y242901D01*
X168202Y242806D01*
X168210Y242711D01*
X168222Y242617D01*
X168237Y242523D01*
X168256Y242430D01*
X168279Y242338D01*
X168306Y242247D01*
X168337Y242157D01*
X168371Y242068D01*
X168408Y241981D01*
X168450Y241895D01*
X168494Y241812D01*
X168542Y241730D01*
X168594Y241650D01*
X168648Y241572D01*
X168706Y241497D01*
X168767Y241423D01*
X168830Y241353D01*
X168897Y241285D01*
X168966Y241220D01*
X169038Y241158D01*
X169112Y241099D01*
X169189Y241043D01*
X169267Y240990D01*
X169348Y240940D01*
X169431Y240893D01*
X169516Y240851D01*
X169602Y240811D01*
X169690Y240775D01*
X169780Y240743D01*
X169870Y240714D01*
X169962Y240689D01*
X170054Y240668D01*
X170148Y240651D01*
X170242Y240637D01*
X170336Y240628D01*
X170431Y240622D01*
X170526Y240620D01*
X170526Y240619D02*
X172855Y240619D01*
X162411Y236894D02*
X160548Y236894D01*
X162411Y236894D02*
X162495Y236896D01*
X162578Y236902D01*
X162661Y236911D01*
X162744Y236924D01*
X162826Y236941D01*
X162907Y236961D01*
X162987Y236985D01*
X163066Y237013D01*
X163143Y237044D01*
X163219Y237078D01*
X163294Y237116D01*
X163367Y237158D01*
X163437Y237202D01*
X163506Y237250D01*
X163573Y237300D01*
X163637Y237354D01*
X163698Y237410D01*
X163758Y237470D01*
X163814Y237531D01*
X163868Y237595D01*
X163918Y237662D01*
X163966Y237731D01*
X164010Y237801D01*
X164052Y237874D01*
X164090Y237949D01*
X164124Y238025D01*
X164155Y238102D01*
X164183Y238181D01*
X164207Y238261D01*
X164227Y238342D01*
X164244Y238424D01*
X164257Y238507D01*
X164267Y238590D01*
X164272Y238673D01*
X164274Y238757D01*
X164274Y243413D01*
X164272Y243499D01*
X164266Y243585D01*
X164256Y243670D01*
X164242Y243755D01*
X164225Y243840D01*
X164203Y243923D01*
X164177Y244005D01*
X164148Y244086D01*
X164115Y244165D01*
X164079Y244243D01*
X164039Y244320D01*
X163995Y244394D01*
X163948Y244466D01*
X163898Y244536D01*
X163844Y244603D01*
X163788Y244668D01*
X163728Y244730D01*
X163666Y244790D01*
X163601Y244846D01*
X163534Y244900D01*
X163464Y244950D01*
X163392Y244997D01*
X163318Y245041D01*
X163241Y245081D01*
X163164Y245117D01*
X163084Y245150D01*
X163003Y245179D01*
X162921Y245205D01*
X162838Y245227D01*
X162753Y245244D01*
X162668Y245258D01*
X162583Y245268D01*
X162497Y245274D01*
X162411Y245276D01*
X160548Y245276D01*
X155913Y244112D02*
X155983Y243963D01*
X156050Y243812D01*
X156113Y243660D01*
X156173Y243506D01*
X156229Y243351D01*
X156281Y243194D01*
X156329Y243037D01*
X156374Y242878D01*
X156415Y242718D01*
X156452Y242558D01*
X156485Y242396D01*
X156515Y242234D01*
X156540Y242071D01*
X156562Y241908D01*
X156580Y241744D01*
X156593Y241579D01*
X156603Y241415D01*
X156609Y241250D01*
X156611Y241085D01*
X155913Y244112D02*
X155884Y244189D01*
X155852Y244265D01*
X155817Y244339D01*
X155777Y244411D01*
X155735Y244481D01*
X155689Y244549D01*
X155640Y244615D01*
X155587Y244679D01*
X155532Y244740D01*
X155474Y244798D01*
X155414Y244853D01*
X155350Y244906D01*
X155284Y244955D01*
X155216Y245001D01*
X155146Y245044D01*
X155074Y245084D01*
X155000Y245120D01*
X154925Y245152D01*
X154848Y245181D01*
X154770Y245206D01*
X154690Y245227D01*
X154610Y245245D01*
X154529Y245258D01*
X154447Y245268D01*
X154365Y245274D01*
X154283Y245276D01*
X154201Y245274D01*
X154119Y245268D01*
X154037Y245258D01*
X153956Y245245D01*
X153876Y245227D01*
X153796Y245206D01*
X153718Y245181D01*
X153641Y245152D01*
X153566Y245120D01*
X153492Y245084D01*
X153420Y245044D01*
X153350Y245001D01*
X153282Y244955D01*
X153216Y244906D01*
X153153Y244853D01*
X153092Y244798D01*
X153034Y244740D01*
X152979Y244679D01*
X152926Y244615D01*
X152877Y244549D01*
X152831Y244481D01*
X152789Y244411D01*
X152750Y244339D01*
X152714Y244265D01*
X152682Y244189D01*
X152653Y244112D01*
X152583Y243963D01*
X152516Y243812D01*
X152453Y243660D01*
X152393Y243506D01*
X152337Y243351D01*
X152285Y243194D01*
X152237Y243037D01*
X152192Y242878D01*
X152151Y242718D01*
X152114Y242558D01*
X152081Y242396D01*
X152051Y242234D01*
X152026Y242071D01*
X152004Y241908D01*
X151986Y241744D01*
X151973Y241579D01*
X151963Y241415D01*
X151957Y241250D01*
X151955Y241085D01*
X156612Y241085D02*
X156610Y240920D01*
X156604Y240755D01*
X156594Y240591D01*
X156581Y240426D01*
X156563Y240262D01*
X156541Y240099D01*
X156516Y239936D01*
X156486Y239774D01*
X156453Y239612D01*
X156416Y239451D01*
X156375Y239292D01*
X156330Y239133D01*
X156282Y238975D01*
X156230Y238819D01*
X156174Y238664D01*
X156114Y238510D01*
X156051Y238358D01*
X155984Y238207D01*
X155913Y238058D01*
X155884Y237981D01*
X155852Y237905D01*
X155816Y237831D01*
X155777Y237759D01*
X155735Y237689D01*
X155689Y237621D01*
X155640Y237555D01*
X155587Y237491D01*
X155532Y237430D01*
X155474Y237372D01*
X155414Y237317D01*
X155350Y237264D01*
X155284Y237215D01*
X155216Y237169D01*
X155146Y237126D01*
X155074Y237086D01*
X155000Y237050D01*
X154925Y237018D01*
X154848Y236989D01*
X154770Y236964D01*
X154690Y236943D01*
X154610Y236925D01*
X154529Y236912D01*
X154447Y236902D01*
X154365Y236896D01*
X154283Y236894D01*
X152653Y238058D02*
X152582Y238207D01*
X152515Y238358D01*
X152452Y238510D01*
X152392Y238664D01*
X152336Y238819D01*
X152284Y238975D01*
X152236Y239133D01*
X152191Y239292D01*
X152150Y239451D01*
X152113Y239612D01*
X152080Y239774D01*
X152050Y239936D01*
X152025Y240099D01*
X152003Y240262D01*
X151985Y240426D01*
X151972Y240591D01*
X151962Y240755D01*
X151956Y240920D01*
X151954Y241085D01*
X152653Y238058D02*
X152682Y237981D01*
X152714Y237905D01*
X152750Y237831D01*
X152789Y237759D01*
X152831Y237689D01*
X152877Y237621D01*
X152926Y237555D01*
X152979Y237491D01*
X153034Y237430D01*
X153092Y237372D01*
X153153Y237317D01*
X153216Y237264D01*
X153282Y237215D01*
X153350Y237169D01*
X153420Y237126D01*
X153492Y237086D01*
X153566Y237050D01*
X153641Y237018D01*
X153718Y236989D01*
X153796Y236964D01*
X153876Y236943D01*
X153956Y236925D01*
X154037Y236912D01*
X154119Y236902D01*
X154201Y236896D01*
X154283Y236894D01*
X156146Y238757D02*
X152420Y243413D01*
X144906Y245276D02*
X144817Y245274D01*
X144728Y245268D01*
X144640Y245259D01*
X144552Y245246D01*
X144464Y245229D01*
X144378Y245208D01*
X144292Y245184D01*
X144208Y245156D01*
X144124Y245125D01*
X144043Y245090D01*
X143962Y245052D01*
X143884Y245010D01*
X143807Y244965D01*
X143732Y244917D01*
X143660Y244865D01*
X143589Y244811D01*
X143521Y244753D01*
X143456Y244693D01*
X143393Y244630D01*
X143333Y244565D01*
X143275Y244497D01*
X143221Y244426D01*
X143169Y244354D01*
X143121Y244279D01*
X143076Y244202D01*
X143034Y244124D01*
X142996Y244043D01*
X142961Y243962D01*
X142930Y243878D01*
X142902Y243794D01*
X142878Y243708D01*
X142857Y243622D01*
X142840Y243534D01*
X142827Y243446D01*
X142818Y243358D01*
X142812Y243269D01*
X142810Y243180D01*
X144906Y245276D02*
X145009Y245274D01*
X145111Y245268D01*
X145213Y245258D01*
X145315Y245245D01*
X145416Y245227D01*
X145516Y245206D01*
X145616Y245181D01*
X145714Y245152D01*
X145811Y245119D01*
X145907Y245083D01*
X146002Y245043D01*
X146095Y244999D01*
X146186Y244952D01*
X146275Y244902D01*
X146362Y244848D01*
X146448Y244791D01*
X146531Y244731D01*
X146611Y244667D01*
X146689Y244601D01*
X146765Y244531D01*
X146838Y244459D01*
X146908Y244384D01*
X146975Y244306D01*
X147039Y244226D01*
X147100Y244144D01*
X147158Y244059D01*
X147212Y243972D01*
X147264Y243883D01*
X147311Y243793D01*
X147356Y243700D01*
X147396Y243606D01*
X147434Y243510D01*
X147467Y243413D01*
X143510Y241550D02*
X143445Y241614D01*
X143383Y241681D01*
X143323Y241750D01*
X143267Y241822D01*
X143214Y241895D01*
X143163Y241971D01*
X143116Y242049D01*
X143072Y242129D01*
X143031Y242210D01*
X142993Y242293D01*
X142959Y242378D01*
X142928Y242464D01*
X142901Y242551D01*
X142877Y242639D01*
X142857Y242727D01*
X142840Y242817D01*
X142828Y242907D01*
X142818Y242998D01*
X142813Y243089D01*
X142811Y243180D01*
X143509Y241551D02*
X147467Y236894D01*
X142811Y236894D01*
X170526Y211494D02*
X172855Y211494D01*
X170526Y211494D02*
X170431Y211496D01*
X170336Y211502D01*
X170242Y211511D01*
X170148Y211525D01*
X170054Y211542D01*
X169962Y211563D01*
X169870Y211588D01*
X169780Y211617D01*
X169690Y211649D01*
X169602Y211685D01*
X169516Y211725D01*
X169431Y211767D01*
X169348Y211814D01*
X169267Y211864D01*
X169189Y211917D01*
X169112Y211973D01*
X169038Y212032D01*
X168966Y212094D01*
X168897Y212159D01*
X168830Y212227D01*
X168767Y212297D01*
X168706Y212371D01*
X168648Y212446D01*
X168594Y212524D01*
X168542Y212604D01*
X168494Y212686D01*
X168450Y212769D01*
X168408Y212855D01*
X168371Y212942D01*
X168337Y213031D01*
X168306Y213121D01*
X168279Y213212D01*
X168256Y213304D01*
X168237Y213397D01*
X168222Y213491D01*
X168210Y213585D01*
X168202Y213680D01*
X168198Y213775D01*
X168198Y213869D01*
X168202Y213964D01*
X168210Y214059D01*
X168222Y214153D01*
X168237Y214247D01*
X168256Y214340D01*
X168279Y214432D01*
X168306Y214523D01*
X168337Y214613D01*
X168371Y214702D01*
X168408Y214789D01*
X168450Y214875D01*
X168494Y214958D01*
X168542Y215040D01*
X168594Y215120D01*
X168648Y215198D01*
X168706Y215273D01*
X168767Y215347D01*
X168830Y215417D01*
X168897Y215485D01*
X168966Y215550D01*
X169038Y215612D01*
X169112Y215671D01*
X169189Y215727D01*
X169267Y215780D01*
X169348Y215830D01*
X169431Y215877D01*
X169516Y215919D01*
X169602Y215959D01*
X169690Y215995D01*
X169780Y216027D01*
X169870Y216056D01*
X169962Y216081D01*
X170054Y216102D01*
X170148Y216119D01*
X170242Y216133D01*
X170336Y216142D01*
X170431Y216148D01*
X170526Y216150D01*
X170061Y219876D02*
X172855Y219876D01*
X170061Y219876D02*
X169976Y219874D01*
X169892Y219868D01*
X169807Y219859D01*
X169724Y219845D01*
X169641Y219828D01*
X169558Y219807D01*
X169477Y219782D01*
X169397Y219754D01*
X169319Y219722D01*
X169242Y219686D01*
X169166Y219647D01*
X169093Y219605D01*
X169022Y219559D01*
X168952Y219510D01*
X168885Y219458D01*
X168821Y219403D01*
X168759Y219345D01*
X168699Y219285D01*
X168643Y219221D01*
X168589Y219156D01*
X168539Y219087D01*
X168492Y219017D01*
X168448Y218945D01*
X168407Y218870D01*
X168370Y218794D01*
X168336Y218716D01*
X168306Y218637D01*
X168279Y218556D01*
X168256Y218475D01*
X168237Y218392D01*
X168222Y218309D01*
X168210Y218225D01*
X168202Y218140D01*
X168198Y218055D01*
X168198Y217971D01*
X168202Y217886D01*
X168210Y217801D01*
X168222Y217717D01*
X168237Y217634D01*
X168256Y217551D01*
X168279Y217470D01*
X168306Y217389D01*
X168336Y217310D01*
X168370Y217232D01*
X168407Y217156D01*
X168448Y217082D01*
X168492Y217009D01*
X168539Y216939D01*
X168589Y216870D01*
X168643Y216805D01*
X168699Y216741D01*
X168759Y216681D01*
X168821Y216623D01*
X168885Y216568D01*
X168952Y216516D01*
X169022Y216467D01*
X169093Y216421D01*
X169166Y216379D01*
X169242Y216340D01*
X169319Y216304D01*
X169397Y216272D01*
X169477Y216244D01*
X169558Y216219D01*
X169641Y216198D01*
X169724Y216181D01*
X169807Y216167D01*
X169892Y216158D01*
X169976Y216152D01*
X170061Y216150D01*
X170061Y216151D02*
X171923Y216151D01*
X164176Y219876D02*
X161382Y211494D01*
X158588Y219876D01*
X154567Y211494D02*
X152238Y211494D01*
X152143Y211496D01*
X152048Y211502D01*
X151954Y211511D01*
X151860Y211525D01*
X151766Y211542D01*
X151674Y211563D01*
X151582Y211588D01*
X151492Y211617D01*
X151402Y211649D01*
X151314Y211685D01*
X151228Y211725D01*
X151143Y211767D01*
X151060Y211814D01*
X150979Y211864D01*
X150901Y211917D01*
X150824Y211973D01*
X150750Y212032D01*
X150678Y212094D01*
X150609Y212159D01*
X150542Y212227D01*
X150479Y212297D01*
X150418Y212371D01*
X150360Y212446D01*
X150306Y212524D01*
X150254Y212604D01*
X150206Y212686D01*
X150162Y212769D01*
X150120Y212855D01*
X150083Y212942D01*
X150049Y213031D01*
X150018Y213121D01*
X149991Y213212D01*
X149968Y213304D01*
X149949Y213397D01*
X149934Y213491D01*
X149922Y213585D01*
X149914Y213680D01*
X149910Y213775D01*
X149910Y213869D01*
X149914Y213964D01*
X149922Y214059D01*
X149934Y214153D01*
X149949Y214247D01*
X149968Y214340D01*
X149991Y214432D01*
X150018Y214523D01*
X150049Y214613D01*
X150083Y214702D01*
X150120Y214789D01*
X150162Y214875D01*
X150206Y214958D01*
X150254Y215040D01*
X150306Y215120D01*
X150360Y215198D01*
X150418Y215273D01*
X150479Y215347D01*
X150542Y215417D01*
X150609Y215485D01*
X150678Y215550D01*
X150750Y215612D01*
X150824Y215671D01*
X150901Y215727D01*
X150979Y215780D01*
X151060Y215830D01*
X151143Y215877D01*
X151228Y215919D01*
X151314Y215959D01*
X151402Y215995D01*
X151492Y216027D01*
X151582Y216056D01*
X151674Y216081D01*
X151766Y216102D01*
X151860Y216119D01*
X151954Y216133D01*
X152048Y216142D01*
X152143Y216148D01*
X152238Y216150D01*
X151773Y219876D02*
X154567Y219876D01*
X151773Y219876D02*
X151688Y219874D01*
X151604Y219868D01*
X151519Y219859D01*
X151436Y219845D01*
X151353Y219828D01*
X151270Y219807D01*
X151189Y219782D01*
X151109Y219754D01*
X151031Y219722D01*
X150954Y219686D01*
X150878Y219647D01*
X150805Y219605D01*
X150734Y219559D01*
X150664Y219510D01*
X150597Y219458D01*
X150533Y219403D01*
X150471Y219345D01*
X150411Y219285D01*
X150355Y219221D01*
X150301Y219156D01*
X150251Y219087D01*
X150204Y219017D01*
X150160Y218945D01*
X150119Y218870D01*
X150082Y218794D01*
X150048Y218716D01*
X150018Y218637D01*
X149991Y218556D01*
X149968Y218475D01*
X149949Y218392D01*
X149934Y218309D01*
X149922Y218225D01*
X149914Y218140D01*
X149910Y218055D01*
X149910Y217971D01*
X149914Y217886D01*
X149922Y217801D01*
X149934Y217717D01*
X149949Y217634D01*
X149968Y217551D01*
X149991Y217470D01*
X150018Y217389D01*
X150048Y217310D01*
X150082Y217232D01*
X150119Y217156D01*
X150160Y217082D01*
X150204Y217009D01*
X150251Y216939D01*
X150301Y216870D01*
X150355Y216805D01*
X150411Y216741D01*
X150471Y216681D01*
X150533Y216623D01*
X150597Y216568D01*
X150664Y216516D01*
X150734Y216467D01*
X150805Y216421D01*
X150878Y216379D01*
X150954Y216340D01*
X151031Y216304D01*
X151109Y216272D01*
X151189Y216244D01*
X151270Y216219D01*
X151353Y216198D01*
X151436Y216181D01*
X151519Y216167D01*
X151604Y216158D01*
X151688Y216152D01*
X151773Y216150D01*
X151773Y216151D02*
X153635Y216151D01*
X168198Y190751D02*
X169595Y190751D01*
X168198Y190751D02*
X168198Y186094D01*
X170992Y186094D01*
X171076Y186096D01*
X171159Y186102D01*
X171242Y186111D01*
X171325Y186124D01*
X171407Y186141D01*
X171488Y186161D01*
X171568Y186185D01*
X171647Y186213D01*
X171724Y186244D01*
X171800Y186278D01*
X171875Y186316D01*
X171948Y186358D01*
X172018Y186402D01*
X172087Y186450D01*
X172154Y186500D01*
X172218Y186554D01*
X172279Y186610D01*
X172339Y186670D01*
X172395Y186731D01*
X172449Y186795D01*
X172499Y186862D01*
X172547Y186931D01*
X172591Y187001D01*
X172633Y187074D01*
X172671Y187149D01*
X172705Y187225D01*
X172736Y187302D01*
X172764Y187381D01*
X172788Y187461D01*
X172808Y187542D01*
X172825Y187624D01*
X172838Y187707D01*
X172848Y187790D01*
X172853Y187873D01*
X172855Y187957D01*
X172855Y192613D01*
X172853Y192699D01*
X172847Y192785D01*
X172837Y192870D01*
X172823Y192955D01*
X172806Y193040D01*
X172784Y193123D01*
X172758Y193205D01*
X172729Y193286D01*
X172696Y193365D01*
X172660Y193443D01*
X172620Y193520D01*
X172576Y193594D01*
X172529Y193666D01*
X172479Y193736D01*
X172425Y193803D01*
X172369Y193868D01*
X172309Y193930D01*
X172247Y193990D01*
X172182Y194046D01*
X172115Y194100D01*
X172045Y194150D01*
X171973Y194197D01*
X171899Y194241D01*
X171822Y194281D01*
X171745Y194317D01*
X171665Y194350D01*
X171584Y194379D01*
X171502Y194405D01*
X171419Y194427D01*
X171334Y194444D01*
X171249Y194458D01*
X171164Y194468D01*
X171078Y194474D01*
X170992Y194476D01*
X168198Y194476D01*
X163101Y194476D02*
X163101Y186094D01*
X158444Y186094D02*
X163101Y194476D01*
X158444Y194476D02*
X158444Y186094D01*
X153347Y186094D02*
X153347Y194476D01*
X151019Y194476D01*
X150923Y194474D01*
X150827Y194468D01*
X150731Y194458D01*
X150636Y194444D01*
X150541Y194426D01*
X150448Y194405D01*
X150355Y194379D01*
X150263Y194350D01*
X150173Y194317D01*
X150084Y194280D01*
X149997Y194239D01*
X149911Y194195D01*
X149827Y194148D01*
X149746Y194097D01*
X149666Y194043D01*
X149589Y193985D01*
X149514Y193924D01*
X149442Y193861D01*
X149373Y193794D01*
X149306Y193725D01*
X149243Y193653D01*
X149182Y193578D01*
X149124Y193501D01*
X149070Y193421D01*
X149019Y193340D01*
X148972Y193256D01*
X148928Y193170D01*
X148887Y193083D01*
X148850Y192994D01*
X148817Y192904D01*
X148788Y192812D01*
X148762Y192720D01*
X148741Y192626D01*
X148723Y192531D01*
X148709Y192436D01*
X148699Y192340D01*
X148693Y192244D01*
X148691Y192148D01*
X148691Y188422D01*
X148693Y188328D01*
X148699Y188235D01*
X148708Y188141D01*
X148721Y188049D01*
X148738Y187956D01*
X148759Y187865D01*
X148783Y187774D01*
X148811Y187685D01*
X148842Y187596D01*
X148877Y187509D01*
X148916Y187424D01*
X148958Y187340D01*
X149003Y187258D01*
X149051Y187178D01*
X149103Y187100D01*
X149158Y187023D01*
X149216Y186950D01*
X149276Y186878D01*
X149340Y186809D01*
X149406Y186743D01*
X149475Y186679D01*
X149547Y186619D01*
X149620Y186561D01*
X149697Y186506D01*
X149775Y186454D01*
X149855Y186406D01*
X149937Y186361D01*
X150021Y186319D01*
X150107Y186280D01*
X150194Y186245D01*
X150282Y186214D01*
X150371Y186186D01*
X150462Y186162D01*
X150553Y186141D01*
X150646Y186124D01*
X150738Y186111D01*
X150832Y186102D01*
X150925Y186096D01*
X151019Y186094D01*
X153347Y186094D01*
X172855Y169076D02*
X172855Y160694D01*
X172855Y169076D02*
X170526Y169076D01*
X170431Y169074D01*
X170336Y169068D01*
X170242Y169059D01*
X170148Y169045D01*
X170054Y169028D01*
X169962Y169007D01*
X169870Y168982D01*
X169780Y168953D01*
X169690Y168921D01*
X169602Y168885D01*
X169516Y168845D01*
X169431Y168803D01*
X169348Y168756D01*
X169267Y168706D01*
X169189Y168653D01*
X169112Y168597D01*
X169038Y168538D01*
X168966Y168476D01*
X168897Y168411D01*
X168830Y168343D01*
X168767Y168273D01*
X168706Y168199D01*
X168648Y168124D01*
X168594Y168046D01*
X168542Y167966D01*
X168494Y167884D01*
X168450Y167801D01*
X168408Y167715D01*
X168371Y167628D01*
X168337Y167539D01*
X168306Y167449D01*
X168279Y167358D01*
X168256Y167266D01*
X168237Y167173D01*
X168222Y167079D01*
X168210Y166985D01*
X168202Y166890D01*
X168198Y166795D01*
X168198Y166701D01*
X168202Y166606D01*
X168210Y166511D01*
X168222Y166417D01*
X168237Y166323D01*
X168256Y166230D01*
X168279Y166138D01*
X168306Y166047D01*
X168337Y165957D01*
X168371Y165868D01*
X168408Y165781D01*
X168450Y165695D01*
X168494Y165612D01*
X168542Y165530D01*
X168594Y165450D01*
X168648Y165372D01*
X168706Y165297D01*
X168767Y165223D01*
X168830Y165153D01*
X168897Y165085D01*
X168966Y165020D01*
X169038Y164958D01*
X169112Y164899D01*
X169189Y164843D01*
X169267Y164790D01*
X169348Y164740D01*
X169431Y164693D01*
X169516Y164651D01*
X169602Y164611D01*
X169690Y164575D01*
X169780Y164543D01*
X169870Y164514D01*
X169962Y164489D01*
X170054Y164468D01*
X170148Y164451D01*
X170242Y164437D01*
X170336Y164428D01*
X170431Y164422D01*
X170526Y164420D01*
X170526Y164419D02*
X172855Y164419D01*
X170061Y164419D02*
X168198Y160694D01*
X164270Y160694D02*
X158682Y169076D01*
X164270Y169076D02*
X158682Y160694D01*
X154356Y160694D02*
X154356Y169076D01*
X152027Y169076D01*
X151931Y169074D01*
X151835Y169068D01*
X151739Y169058D01*
X151644Y169044D01*
X151549Y169026D01*
X151456Y169005D01*
X151363Y168979D01*
X151271Y168950D01*
X151181Y168917D01*
X151092Y168880D01*
X151005Y168839D01*
X150919Y168795D01*
X150835Y168748D01*
X150754Y168697D01*
X150674Y168643D01*
X150597Y168585D01*
X150522Y168524D01*
X150450Y168461D01*
X150381Y168394D01*
X150314Y168325D01*
X150251Y168253D01*
X150190Y168178D01*
X150132Y168101D01*
X150078Y168021D01*
X150027Y167940D01*
X149980Y167856D01*
X149936Y167770D01*
X149895Y167683D01*
X149858Y167594D01*
X149825Y167504D01*
X149796Y167412D01*
X149770Y167320D01*
X149749Y167226D01*
X149731Y167131D01*
X149717Y167036D01*
X149707Y166940D01*
X149701Y166844D01*
X149699Y166748D01*
X149699Y163022D01*
X149701Y162928D01*
X149707Y162835D01*
X149716Y162741D01*
X149729Y162649D01*
X149746Y162556D01*
X149767Y162465D01*
X149791Y162374D01*
X149819Y162285D01*
X149850Y162196D01*
X149885Y162109D01*
X149924Y162024D01*
X149966Y161940D01*
X150011Y161858D01*
X150059Y161778D01*
X150111Y161700D01*
X150166Y161623D01*
X150224Y161550D01*
X150284Y161478D01*
X150348Y161409D01*
X150414Y161343D01*
X150483Y161279D01*
X150555Y161219D01*
X150628Y161161D01*
X150705Y161106D01*
X150783Y161054D01*
X150863Y161006D01*
X150945Y160961D01*
X151029Y160919D01*
X151115Y160880D01*
X151202Y160845D01*
X151290Y160814D01*
X151379Y160786D01*
X151470Y160762D01*
X151561Y160741D01*
X151654Y160724D01*
X151746Y160711D01*
X151840Y160702D01*
X151933Y160696D01*
X152027Y160694D01*
X154356Y160694D01*
X170526Y143676D02*
X170526Y135294D01*
X172855Y143676D02*
X168198Y143676D01*
X159198Y143676D02*
X164786Y135294D01*
X159198Y135294D02*
X164786Y143676D01*
X154871Y143676D02*
X154871Y135294D01*
X154871Y143676D02*
X152543Y143676D01*
X152447Y143674D01*
X152351Y143668D01*
X152255Y143658D01*
X152160Y143644D01*
X152065Y143626D01*
X151972Y143605D01*
X151879Y143579D01*
X151787Y143550D01*
X151697Y143517D01*
X151608Y143480D01*
X151521Y143439D01*
X151435Y143395D01*
X151351Y143348D01*
X151270Y143297D01*
X151190Y143243D01*
X151113Y143185D01*
X151038Y143124D01*
X150966Y143061D01*
X150897Y142994D01*
X150830Y142925D01*
X150767Y142853D01*
X150706Y142778D01*
X150648Y142701D01*
X150594Y142621D01*
X150543Y142540D01*
X150496Y142456D01*
X150452Y142370D01*
X150411Y142283D01*
X150374Y142194D01*
X150341Y142104D01*
X150312Y142012D01*
X150286Y141920D01*
X150265Y141826D01*
X150247Y141731D01*
X150233Y141636D01*
X150223Y141540D01*
X150217Y141444D01*
X150215Y141348D01*
X150215Y137622D01*
X150217Y137528D01*
X150223Y137435D01*
X150232Y137341D01*
X150245Y137249D01*
X150262Y137156D01*
X150283Y137065D01*
X150307Y136974D01*
X150335Y136885D01*
X150366Y136796D01*
X150401Y136709D01*
X150440Y136624D01*
X150482Y136540D01*
X150527Y136458D01*
X150575Y136378D01*
X150627Y136300D01*
X150682Y136223D01*
X150740Y136150D01*
X150800Y136078D01*
X150864Y136009D01*
X150930Y135943D01*
X150999Y135879D01*
X151071Y135819D01*
X151144Y135761D01*
X151221Y135706D01*
X151299Y135654D01*
X151379Y135606D01*
X151461Y135561D01*
X151545Y135519D01*
X151631Y135480D01*
X151718Y135445D01*
X151806Y135414D01*
X151895Y135386D01*
X151986Y135362D01*
X152077Y135341D01*
X152170Y135324D01*
X152262Y135311D01*
X152356Y135302D01*
X152449Y135296D01*
X152543Y135294D01*
X154871Y135294D01*
X172855Y118276D02*
X172855Y109894D01*
X172855Y118276D02*
X170526Y118276D01*
X170431Y118274D01*
X170336Y118268D01*
X170242Y118259D01*
X170148Y118245D01*
X170054Y118228D01*
X169962Y118207D01*
X169870Y118182D01*
X169780Y118153D01*
X169690Y118121D01*
X169602Y118085D01*
X169516Y118045D01*
X169431Y118003D01*
X169348Y117956D01*
X169267Y117906D01*
X169189Y117853D01*
X169112Y117797D01*
X169038Y117738D01*
X168966Y117676D01*
X168897Y117611D01*
X168830Y117543D01*
X168767Y117473D01*
X168706Y117399D01*
X168648Y117324D01*
X168594Y117246D01*
X168542Y117166D01*
X168494Y117084D01*
X168450Y117001D01*
X168408Y116915D01*
X168371Y116828D01*
X168337Y116739D01*
X168306Y116649D01*
X168279Y116558D01*
X168256Y116466D01*
X168237Y116373D01*
X168222Y116279D01*
X168210Y116185D01*
X168202Y116090D01*
X168198Y115995D01*
X168198Y115901D01*
X168202Y115806D01*
X168210Y115711D01*
X168222Y115617D01*
X168237Y115523D01*
X168256Y115430D01*
X168279Y115338D01*
X168306Y115247D01*
X168337Y115157D01*
X168371Y115068D01*
X168408Y114981D01*
X168450Y114895D01*
X168494Y114812D01*
X168542Y114730D01*
X168594Y114650D01*
X168648Y114572D01*
X168706Y114497D01*
X168767Y114423D01*
X168830Y114353D01*
X168897Y114285D01*
X168966Y114220D01*
X169038Y114158D01*
X169112Y114099D01*
X169189Y114043D01*
X169267Y113990D01*
X169348Y113940D01*
X169431Y113893D01*
X169516Y113851D01*
X169602Y113811D01*
X169690Y113775D01*
X169780Y113743D01*
X169870Y113714D01*
X169962Y113689D01*
X170054Y113668D01*
X170148Y113651D01*
X170242Y113637D01*
X170336Y113628D01*
X170431Y113622D01*
X170526Y113620D01*
X170526Y113619D02*
X172855Y113619D01*
X163926Y109894D02*
X163926Y118276D01*
X161598Y118276D01*
X161502Y118274D01*
X161406Y118268D01*
X161310Y118258D01*
X161215Y118244D01*
X161120Y118226D01*
X161027Y118205D01*
X160934Y118179D01*
X160842Y118150D01*
X160752Y118117D01*
X160663Y118080D01*
X160576Y118039D01*
X160490Y117995D01*
X160406Y117948D01*
X160325Y117897D01*
X160245Y117843D01*
X160168Y117785D01*
X160093Y117724D01*
X160021Y117661D01*
X159952Y117594D01*
X159885Y117525D01*
X159822Y117453D01*
X159761Y117378D01*
X159703Y117301D01*
X159649Y117221D01*
X159598Y117140D01*
X159551Y117056D01*
X159507Y116970D01*
X159466Y116883D01*
X159429Y116794D01*
X159396Y116704D01*
X159367Y116612D01*
X159341Y116520D01*
X159320Y116426D01*
X159302Y116331D01*
X159288Y116236D01*
X159278Y116140D01*
X159272Y116044D01*
X159270Y115948D01*
X159270Y112222D01*
X159272Y112128D01*
X159278Y112035D01*
X159287Y111941D01*
X159300Y111849D01*
X159317Y111756D01*
X159338Y111665D01*
X159362Y111574D01*
X159390Y111485D01*
X159421Y111396D01*
X159456Y111309D01*
X159495Y111224D01*
X159537Y111140D01*
X159582Y111058D01*
X159630Y110978D01*
X159682Y110900D01*
X159737Y110823D01*
X159795Y110750D01*
X159855Y110678D01*
X159919Y110609D01*
X159985Y110543D01*
X160054Y110479D01*
X160126Y110419D01*
X160199Y110361D01*
X160276Y110306D01*
X160354Y110254D01*
X160434Y110206D01*
X160516Y110161D01*
X160600Y110119D01*
X160686Y110080D01*
X160773Y110045D01*
X160861Y110014D01*
X160950Y109986D01*
X161041Y109962D01*
X161132Y109941D01*
X161225Y109924D01*
X161317Y109911D01*
X161411Y109902D01*
X161504Y109896D01*
X161598Y109894D01*
X163926Y109894D01*
X154477Y114085D02*
X154475Y114250D01*
X154469Y114415D01*
X154459Y114579D01*
X154446Y114744D01*
X154428Y114908D01*
X154406Y115071D01*
X154381Y115234D01*
X154351Y115396D01*
X154318Y115558D01*
X154281Y115718D01*
X154240Y115878D01*
X154195Y116037D01*
X154147Y116194D01*
X154095Y116351D01*
X154039Y116506D01*
X153979Y116660D01*
X153916Y116812D01*
X153849Y116963D01*
X153779Y117112D01*
X153750Y117189D01*
X153718Y117265D01*
X153683Y117339D01*
X153643Y117411D01*
X153601Y117481D01*
X153555Y117549D01*
X153506Y117615D01*
X153453Y117679D01*
X153398Y117740D01*
X153340Y117798D01*
X153280Y117853D01*
X153216Y117906D01*
X153150Y117955D01*
X153082Y118001D01*
X153012Y118044D01*
X152940Y118084D01*
X152866Y118120D01*
X152791Y118152D01*
X152714Y118181D01*
X152636Y118206D01*
X152556Y118227D01*
X152476Y118245D01*
X152395Y118258D01*
X152313Y118268D01*
X152231Y118274D01*
X152149Y118276D01*
X152067Y118274D01*
X151985Y118268D01*
X151903Y118258D01*
X151822Y118245D01*
X151742Y118227D01*
X151662Y118206D01*
X151584Y118181D01*
X151507Y118152D01*
X151432Y118120D01*
X151358Y118084D01*
X151286Y118044D01*
X151216Y118001D01*
X151148Y117955D01*
X151082Y117906D01*
X151019Y117853D01*
X150958Y117798D01*
X150900Y117740D01*
X150845Y117679D01*
X150792Y117615D01*
X150743Y117549D01*
X150697Y117481D01*
X150655Y117411D01*
X150616Y117339D01*
X150580Y117265D01*
X150548Y117189D01*
X150519Y117112D01*
X150449Y116963D01*
X150382Y116812D01*
X150319Y116660D01*
X150259Y116506D01*
X150203Y116351D01*
X150151Y116194D01*
X150103Y116037D01*
X150058Y115878D01*
X150017Y115718D01*
X149980Y115558D01*
X149947Y115396D01*
X149917Y115234D01*
X149892Y115071D01*
X149870Y114908D01*
X149852Y114744D01*
X149839Y114579D01*
X149829Y114415D01*
X149823Y114250D01*
X149821Y114085D01*
X154478Y114085D02*
X154476Y113920D01*
X154470Y113755D01*
X154460Y113591D01*
X154447Y113426D01*
X154429Y113262D01*
X154407Y113099D01*
X154382Y112936D01*
X154352Y112774D01*
X154319Y112612D01*
X154282Y112451D01*
X154241Y112292D01*
X154196Y112133D01*
X154148Y111975D01*
X154096Y111819D01*
X154040Y111664D01*
X153980Y111510D01*
X153917Y111358D01*
X153850Y111207D01*
X153779Y111058D01*
X153750Y110981D01*
X153718Y110905D01*
X153682Y110831D01*
X153643Y110759D01*
X153601Y110689D01*
X153555Y110621D01*
X153506Y110555D01*
X153453Y110491D01*
X153398Y110430D01*
X153340Y110372D01*
X153280Y110317D01*
X153216Y110264D01*
X153150Y110215D01*
X153082Y110169D01*
X153012Y110126D01*
X152940Y110086D01*
X152866Y110050D01*
X152791Y110018D01*
X152714Y109989D01*
X152636Y109964D01*
X152556Y109943D01*
X152476Y109925D01*
X152395Y109912D01*
X152313Y109902D01*
X152231Y109896D01*
X152149Y109894D01*
X150520Y111058D02*
X150449Y111207D01*
X150382Y111358D01*
X150319Y111510D01*
X150259Y111664D01*
X150203Y111819D01*
X150151Y111975D01*
X150103Y112133D01*
X150058Y112292D01*
X150017Y112451D01*
X149980Y112612D01*
X149947Y112774D01*
X149917Y112936D01*
X149892Y113099D01*
X149870Y113262D01*
X149852Y113426D01*
X149839Y113591D01*
X149829Y113755D01*
X149823Y113920D01*
X149821Y114085D01*
X150519Y111058D02*
X150548Y110981D01*
X150580Y110905D01*
X150616Y110831D01*
X150655Y110759D01*
X150697Y110689D01*
X150743Y110621D01*
X150792Y110555D01*
X150845Y110491D01*
X150900Y110430D01*
X150958Y110372D01*
X151019Y110317D01*
X151082Y110264D01*
X151148Y110215D01*
X151216Y110169D01*
X151286Y110126D01*
X151358Y110086D01*
X151432Y110050D01*
X151507Y110018D01*
X151584Y109989D01*
X151662Y109964D01*
X151742Y109943D01*
X151822Y109925D01*
X151903Y109912D01*
X151985Y109902D01*
X152067Y109896D01*
X152149Y109894D01*
X154012Y111757D02*
X150287Y116413D01*
X145334Y109894D02*
X143005Y109894D01*
X142910Y109896D01*
X142815Y109902D01*
X142721Y109911D01*
X142627Y109925D01*
X142533Y109942D01*
X142441Y109963D01*
X142349Y109988D01*
X142259Y110017D01*
X142169Y110049D01*
X142081Y110085D01*
X141995Y110125D01*
X141910Y110167D01*
X141827Y110214D01*
X141746Y110264D01*
X141668Y110317D01*
X141591Y110373D01*
X141517Y110432D01*
X141445Y110494D01*
X141376Y110559D01*
X141309Y110627D01*
X141246Y110697D01*
X141185Y110771D01*
X141127Y110846D01*
X141073Y110924D01*
X141021Y111004D01*
X140973Y111086D01*
X140929Y111169D01*
X140887Y111255D01*
X140850Y111342D01*
X140816Y111431D01*
X140785Y111521D01*
X140758Y111612D01*
X140735Y111704D01*
X140716Y111797D01*
X140701Y111891D01*
X140689Y111985D01*
X140681Y112080D01*
X140677Y112175D01*
X140677Y112269D01*
X140681Y112364D01*
X140689Y112459D01*
X140701Y112553D01*
X140716Y112647D01*
X140735Y112740D01*
X140758Y112832D01*
X140785Y112923D01*
X140816Y113013D01*
X140850Y113102D01*
X140887Y113189D01*
X140929Y113275D01*
X140973Y113358D01*
X141021Y113440D01*
X141073Y113520D01*
X141127Y113598D01*
X141185Y113673D01*
X141246Y113747D01*
X141309Y113817D01*
X141376Y113885D01*
X141445Y113950D01*
X141517Y114012D01*
X141591Y114071D01*
X141668Y114127D01*
X141746Y114180D01*
X141827Y114230D01*
X141910Y114277D01*
X141995Y114319D01*
X142081Y114359D01*
X142169Y114395D01*
X142259Y114427D01*
X142349Y114456D01*
X142441Y114481D01*
X142533Y114502D01*
X142627Y114519D01*
X142721Y114533D01*
X142815Y114542D01*
X142910Y114548D01*
X143005Y114550D01*
X142540Y118276D02*
X145334Y118276D01*
X142540Y118276D02*
X142455Y118274D01*
X142371Y118268D01*
X142286Y118259D01*
X142203Y118245D01*
X142120Y118228D01*
X142037Y118207D01*
X141956Y118182D01*
X141876Y118154D01*
X141798Y118122D01*
X141721Y118086D01*
X141645Y118047D01*
X141572Y118005D01*
X141501Y117959D01*
X141431Y117910D01*
X141364Y117858D01*
X141300Y117803D01*
X141238Y117745D01*
X141178Y117685D01*
X141122Y117621D01*
X141068Y117556D01*
X141018Y117487D01*
X140971Y117417D01*
X140927Y117345D01*
X140886Y117270D01*
X140849Y117194D01*
X140815Y117116D01*
X140785Y117037D01*
X140758Y116956D01*
X140735Y116875D01*
X140716Y116792D01*
X140701Y116709D01*
X140689Y116625D01*
X140681Y116540D01*
X140677Y116455D01*
X140677Y116371D01*
X140681Y116286D01*
X140689Y116201D01*
X140701Y116117D01*
X140716Y116034D01*
X140735Y115951D01*
X140758Y115870D01*
X140785Y115789D01*
X140815Y115710D01*
X140849Y115632D01*
X140886Y115556D01*
X140927Y115482D01*
X140971Y115409D01*
X141018Y115339D01*
X141068Y115270D01*
X141122Y115205D01*
X141178Y115141D01*
X141238Y115081D01*
X141300Y115023D01*
X141364Y114968D01*
X141431Y114916D01*
X141501Y114867D01*
X141572Y114821D01*
X141645Y114779D01*
X141721Y114740D01*
X141798Y114704D01*
X141876Y114672D01*
X141956Y114644D01*
X142037Y114619D01*
X142120Y114598D01*
X142203Y114581D01*
X142286Y114567D01*
X142371Y114558D01*
X142455Y114552D01*
X142540Y114550D01*
X142540Y114551D02*
X144402Y114551D01*
X172855Y92876D02*
X172855Y84494D01*
X172855Y92876D02*
X170526Y92876D01*
X170431Y92874D01*
X170336Y92868D01*
X170242Y92859D01*
X170148Y92845D01*
X170054Y92828D01*
X169962Y92807D01*
X169870Y92782D01*
X169780Y92753D01*
X169690Y92721D01*
X169602Y92685D01*
X169516Y92645D01*
X169431Y92603D01*
X169348Y92556D01*
X169267Y92506D01*
X169189Y92453D01*
X169112Y92397D01*
X169038Y92338D01*
X168966Y92276D01*
X168897Y92211D01*
X168830Y92143D01*
X168767Y92073D01*
X168706Y91999D01*
X168648Y91924D01*
X168594Y91846D01*
X168542Y91766D01*
X168494Y91684D01*
X168450Y91601D01*
X168408Y91515D01*
X168371Y91428D01*
X168337Y91339D01*
X168306Y91249D01*
X168279Y91158D01*
X168256Y91066D01*
X168237Y90973D01*
X168222Y90879D01*
X168210Y90785D01*
X168202Y90690D01*
X168198Y90595D01*
X168198Y90501D01*
X168202Y90406D01*
X168210Y90311D01*
X168222Y90217D01*
X168237Y90123D01*
X168256Y90030D01*
X168279Y89938D01*
X168306Y89847D01*
X168337Y89757D01*
X168371Y89668D01*
X168408Y89581D01*
X168450Y89495D01*
X168494Y89412D01*
X168542Y89330D01*
X168594Y89250D01*
X168648Y89172D01*
X168706Y89097D01*
X168767Y89023D01*
X168830Y88953D01*
X168897Y88885D01*
X168966Y88820D01*
X169038Y88758D01*
X169112Y88699D01*
X169189Y88643D01*
X169267Y88590D01*
X169348Y88540D01*
X169431Y88493D01*
X169516Y88451D01*
X169602Y88411D01*
X169690Y88375D01*
X169780Y88343D01*
X169870Y88314D01*
X169962Y88289D01*
X170054Y88268D01*
X170148Y88251D01*
X170242Y88237D01*
X170336Y88228D01*
X170431Y88222D01*
X170526Y88220D01*
X170526Y88219D02*
X172855Y88219D01*
X164409Y92876D02*
X162546Y84494D01*
X160684Y90082D01*
X158821Y84494D01*
X156958Y92876D01*
X152200Y92876D02*
X152200Y84494D01*
X149406Y88219D02*
X152200Y92876D01*
X149406Y88219D02*
X146612Y92876D01*
X146612Y84494D01*
X172855Y67476D02*
X172855Y59094D01*
X172855Y67476D02*
X170526Y67476D01*
X170431Y67474D01*
X170336Y67468D01*
X170242Y67459D01*
X170148Y67445D01*
X170054Y67428D01*
X169962Y67407D01*
X169870Y67382D01*
X169780Y67353D01*
X169690Y67321D01*
X169602Y67285D01*
X169516Y67245D01*
X169431Y67203D01*
X169348Y67156D01*
X169267Y67106D01*
X169189Y67053D01*
X169112Y66997D01*
X169038Y66938D01*
X168966Y66876D01*
X168897Y66811D01*
X168830Y66743D01*
X168767Y66673D01*
X168706Y66599D01*
X168648Y66524D01*
X168594Y66446D01*
X168542Y66366D01*
X168494Y66284D01*
X168450Y66201D01*
X168408Y66115D01*
X168371Y66028D01*
X168337Y65939D01*
X168306Y65849D01*
X168279Y65758D01*
X168256Y65666D01*
X168237Y65573D01*
X168222Y65479D01*
X168210Y65385D01*
X168202Y65290D01*
X168198Y65195D01*
X168198Y65101D01*
X168202Y65006D01*
X168210Y64911D01*
X168222Y64817D01*
X168237Y64723D01*
X168256Y64630D01*
X168279Y64538D01*
X168306Y64447D01*
X168337Y64357D01*
X168371Y64268D01*
X168408Y64181D01*
X168450Y64095D01*
X168494Y64012D01*
X168542Y63930D01*
X168594Y63850D01*
X168648Y63772D01*
X168706Y63697D01*
X168767Y63623D01*
X168830Y63553D01*
X168897Y63485D01*
X168966Y63420D01*
X169038Y63358D01*
X169112Y63299D01*
X169189Y63243D01*
X169267Y63190D01*
X169348Y63140D01*
X169431Y63093D01*
X169516Y63051D01*
X169602Y63011D01*
X169690Y62975D01*
X169780Y62943D01*
X169870Y62914D01*
X169962Y62889D01*
X170054Y62868D01*
X170148Y62851D01*
X170242Y62837D01*
X170336Y62828D01*
X170431Y62822D01*
X170526Y62820D01*
X170526Y62819D02*
X172855Y62819D01*
X163926Y59094D02*
X163926Y67476D01*
X161598Y67476D01*
X161502Y67474D01*
X161406Y67468D01*
X161310Y67458D01*
X161215Y67444D01*
X161120Y67426D01*
X161027Y67405D01*
X160934Y67379D01*
X160842Y67350D01*
X160752Y67317D01*
X160663Y67280D01*
X160576Y67239D01*
X160490Y67195D01*
X160406Y67148D01*
X160325Y67097D01*
X160245Y67043D01*
X160168Y66985D01*
X160093Y66924D01*
X160021Y66861D01*
X159952Y66794D01*
X159885Y66725D01*
X159822Y66653D01*
X159761Y66578D01*
X159703Y66501D01*
X159649Y66421D01*
X159598Y66340D01*
X159551Y66256D01*
X159507Y66170D01*
X159466Y66083D01*
X159429Y65994D01*
X159396Y65904D01*
X159367Y65812D01*
X159341Y65720D01*
X159320Y65626D01*
X159302Y65531D01*
X159288Y65436D01*
X159278Y65340D01*
X159272Y65244D01*
X159270Y65148D01*
X159270Y61422D01*
X159272Y61328D01*
X159278Y61235D01*
X159287Y61141D01*
X159300Y61049D01*
X159317Y60956D01*
X159338Y60865D01*
X159362Y60774D01*
X159390Y60685D01*
X159421Y60596D01*
X159456Y60509D01*
X159495Y60424D01*
X159537Y60340D01*
X159582Y60258D01*
X159630Y60178D01*
X159682Y60100D01*
X159737Y60023D01*
X159795Y59950D01*
X159855Y59878D01*
X159919Y59809D01*
X159985Y59743D01*
X160054Y59679D01*
X160126Y59619D01*
X160199Y59561D01*
X160276Y59506D01*
X160354Y59454D01*
X160434Y59406D01*
X160516Y59361D01*
X160600Y59319D01*
X160686Y59280D01*
X160773Y59245D01*
X160861Y59214D01*
X160950Y59186D01*
X161041Y59162D01*
X161132Y59141D01*
X161225Y59124D01*
X161317Y59111D01*
X161411Y59102D01*
X161504Y59096D01*
X161598Y59094D01*
X163926Y59094D01*
X154477Y63285D02*
X154475Y63450D01*
X154469Y63615D01*
X154459Y63779D01*
X154446Y63944D01*
X154428Y64108D01*
X154406Y64271D01*
X154381Y64434D01*
X154351Y64596D01*
X154318Y64758D01*
X154281Y64918D01*
X154240Y65078D01*
X154195Y65237D01*
X154147Y65394D01*
X154095Y65551D01*
X154039Y65706D01*
X153979Y65860D01*
X153916Y66012D01*
X153849Y66163D01*
X153779Y66312D01*
X153750Y66389D01*
X153718Y66465D01*
X153683Y66539D01*
X153643Y66611D01*
X153601Y66681D01*
X153555Y66749D01*
X153506Y66815D01*
X153453Y66879D01*
X153398Y66940D01*
X153340Y66998D01*
X153280Y67053D01*
X153216Y67106D01*
X153150Y67155D01*
X153082Y67201D01*
X153012Y67244D01*
X152940Y67284D01*
X152866Y67320D01*
X152791Y67352D01*
X152714Y67381D01*
X152636Y67406D01*
X152556Y67427D01*
X152476Y67445D01*
X152395Y67458D01*
X152313Y67468D01*
X152231Y67474D01*
X152149Y67476D01*
X152067Y67474D01*
X151985Y67468D01*
X151903Y67458D01*
X151822Y67445D01*
X151742Y67427D01*
X151662Y67406D01*
X151584Y67381D01*
X151507Y67352D01*
X151432Y67320D01*
X151358Y67284D01*
X151286Y67244D01*
X151216Y67201D01*
X151148Y67155D01*
X151082Y67106D01*
X151019Y67053D01*
X150958Y66998D01*
X150900Y66940D01*
X150845Y66879D01*
X150792Y66815D01*
X150743Y66749D01*
X150697Y66681D01*
X150655Y66611D01*
X150616Y66539D01*
X150580Y66465D01*
X150548Y66389D01*
X150519Y66312D01*
X150449Y66163D01*
X150382Y66012D01*
X150319Y65860D01*
X150259Y65706D01*
X150203Y65551D01*
X150151Y65394D01*
X150103Y65237D01*
X150058Y65078D01*
X150017Y64918D01*
X149980Y64758D01*
X149947Y64596D01*
X149917Y64434D01*
X149892Y64271D01*
X149870Y64108D01*
X149852Y63944D01*
X149839Y63779D01*
X149829Y63615D01*
X149823Y63450D01*
X149821Y63285D01*
X154478Y63285D02*
X154476Y63120D01*
X154470Y62955D01*
X154460Y62791D01*
X154447Y62626D01*
X154429Y62462D01*
X154407Y62299D01*
X154382Y62136D01*
X154352Y61974D01*
X154319Y61812D01*
X154282Y61651D01*
X154241Y61492D01*
X154196Y61333D01*
X154148Y61175D01*
X154096Y61019D01*
X154040Y60864D01*
X153980Y60710D01*
X153917Y60558D01*
X153850Y60407D01*
X153779Y60258D01*
X153750Y60181D01*
X153718Y60105D01*
X153682Y60031D01*
X153643Y59959D01*
X153601Y59889D01*
X153555Y59821D01*
X153506Y59755D01*
X153453Y59691D01*
X153398Y59630D01*
X153340Y59572D01*
X153280Y59517D01*
X153216Y59464D01*
X153150Y59415D01*
X153082Y59369D01*
X153012Y59326D01*
X152940Y59286D01*
X152866Y59250D01*
X152791Y59218D01*
X152714Y59189D01*
X152636Y59164D01*
X152556Y59143D01*
X152476Y59125D01*
X152395Y59112D01*
X152313Y59102D01*
X152231Y59096D01*
X152149Y59094D01*
X150520Y60258D02*
X150449Y60407D01*
X150382Y60558D01*
X150319Y60710D01*
X150259Y60864D01*
X150203Y61019D01*
X150151Y61175D01*
X150103Y61333D01*
X150058Y61492D01*
X150017Y61651D01*
X149980Y61812D01*
X149947Y61974D01*
X149917Y62136D01*
X149892Y62299D01*
X149870Y62462D01*
X149852Y62626D01*
X149839Y62791D01*
X149829Y62955D01*
X149823Y63120D01*
X149821Y63285D01*
X150519Y60258D02*
X150548Y60181D01*
X150580Y60105D01*
X150616Y60031D01*
X150655Y59959D01*
X150697Y59889D01*
X150743Y59821D01*
X150792Y59755D01*
X150845Y59691D01*
X150900Y59630D01*
X150958Y59572D01*
X151019Y59517D01*
X151082Y59464D01*
X151148Y59415D01*
X151216Y59369D01*
X151286Y59326D01*
X151358Y59286D01*
X151432Y59250D01*
X151507Y59218D01*
X151584Y59189D01*
X151662Y59164D01*
X151742Y59143D01*
X151822Y59125D01*
X151903Y59112D01*
X151985Y59102D01*
X152067Y59096D01*
X152149Y59094D01*
X154012Y60957D02*
X150287Y65613D01*
X145334Y60957D02*
X143471Y67476D01*
X145334Y60957D02*
X140677Y60957D01*
X142074Y62819D02*
X142074Y59094D01*
X172008Y12951D02*
X173405Y12951D01*
X172008Y12951D02*
X172008Y8294D01*
X174802Y8294D01*
X174886Y8296D01*
X174969Y8302D01*
X175052Y8311D01*
X175135Y8324D01*
X175217Y8341D01*
X175298Y8361D01*
X175378Y8385D01*
X175457Y8413D01*
X175534Y8444D01*
X175610Y8478D01*
X175685Y8516D01*
X175758Y8558D01*
X175828Y8602D01*
X175897Y8650D01*
X175964Y8700D01*
X176028Y8754D01*
X176089Y8810D01*
X176149Y8870D01*
X176205Y8931D01*
X176259Y8995D01*
X176309Y9062D01*
X176357Y9131D01*
X176401Y9201D01*
X176443Y9274D01*
X176481Y9349D01*
X176515Y9425D01*
X176546Y9502D01*
X176574Y9581D01*
X176598Y9661D01*
X176618Y9742D01*
X176635Y9824D01*
X176648Y9907D01*
X176658Y9990D01*
X176663Y10073D01*
X176665Y10157D01*
X176665Y14813D01*
X176663Y14899D01*
X176657Y14985D01*
X176647Y15070D01*
X176633Y15155D01*
X176616Y15240D01*
X176594Y15323D01*
X176568Y15405D01*
X176539Y15486D01*
X176506Y15565D01*
X176470Y15643D01*
X176430Y15720D01*
X176386Y15794D01*
X176339Y15866D01*
X176289Y15936D01*
X176235Y16003D01*
X176179Y16068D01*
X176119Y16130D01*
X176057Y16190D01*
X175992Y16246D01*
X175925Y16300D01*
X175855Y16350D01*
X175783Y16397D01*
X175709Y16441D01*
X175632Y16481D01*
X175555Y16517D01*
X175475Y16550D01*
X175394Y16579D01*
X175312Y16605D01*
X175229Y16627D01*
X175144Y16644D01*
X175059Y16658D01*
X174974Y16668D01*
X174888Y16674D01*
X174802Y16676D01*
X172008Y16676D01*
X166911Y16676D02*
X166911Y8294D01*
X162254Y8294D02*
X166911Y16676D01*
X162254Y16676D02*
X162254Y8294D01*
X157157Y8294D02*
X157157Y16676D01*
X154829Y16676D01*
X154733Y16674D01*
X154637Y16668D01*
X154541Y16658D01*
X154446Y16644D01*
X154351Y16626D01*
X154258Y16605D01*
X154165Y16579D01*
X154073Y16550D01*
X153983Y16517D01*
X153894Y16480D01*
X153807Y16439D01*
X153721Y16395D01*
X153637Y16348D01*
X153556Y16297D01*
X153476Y16243D01*
X153399Y16185D01*
X153324Y16124D01*
X153252Y16061D01*
X153183Y15994D01*
X153116Y15925D01*
X153053Y15853D01*
X152992Y15778D01*
X152934Y15701D01*
X152880Y15621D01*
X152829Y15540D01*
X152782Y15456D01*
X152738Y15370D01*
X152697Y15283D01*
X152660Y15194D01*
X152627Y15104D01*
X152598Y15012D01*
X152572Y14920D01*
X152551Y14826D01*
X152533Y14731D01*
X152519Y14636D01*
X152509Y14540D01*
X152503Y14444D01*
X152501Y14348D01*
X152501Y10622D01*
X152503Y10528D01*
X152509Y10435D01*
X152518Y10341D01*
X152531Y10249D01*
X152548Y10156D01*
X152569Y10065D01*
X152593Y9974D01*
X152621Y9885D01*
X152652Y9796D01*
X152687Y9709D01*
X152726Y9624D01*
X152768Y9540D01*
X152813Y9458D01*
X152861Y9378D01*
X152913Y9300D01*
X152968Y9223D01*
X153026Y9150D01*
X153086Y9078D01*
X153150Y9009D01*
X153216Y8943D01*
X153285Y8879D01*
X153357Y8819D01*
X153430Y8761D01*
X153507Y8706D01*
X153585Y8654D01*
X153665Y8606D01*
X153747Y8561D01*
X153831Y8519D01*
X153917Y8480D01*
X154004Y8445D01*
X154092Y8414D01*
X154181Y8386D01*
X154272Y8362D01*
X154363Y8341D01*
X154456Y8324D01*
X154548Y8311D01*
X154642Y8302D01*
X154735Y8296D01*
X154829Y8294D01*
X157157Y8294D01*
X172855Y33694D02*
X172855Y42076D01*
X168198Y33694D01*
X168198Y42076D01*
X163072Y33694D02*
X159347Y33694D01*
X163072Y33694D02*
X163072Y42076D01*
X159347Y42076D01*
X160278Y38351D02*
X163072Y38351D01*
X153762Y42076D02*
X153762Y33694D01*
X156091Y42076D02*
X151434Y42076D01*
X147223Y42076D02*
X147223Y33694D01*
X143497Y33694D01*
X139132Y33694D02*
X139132Y42076D01*
X140063Y33694D02*
X138201Y33694D01*
X138201Y42076D02*
X140063Y42076D01*
X133840Y42076D02*
X133840Y33694D01*
X129184Y33694D02*
X133840Y42076D01*
X129184Y42076D02*
X129184Y33694D01*
X123871Y33694D02*
X123871Y42076D01*
X119214Y42076D02*
X123871Y36954D01*
X122008Y38816D02*
X119214Y33694D01*
M02*
