M48
;GenerationSoftware,Autodesk,EAGLE,9.6.2*%
;CreationDate,2022-08-11T19:10:53Z*%
FMAT,2
ICI,OFF
METRIC,TZ,000.000
T2C0.300
T1C1.016
%
G90
M71
T1
X1143Y21463
X18923Y6223
X18923Y8763
X18923Y11303
X18923Y13843
X18923Y16383
X18923Y18923
X18923Y21463
X18923Y24003
X18923Y26543
X18923Y29083
X18923Y31623
X1143Y1143
X1143Y3683
X1143Y6223
X1143Y8763
X1143Y11303
X1143Y13843
X1143Y16383
X1143Y18923
X18923Y34163
X1143Y24003
X1143Y26543
X1143Y29083
X1143Y31623
X1143Y34163
X18923Y1143
X18923Y3683
T2
X4953Y31877
X4953Y30607
X4953Y29337
X4953Y28067
X4953Y26797
X4953Y25527
X4953Y24257
X15367Y29337
X15240Y25527
X15367Y28067
X8255Y23749
X4953Y33147
M30