M48
;GenerationSoftware,Autodesk,EAGLE,9.6.2*%
;CreationDate,2022-08-13T07:32:59Z*%
FMAT,2
ICI,OFF
METRIC,TZ,000.000
T2C0.300
T1C1.016
%
G90
M71
T1
X1143Y31623
X1143Y34163
X18923Y1143
X18923Y3683
X18923Y6223
X18923Y8763
X1143Y29083
X18923Y11303
X18923Y13843
X18923Y16383
X18923Y18923
X18923Y21463
X18923Y24003
X18923Y26543
X18923Y31623
X18923Y34163
X6223Y1143
X8763Y1143
X11303Y1143
X13843Y1143
X1143Y13843
X1143Y1143
X1143Y3683
X1143Y6223
X1143Y8763
X1143Y11303
X18923Y29083
X1143Y16383
X1143Y18923
X1143Y21463
X1143Y24003
X1143Y26543
T2
X16891Y20955
X16891Y23241
X4953Y21082
X4318Y7747
X4953Y9779
X9144Y8763
X4953Y31877
X4953Y30607
X4953Y29337
X4953Y28067
X4953Y26797
X4953Y25527
X6350Y25527
X16002Y21209
X15367Y9779
X15367Y29337
X15240Y25527
X4953Y17272
X15367Y28067
X8255Y23749
X4953Y33147
M30